<?xml version="1.0" encoding="utf-8"?>
<!-- Generator: Adobe Illustrator 16.0.0, SVG Export Plug-In . SVG Version: 6.00 Build 0)  -->
<!DOCTYPE svg PUBLIC "-//W3C//DTD SVG 1.1//EN" "http://www.w3.org/Graphics/SVG/1.1/DTD/svg11.dtd">
<svg version="1.1" id="Layer_1" xmlns="http://www.w3.org/2000/svg" xmlns:xlink="http://www.w3.org/1999/xlink" x="0px" y="0px"
	 width="400px" height="400px" viewBox="0 0 400 400" enable-background="new 0 0 400 400" xml:space="preserve">
<path fill="#0054B1" stroke="#1E3087" stroke-width="2" stroke-miterlimit="10" d="M6.209,353.458c0,0-8.376,12.042,3.791,25.542
	c0,0,8.875,10.25,30.688,9.938c0,0,18.5-0.438,35.688-15.812"/>
<path fill="#FFDE08" stroke="#000000" stroke-miterlimit="10" d="M236,237.75c0,0-15.75,3.75-16.25-15c0,0-1.25-13.5,6.25-22
	c0,0,5-5.75,17-2"/>
<path fill="#FFDE08" stroke="#000000" stroke-miterlimit="10" d="M340.25,252.75c0,0,16.25,0.5,18.25-18.5c0,0,1-11.75-3.25-16.5
	c0,0-5.25-7.5-15-5.5"/>
<path fill="#FFDE08" stroke="#000000" stroke-miterlimit="10" d="M330.75,285.5c0,0,8.75-11,11.25-37c0,0,3.75-25.5-0.75-59.5
	c0,0-6-42-25.25-58.25c0,0-22-8.5-29.75-4.75c0,0-68.75,54.25-50,154.5L271,296l37.5,2.5L330.75,285.5z"/>
<path fill="#0A1B1F" d="M286.502,132c-6.977,0.76-14.5-9-14.5-9c-5.5-6.167-12.002-5-12.002-5s4.502-4.167,11.502-2.667
	c0,0-3.834-4.5-2.334-11.667c0,0,4.667,8.5,9.667,8.667c0,0,5.249-5.166-10.5-15c0,0,7-2.667,15,4.333c0,0-1.585-9.416,4.5-14.833
	c0,0-0.5,9.333,5,12c0,0,3.165,0.751,5.667-7.5c0,0,1.834-5.499-1.666-12.333c0,0,11.666,2.084,11.083,18.418
	c0,0,8.663-11.918,18.997-8.418c0,0-10.75,5-10.833,13.5c0,0,0.003,3,4.586-0.833c0,0,2.667-2.583,7.917-2.917
	c0,0,6.248-0.25,9.333-3.5c0,0,0.25,7.167-8.5,18.917c0,0,2.168,2.167,12.751-6.75c0,0,1.666,4.582-9.084,13.082
	c0,0,12.582,1,13.499,4.25c0,0-0.25,8-14.583,10.5c0,0-21.417,2.75-25.084-4.333c0,0-9.166,6.917-12.333-1
	C294.585,129.917,290.336,131.582,286.502,132z"/>
<path fill="#0A1B1F" d="M255.002,175.167c0,0-0.5-3.5,4-7.833c0,0,58.833-0.833,71,8.667c0,0,1.5,2.5,1,7.167
	C331.002,183.167,298.002,174,255.002,175.167z"/>
<path fill="#12373E" d="M258.501,170.583c0,0,0.416-1.791,1.083-2.291c0,0,54.416,0.208,68.416,7.375V177
	C328,177,314.001,169.5,258.501,170.583z"/>
<path fill="#12373E" d="M303.67,105.167c0,0-1.501,6.833,3.166,11.833c0,0,2.667,3.667,2.167,7.667
	C309.003,124.667,315.17,115.667,303.67,105.167z"/>
<path fill="#12373E" d="M312.836,126c0,0,2.167-5.833,12.167-7.333c0,0-4.086,1.5-5.5,3.5
	C319.503,122.167,317.67,125.333,312.836,126z"/>
<path fill="#12373E" d="M288.5,112.25c0,0,0.25,5.125,6.375,7.25C294.875,119.5,290.125,112.25,288.5,112.25z"/>
<path fill="#12373E" d="M279.25,117.375c0,0,1.75,3.125,6.625,4.5c0,0,3.875,1,5.875,3.375c0,0-2-5.5-7.625-6.125
	C284.125,119.125,281.375,118.875,279.25,117.375z"/>
<path fill="#12373E" d="M269.25,97.25c0,0,6.625-2.375,13.625,4.25c0,0-2.875,0.625-4.875-0.75
	C278,100.75,273.5,97.125,269.25,97.25z"/>
<path fill="#12373E" d="M307.919,97.418c0,0,7.706-10.043,17.081-8.918c0,0-7.5-0.25-12,6.125
	C313,94.625,310.5,98.875,307.919,97.418z"/>
<path fill="#12373E" d="M329.334,131.333c0,0,1.062-3,8.5-3.667c0,0,5.666,0.667,8.5-3
	C346.334,124.667,341.862,133.75,329.334,131.333z"/>
<path fill="none" stroke="#000000" stroke-width="1.5" stroke-miterlimit="10" d="M242.334,254c0,0-1.668-5.333-0.334-8.333"/>
<path fill="none" stroke="#000000" stroke-width="1.5" stroke-miterlimit="10" d="M241.669,249.667c0,0,10.666,6.833,43.666,9.167
	c0,0,30.834,1.167,48.334-1.833"/>
<path fill="none" stroke="#000000" stroke-width="1.5" stroke-miterlimit="10" d="M332.169,260.5c0,0,2-2.333,1.833-7.833"/>
<g>
	
		<image overflow="visible" opacity="0.15" width="54" height="67" xlink:href="36659D696BFD03F0.png"  transform="matrix(1 0 0 1 260.6797 205.6802)">
	</image>
	<g>
		
			<ellipse transform="matrix(0.9957 0.0921 -0.0921 0.9957 22.7933 -25.4778)" fill="#F78429" cx="287.434" cy="234.213" rx="20.909" ry="27.334"/>
		
			<ellipse transform="matrix(0.9957 0.0921 -0.0921 0.9957 22.7933 -25.4778)" fill="none" stroke="#C06822" stroke-width="2.5" stroke-miterlimit="10" cx="287.434" cy="234.213" rx="20.909" ry="27.334"/>
	</g>
</g>
<ellipse transform="matrix(0.9958 0.0921 -0.0921 0.9958 22.3843 -25.4589)" fill="#FF9A42" cx="287.057" cy="229.82" rx="17.049" ry="22.275"/>
<ellipse transform="matrix(0.9984 0.0566 -0.0566 0.9984 12.6402 -16.0259)" fill="#FFB65A" cx="289.375" cy="215.243" rx="6.624" ry="4.5"/>
<ellipse fill="#FFFFFF" stroke="#000000" stroke-miterlimit="10" cx="271" cy="199.25" rx="17" ry="16.75"/>
<ellipse fill="#FFFFFF" stroke="#000000" stroke-miterlimit="10" cx="313" cy="204.25" rx="17" ry="16.75"/>
<radialGradient id="SVGID_1_" cx="271.6484" cy="199.6982" r="16.11" gradientTransform="matrix(0.9816 0.0182 0.0182 1.0519 0.5737 -15.9442)" gradientUnits="userSpaceOnUse">
	<stop  offset="0" style="stop-color:#FFFFFF"/>
	<stop  offset="0.5942" style="stop-color:#FDFDFD"/>
	<stop  offset="0.808" style="stop-color:#F6F6F6"/>
	<stop  offset="0.9601" style="stop-color:#EBEBEB"/>
	<stop  offset="1" style="stop-color:#E6E6E6"/>
</radialGradient>
<path fill="url(#SVGID_1_)" d="M286.762,195.199c2.128,8.745-3.271,17.566-12.062,19.703c-8.789,2.136-17.635-3.222-19.76-11.967
	c-2.126-8.745,3.273-17.565,12.062-19.703C275.793,181.096,284.638,186.454,286.762,195.199z"/>
<radialGradient id="SVGID_2_" cx="314.3633" cy="203.7139" r="16.1092" gradientTransform="matrix(0.9816 0.0182 0.0182 1.0519 0.5737 -15.9442)" gradientUnits="userSpaceOnUse">
	<stop  offset="0" style="stop-color:#FFFFFF"/>
	<stop  offset="0.5942" style="stop-color:#FDFDFD"/>
	<stop  offset="0.808" style="stop-color:#F6F6F6"/>
	<stop  offset="0.9601" style="stop-color:#EBEBEB"/>
	<stop  offset="1" style="stop-color:#E6E6E6"/>
</radialGradient>
<path fill="url(#SVGID_2_)" d="M328.762,200.199c2.128,8.745-3.271,17.566-12.062,19.703c-8.789,2.136-17.635-3.222-19.76-11.967
	c-2.126-8.745,3.273-17.565,12.062-19.703C317.793,186.096,326.638,191.454,328.762,200.199z"/>
<ellipse cx="271.75" cy="199.25" rx="5.75" ry="6.25"/>
<ellipse cx="311.375" cy="204" rx="5.58" ry="6.001"/>
<polygon fill="#FFFFFF" points="246.5,300.5 243.5,309 278,350 309,320.5 315,306 "/>
<path fill="#FFDE08" d="M88.25,372.425c0,0,30.5,17.729,74,0.845l-2.5-31.52L95.5,353.288L88.25,372.425z"/>
<polygon fill="#FFFFFF" points="114.75,324.25 113.5,336.125 145.625,337.5 171,326.125 195.5,320.5 202.125,311.875 
	181.875,302.25 155.25,315.25 "/>
<path fill="#E31D2A" stroke="#1E3087" stroke-width="2" stroke-miterlimit="10" d="M171.542,269.875c0,0,45.032,7.016,63.627,35.485
	l-9.317,5.307c0,0-22.948-27.524-53.918-33.371L171.542,269.875z"/>
<path fill="#FFDE08" d="M172.834,275.916c0,0,33.166,7.834,50.916,31.084l-5.375,2.625c0,0-16.875-18.75-48-27.625L172.834,275.916z
	"/>
<path fill="#015EB5" d="M111.125,308.375c0,0,38.125,8.5,60.5-27.75c0,0,44.125,16.5,47.5,32.125l-17.875,4.375
	c0,0-6.916-11.458-20.5-11.125c0,0-5.709-0.208-13.062,8.312c0,0-14.104,17.437-51.562,11.312L111.125,308.375z"/>
<path fill="#E31D2A" d="M192.671,318.75c-8.589-11.416-15.38-2.291-15.38-2.291c-25.166,27.854-60.621,18.208-60.621,18.208
	l-19.92,20.208l0.25,6.75c0,0,43.125,6.875,64.25-8.125L192.671,318.75z"/>
<path fill="#FF6944" stroke="#1A5377" stroke-width="2" stroke-miterlimit="10" d="M234.5,300.249c0,0-67.917,25.542-74.917,43.875
	c0,0-3.958,13.875-1.25,32.875H169c0,0-1.669-27.417,8.665-36.417c0,0,45.085-26.958,54.835-26.708
	C232.5,313.875,236.5,304.248,234.5,300.249z"/>
<path fill="#015EB8" d="M232,310.5c0,0-55.5,19-62.75,37.5c0,0-2.25,10.625-1.25,27.25l10.75-0.25c0,0-1.5-26.25,13-34.75
	c0,0,32-15,39-16C230.75,324.25,236.75,310.5,232,310.5z"/>
<path opacity="0.15" fill="#FFFF87" d="M163,340.5c0,0-4.5,5.5-1.5,7c0,0,0.75,2,13.75-7.5c0,0,32.75-17.75,56.75-25.5
	c0,0,7-11,0.75-12.75C232.75,301.75,180,320.75,163,340.5z"/>
<polygon fill="#E31D2A" points="214.168,343.75 214.835,359.917 229.335,363.583 232.918,349.667 226.918,339.667 "/>
<path fill="#FFDE08" d="M205.375,374.875c0,0-13.625-14.75-3.5-25c0,0,10.292-5.958,16.625,3.5c0,0,6.25,8.875,16.5,8.875l-5.499,10
	C229.501,372.25,225.415,377.333,205.375,374.875z"/>
<path fill="#FF6944" stroke="#1A5377" stroke-width="2" stroke-miterlimit="10" d="M229.375,331.125c0,0-35.125,14.25-38.625,22.375
	c0,0-1.75,19.5-1.125,23l12.625,0.25c0,0,3-16.25,1.625-18.375c0,0-3.25-3.125-1-4.375c0,0,15.75-9.25,25.25-11.25
	C228.125,342.75,234,336.625,229.375,331.125z"/>
<path fill="#92CE68" d="M229.75,332.375c4.922-1.831,0.875-10.625,0.875-10.625s-37.125,11.5-49.375,27c0,0-4.125,7.875-3.25,27.375
	l13.375-0.375c0,0-0.625-20.625,3.375-24.375C194.75,351.375,208.25,340.375,229.75,332.375z"/>
<linearGradient id="SVGID_3_" gradientUnits="userSpaceOnUse" x1="204.0361" y1="374.7114" x2="189.274" y2="357.1186">
	<stop  offset="0" style="stop-color:#2E3192"/>
	<stop  offset="0.3177" style="stop-color:#303393;stop-opacity:0.6823"/>
	<stop  offset="0.4887" style="stop-color:#363B95;stop-opacity:0.5113"/>
	<stop  offset="0.6248" style="stop-color:#404999;stop-opacity:0.3752"/>
	<stop  offset="0.7425" style="stop-color:#4E5C9E;stop-opacity:0.2575"/>
	<stop  offset="0.8483" style="stop-color:#6175A5;stop-opacity:0.1517"/>
	<stop  offset="0.9442" style="stop-color:#7794AD;stop-opacity:0.0558"/>
	<stop  offset="1" style="stop-color:#87A9B3;stop-opacity:0"/>
</linearGradient>
<path opacity="0.3" fill="url(#SVGID_3_)" d="M203.334,354.167c0,0-13.334-0.917-15.584,5.083c-3.237,8.632,1.25,17.25,1.25,17.25
	l13.5-0.5C202.5,376,205.667,358.333,203.334,354.167z"/>
<path fill="#015EB8" stroke="#1A5377" stroke-width="2" stroke-miterlimit="10" d="M226.501,377c0,0,2.666-60.25,7.5-76.083
	c0,0,7.165,0.583,7.165,5.916c0,0,1.002,33.167-1.665,70.167H226.501z"/>
<polygon fill="#92CE68" points="237.833,375.5 240.395,312.333 250.209,317.167 249.78,376 "/>
<path fill="#FF6943" d="M261.447,374.048l0.262-39.999l-12.395-11.283c0,0,1.1,7.177-0.167,52L261.447,374.048z"/>
<polygon fill="#015EB8" points="271,375 271,348 260.691,338.332 260.25,374 "/>
<polygon fill="#92CE68" points="271,352.962 271,372.301 281.938,372.968 281.74,367.191 "/>
<path fill="#92CE68" d="M271.006,373.489l-0.031-20.861l10.859-2.925c0,0,2.084,3.631,0.023,24.339L271.006,373.489z"/>
<path fill="#FF6944" stroke="#1A5377" stroke-width="2" stroke-miterlimit="10" d="M320.333,307.5c0,0,53.334,9.333,74.667,42.833
	c0,0,4,18.5,1.5,25.833l-10.251-0.834c0,0-3.75-26.667-11.25-32.5c0,0-33.416-19.333-41.999-19.833l-13.083-1.417
	C319.917,321.583,317.831,307.833,320.333,307.5z"/>
<path fill="#015EB8" d="M320.589,317.5c0,0,38.167,5.917,58.659,27.416c0,0,8.423,10.251,8.082,30.415l-12.169-1.167
	c0,0-26.001-36.583-35.667-38.25l-17.75-7.583L320.589,317.5z"/>
<path fill="#FF6944" stroke="#1A5377" stroke-width="2" stroke-miterlimit="10" d="M322.575,336.831c0,0,52.092,6.336,40.167,37.917
	l-10.25-0.417c0,0-6.5-23-28.583-26.917L322.575,336.831z"/>
<path fill="#92CE68" d="M375.496,374.58c0,0,0.759-19.414-13.407-30.914c0,0-14.336-12.583-41.096-15.92l2.424,10.504
	c0,0,12.169,1.249,21.002,6.833c0,0,19.096,10.75,17.587,28.667L375.496,374.58z"/>
<path opacity="0.15" fill="#FFFF87" d="M386.503,341.333c0,0,7.049,6.658,4.196,8.017c0,0-0.714,1.811-13.077-6.792
	c0,0-27.452-17.891-54.952-22.891c0,0-7.111-9.415-1.167-11C321.503,308.667,366.836,318.5,386.503,341.333z"/>
<linearGradient id="SVGID_4_" gradientUnits="userSpaceOnUse" x1="335.6045" y1="361.042" x2="353.0015" y2="340.3091">
	<stop  offset="0" style="stop-color:#2E3192"/>
	<stop  offset="0.1588" style="stop-color:#373D95;stop-opacity:0.8412"/>
	<stop  offset="0.4444" style="stop-color:#4E5C9E;stop-opacity:0.5556"/>
	<stop  offset="0.8215" style="stop-color:#738FAC;stop-opacity:0.1785"/>
	<stop  offset="1" style="stop-color:#87A9B3;stop-opacity:0"/>
</linearGradient>
<path opacity="0.3" fill="url(#SVGID_4_)" d="M352.837,375.501c0,0,11.663-7.001,13.502-24.001c0,0-26.002-9.833-41.833-13.833
	l-0.167,9C324.339,346.667,345.333,351.167,352.837,375.501z"/>
<path fill="#FF6944" stroke="#1A5377" stroke-width="2" stroke-miterlimit="10" d="M315.998,374.052
	c-1.583-20.637-0.581-51.352-0.581-51.352l8.916-12.947c0,0,3.167,25.265,5,64.98L315.998,374.052z"/>
<path fill="#92CE68" d="M305.121,371.815l-0.207-34.92l11.912-14.09c0,0-1.049-6.012,0.1,49.889L305.121,371.815z"/>
<polygon fill="#015EB8" points="293.25,375.313 292.25,351.231 305.086,337 305.371,373.841 "/>
<polygon fill="#FF6943" points="293.125,350.688 293.334,374.257 281.972,374.968 281.562,356.812 "/>
<g>
	
		<image overflow="visible" opacity="0.45" width="102" height="73" xlink:href="36659D696BFD03F1.png"  transform="matrix(1 0 0 1 228.6797 296.6802)">
	</image>
	<g>
		<path fill="#92CE68" d="M283.25,358.254c13.588-8.739,37-41.833,37-41.833c4.5-5.083,4.167-8,4.167-8
			c-0.916-5.417-8.501,1.75-8.501,1.75c-24.75,28.667-35.165,34.415-35.165,34.415c-10.583-6.417-30.085-33.417-30.085-33.417
			c-7.583-11.25-11.5-12.752-11.5-12.752s-4.581-0.83-4.581,3.92c0,0-0.086,3.081,3.5,8.414c0,0,22.585,34.586,42.749,48.75
			C280.834,359.501,280.917,359.754,283.25,358.254z"/>
		<path fill="none" stroke="#578B30" stroke-width="2" stroke-linecap="round" stroke-linejoin="round" stroke-miterlimit="10" d="
			M283.25,358.254c13.588-8.739,37-41.833,37-41.833c4.5-5.083,4.167-8,4.167-8c-0.916-5.417-8.501,1.75-8.501,1.75
			c-24.75,28.667-35.165,34.415-35.165,34.415c-10.583-6.417-30.085-33.417-30.085-33.417c-7.583-11.25-11.5-12.752-11.5-12.752
			s-4.581-0.83-4.581,3.92c0,0-0.086,3.081,3.5,8.414c0,0,22.585,34.586,42.749,48.75
			C280.834,359.501,280.917,359.754,283.25,358.254z"/>
	</g>
</g>
<g>
	
		<image overflow="visible" opacity="0.45" width="104" height="39" xlink:href="36659D696BFD03F7.png"  transform="matrix(1 0 0 1 230.6797 286.6802)">
	</image>
	<g>
		<path fill="#FFFFFF" d="M328.875,296.75c-2,10.625-16.5,15.625-16.5,15.625c-29.5,9-55.5-1.875-55.5-1.875
			c-9.875-4.375-15.75-9.375-15.75-9.375c-8.375-7.5-4.625-12.5-4.625-12.5l44.5,9.5"/>
		<path fill="none" stroke="#85A8B2" stroke-miterlimit="10" d="M328.875,296.75c-2,10.625-16.5,15.625-16.5,15.625
			c-29.5,9-55.5-1.875-55.5-1.875c-9.875-4.375-15.75-9.375-15.75-9.375c-8.375-7.5-4.625-12.5-4.625-12.5l44.5,9.5"/>
	</g>
</g>
<path fill="#FFFFFF" stroke="#87A9B3" stroke-miterlimit="10" d="M250,297.625c-11.185-4.75-15.912-12.375-15.912-12.375
	c-2.963-5.875,1.174-8.083,1.174-8.083C246.854,286.125,262.899,292,262.899,292c18.237,6.5,46.079,2.75,46.079,2.75
	c14.588-2.333,24.192-12.875,24.192-12.875s3.161,2.375,0.729,8.5c0,0-3.767,9.625-21.638,13"/>
<path fill="#FF931E" stroke="#000000" stroke-miterlimit="10" d="M169.833,204.782c0,0,2.726-13.452,15.667-13.282
	c0,0,19.751,0.852,19.581,22.477c0,0-0.249,8.106-5.789,12.43c0,0-9.024,6.982-16.347,3.236"/>
<path fill="#FF931E" stroke="#000000" stroke-miterlimit="10" d="M49,226.75c0,0-5.999-9.083-17.582-4.25
	c0,0-15.168,6.168-9.501,26.251c0,0,5.25,18.584,22.083,8.583"/>
<path fill="#E31D2A" stroke="#1E3087" stroke-width="2" stroke-miterlimit="10" d="M17.667,344.833
	c21.833-39,53.771-51.333,53.771-51.333l6.188,1.75L79,300.625l-13.667,4.208c-10.208,9.667-36.708,37.542-36.708,37.542
	L17.667,344.833z"/>
<path fill="#FFDE08" d="M27.125,342.25c0,0,13.625-21.125,23.75-30.5c0,0,8.958-8.5,17.04-7.416L64,316.25
	c0,0-5.291-2.584-13.219,3.938c0,0-6.531,7.438-16.906,24.062L27.125,342.25z"/>
<path fill="#015EB5" d="M34.417,342.75c0,0,11.334-25.083,28.333-29.083l-5.085,15.417l-15,14.833L34.417,342.75z"/>
<g>
	
		<image overflow="visible" opacity="0.55" width="151" height="93" xlink:href="36659D696BFD03F2.png"  transform="matrix(1 0 0 1 55.4004 246.3999)">
	</image>
	<g>
		<path fill="#FCD039" d="M71.625,286.75l-0.624,5.917c0,0,16.093,21.083,48.843,18.583c0,0,41.241,0.166,55.49-35.917l-2.209-9.708
			c0,0-18.5,27.375-53.625,31.875C119.5,297.5,98,300.875,71.625,286.75z"/>
		<path fill="none" stroke="#D75A22" stroke-miterlimit="10" d="M71.625,286.75l-0.624,5.917c0,0,16.093,21.083,48.843,18.583
			c0,0,41.241,0.166,55.49-35.917l-2.209-9.708c0,0-18.5,27.375-53.625,31.875C119.5,297.5,98,300.875,71.625,286.75z"/>
	</g>
</g>
<g>
	
		<image overflow="visible" opacity="0.25" width="157" height="132" xlink:href="36659D696BFD03F3.png"  transform="matrix(1 0 0 1 35.6797 174.6802)">
	</image>
	<g>
		<path fill="#FF931E" d="M73.125,187.5c0,0-35.375,36.125-32.25,62.375c0,0,1.625,32.5,56.625,45.375c0,0,29.75,9,59.75-14.75
			c0,0,35.75-27.5,28.25-57.75c0,0-2.625-12.25-13.25-21.5c0,0-10.875-10-25.625-15.5l-22.75-10.5L73.125,187.5z"/>
		<path fill="none" stroke="#000000" stroke-miterlimit="10" d="M73.125,187.5c0,0-35.375,36.125-32.25,62.375
			c0,0,1.625,32.5,56.625,45.375c0,0,29.75,9,59.75-14.75c0,0,35.75-27.5,28.25-57.75c0,0-2.625-12.25-13.25-21.5
			c0,0-10.875-10-25.625-15.5l-22.75-10.5L73.125,187.5z"/>
	</g>
</g>
<radialGradient id="SVGID_5_" cx="89.585" cy="218.416" r="15.0576" gradientUnits="userSpaceOnUse">
	<stop  offset="0" style="stop-color:#FFFFFF"/>
	<stop  offset="0.5942" style="stop-color:#FDFDFD"/>
	<stop  offset="0.808" style="stop-color:#F6F6F6"/>
	<stop  offset="0.9601" style="stop-color:#EBEBEB"/>
	<stop  offset="1" style="stop-color:#E6E6E6"/>
</radialGradient>
<path fill="url(#SVGID_5_)" stroke="#000000" stroke-miterlimit="10" d="M103.638,208.833c3.986,5.844,0.925,14.872-6.837,20.165
	c-7.762,5.292-17.285,4.844-21.27-1c-3.984-5.844-0.924-14.873,6.838-20.165C90.131,202.541,99.654,202.989,103.638,208.833z"/>
<radialGradient id="SVGID_6_" cx="130.25" cy="211.083" r="15.3913" gradientUnits="userSpaceOnUse">
	<stop  offset="0" style="stop-color:#FFFFFF"/>
	<stop  offset="0.5942" style="stop-color:#FDFDFD"/>
	<stop  offset="0.808" style="stop-color:#F6F6F6"/>
	<stop  offset="0.9601" style="stop-color:#EBEBEB"/>
	<stop  offset="1" style="stop-color:#E6E6E6"/>
</radialGradient>
<path fill="url(#SVGID_6_)" stroke="#000000" stroke-miterlimit="10" d="M147.119,215.413c-1.791,6.981-10.796,10.701-20.111,8.309
	c-9.317-2.393-15.417-9.99-13.626-16.969c1.794-6.979,10.798-10.7,20.113-8.307C142.812,200.836,148.912,208.435,147.119,215.413z"
	/>
<ellipse fill="#E31D2A" stroke="#C51219" stroke-width="1.5" stroke-miterlimit="10" cx="114" cy="235.833" rx="18.5" ry="18.167"/>
<ellipse transform="matrix(0.99 -0.1412 0.1412 0.99 -31.8063 18.3822)" opacity="0.8" fill="#FB2632" cx="113.62" cy="233.302" rx="16.559" ry="14.691"/>
<ellipse transform="matrix(0.9948 -0.1022 0.1022 0.9948 -22.4069 12.6636)" opacity="0.8" fill="#FD7A58" cx="112.333" cy="224.916" rx="6.5" ry="4.25"/>
<path d="M87.585,214.5c0,0-2.166,2.917,1,6.5c0,0,2.833,3.667,8-0.5c0,0,3.25-3,0.834-6.667
	C97.419,213.833,92.999,208.001,87.585,214.5z"/>
<path d="M126.999,215.417c0,0,3.899,0.052,4.589-4.68c0,0,0.661-5.07-5.551-5.783c0,0-4.39-0.542-5.627,3.671
	C120.41,208.626,118.832,215.334,126.999,215.417z"/>
<path fill="none" stroke="#000000" stroke-miterlimit="10" d="M50.5,246c0,0-2.25,4.5-0.25,11"/>
<path fill="#FB2632" stroke="#000000" stroke-linecap="square" stroke-linejoin="bevel" stroke-miterlimit="10" d="M164.75,235.625
	c0,0-2.75,35.375-38.75,46.875c0,0-14,4.25-29.375-1c0,0-19.625-7.25-31.375-25.125c0,0,14.25,3.75,37.25,3
	c0,0,23.125-0.5,38.375-7.75C140.875,251.625,155.625,245.625,164.75,235.625z"/>
<path fill="none" stroke="#000000" stroke-miterlimit="10" d="M170.625,220.625c0,0,3.75,2.25,5.375,7.5"/>
<path fill="#FC81A6" stroke="#C51219" stroke-linecap="square" stroke-linejoin="bevel" stroke-miterlimit="10" d="M99.625,259.75
	c0,0,2.875,16.25,21.375,14c0,0,19.125-1.5,16.625-20.75C137.625,253,126.25,258.625,99.625,259.75z"/>
<path fill="#FC81A6" stroke="#C51219" stroke-width="2.5" stroke-linecap="round" stroke-linejoin="bevel" stroke-miterlimit="10" d="
	M119.375,258.375c0,0,0.25,3.625,1.25,5"/>
<path fill="none" stroke="#000000" stroke-miterlimit="10" d="M49.5,251.75c0,0,31.875,14,77.5,4.5c0,0,31.5-7,47.125-32.125"/>
<path opacity="0.15" d="M66.375,257.125c0,0,6.125,13,21.875,13c0,0,11.125,0.375,21.25-3.125c0,0,12-4.375,21.125-3.25
	c0,0,10.375,1.625,20-5.875c0,0,14.125-10.875,13.25-21.125C163.875,236.75,133.625,268.625,66.375,257.125z"/>
<path d="M106.417,191.083c-24.501-11.584-30.918,9.166-30.918,9.166c-4.5,10.333-12.999,12.584-12.999,12.584
	c11.834-14,4.5-19.667,4.5-19.667C65.667,200,58.833,206.5,58.833,206.5c-11.667,9.667-26,3-26,3s15.499-0.166,18.333-8.333
	c0,0-13.667,0.833-18.5-8.667c0,0,16.417,7.333,24.584-6.25c0,0-14.75,0.25-17.917-8.583c0,0,10.168,3.833,17.667-1
	c0,0,3.418-2.584-2.416-5.083c0,0-3.917-1.583-8.751-0.583c0,0,7.083-9.083,28.417-8.167c0,0-0.832-11.333-11.499-12.333
	c0,0,9.75-6.917,25.166,3.499c0,0-4.583-14.583,2.5-21.5c0,0-0.332,14.417,6.835,18.75c0,0-0.834-5.417,4.083-9.833
	c0,0,4.668-4.083,10.834-6.667c0,0-11.75,11.916-6.417,18.833c0,0,3.749-5.084,11.749-7.167c0,0,5.666-1.083,8.916-4.75
	c0,0,2.5-2.917,3.834-7.083c0,0,5.833,8.833-3.167,22.917c0,0,3.25-2.5,10.167-3c0,0,5.666,0.167,8.666-7.333
	c0,0,2.001,8.583-1.832,13.666c0,0,5.75,2.5,10.417-3.75c0,0,0.751,3.75-2.833,8.833c0,0,0.244,2.46,6.83,0.376
	c0,0,4.419-1.543,6.003-5.293c0,0,1.039,9.293-11.919,11.001c0,0,0.249,2.876,5.249,3.418c0,0,2.5,0.292,6.042-0.833
	c0,0,6.458-2.542,8.666,3.708c0,0-8.375-1.875-15.585,5.417c0,0,2.211,3.667,13.627,1.25c0,0-4.29,5.582-21.748,4.707
	c0,0-7.294-0.625-13.252-3.958c0,0-6.456-3.667-14.499-3.042C121.083,182.667,112.501,182.667,106.417,191.083"/>
<path fill="#12373E" d="M113,176c0,0,3.249-7.75,10.647-7.286c0,0,9.769,0.952,13.852-2.965c0,0-1.362,4.141-11.75,5.75
	C125.749,171.5,117.762,172.527,113,176z"/>
<path fill="#12373E" d="M99.251,176.25c0,0-3.166-4.167-13.666-2.417c0,0-8.084,1.333-11.917-0.333c0,0,5.75,0.5,11.667-1.917
	C85.335,171.583,98.834,167.416,99.251,176.25z"/>
<path fill="#12373E" d="M97.835,180.333c0,0-1.833-4.334-10-0.167C87.835,180.166,95.335,178.333,97.835,180.333z"/>
<path fill="#12373E" d="M107.75,157.688c0,0-2.75-4.188,3.375-7.438c0,0,3.458-1.833,8.75-3c0,0,7.625-1.167,9.375-8.25
	c0,0,1.625,8.25-7.875,12.25c0,0-7.458,3.333-8.125,9.375C113.25,160.625,109.583,160.521,107.75,157.688z"/>
<path fill="#12373E" d="M40.835,178.5c0,0,5.666,3.667,15.002-0.917C55.837,177.583,52.085,186.583,40.835,178.5z"/>
<path fill="#12373E" d="M64.25,211c0,0,6.625-6.875,5.5-16.5c0,0-0.5-4.375,1.875-4.75C71.625,189.75,75.25,203.25,64.25,211z"/>
<path fill="#12373E" d="M35.25,193.5c0,0,11.188,3.5,18.562-3C53.812,190.5,49.5,202.25,35.25,193.5z"/>
<path fill="#12373E" d="M96.75,155.375c0,0-8.812-4.625-6.438-19.688c0,0-0.833,9.833,6.229,15.896
	C96.542,151.583,99.083,154.208,96.75,155.375z"/>
<path fill="#12373E" d="M154.751,176.667c0,0,2.905,3.615,8.917,0.083c0,0,4.801-3.312,8.551,1.062c0,0-2.938-5.531-8.188-3.094
	c0,0-5.625,3.156-8.062,1.844C155.969,176.562,154.5,175.719,154.751,176.667z"/>
<line opacity="0.6" fill="#EABF40" stroke="#D75A22" stroke-linecap="round" stroke-miterlimit="10" x1="80.257" y1="293.333" x2="79.014" y2="299.125"/>
<line opacity="0.6" fill="#EABF40" stroke="#D75A22" stroke-linecap="round" stroke-miterlimit="10" x1="128.165" y1="297.417" x2="130.665" y2="308.167"/>
<line opacity="0.6" fill="#EABF40" stroke="#D75A22" stroke-linecap="round" stroke-miterlimit="10" x1="142.832" y1="292.667" x2="146.998" y2="302.833"/>
<line opacity="0.6" fill="#EABF40" stroke="#D75A22" stroke-linecap="round" stroke-miterlimit="10" x1="155.498" y1="285.5" x2="160.498" y2="294"/>
<line opacity="0.6" fill="#EABF40" stroke="#D75A22" stroke-linecap="round" stroke-miterlimit="10" x1="165.332" y1="277.083" x2="169.248" y2="283.333"/>
<g>
	
		<image overflow="visible" opacity="0.65" width="112" height="108" xlink:href="36659D696BFD03FE.png"  transform="matrix(1 0 0 1 32.4004 282.3999)">
	</image>
	<g>
		<path fill="#FF931E" d="M114.333,316.251c0,0,5.667,3.499,5.167,12.499c0,0-0.5,13.625-13.75,23.875c0,0-9,7.5-23.75,6.625
			c0,0-19.875-1.875-27-20.5c0,0-2.75-7.875,1-20.375c0,0,6-19.5,22-20.75c0,0,6.5-0.458,6.75,6.542"/>
		<path fill="none" stroke="#000000" stroke-miterlimit="10" d="M114.333,316.251c0,0,5.667,3.499,5.167,12.499
			c0,0-0.5,13.625-13.75,23.875c0,0-9,7.5-23.75,6.625c0,0-19.875-1.875-27-20.5c0,0-2.75-7.875,1-20.375c0,0,6-19.5,22-20.75
			c0,0,6.5-0.458,6.75,6.542"/>
	</g>
</g>
<path fill="#FF931E" stroke="#000000" stroke-miterlimit="10" d="M99.083,320.667c4.417-10.667,5.583-16.915,5.583-16.915
	c3.25-17.249-4.416-17.834-4.416-17.834c-6-0.625-9,8.5-9,8.5c-5.417,13.333-16.125,15.958-16.125,15.958"/>
<path fill="#FF931E" stroke="#000000" stroke-miterlimit="10" d="M108.5,331.334c0,0,6.75-6.833,5.667-17.75
	c0,0-0.334-9.917-9.167-11.333c0,0-1.5,9.166-5.917,18.416"/>
<path fill="#FFFFFF" d="M11.666,347.583c0,0,8.165,10.583,32.499,8.667l12.002,11.418c0,0-33.5,13.667-49.335-14.168
	C6.832,353.499,9.332,347.666,11.666,347.583z"/>
<path fill="#E31D2A" d="M11.331,347.5c0,0,4.417,12.083,32.167,9.75L42.331,343C42.331,343,24.665,336.749,11.331,347.5z"/>
<path fill="none" stroke="#1E3087" stroke-width="2" stroke-miterlimit="10" d="M44.331,342.833c0,0-37.249-9.667-40.997,20.083"/>
<path fill="#FCD039" stroke="#D75A22" stroke-miterlimit="10" d="M54.125,328c0,0-8.957-0.5-12.957,13.167c0,0-4,14.667,10,23.833
	c0,0,16.582,11.125,33.5,7.333c0,0,14.957-2.833,15.833-16c0,0-17.751,8.667-34.626-2.958C65.875,353.375,51.375,344.875,54.125,328
	z"/>
<path opacity="0.6" fill="none" stroke="#D75A22" stroke-linecap="round" stroke-miterlimit="10" d="M45.562,348.438
	c0,0,1.875-4.188,6.5-4.938"/>
<path opacity="0.6" fill="none" stroke="#D75A22" stroke-linecap="round" stroke-miterlimit="10" d="M51.125,360.438
	c0,0,0.375-7.25,6.875-8.688"/>
<path opacity="0.6" fill="none" stroke="#D75A22" stroke-linecap="round" stroke-miterlimit="10" d="M60.572,367.205
	c0,0,0.197-6.272,4.605-9.034"/>
<path opacity="0.6" fill="none" stroke="#D75A22" stroke-linecap="round" stroke-miterlimit="10" d="M76.125,371.125
	c0,0-1.75-3.875,0.625-8.375"/>
<path opacity="0.6" fill="none" stroke="#D75A22" stroke-linecap="round" stroke-miterlimit="10" d="M90.438,367.5
	c0,0-2.312-1.5-1.812-4.625"/>
</svg>
