<?xml version="1.0" encoding="utf-8"?>
<!-- Generator: Adobe Illustrator 16.0.0, SVG Export Plug-In . SVG Version: 6.00 Build 0)  -->
<!DOCTYPE svg PUBLIC "-//W3C//DTD SVG 1.1//EN" "http://www.w3.org/Graphics/SVG/1.1/DTD/svg11.dtd">
<svg version="1.1" id="Layer_1" xmlns="http://www.w3.org/2000/svg" xmlns:xlink="http://www.w3.org/1999/xlink" x="0px" y="0px"
	 width="400px" height="504px" viewBox="0 0 400 504" enable-background="new 0 0 400 504" xml:space="preserve">
<g id="_x38_ow0tx_1_" display="none">
	
		<image display="inline" overflow="visible" width="202" height="400" id="_x38_ow0tx" xlink:href="867FE8D38C8A1043.png"  transform="matrix(1.2792 0 0 1.2792 69.5039 0)">
	</image>
</g>
<path fill="#FFDE08" stroke="#000000" stroke-miterlimit="10" d="M295.125,158.875c0,0,8,2.375,9.375-11.125
	c0,0,0.125-5.375,4.375-9.5c0,0,8.125-8,4.812-11.875c0,0-1.938-2.5-8.875,4.062c0,0-3.812,3.938-5.938,1.562
	c0,0-1.875-3,0.5-11.625c0,0,1.938-6.188-3.125-5.938c0,0-5,0-8.812,14.375c0,0-2.375,9.875-10.5,3.562
	c0,0-6.938-6.125-10.375-2.438c0,0-2.75,2.75,4.688,8.875c0,0,7.125,5.312,2.25,14.875L295.125,158.875z"/>
<path fill="#FFDE08" stroke="#000000" stroke-miterlimit="10" d="M303.75,237.334c0,0,12.667-0.417,11.833-12.5
	c0,0-0.333-6.083-4.667-10.667c0,0,11.334-1.25,10.167-8.416c0,0-0.583-5.667-7.833-3.917c0,0,8.333-4.25,7.333-14.083
	c0,0-1.083-2-3,2.167c0,0-1.666,3.666-4.833,2.416c0,0-1.25-1.917,0.75-4.833c0,0,8.167-10.167-9.083-21.417
	c0,0,5.417-3.334,1.75-7.75c0,0-4.604-5.709-13.104-0.771c0,0,0.188-5.938-5.438-4.5c0,0-3.562,1.125-4.5,4.688
	c0,0,0.438-11-16.688-7.938c0,0-8.625,1.625-6.812,13.75c0,0-5.25-4.062-6.562-0.812c0,0-1.812,4.688,1.875,11.188
	c0,0-7.25-6.688-10.062-4.188c0,0-1.688,1.25-0.5,3.688c0,0,3,4.375,2.25,8.125c0,0-0.75,5.188-9.938,5.625L232.875,206l52.5,60.75
	l13.75-15.625L303.75,237.334z"/>
<path fill="#FFDE08" stroke="#000000" stroke-miterlimit="10" d="M94.333,286.833c0,0,8.166-16.333,29.833-1.167"/>
<path fill="#FFDE08" stroke="#000000" stroke-miterlimit="10" d="M94.5,308c0,0,4.667,2.167,5.5,11.333c0,0-0.334,12.5,13.333,16
	c0,0,9.5,1.167,13.333,11.167c0,0,6.667,13.833,24.667,2.5"/>
<path fill="#FFDE08" stroke="#000000" stroke-miterlimit="10" d="M144.333,343.333c0,0,10.667,15.167,22,3.5"/>
<path fill="#FFDE08" d="M225.165,171.999l3.833,6.667l27.252,35.084l24,40.5l11.5,27L287,308.5l-18.5,27.25L247.25,357
	l-63.917-3.833c-19,3-17.333-10-17.333-10s2.665,4.833-5.001,6.833l-32.667-8.667l-28-27.333l-18-7L107,283.667l17.167,1.667
	l23.501-46.334l9.413-17.902l2.587-15.598"/>
<path fill="#F78429" stroke="#EF4943" stroke-width="1.5" stroke-miterlimit="10" d="M262.082,473.584
	c13.833,8.667,9.5,17.417,9.5,17.417c-5.917,12.998-24.167,4-24.167,4c-11.5-4.833-24.168-6.584-24.168-6.584
	c-15.417-2.917-15-15.332-15-15.332c-1.083-7.75,4.75-13.084,4.75-13.084c7.334-7.834,10-14.417,10-14.417c4.583-6,4.75-26,4.75-26
	c2.5-13.333,1-26.75,1-26.75c0.917-19.333-4.417-24.083-4.417-24.083l26.501-3.83c0,0,5.834-1.583,4.667,22.417
	c0,0,2.5,21.001-1,27.917c0,0,2.417,1.166-2.417,28.999c0,0,5.585,2.333,13.667,8.75c0,0,4.251,4.083,13.334,2.917
	c0,0,15.835-3,18.585,15c0,0,2.167,10.58-8.833,10.414c0,0-1.5,11.917-17.083,9.417"/>
<path fill="#EF8EB5" stroke="#E73793" stroke-width="2" stroke-miterlimit="10" d="M222.75,361.375c0,0-7,7,3.125,9.625
	c0,0,18.75,4.625,29.25-5.5c0,0,5.75-5.375-1.75-11.5"/>
<path fill="#FFDE08" stroke="#000000" stroke-miterlimit="10" d="M246.438,357.062c0,0,21.688,5.5,22.125-11.375
	c0,0,4.062,4.812,9.188-0.875c0,0,4.5-5.062,2.562-11.812c0,0,8.375,7.062,5.625-5.062c0,0,10.812-0.75,12.125-4.812
	c0,0,1.188-2.5-8.875-4.75c0,0,8-4.312,7.062-10.875c0,0-0.562-5.938-4.125-8.25c0,0,11.125,1.583-0.042-7.083
	c0,0,7.5-6.667,5.417-14.167c0,0-1.083-3.167-5.333-1.251c0,0,8-10.333-4.167-19"/>
<path fill="#F78429" stroke="#EF4943" stroke-width="1.5" stroke-miterlimit="10" d="M127.5,467.75c0,0-16.5,1.875-15.25,13.5
	c0,0,3.25,26.375,58-6.75"/>
<path fill="#F78429" stroke="#EF4943" stroke-width="1.5" stroke-miterlimit="10" d="M142,473.5
	c-10,2.375-12.625,11.125-12.625,11.125c-4.25,13.75,11.25,13.5,11.25,13.5c28.875,0,48.875-18.375,48.875-18.375
	c9.75-10.875,3.5-18,3.5-18c-3.75-5.375-4.25-14.5-4.25-14.5c1-21.125,4.875-24.375,4.875-24.375c0.625-13.125,5.625-27,5.625-27
	C203.875,383,211.125,368,211.125,368l-28.875-3.375c0,0-3.75,7.75-8.125,24.125c0,0-9.5,13.125-14.375,57.375
	c0,0-12.375-1.875-19,2c0,0-6.875,4-16.625,4.125c0,0-20.25-1.75-20.75,14.5c0,0-0.75,9.25,9.25,10c0,0,1.5-7,15.75-9.25"/>
<path fill="#EF8EB5" stroke="#E73793" stroke-width="2" stroke-miterlimit="10" d="M182.75,355.75c0,0-6.75,2.75-4.5,6.875
	c0,0,6.5,12.25,30.375,10.5c0,0,9.75-0.125,5.375-11.625"/>
<path fill="#FFDE08" stroke="#000000" stroke-miterlimit="10" d="M180.5,352.333c0,0,1.667,12.584,10.333,6.834
	c0,0,2.25,5.25,8.417,4.917c0,0,3.563-0.146,5.167-3.25c0,0,5.583,5.25,12.75,4.167c0,0,8.334-1,11.146-6.75
	c0,0-2.312,6.625,3.25,6.688c0,0,3.812,0.375,6.625-4.062c0,0,6.375,7,11.312,1.5c0,0,4.438-4.312-3.188-10.5"/>
<path fill="#FFDE08" stroke="#000000" stroke-width="0.75" stroke-miterlimit="10" d="M156.166,338.5c0,0,5.5,8,15,5.167"/>
<path fill="#FFDE08" stroke="#000000" stroke-miterlimit="10" d="M87.25,307.75c0,0,4.083-3.583,8.917,0.917
	c0,0,6.167,6.333-4.167,11.833c0,0-8.333,3.834-13-6.833c0,0-4.833-10.167,2.167-21.167c0,0,4.477-6.715,13.006-7.296
	c0.485-0.033,0.982-0.046,1.494-0.037c0,0,9.5,0.167,14.333,4.5"/>
<path fill="#FFDE08" stroke="#000000" stroke-miterlimit="10" d="M296.083,255.301c0,0,8.584,2.37,10.167-7.296
	c0,0,1.5-8.244-2.5-13.173"/>
<path fill="#FFDE08" stroke="#F78429" stroke-miterlimit="10" d="M286.083,255.999c0,0,4.083,6,8.083,4.417
	c0,0,4.167-2.083,3.083-7.917"/>
<path fill="#FFDE08" stroke="#000000" stroke-miterlimit="10" d="M270.875,231.5c0,0,12.25,4.875,5.875,12.875
	c0,0,7.375,2.25,9.5-1.375"/>
<path fill="#FFDE08" stroke="#000000" stroke-miterlimit="10" d="M261.375,226.125c8.125-2.75,6.25-8.75,6.25-8.75
	c-2.5-8.25-15-9.375-15-9.375c5.125-3.5,4.75-8.375,4.75-8.375c-13.625,4.125-14.938-3.938-14.938-3.938
	s-1.438-19.562-16.562-18.875c0,0,7.938-1.5,6-5.438c0,0-2.312-5.125-10.312-3.5c0,0,6.312-5.062,1.125-6.188
	c0,0-3.812-0.562-7.625,2.875c0,0,3.688-9.125-5.375-13.938c0,0,6.375-1.188,3.229-3.958c0,0-1.292-1.229-4.75-0.417
	c0,0-3.792,1-4.25-3.333c0,0,5.208-1.229,3.771-5.417c0,0-2.5-8.312-13.5-9.75L171.331,127l-13.833,8.833c0,0,5,10-1.5,16
	c0,0,1.836,1.667,5.252,0.251c0,0-5.5,8-1.583,11.167c0,0,3.334,2.417,3,7.083c0,0-0.166,4-3,6c0,0-3.582,2.583-0.999,5.333
	c0,0,3.666,3,7.333-0.5c0,0-0.813,3.957-5,6.75c0,0-3.75,2.145-2.813,6.02c0,0,1.063,4.563,7.48,1.563c0,0-12.584,5.917-12,13.75
	c0,0-0.292,2.687,2.083,4.812c0,0,3.75,2.938-1.5,4.25c0,0-7.625,1.312,3.062,5.812c0,0-13.229-0.209-5.729,7.708
	c0,0-18-1.5-8.667,21.417"/>
<path fill="#FFDE08" stroke="#000000" stroke-width="0.75" stroke-miterlimit="10" d="M111,264.5c0,0-7.583-2.166-5.833-10.916
	c0,0-6.417,4.833-3.417,11.583c0,0,4.375,7.623,14.125,1.831"/>
<path fill="none" stroke="#000000" stroke-width="0.5" stroke-miterlimit="10" d="M126.5,281.5c0,0-6.042-0.585-7-8.833
	c0,0-0.5-5.877-8.5-8.167"/>
<path fill="#FFDE08" stroke="#000000" stroke-miterlimit="10" d="M147.583,249.168c0,0-12.333-1.833-17.25,6.25
	c0,0-4.833,7.333,2.667,8.917c0,0-9.663-1.003-9.997,6.164c0,0,5.58-1.497,7.663,0.17c0,0-15.831,6.497-2.334,22.75"/>
<path fill="#FFDE08" stroke="#000000" stroke-miterlimit="10" d="M122.165,293.168c0,0-0.25,6.167,7.5,7.917
	c0,0-7.25,1.583-3.417,7.667c0,0,3.5,5.5,10.667,1.667"/>
<path fill="#FFDE08" stroke="#000000" stroke-miterlimit="10" d="M135.248,317.669c0,0,7.167,15.333,17.417,6.833
	c0,0-1.583,5.333,2.333,6.5c0,0,2.583,0.667,3.25-3.5c0,0,5.583,9.667,13.333,5.5c0,0,4.583-2.417-1.083-7.833
	c0,0,10.335,10.997,14.668,2.414c0,0,9.5,4,16-4.583c0,0,3.417-4.083,3.25-9.25c0,0,1.666,4.667,5.333,4.167
	c0,0,3.166-0.167,3.167-4.5c0,0,0.166-4.333-3.084-6.25c0,0-2.167-1.25-4.833-1"/>
<path fill="#FFDE08" stroke="#000000" stroke-miterlimit="10" d="M212.415,305.583c0,0,11.084-4.667,10.25-14.917
	c0,0-0.583-5.917-8.583-3.083c0,0,12.667-3.666,6.25-13.166"/>
<path fill="#FFDE08" stroke="#000000" stroke-miterlimit="10" d="M216.333,272.165c0,0,9.833-1,7.417-8c0,0-2.584-6.167-9.667-6.667
	"/>
<path fill="#FFDE08" stroke="#000000" stroke-miterlimit="10" d="M200,254c0,0,1,5.667,10.499,6.665c0,0,14.167-0.083,16.583-10.083
	c0,0,3.917,2.667,9.5,1.083c0,0,4.75-1.333,5.583-5.25c0,0-4.75-0.833-7.667-4.583c0,0-3.5-4.833-9.833-4.917
	c0,0,14.666,1.583,13.666-15.917c0,0-5.333,4.75-11.833,3.667c0,0-6.167-1-9.417,4.333"/>
<path fill="#FFDE08" stroke="#000000" stroke-miterlimit="10" d="M223.249,227.331c0,0,2.333-6.583-1.333-11.417
	c0,0-0.333,5.083-6.917,7.417c0,0-10.917,2-14.25,15.333"/>
<path fill="#FFDE08" stroke="#000000" stroke-miterlimit="10" d="M195.167,232.167c0,0-14.417-6-19.917,7
	c0,0,1.583-6.667-2.167-8.75c0,0-4.083-1.916-6.917,4.667c0,0-2.583,6.667-1.083,11.5c0,0-1.667-6-8-6c0,0,2.833,5.916-2.167,8.583"
	/>
<path fill="none" stroke="#000000" stroke-width="0.75" stroke-miterlimit="10" d="M177.171,180.829c0,0-5.5-2.833-0.333-14.333
	c0,0-4,0.667-4.333-4.333"/>
<path fill="#FFDE08" stroke="#000000" stroke-miterlimit="10" d="M190.625,131.75c0,0,13.125-2.375,21.75-17.375"/>
<path fill="#FFDE08" stroke="#000000" stroke-miterlimit="10" d="M202.125,118.75c0,0,9.438,3.375,14.812-5.375
	c0,0,3.562-5.312-4.062-6.25c0,0,5.875-1.062,8.875-7.5c0,0,2-4-3.875-6.625"/>
<path fill="#FFDE08" stroke="#000000" stroke-miterlimit="10" d="M217.125,95.938c0,0,8.062-4.875,6.438-12.906
	c0,0-0.562-5.688-9.125-4.906c0,0,3.781-3.25,2.531-9.781c0,0-0.438-3.562-4.656-5.438c0,0,2.938-2.062,0.969-8.531
	c0,0-1.531-4.469-5.656,1.719c0,0,2.812-12.031-10.438-11.031c0,0,6.562-3.688,2.188-6.312c0,0-7-3.125-13.5,6.25"/>
<path fill="none" stroke="#000000" stroke-width="0.75" stroke-miterlimit="10" d="M180.001,33c0,0,3.915-12.749-3.001-17.083"/>
<path fill="none" stroke="#000000" stroke-width="0.75" stroke-miterlimit="10" d="M183.812,31.562c0,0,5.438-10.062,10.594-8.906"
	/>
<path fill="#FFDE08" stroke="#000000" stroke-miterlimit="10" d="M189,44c0,0,2-9.75-4.333-14c0,0-6-3.583-12.083,7.25"/>
<path fill="#FFDE08" stroke="#000000" stroke-miterlimit="10" d="M177.667,39.417c0,0-4.667-13.25-14-11.25
	c0,0-4.417,1.5-4.417,8.583c0,0-4.312-4.563-9.688-1.251c0,0-4.438,2.125-4.5,10.25"/>
<path fill="#FFDE08" stroke="#000000" stroke-miterlimit="10" d="M146.25,43.75c0,0-12.19-5.09-12,8.375c0,0-3.5-4.188-7.375-0.562
	c0,0-3.5,3.062-1.75,12.438c0,0-7.625-3.188-8.938,5.75c0,0-1.104,5.75,2.979,9.833c0,0-13.917,6.167,1.167,22"/>
<path fill="none" d="M150.125,82.875c0,0-35.125,19.125-41.75,18.875"/>
<polygon fill="#FFDE08" points="158.833,136.833 198,127.5 209,117 218,91.167 185.167,38.333 144.333,44.833 120.333,94.667 
	127,116.667 "/>
<path fill="#FFDE08" stroke="#000000" stroke-miterlimit="10" d="M128.667,117.667c0,0-2.75,9.334,10.083,9.917
	c0,0,9.25,0.917,9.916-9.583"/>
<path fill="#FFDE08" stroke="#000000" stroke-miterlimit="10" d="M123.5,111c0,0-0.917,8.75,9.667,8.917"/>
<path fill="#FFDE08" stroke="#000000" stroke-miterlimit="10" d="M151.25,134.25c0,0,6.75,7.5,18.75,3.5"/>
<path fill="#FFDE08" stroke="#000000" stroke-width="0.75" stroke-miterlimit="10" d="M170.75,140c0,0,6.083,0.667,8-3.833"/>
<path fill="#FFDE08" stroke="#000000" stroke-width="0.75" stroke-miterlimit="10" d="M146.836,109.166c0,0-9.5,16.333-12.75,25.833
	c0,0-2.584,8,5.083,8.25c0,0,7.583,1.5,19.25-12.083c0,0,5.5-5.667,11.917-8.917c0,0,13.832-8.167,10.832-19.083
	c0,0-3.417-10.833-14.083-17.833L152,81"/>
<path fill="#EF4943" d="M168.417,107.25c0,0-0.001,4.587-11.251,16.335c0,0-3,3-9.417,10.583c0,0-4.75,5.667-8.083,3.583
	c0,0-1.583-1.417,0.251-6.418c0,0,7.499-17.248,13.417-23.416"/>
<path fill="#F7ADC7" d="M154.083,110.252c0,0-7.874,7.582-7.291,16.54c0,0,0.25,4.292,6.75-3.25c0,0,6.25-7.542,9.958-15.542"/>
<path fill="#FFDE08" stroke="#000000" stroke-width="0.75" stroke-miterlimit="10" d="M150.25,82.375c0,0-34,20-48.812,20.312
	c0,0-8.25-0.25-5.375,6c0,0,1.375,5,32.312,4.375c0,0,45.375-0.375,47-8.75"/>
<radialGradient id="SVGID_1_" cx="161.8804" cy="79.2627" r="9.4134" gradientUnits="userSpaceOnUse">
	<stop  offset="0" style="stop-color:#FFFFFF"/>
	<stop  offset="0.5942" style="stop-color:#FDFDFD"/>
	<stop  offset="0.808" style="stop-color:#F6F6F6"/>
	<stop  offset="0.9601" style="stop-color:#EBEBEB"/>
	<stop  offset="1" style="stop-color:#E6E6E6"/>
</radialGradient>
<path fill="url(#SVGID_1_)" d="M169,85.979c-3.391,3.653-9.356,3.629-13.325-0.055c-3.969-3.684-4.112-9.425-1.046-13.284
	c3.1-3.902,9.356-3.629,13.325,0.055S172.391,82.327,169,85.979z"/>
<radialGradient id="SVGID_2_" cx="144.3125" cy="77.3125" r="9.0723" gradientUnits="userSpaceOnUse">
	<stop  offset="0" style="stop-color:#FFFFFF"/>
	<stop  offset="0.5942" style="stop-color:#FDFDFD"/>
	<stop  offset="0.808" style="stop-color:#F6F6F6"/>
	<stop  offset="0.9601" style="stop-color:#EBEBEB"/>
	<stop  offset="1" style="stop-color:#E6E6E6"/>
</radialGradient>
<path fill="url(#SVGID_2_)" d="M153.483,75.083c1.133,4.662-2.054,9.439-7.119,10.671c-5.065,1.231-10.089-1.551-11.222-6.213
	s2.054-9.439,7.119-10.671C147.326,67.64,152.35,70.421,153.483,75.083z"/>
<path fill="none" stroke="#CCCCCC" stroke-width="0.75" stroke-miterlimit="10" d="M136.125,81.625c0,0,2.292,4.458,8.167,4.458
	c0,0,5.625,0.333,8.708-5.458c0,0,0.542,6.501,7.5,7.875c0,0,8.188,1.625,10.688-6.875"/>
<path fill="#F56E78" d="M153,71.25c-1.624-2.667-5.041-3.708-5.041-3.708c-5.938-1.438-10.5,3.667-10.5,3.667
	c-4.604,5.166-1.522,10.729-1.522,10.729L140.25,73L153,71.25z"/>
<path fill="#F56E78" d="M154.542,72.333c0,0,3.75-3.938,9.438-3.375c0,0,6.312,0.625,8.375,6.562c0,0,1.75,4.875-1.125,8
	l-4.854-11.146L154.542,72.333z"/>
<path fill="#51A2C5" d="M136.75,83.062c0,0-0.5-6.938,6.562-9.875c0,0,5.062-2.438,10.062,1.438c0,0,4.75-3.125,8.875-1.875
	c0,0,9.688,3.062,7,12.938c0,0,1.906-0.062,2.875-3.625c0,0,1.094-5-4.375-9.062c0,0-7-5-13.938-0.938c0,0-2.812-3.375-7.25-2.812
	c0,0-9,0.938-10.688,10.625C135.875,79.875,135.5,82.312,136.75,83.062z"/>
<g>
	
		<image overflow="visible" opacity="0.15" width="12" height="12" xlink:href="867FE8D38C8A1041.png"  transform="matrix(1 0 0 1 140.8398 72.8398)">
	</image>
	<g>
		<path d="M143.938,76.938c0,0-1.688,2.062,0.25,4.125c0,0,1.625,1.5,4-0.125c0,0,2.875-1.938,0.5-4.125
			C148.688,76.812,146.375,74.75,143.938,76.938z"/>
	</g>
</g>
<g>
	
		<image overflow="visible" opacity="0.15" width="12" height="12" xlink:href="867FE8D38C8A1047.png"  transform="matrix(1 0 0 1 154.9023 74.2148)">
	</image>
	<g>
		<path d="M160.292,77.066c0,0-2.664,0.067-2.962,2.882c0,0-0.076,2.21,2.706,2.949c0,0,3.344,0.914,3.452-2.313
			C163.487,80.583,163.54,77.485,160.292,77.066z"/>
	</g>
</g>
<path fill="#FFDE08" stroke="#000000" stroke-miterlimit="10" d="M178.167,17c0,0-4.823-0.5-9.75,0.999
	c0,0-12.386,3.313-13.698-10.75c0,0,1.969,5.562,9.25,5.031C163.969,12.281,173.135,10.563,178.167,17z"/>
<path fill="none" stroke="#F78429" stroke-width="0.75" stroke-miterlimit="10" d="M183.812,31.562"/>
<path fill="#FFDE08" stroke="#000000" stroke-miterlimit="10" d="M214.5,30.938c0,0-12.188,8.438-17.5-2.531
	c0,0-1.979-4.333-6.167-4.739c0,0,4.76-3.354,8.167,1.333C199,25,204.25,33.375,214.5,30.938z"/>
<path fill="#EF8EB5" stroke="#E73793" stroke-width="2" stroke-miterlimit="10" d="M174.812,382.438c0,0-6.25,1.5-4.312,7.812
	c0,0,2.25,10.875,22.75,10.25c0,0,9.5-0.25,7.75-8.5c0,0-7.75,3.125-16.75-1C184.25,391,177.062,387.438,174.812,382.438z"/>
<path fill="#EF8EB5" stroke="#E73793" stroke-width="2" stroke-miterlimit="10" d="M165.917,411.083c0,0-9.813,3.688-4.251,12.5
	c0,0,5.104,7.646,19.5,8.75c0,0,11.251,1.25,15.333-6.667c0,0,2.063-4.104-2.499-6.979c0,0-7.062,6.312-18.062,3.25
	C175.938,421.938,165.979,419.063,165.917,411.083z"/>
<path fill="#EF8EB5" stroke="#E73793" stroke-width="2" stroke-miterlimit="10" d="M160.667,437.333c0,0-8.021,1.812-5.584,10.25
	c0,0,1.979,10.729,19.729,12.354c0,0,13.312,1.625,17.438-7.812c0,0,1.938-5.062-2.125-7.875c0,0-2,7.75-15.25,6.375
	C174.875,450.625,161.167,448.708,160.667,437.333z"/>
<path fill="none" stroke="#EF4943" stroke-width="1.5" stroke-miterlimit="10" d="M272.083,491.167
	c2.303,0.944,11.167,0.417,15.251-5.582c0,0,6.75-10.666-7-17.083"/>
<path fill="#EF8EB5" stroke="#E73793" stroke-width="2" stroke-miterlimit="10" d="M228,386.625c0,0-5.375,7.292,1.375,11.375
	c0,0,13.125,6.25,26.875-4.625c0,0,6.375-5.25-0.125-10.625c0,0-3.208,6.583-14.125,8.667C242,391.417,230.333,393.208,228,386.625z
	"/>
<path fill="#EF8EB5" stroke="#E73793" stroke-width="2" stroke-miterlimit="10" d="M227.875,413.75c0,0-6.75,5.417,0,10.75
	c0,0,7.792,5.917,22.708,0.5c0,0,8.833-3.417,8.917-10.25c0,0-0.083-2.667-2.583-3.333c0,0-2.833,6-14.25,7.833
	C242.667,419.25,228.042,421.417,227.875,413.75z"/>
<path fill="#EF8EB5" stroke="#E73793" stroke-width="2" stroke-miterlimit="10" d="M224.125,441.875c0,0-7.375,3.958-3.375,9.625
	c0,0,5.75,10,29.25,3.251c0,0,6.583-2.127,8-8.251c0,0,1.5-4.583-3.917-5.749c0,0-2.334,6.5-15.417,8.083
	C238.667,448.834,225.375,450.375,224.125,441.875z"/>
</svg>
