<?xml version="1.0" encoding="utf-8"?>
<!-- Generator: Adobe Illustrator 16.0.0, SVG Export Plug-In . SVG Version: 6.00 Build 0)  -->
<!DOCTYPE svg PUBLIC "-//W3C//DTD SVG 1.1//EN" "http://www.w3.org/Graphics/SVG/1.1/DTD/svg11.dtd">
<svg version="1.1" id="Layer_1" xmlns="http://www.w3.org/2000/svg" xmlns:xlink="http://www.w3.org/1999/xlink" x="0px" y="0px"
	 width="500px" height="800px" viewBox="0 0 500 800" enable-background="new 0 0 500 800" xml:space="preserve">
<rect x="24.949" y="42.208" fill="none" width="449.867" height="58.501"/>
<text transform="matrix(1 0 0 1 24.9492 72.4077)" fill="#4F3360" font-family="'FiraSans-Medium'" font-size="40">Funding Sesame Street</text>
<polyline fill="none" stroke="#4F3360" stroke-width="2" stroke-miterlimit="10" points="376,580 426,580 426,597 "/>
<line fill="none" stroke="#4F3360" stroke-width="2" stroke-miterlimit="10" x1="156" y1="580" x2="95" y2="580"/>
<polyline fill="none" stroke="#4F3360" stroke-width="2" stroke-miterlimit="10" points="153.012,467.021 209.447,467.209 
	209.262,486.708 "/>
<path fill="#4F3360" d="M375.731,579.573c0,60.959-49.417,110.382-110.377,110.382c-60.964,0-110.389-49.423-110.389-110.382
	s49.424-110.385,110.389-110.385C326.314,469.188,375.731,518.614,375.731,579.573z"/>
<g>
	<g>
		<g>
			<g>
				<path opacity="0.7" fill="#F2CD48" d="M265.24,579.776l-102.45-41.393c17.146-42.435,56.684-69.102,102.45-69.102V579.776z"/>
			</g>
		</g>
		<g>
			<g>
				<path opacity="0.5" fill="#F2CD48" d="M265.24,579.776v110.494c-61.026,0-110.495-49.47-110.495-110.494
					c0-15.258,2.331-27.248,8.045-41.393L265.24,579.776z"/>
			</g>
		</g>
		<g>
			<g>
				<path fill="#F2CD48" d="M265.24,579.776V469.282c61.025,0,110.494,49.468,110.494,110.494
					c0,61.024-49.469,110.494-110.494,110.494l0,0V579.776z"/>
			</g>
		</g>
	</g>
	<g>
		<g>
		</g>
		<g>
		</g>
		<g>
		</g>
	</g>
</g>
<line fill="none" stroke="#4F3360" stroke-width="2" stroke-miterlimit="10" x1="124" y1="303" x2="166" y2="303"/>
<line fill="none" stroke="#4F3360" stroke-width="2" stroke-miterlimit="10" x1="135.447" y1="213.083" x2="166.605" y2="213.364"/>
<polyline fill="none" stroke="#4F3360" stroke-width="2" stroke-miterlimit="10" points="290,392 255,392 255,367 "/>
<polyline fill="none" stroke="#4F3360" stroke-width="2" stroke-miterlimit="10" points="203.75,129.511 242.309,129.333 242.5,155 
	"/>
<polyline fill="none" stroke="#4F3360" stroke-width="2" stroke-miterlimit="10" points="362,230 405,230 405,211 "/>
<g>
	<g>
		<g>
			<g>
				<path fill="#F2CD48" d="M263.697,259.208l-77.762-77.754c21.477-21.475,47.398-32.211,77.762-32.211V259.208z"/>
			</g>
		</g>
		<g>
			<g>
				<path opacity="0.5" fill="#F2CD48" d="M263.697,259.208H153.731c0-30.363,10.734-56.285,32.204-77.754L263.697,259.208z"/>
			</g>
		</g>
		<g>
			<g>
				<path opacity="0.7" fill="#F2CD48" d="M263.697,259.208l-77.762,77.761c-21.47-21.472-32.204-47.396-32.204-77.761H263.697z"/>
			</g>
		</g>
		<g>
			<g>
				<path fill="#F2CD48" d="M263.697,259.208l77.762,77.761c-42.943,42.943-112.572,42.943-155.523,0l0,0L263.697,259.208z"/>
			</g>
		</g>
		<g>
			<g>
				<path opacity="0.5" fill="#F2CD48" d="M263.697,259.208V149.243c60.735,0,109.966,49.234,109.966,109.965
					c0,30.365-10.734,56.289-32.204,77.761L263.697,259.208z"/>
			</g>
		</g>
	</g>
	<g>
		<g>
		</g>
		<g>
		</g>
		<g>
		</g>
		<g>
		</g>
		<g>
		</g>
	</g>
</g>
<path fill="#4F3360" d="M373.729,259.372c0,60.68-49.187,109.871-109.866,109.871c-60.688,0-109.876-49.191-109.876-109.871
	c0-60.681,49.188-109.88,109.876-109.88C324.543,149.492,373.729,198.691,373.729,259.372z"/>
<g>
	<g>
		<g>
			<g>
				<path fill="#F2CD48" d="M263.697,259.208l-77.762-77.754c21.477-21.475,47.398-32.211,77.762-32.211V259.208z"/>
			</g>
		</g>
		<g>
			<g>
				<path opacity="0.5" fill="#F2CD48" d="M263.697,259.208H153.731c0-30.363,10.734-56.285,32.204-77.754L263.697,259.208z"/>
			</g>
		</g>
		<g>
			<g>
				<path opacity="0.7" fill="#F2CD48" d="M263.697,259.208l-77.762,77.761c-21.47-21.472-32.204-47.396-32.204-77.761H263.697z"/>
			</g>
		</g>
		<g>
			<g>
				<path fill="#F2CD48" d="M263.697,259.208l77.762,77.761c-42.943,42.943-112.572,42.943-155.523,0l0,0L263.697,259.208z"/>
			</g>
		</g>
		<g>
			<g>
				<path opacity="0.5" fill="#F2CD48" d="M263.697,259.208V149.243c60.735,0,109.966,49.234,109.966,109.965
					c0,30.365-10.734,56.289-32.204,77.761L263.697,259.208z"/>
			</g>
		</g>
	</g>
	<g>
		<g>
		</g>
		<g>
		</g>
		<g>
		</g>
		<g>
		</g>
		<g>
		</g>
	</g>
</g>
<path fill="#4F3360" d="M329.899,261.036c0,36.658-29.714,66.375-66.372,66.375c-36.662,0-66.378-29.717-66.378-66.375
	s29.716-66.38,66.378-66.38C300.186,194.656,329.899,224.378,329.899,261.036z"/>
<path fill="#4F3360" d="M340.176,581.312c0,41.098-33.314,74.416-74.412,74.416c-41.102,0-74.422-33.318-74.422-74.416
	s33.32-74.418,74.422-74.418C306.861,506.894,340.176,540.214,340.176,581.312z"/>
<rect x="192.419" y="535.767" fill="none" width="145.71" height="108.233"/>
<text transform="matrix(1 0 0 1 230.8325 578.2979)"><tspan x="0" y="0" fill="#F2CD48" font-family="'Chalkboard'" font-size="60">$8 </tspan><tspan x="-10.923" y="38" fill="#F2CD48" font-family="'Chalkboard'" font-size="32">million</tspan></text>
<g>
	<rect x="377.979" y="605.284" fill="none" width="99.746" height="93.369"/>
	<text transform="matrix(1 0 0 1 382.1885 620.5723)"><tspan x="0" y="0" fill="#FFC300" font-family="'FiraSans-Medium'" font-size="20.25">$4 million </tspan><tspan x="16.534" y="22" fill="#4F3360" font-family="'FiraSans-Medium'" font-size="17">Federal </tspan><tspan x="13.015" y="42" fill="#4F3360" font-family="'FiraSans-Medium'" font-size="17">Office of </tspan><tspan x="6.972" y="62" fill="#4F3360" font-family="'FiraSans-Medium'" font-size="17">Education</tspan></text>
</g>
<g>
	<rect x="39.979" y="605.284" fill="none" width="129.033" height="114.172"/>
	<text transform="matrix(1 0 0 1 39.9785 620.5723)"><tspan x="0" y="0" fill="#FFC300" font-family="'FiraSans-Medium'" font-size="20.25">$2.5 million</tspan><tspan x="0" y="22" fill="#4F3360" font-family="'FiraSans-Medium'" font-size="17">Carnegie Corp. </tspan><tspan x="0" y="42" fill="#4F3360" font-family="'FiraSans-Medium'" font-size="17">and the Ford </tspan><tspan x="0" y="62" fill="#4F3360" font-family="'FiraSans-Medium'" font-size="17">Foundation</tspan></text>
</g>
<line fill="none" stroke="#4F3360" stroke-width="2" stroke-miterlimit="10" x1="95.456" y1="580" x2="95.25" y2="598.5"/>
<g>
	<rect x="36.729" y="458.033" fill="none" width="120.033" height="99.175"/>
	<text transform="matrix(1 0 0 1 36.7285 473.3223)"><tspan x="0" y="0" fill="#FFC300" font-family="'FiraSans-Medium'" font-size="20.25">$1.5 million</tspan><tspan x="0" y="22" fill="#4F3360" font-family="'FiraSans-Medium'" font-size="17">Corporation </tspan><tspan x="0" y="41.999" fill="#4F3360" font-family="'FiraSans-Medium'" font-size="17">for Public </tspan><tspan x="0" y="61.999" fill="#4F3360" font-family="'FiraSans-Medium'" font-size="17">Broadcasting</tspan></text>
</g>
<rect x="173.521" y="227.708" fill="none" width="180" height="69.75"/>
<text transform="matrix(1 0 0 1 230.2666 250.3896)"><tspan x="0" y="0" fill="#F2CD48" font-family="'Chalkboard'" font-size="32">1968</tspan><tspan x="-16.53" y="32" fill="#F2CD48" font-family="'Chalkboard'" font-size="32">budget</tspan></text>
<rect x="107.195" y="117.71" fill="none" width="122.999" height="49.5"/>
<text transform="matrix(1 0 0 1 107.1938 132.9971)"><tspan x="0" y="0" fill="#FFC300" font-family="'FiraSans-Medium'" font-size="20.25">$1 million</tspan><tspan x="0" y="22" fill="#4F3360" font-family="'FiraSans-Medium'" font-size="17">Research</tspan></text>
<rect x="365.195" y="163.21" fill="none" width="104.999" height="49.5"/>
<text transform="matrix(1 0 0 1 372.4365 178.4985)"><tspan x="0" y="0" fill="#FFC300" font-family="'FiraSans-Medium'" font-size="20.25">$3 million</tspan><tspan x="2.376" y="22" fill="#4F3360" font-family="'FiraSans-Medium'" font-size="17">Production</tspan></text>
<rect x="25.194" y="291.459" fill="none" width="152.997" height="92.999"/>
<text transform="matrix(1 0 0 1 25.1929 306.7451)"><tspan x="0" y="0" fill="#FFC300" font-family="'FiraSans-Medium'" font-size="20.25">$1 million</tspan><tspan x="0" y="22" fill="#4F3360" font-family="'FiraSans-Medium'" font-size="17">Promotion </tspan><tspan x="0" y="42" fill="#4F3360" font-family="'FiraSans-Medium'" font-size="17">and Advertising</tspan></text>
<rect x="301.447" y="375.96" fill="none" width="145.498" height="49.5"/>
<text transform="matrix(1 0 0 1 301.4443 391.248)"><tspan x="0" y="0" fill="#FFC300" font-family="'FiraSans-Medium'" font-size="20.25">$2 million</tspan><tspan x="0" y="22" fill="#4F3360" font-family="'FiraSans-Medium'" font-size="17">Miscellanious</tspan></text>
<rect x="34.195" y="204.085" fill="none" width="94.499" height="49.5"/>
<text transform="matrix(1 0 0 1 36.2168 219.374)"><tspan x="0" y="0" fill="#FFC300" font-family="'FiraSans-Medium'" font-size="20.25">$2 million</tspan><tspan x="5.584" y="22" fill="#4F3360" font-family="'FiraSans-Medium'" font-size="17">Animation</tspan></text>
</svg>
