<?xml version="1.0" encoding="utf-8"?>
<!-- Generator: Adobe Illustrator 16.0.0, SVG Export Plug-In . SVG Version: 6.00 Build 0)  -->
<!DOCTYPE svg PUBLIC "-//W3C//DTD SVG 1.1//EN" "http://www.w3.org/Graphics/SVG/1.1/DTD/svg11.dtd">
<svg version="1.1" id="Layer_1" xmlns="http://www.w3.org/2000/svg" xmlns:xlink="http://www.w3.org/1999/xlink" x="0px" y="0px"
	 width="400px" height="400px" viewBox="0 0 400 400" enable-background="new 0 0 400 400" xml:space="preserve">
<path d="M263.264,120.244l-0.479,0.01l-0.244-0.235l-0.245-0.236l-0.061-0.623l-0.02-0.958l-0.045-6.908l0.135-0.529l0.184-0.388
	l0.664-0.396l4.553-2.584l0.521-0.346l0.613-0.54l0.656-0.878l0.51-0.828l0.513-0.824l0.511-0.825l0.278-0.583l0.134-0.529
	l0.133-0.53l-0.01-0.478l0.133-0.53l-0.011-0.479l-0.008-0.478l-0.152-0.426l-0.011-0.48l-0.01-0.479l-0.152-0.429l-0.153-0.429
	l-0.294-0.375l-0.152-0.429l-0.295-0.379l-0.151-0.426l-0.296-0.377l-0.294-0.378l-0.346-0.521l-0.388-0.185l-0.295-0.379
	l-0.539-0.612l-0.441-0.33l-0.582-0.275l-0.488-0.467l-0.528-0.134l-0.725-0.226l-0.528-0.134l-0.58-0.276l-0.532-0.134
	l-0.673-0.083l-0.479,0.009l-0.673-0.08l-0.673-0.083l-0.674-0.081l-0.48,0.008l-0.673-0.081l-0.623,0.06l-0.674-0.083l-0.529-0.135
	l-0.623,0.061l-0.673-0.082l-0.438-0.328l-0.294-0.378l-0.5-0.95l-0.447-0.806l-0.59-0.754l-0.396-0.664l-0.542-0.614l-0.489-0.47
	l-0.491-0.472l-0.49-0.469l-0.488-0.469l-0.439-0.328l-0.438-0.325l-0.582-0.275l-0.296-0.381l-0.438-0.322l-0.389-0.184
	l-0.386-0.185l-0.297-0.378l-0.244-0.235l-0.244-0.237l-0.295-0.376l-0.744-1.183l-0.888-1.135l-0.977-0.937l-1.122-0.891
	l-1.02-0.604l-1.02-0.601l-1.11-0.411l-1.062-0.267l-1.204-0.216l-0.958,0.019l-1.245,0.123l-1.053,0.213l-0.947,0.499l-1.093,0.548
	l-0.899,0.645l-0.847,0.783l-0.745,1.071l-0.89,1.12l-0.552,1.161l-0.593,1.5l-0.226,0.724l-0.174,0.865l-0.032,0.818l-0.081,0.674
	l-0.033,0.815l0.061,0.625l0.111,0.763l0.062,0.623l0.061,0.624l0.203,0.571l0.112,0.765l0.153,0.431l0.203,0.571l0.203,0.57
	l0.153,0.43l0.153,0.43l0.01,0.477l0.153,0.43l0.009,0.478l-0.04,0.338l-0.064,1.632l0.131,1.724l0.131,1.722l0.13,1.723
	l0.018,0.961l0.021,0.958l-0.123,1.008l-0.032,0.818l-0.125,1.008l-0.172,0.869l-0.267,1.062l-0.175,0.867l-0.266,1.062
	l-0.318,0.918l-0.319,0.916l-0.51,0.827l-0.317,0.919l-0.511,0.826l-0.369,0.774l-0.46,0.968l-0.511,0.827l-0.513,0.826
	l-0.562,0.683l-0.564,0.686l-0.511,0.825l0.101,0.284l0.246,0.235l0.571-0.204l0.573-0.204l0.336,0.042l0.009,0.479l-0.226,0.726
	l-0.134,0.531l-0.274,0.582l-0.033,0.815l-0.082,0.672l-0.032,0.818l-0.082,0.674l0.019,0.958l-0.031,0.814l-0.033,0.817
	l0.112,0.766l-0.033,0.816l0.061,0.622l-0.033,0.817l0.061,0.623l0.011,0.479l0.009,0.477l-0.186,0.389l0.153,0.43l-0.143,0.051
	l-9.428,20.1l-0.328,0.438l-0.469,0.487l-0.324,0.441l-0.666,0.395l-0.327,0.442l-0.663,0.396l-0.522,0.345l-0.52,0.345
	l-0.522,0.347l-0.327,0.438l-0.471,0.489l-0.134,0.531l-0.184,0.389l0.101,0.284l0.102,0.286l0.246,0.238l0.385,0.183l0.534,0.135
	l0.526,0.131l0.48-0.009l0.429-0.153l0.286-0.102l0.194,0.091l0.01,0.481l-0.226,0.724l-0.082,0.675l-0.277,0.579l-0.37,0.775
	l-0.51,0.824l-0.459,0.971l-0.604,1.02l-0.602,1.023l-0.601,1.018l-0.746,1.074l-0.749,1.068l-0.693,1.217l-0.694,1.211
	l-0.604,1.021l-0.694,1.209l-0.696,1.215l-0.554,1.16l-0.601,1.02l-0.411,1.111l-0.409,1.111l-0.267,1.062l-0.357,1.253
	l-0.362,1.254l-0.213,1.205l-0.163,1.348l-0.025,1.296l0.164,0.907l0.213,1.051l0.121,1.246l0.213,1.053l0.071,1.103l-0.083,0.672
	l-0.398,1.593l-0.45,1.448l-0.35,1.734l-0.253,1.539l-0.207,1.684l-0.157,1.824l-0.063,1.635l-0.012,1.773l-0.064,1.633l-0.01,1.775
	l0.181,1.865l0.13,1.725l0.134,1.723l0.271,1.673l0.132,1.722l0.417,1.625l0.275,1.672l0.22,1.529l0.417,1.623l0.368,1.48
	l0.062,0.621l-0.329,0.438l-0.334-0.039l-1.009-0.125l-0.336-0.041l-0.53-0.129l-0.286,0.102l-0.246-0.239l-0.287,0.103
	l-0.336-0.038l-0.282,0.101l-0.143,0.051l-0.289,0.103l-0.141,0.05l-0.093,0.191l-0.092,0.193l-0.042,0.338l0.05,0.142l0.153,0.429
	l0.153,0.43l0.153,0.429l0.397,0.661l0.051,0.144l-0.338-0.042l-0.867-0.172l-0.386-0.184l-0.583-0.276l-0.63-0.419l-0.634-0.422
	l-0.825-0.508l-0.631-0.422l-0.875-0.653l-0.827-0.512l-0.97-0.46l-0.876-0.651l-0.828-0.513l-0.773-0.367l-0.917-0.317
	l-0.775-0.366l-0.725-0.227l-0.817-0.031l-0.674-0.082l-0.477,0.008l-0.716,0.254l-0.327,0.439l-0.471,0.49l-0.284,0.101
	l-0.429,0.153l-0.44-0.326l-0.722-0.229l-0.58-0.271l-0.491-0.472l-0.774-0.364l-0.776-0.368l-0.867-0.174l-0.826-0.512
	l-0.866-0.175l-0.776-0.369l-0.918-0.315l-1.007-0.126l-0.872-0.172l-0.868-0.173l-0.957,0.018l-0.821-0.031l-0.763,0.108
	l-0.72,0.256l-0.711,0.254l-0.807,0.449l-0.47,0.491l-0.563,0.685l-0.518,0.343l-0.573,0.204l-0.766,0.113l-0.48,0.011l-0.253-0.714
	l-0.01-0.48l0.032-0.816l0.083-0.675l0.082-0.673l0.176-0.866l0.174-0.868l0.175-0.868l0.314-0.915l0.318-0.918l0.318-0.918
	l0.317-0.92l0.314-0.916l0.319-0.916l0.318-0.92l0.364-0.776l0.37-0.771l0.365-0.775l0.277-0.58l0.37-0.773l0.327-0.441l0.184-0.389
	l0.186-0.387l-0.01-0.479l-0.102-0.285l-0.102-0.286l-0.245-0.236l-0.245-0.232l-0.527-0.137l-0.479,0.01l-1.196,0.264l-1.146,0.408
	l-0.572,0.203l-0.337-0.04l-0.102-0.286l0.082-0.676l0.174-0.867l-0.11-0.763l-0.167-0.909l0.036-0.816l-0.11-0.764l-0.305-0.857
	l-0.305-0.858l-0.166-0.905l-0.444-0.807l-0.306-0.857l-0.305-0.857l-0.447-0.804l-0.596-0.755l-0.393-0.664l-0.448-0.807
	l-0.59-0.755l-0.541-0.611l-0.398-0.667l-0.683-0.561l-0.542-0.614l-0.632-0.418l-0.633-0.42l-0.725-0.226l-0.721-0.227l-0.674-0.08
	l-0.528-0.137l-0.725-0.226l-0.581-0.273l-1.46-0.931l-1.454-0.929l-1.46-0.931l-1.16-0.552l-1.116-0.407l-1.303-0.503l-1.109-0.409
	l-1.307-0.502l-1.113-0.409l-1.2-0.214l-1.256-0.357l-1.205-0.217l-1.253-0.359l-1.201-0.218l-1.205-0.214l-1.4-0.31l-1.149-0.07
	l-1.349-0.166l-1.206-0.216l-1.348-0.164l-1.152-0.075l-1.296-0.02l-1.348-0.165l-0.818-0.031l-0.286,0.102l-0.184,0.388
	l0.061,0.623l0.013,0.476l-0.092,0.195l-0.624,0.06l-6.53-0.254l-0.531-0.13l-0.102-0.286l0.083-0.674l1.539-6.99l0.134-0.528
	l0.185-0.388l0.082-0.676l0.278-0.579l0.226-0.724l0.271-0.583l0.371-0.773l0.275-0.582l0.42-0.634l0.421-0.628l0.272-0.581
	l0.327-0.439l0.379-0.296l0.379-0.295l0.235-0.242l0.134-0.53l-0.245-0.236l-0.629-0.421l-0.725-0.225l-0.867-0.17l-0.961,0.018
	l-0.766,0.113l-0.479,0.01l-0.439-0.326l-0.209-0.589l-0.458-1.287l-0.313-1.336l-0.315-1.339l-0.315-1.336l-0.407-1.144
	l-0.509-1.431l-0.836-0.99l-0.886-1.134l-0.981-0.94l-0.979-0.939l-0.59-0.754l-0.588-0.757l-0.734-0.704l-0.544-0.613l-0.684-0.56
	l-0.535-0.613l-0.634-0.42l-0.684-0.563l-0.581-0.272l-0.633-0.419l-0.775-0.368l-0.722-0.227l-0.582-0.277l-0.866-0.17
	l-0.869-0.175l-0.725-0.226l-0.961,0.02l-0.868-0.171l-1.006-0.125l-0.96,0.021l-0.337-0.043l-0.194-0.091l-0.53-0.131l-0.195-0.094
	l-0.387-0.183l-0.438-0.325l-0.389-0.184l-0.438-0.327l-0.388-0.184l-0.438-0.326l-0.532-0.135l-0.438-0.324l-0.582-0.277
	l-0.531-0.132l-0.583-0.276l-0.531-0.134l-0.532-0.134l-0.526-0.133l-0.675-0.083l-0.673-0.081l-0.619,0.062l-0.771,0.111
	l-0.67-0.083l-0.571,0.203l-0.621,0.058l-0.429,0.153l-0.429,0.152l-0.572,0.204l-0.429,0.153l-0.379,0.298l-0.285,0.102
	l-0.375,0.292l-0.43,0.153l-0.383,0.295l-0.429,0.152l-0.427,0.152l-0.378,0.294l-0.429,0.153l-0.429,0.152l-0.623,0.062
	l-1.907,0.52l-1.713,0.61l-1.57,0.559l-1.667,0.752l-1.325,0.796l-1.331,0.794l-1.273,0.937l-1.033,1.174l-1.03,1.171l-0.746,1.072
	l-0.697,1.214l-0.499,1.303l-0.452,1.449l-0.257,1.543l-0.114,1.488l0.129,1.726l0.134,1.723l0.416,1.622l0.469,1.767l0.712,2
	l0.152,0.427l-0.041,0.339l-0.237,0.243l-0.572,0.204l-0.569,0.202l-0.289,0.103l-0.185,0.391l0.116,0.763l0.263,1.195l0.407,1.144
	l0.07,1.104l0.121,1.244l-0.166,1.347l-0.166,1.348l-0.16,1.347l-0.359,1.257l-0.165,1.347l-0.176,0.865l-0.124,1.012l-0.314,0.916
	l-0.267,1.061l-0.268,1.06l-0.458,0.966l-0.265,1.063l-0.319,0.918l-0.408,1.116l-0.463,0.965l-0.263,1.061l-0.465,0.972
	l-0.264,1.057l-0.461,0.97l-0.175,0.867l-0.318,0.917l-0.314,0.918l-0.175,0.869l-0.175,0.865l-0.176,0.867l-0.104,1.972
	l-0.105,1.968l0.143,2.201l0.232,2.014l0.474,2.244l0.521,1.906l0.764,2.145l0.712,2.002l0.946,1.755l1.143,1.849l1.086,1.706
	l1.38,1.601l1.558,1.219l1.556,1.215l1.658,1.018l1.884,0.78l1.978,0.587l2.017,0.244l2.259,0.002l2.346-0.189l0.716-0.255
	l0.623-0.06l0.716-0.256l0.716-0.254l0.716-0.255l0.711-0.253l0.715-0.255l0.668-0.399l0.712-0.254l0.665-0.398l0.665-0.396
	l0.667-0.399l0.711-0.253l0.666-0.396l0.665-0.396l0.429-0.152l0.429-0.153l0.144-0.051l0.102,0.287l0.008,0.478l0.153,0.43
	l0.203,0.57l0.398,0.665l0.343,0.522l0.244,0.234l0.479-0.013l0.624-0.06l0.715-0.254l0.466-0.49l0.277-0.58l0.326-0.441
	l0.277-0.578l0.329-0.439l0.471-0.488l0.659-0.396l0.522-0.348l0.522-0.347l0.663-0.396l0.379-0.292l0.57-0.202l0.95-0.502
	l0.755-0.592l0.948-0.498l0.952-0.498l0.808-0.45l0.998-0.354l0.95-0.499l0.805-0.446l1.093-0.549l0.859-0.306l0.899-0.646
	l0.948-0.495l0.807-0.447l0.9-0.643l0.804-0.446l0.521-0.347l0.286-0.103l0.193,0.093l0.439,0.326l0.342,0.523l0.295,0.374
	l0.532,0.134l0.48-0.01l0.43-0.152l0.378-0.297l0.379-0.293l0.613-0.543c0.939-0.98,3.369-1.845,4.755-2.012l0.817,0.028
	l0.767-0.112l0.674,0.083l1.011,0.124l0.817,0.031l0.868,0.174l0.724,0.223l0.865,0.176l0.868,0.173l0.776,0.369l0.726,0.226
	l0.77,0.367l0.726,0.227l0.633,0.42l0.438,0.323l0.439,0.327l0.49,0.469l0.245,0.236l-0.133,0.531l-0.369,0.775l-0.032,0.815
	l0.305,0.857l0.499,0.95l0.407,1.144l0.355,1.001l0.214,1.051l0.213,1.053l0.263,1.193l0.07,1.102l0.213,1.053l-0.068,1.153
	l0.069,1.1l-0.074,1.153l-0.022,1.298l-0.268,1.06l-0.072,1.154l-0.212,1.203l-0.124,1.012l-0.412,1.109l-0.267,1.061l-0.268,1.059
	l-0.262,1.063l-0.185,0.386l-0.369,0.776l-0.319,0.919l-0.461,0.969l-0.6,1.018c-1.105,2.328-2.016,4.743-3.123,7.066l-0.184,0.391
	l-0.274,0.578l-0.188,0.391l-0.276,0.581l-0.185,0.388l-0.133,0.53l-0.186,0.386l-0.133,0.532l-0.134,0.529l0.01,0.48l-0.042,0.335
	l0.163,0.908l0.204,0.572l0.102,0.287l0.244,0.234l0.153,0.43l0.061,0.621l-0.212,1.204l-0.125,1.009l-0.072,1.154l0.069,1.1
	l0.269,1.194l0.066,1.104l0.211,1.048l0.069,1.104l0.072,1.104l0.11,0.762l-0.231,0.242l-0.72,0.256l-0.762,0.112l-0.821-0.031
	l-0.863-0.171l-1.01-0.124l-0.869-0.176l-1.012-0.123l-0.919-0.317l-1.061-0.268l-1.058-0.264l-1.112-0.409l-0.92-0.319
	l-1.061-0.263l-0.919-0.316l-1.012-0.125l-0.867-0.174l-0.863-0.172l-0.823-0.033l-0.813-0.033l-0.72,0.256l-0.568,0.202
	l-0.716,0.255l-0.327,0.439l0.009,0.48l-0.133,0.529l-0.186,0.387l-0.623,0.062l-1.773-0.013l-1.774-0.013l-1.722,0.132
	l-0.766,0.109l-0.623,0.062l-0.716,0.255l-0.906,0.162l-0.863,0.308l-0.854,0.304l-0.997,0.355l-1.002,0.356l-1.002,0.356
	l-0.854,0.304l-0.952,0.498l-0.952,0.499l-0.802,0.448l-0.809,0.448l-0.756,0.589l-0.613,0.543l-0.614,0.541l-0.421,0.629
	l-0.414,0.636l-0.135,0.527l-0.083,0.674l-0.521,0.347l-0.809,0.448l-0.752,0.591l-0.666,0.395l-0.756,0.592l-0.757,0.591
	l-0.613,0.545l-0.757,0.592l-0.613,0.541l-0.613,0.54l-0.702,0.733l-0.757,0.592l-0.613,0.542l-0.614,0.541l-0.756,0.592
	l-0.753,0.589l-0.899,0.643l-0.951,0.5l-1.094,0.552l-0.948,0.494l-0.95,0.498l-0.845,0.785l-0.38,0.295l0.01,0.48l0.204,0.573
	l0.152,0.429l0.153,0.43l-0.184,0.388l-0.329,0.436l-0.468,0.493l-0.753,0.59l-0.849,0.786l-0.708,0.732l-0.701,0.732l-0.707,0.735
	l-0.51,0.825l-0.655,0.879l-3.618,6.115l-0.472,0.49l-0.425,0.151l-0.531-0.134l-0.582-0.276l-0.531-0.134l-0.582-0.275
	l-5.828-0.985l-0.864-0.176l-0.92-0.318l-0.774-0.364l-0.828-0.513l-0.73-0.706l-0.878-0.655l-0.734-0.702l-0.786-0.849
	l-0.734-0.705l-0.785-0.846l-0.924-0.799l-0.786-0.849l-0.785-0.846l-0.927-0.794l-0.924-0.8l-0.929-0.796l-1.02-0.601l-1.071-0.746
	l-1.019-0.601l-1.11-0.411l-0.53-0.132l-0.394-0.186l-0.336-0.038l-0.527-0.134l-0.531-0.136l-0.339-0.037l-0.534-0.136
	l-0.475,0.011l-0.479,0.01l-0.479,0.01l-0.482,0.01l-0.48,0.009l-0.429,0.152l-0.43,0.153l-0.425,0.151l-0.43,0.152l-0.43,0.153
	l-0.377,0.296l-0.379,0.297l-0.234,0.244l-0.468,0.485l-0.433,0.154l-0.817-0.028l-0.619,0.06l-0.715,0.254l-0.716,0.255
	l-0.624,0.061l-0.568,0.202l-0.716,0.255l-0.521,0.348l-0.716,0.254l-0.521,0.347L14.42,296.9l-0.522,0.344l-0.468,0.493
	l-0.468,0.487l-0.47,0.487l-0.42,0.635l-0.472,0.487l-0.275,0.582l-0.416,0.632l-0.226,0.724l-0.083,0.673l-0.175,0.866
	l-0.083,0.675l0.113,0.765l0.059,0.62l0.115,0.766l0.112,0.767l-0.083,0.673l-0.083,0.676l-0.227,0.721l-0.029,0.821l-0.278,0.578
	l-0.083,0.673l-0.133,0.531l-0.278,0.579l0.009,0.48l-0.132,0.534l-0.133,0.532l0.008,0.476l-0.132,0.53l0.01,0.481l0.009,0.481
	l0.203,0.571l0.011,0.479l0.253,0.711l0.064,0.623l0.202,0.568l0.256,0.719l0.444,0.806l0.203,0.571l-0.134,0.531l-0.221,0.724
	l-0.276,0.583l-0.033,0.814l-0.086,0.675l-0.079,0.672l-0.088,0.672l-0.082,0.674l0.061,0.624l-0.032,0.818l0.061,0.623l0.062,0.618
	l0.112,0.766l0.06,0.623l0.116,0.766l0.06,0.619l0.255,0.716l0.06,0.622l0.255,0.716l0.255,0.716l0.061,0.622l0.863,2.424
	l1.101,2.188l1.243,2.134l1.386,2.081l1.569,1.694l1.619,1.841l1.855,1.594l1.898,1.254l1.946,1.402l2.041,1.204l2.179,1.154
	l2.273,0.965l2.368,0.765l2.365,0.768l2.365,0.769l2.411,0.433l2.263,0.483l2.55,0.383l2.355,0.286l2.304,0.146l1.155,0.073
	l1.103-0.07l1.15,0.074l1.105-0.07l1.099-0.068l1.103-0.07l1.1-0.069l1.195-0.265l1.104-0.07l1.57-0.559l1.62-0.416l1.673-0.272
	l0.765-0.116l0.389,0.188l0.388,0.186l0.398,0.663l0.439,0.328l0.765-0.115l1.196-0.265l1.236-0.602l1.038-0.691l1.146-0.408
	l1.001-0.356l1.145-0.407l0.998-0.354l1.001-0.357l0.999-0.354l0.95-0.499l0.948-0.495l0.952-0.498l0.755-0.592l0.896-0.643
	l0.756-0.592l0.899-0.646l0.707-0.731l0.703-0.733l0.705-0.734l0.656-0.874l0.651-0.875l0.463-0.976l0.602-1.017l0.46-0.97
	l0.369-0.776l0.227-0.725l0.37-0.771l0.171-0.868l0.174-0.868l0.032-0.817l0.031-0.817l-0.06-0.623l0.185-0.388l0.623-0.061
	l0.715-0.255l0.467-0.488l0.613-0.545l0.227-0.721l-0.06-0.624l-0.06-0.62l-0.06-0.622l-0.204-0.572l-0.113-0.768l-0.344-0.518
	l-0.255-0.716l-0.347-0.52l-0.346-0.518l-3.617-3.384l-0.296-0.378l-0.246-0.235l-0.102-0.286l-0.245-0.235l0.092-0.194
	l-0.102-0.285l0.042-0.338l0.092-0.195l0.184-0.387l0.185-0.388l0.378-0.296l0.416-0.631l3.267-4.384l0.328-0.439l0.188-0.39
	l0.235-0.245l0.236-0.243l0.285-0.102l0.39,0.188l0.726,0.226l0.386,0.183l0.286-0.102l0.287-0.103l0.379-0.295l0.415-0.631
	l0.42-0.633l0.419-0.632l0.322-0.439l0.472-0.489l0.327-0.438l0.327-0.439l0.329-0.438l0.377-0.297l0.378-0.294l0.328-0.44
	l0.378-0.296l0.377-0.296l0.518-0.346l0.38-0.291l0.377-0.297l0.518-0.346l0.524-0.343l0.521-0.346l0.518-0.347l0.668-0.398
	l0.517-0.345l0.338,0.041l0.245,0.235l0.489,0.471l0.583,0.275l0.53,0.134l0.717-0.255l0.716-0.255l0.854-0.304l0.771-0.113
	l0.71-0.253l0.716-0.254l0.573-0.204l0.715-0.255l0.767-0.11l0.716-0.255l0.618-0.064l0.771-0.112l0.761-0.11l0.91-0.162L118,306.08
	l0.622-0.064l0.389,0.188l0.295,0.378l0.203,0.569l0.254,0.714l0.246,0.235l0.333,0.045l0.435-0.155l0.854-0.304l0.859-0.306
	l0.766-0.113l0.907-0.165l0.766-0.113l0.675,0.084l0.763-0.111l0.817,0.037l0.674,0.078l0.726,0.225l0.674,0.083l0.671,0.089
	l0.724,0.221l0.669,0.084l0.675,0.082l0.624-0.061l0.671,0.088l0.622-0.065l0.619-0.058l0.624-0.061l5.014-1.302l0.617-0.062
	l0.634,0.42l4.513,4.995l0.838,0.992l0.926,0.793l1.123,0.89l1.215,0.696l1.262,0.841l1.357,0.641l1.358,0.646l1.45,0.45
	l1.496,0.591l1.594,0.401l1.539,0.259l1.542,0.256l1.49,0.111l1.544,0.259l1.434-0.029l1.39-0.173l1.53-0.22l1.195-0.268
	l1.339-0.314l1.231-0.601l0.572-0.203l0.247,0.24l0.151,0.424l0.357,1.003l0.541,0.614l0.684,0.561l0.54,0.615l0.439,0.326
	l0.671,0.085l0.429-0.153l0.808-0.449l0.378-0.296l0.521-0.347l0.519-0.341l0.521-0.347l0.715-0.255l0.522-0.347l0.66-0.396
	l0.572-0.204l0.665-0.396l0.716-0.255l0.572-0.204l0.715-0.255l0.716-0.254l0.569-0.203l0.572-0.203l0.715-0.255l0.623-0.061
	l0.568-0.202l0.767-0.111l0.48-0.011l0.48-0.009l0.531,0.133l0.674,0.082l0.818,0.032l0.765-0.115l0.762-0.11l0.914-0.163
	l0.855-0.305l0.997-0.354l0.951-0.5l0.951-0.5l0.949-0.494l1.042-0.694l0.952-0.498l0.896-0.642l0.899-0.644l0.753-0.59l0.757-0.592
	l0.752-0.591l0.756-0.595l0.612-0.54l0.47-0.491l1.217-1.556l1.213-1.561l1.357-1.611l0.471-0.486l0.285-0.102l0.294,0.374
	l0.153,0.43l0.243,0.236l0.246,0.239l0.194,0.088l0.479-0.011l0.338,0.043l0.286-0.103l0.284-0.101l0.429-0.153l0.289-0.103
	l0.425-0.151l0.237-0.247l0.233-0.242l0.237-0.242l0.238-0.244l0.643-1.358l0.789-1.408l0.838-1.262l0.888-1.122l0.562-0.685
	l0.614-0.541l0.609-0.539l0.614-0.54l0.706-0.735l0.752-0.59l0.757-0.592l0.701-0.733l0.756-0.596l0.611-0.54l0.705-0.731
	l0.706-0.734l0.753-0.59l0.562-0.684l0.563-0.685l0.562-0.684l0.513-0.823l0.563-0.685l0.369-0.775l0.221-0.724l0.328-0.438
	l0.429-0.152l0.48-0.012l1.15,0.075l1.153,0.072l13.085,4.197l0.725,0.223l0.427-0.152l0,0l0.103,0.29l0.589,0.756l0.345,0.519
	l0.44,0.327l0.582,0.277l0.725,0.225l0.723,0.226l0.674,0.084l0.673,0.084l0.582,0.274l0.532,0.136l0.725,0.224l0.627,0.418
	l0.583,0.276l0.725,0.226l0.775,0.368l0.581,0.278l0.725,0.225l0.773,0.366l0.725,0.225l0.583,0.277l0.671,0.082l0.726,0.227
	l0.723,0.227l0.673,0.082l0.724,0.227l0.819,0.029l0.528,0.135l0.388,0.186l0.011,0.479l0.059,0.619l0.297,0.379l0.245,0.239
	l0.673,0.084l1.398,0.309l1.541,0.256l1.398,0.305l1.45,0.454l1.499,0.592l1.448,0.448l1.593,0.404l1.498,0.591l1.449,0.447
	l1.451,0.455l1.448,0.447l1.591,0.401l1.449,0.452l1.541,0.254l1.542,0.262l1.487,0.109l1.347,0.165l1.582-0.08l1.439-0.026
	l1.479-0.369l1.053-0.214l0.815,0.032l0.623-0.062l0.387,0.186l0.244,0.235l0.193,0.093l0.389,0.185l0.337,0.04l0.529,0.135
	l22.367-1.843l1.621-0.418l1.766-0.466l0.866,0.176l0.774,0.364l1.855,1.592l1.709,1.645l2,1.545l0.682,0.559l0.776,0.369l0.63,0.42
	l0.774,0.365l0.776,0.369l0.775,0.368l0.725,0.226l0.774,0.37l0.773,0.364l0.725,0.227l0.867,0.175l0.773,0.365l0.918,0.317
	l0.726,0.225l0.866,0.178l0.776,0.368l0.725,0.225l0.723,0.223l0.918,0.317l0.58,0.277l2.13,1.012l1.989,1.064l2.038,1.205
	l0.48-0.011l0.429-0.152l0.335,0.037l0.531,0.139l0.581,0.276l0.774,0.367l0.826,0.511l0.827,0.512l0.877,0.655l0.827,0.511
	l0.826,0.513l0.824,0.513l0.632,0.416l0.583,0.276l1.254,0.36l1.255,0.359l1.347,0.165l1.441-0.029l1.437-0.032l1.439-0.027
	l1.337-0.316l1.337-0.314l1.429-0.509l1.235-0.601l1.042-0.693l1.185-0.743l0.799-0.925l0.742-1.076l0.604-1.016l0.357-1.256
	l0.216-1.205l-0.028-1.438l-0.367-1.481l-0.416-1.62l-0.152-0.429l0.715-0.254l0.571-0.203l0.767-0.113l0.572-0.203l0.623-0.06
	l0.572-0.204l0.521-0.347l0.572-0.204l0.377-0.295l0.571-0.203l0.522-0.342l0.376-0.297l0.326-0.438l0.52-0.348l0.327-0.438
	l0.418-0.633l0.187-0.389l0.274-0.581l0.418-0.632l0.277-0.583l0.223-0.725l0.032-0.812l0.03-0.823l-0.111-0.762l-0.163-0.91
	l-0.163-0.907l-0.163-0.908l0.041-0.34l0.134-0.53l0.041-0.337l0.183-0.389l0.041-0.336l0.235-0.245l0.041-0.336l0.235-0.246
	l0.041-0.336l0.092-0.194l-0.102-0.287l-0.102-0.285l-0.152-0.426l-0.152-0.429l-0.347-0.521l-0.491-0.472l-0.542-0.613
	l-0.202-0.567l0.041-0.337l0.379-0.296l0.663-0.396l0.419-0.634l0.418-0.633l0.419-0.633l0.034-0.813l0.03-0.821l-0.11-0.762
	l-0.113-0.771l-0.304-0.855l-0.305-0.857l-0.449-0.809l-0.304-0.854l-0.59-0.757l-0.399-0.668l-0.59-0.753l-0.682-0.564
	l-0.631-0.419l-0.621-0.451l-0.628-0.417l-0.531-0.133l-1.254-0.359l-1.205-0.216l-1.206-0.217l-1.008-0.12l-0.958,0.019
	l-1.155-0.076l-0.958,0.022l-0.907,0.16l-0.958,0.019l-0.958,0.02l-0.91,0.161l-0.958,0.02l-0.907,0.162l-1.052,0.213l-0.817-0.031
	l-1.103,0.069l-0.958,0.019l-0.959,0.02l-1.01-0.125l-1.151-0.073l-0.479,0.011l-0.868-0.177l-0.815-0.027l-0.869-0.179
	l-0.867-0.177l-0.816-0.03l-0.722-0.222l-0.633-0.419l-0.438-0.328l-1.968-2.359l-0.102-0.286l-0.153-0.43l-0.01-0.479l0.368-0.775
	l0.459-0.971l1.373-3.385l0.224-0.725l0.318-0.915l0.268-1.062l0.172-0.868l0.123-1.011l0.123-1.01l-0.019-0.963l-0.019-0.955
	l-0.071-1.104l-0.163-0.91l-0.212-1.047l-0.02-0.961l-0.357-1.002l-0.304-0.855l-0.356-1l-0.305-0.857l-0.446-0.805l-0.592-0.758
	l-0.448-0.807l-0.59-0.754l-0.784-0.849l-0.878-0.655l-0.876-0.655l-0.828-0.513l-0.916-0.312l-1.06-0.267l-1.011-0.124l-1.01-0.125
	l-1.102,0.072l-0.907,0.164l-1.051,0.211l-1.051,0.215l-0.951,0.498l-0.949,0.5l-0.95,0.498l-0.899,0.639l-0.754,0.59l-0.704,0.735
	l-0.653,0.877l-0.653,0.877l-0.277,0.582l-0.277,0.579l-0.132,0.529l-0.275,0.582l-0.133,0.531l-0.226,0.726l-0.133,0.531
	l-0.083,0.67l0.01,0.48l-0.083,0.673l-0.084,0.67l0.01,0.481l-0.083,0.675l-0.082,0.673l0.06,0.619l-0.134,0.53l-0.083,0.676
	l-0.521,0.347l-0.664,0.397l-0.418,0.633l-0.421,0.629l-0.368,0.775l-0.369,0.775l-0.419,0.629l-0.514,0.827l-0.419,0.634
	l-0.613,0.54l-0.562,0.683l-0.754,0.592l-0.613,0.541l-0.614,0.545l-0.561,0.68l-0.615,0.541l-0.612,0.541l-0.563,0.684l-0.42,0.632
	l-0.562,0.684l-0.561,0.684l-0.42,0.634l-0.512,0.824l-0.274,0.579l-0.328,0.438l-0.571,0.203l-0.622,0.064l-0.958,0.02
	l-0.766,0.111l-0.958,0.02l-0.817-0.035l-0.959,0.019l-0.814-0.029l-0.818-0.036l-0.816-0.031l-0.816-0.032l-0.867-0.175
	l-0.818-0.031l-0.816-0.033l-0.87-0.174l-0.815-0.032l-0.87-0.172l-0.868-0.177l-0.87-0.175l-0.814-0.027l-0.868-0.174l-0.867-0.176
	l-0.871-0.179l-0.477,0.013l-0.184,0.389l0.011,0.479l0.112,0.767l-0.185,0.388l-0.427,0.152l-0.48,0.009l-1.63-0.06L303,273.995
	l-13.545-3.228l-0.529-0.134l-0.102-0.285l0.234-0.246l0.531,0.134l0.674,0.083l0.867,0.175l0.816,0.032l0.765-0.111l0.765-0.111
	l0.766-0.111l0.763-0.114l0.909-0.162l0.713-0.254l0.857-0.305l0.856-0.306l0.715-0.255l0.805-0.447l0.667-0.395l0.857-0.305
	l0.665-0.398l0.715-0.254l0.666-0.398l0.663-0.396l0.665-0.398l0.427-0.152l0.479-0.008l-0.092,0.193l0.113,0.766l0.111,0.766
	l0.112,0.766l0.397,0.666l0.398,0.664l0.582,0.277l0.389,0.184l0.284-0.101l0.236-0.247l0.326-0.438l0.562-0.683l0.419-0.634
	l0.47-0.49l0.562-0.682l0.469-0.49l0.612-0.541l0.664-0.396l0.612-0.541l0.664-0.397l0.613-0.54l0.663-0.396l0.612-0.542
	l0.665-0.394l0.468-0.492l0.612-0.542l0.471-0.489l0.562-0.684l0.471-0.488l0.419-0.633l0.368-0.776l0.327-0.435l0.327-0.439
	l0.234-0.244l0.337,0.041l0.334,0.038l0.583,0.276l0.725,0.225l0.673,0.084l0.908-0.163l0.479-0.008l0.571-0.203l0.376-0.297
	l0.234-0.244l0.083-0.675l0.074-1.15l0.072-1.149l0.121-1.015l0.125-1.007l0.122-1.011l0.172-0.867l0.175-0.868l0.174-0.87
	l0.124-1.004l0.17-0.873l0.269-1.059l0.264-1.062l0.073-1.153l0.229-0.721l0.427-0.152l0.621-0.064l0.623-0.062l0.623-0.06
	l0.377-0.297l-0.009-0.48l-0.253-0.71l-0.165-0.913l-0.305-0.855l-0.02-0.961l-0.113-0.766l0.031-0.816l-0.112-0.766l0.085-0.67
	l0.081-0.676l0.033-0.818l0.082-0.673l0.082-0.675l0.034-0.812l-0.112-0.766l-0.111-0.766l-0.164-0.912l-0.163-0.907l-0.212-1.048
	l-0.407-1.145l-0.551-1.096l-0.6-1.236l-0.203-0.568l0.041-0.336l0.235-0.246l0.522-0.347l0.806-0.448l0.612-0.54l0.513-0.823
	l0.133-0.531l-0.112-0.767l-0.295-0.378l-0.682-0.562l-0.877-0.657l-0.876-0.65l-0.735-0.711l-0.733-0.701l-0.878-0.655
	l-0.732-0.706l-0.641-0.896L323,212.127l-0.645-0.9l-0.589-0.753l-0.153-0.43l0.274-0.581l0.857-0.305l2.184-1.101l1.942-1.335
	l1.552-1.52l1.502-1.659l1.258-1.898l0.921-1.936l0.532-2.124l0.392-2.069l0.341-2.212l-0.091-2.065l-0.335-2.294l-0.569-2.051
	l-0.711-1.998L330.663,183l-1.281-1.798l-1.521-1.552l-1.66-1.504l-1.897-1.256l-2.225-0.819l-2.315-0.625l-1.06-0.267l-1.06-0.267
	l-1.154-0.069l-1.152-0.076l-1.051,0.216l-2.58,0.434l-0.623,0.064l-0.061-0.625l0.088-5.183l-0.088-2.062l-0.324-1.814
	l-0.611-1.716l-0.947-1.757l-1.041-1.562l-1.127-1.366l-1.416-1.266l-1.704-1.166l-1.508-1.072l-1.885-0.778l-1.836-0.635
	l-1.927-0.442l-1.876-0.298l-1.968-0.105l-2.061,0.092l-1.816,0.324l-1.91,0.518l-1.808,0.805l-1.848,1.139l-1.458,1.324
	l-0.755,0.592l-0.706,0.733l-0.754,0.591l-0.704,0.735l-0.653,0.875l-0.511,0.826l-1.422,3.246l-0.276,0.576l-0.765,0.115
	l-8.271-1.081l-0.87-0.174l-0.867-0.174l-0.775-0.368l-0.967-0.458l-0.684-0.563l-0.828-0.512l-0.825-0.511l-0.877-0.652
	l-0.682-0.564l-0.875-0.651l-0.827-0.512l-0.63-0.419l-0.775-0.37l-0.632-0.418l-0.725-0.225l-0.674-0.083l-0.623,0.061
	l-0.571,0.203l-0.573,0.204l-0.42,0.632l-0.611,0.541l-0.377,0.294l-0.287,0.102l-0.051-0.142l-0.388-0.186l-0.294-0.378
	l-0.531-0.134l-5.557-2.046l-0.726-0.226l-0.101-0.284l0.275-0.581l5.878-10.623l0.521-0.348l0.805-0.447l0.908-0.163l0.908-0.161
	l0.767-0.113l1-0.355l0.999-0.355l0.951-0.498l0.95-0.501l0.897-0.641l1.093-0.551l1.001-0.356l0.766-0.111l0.724,0.227l0.968,0.458
	l1.072,0.745l1.111,0.41l1.162,0.552l1.061,0.268l0.48-0.012l0.674,0.084l0.675,0.084l0.529,0.134l0.673,0.081l0.674,0.081
	l0.673,0.084l0.675,0.086l0.673,0.082l0.815,0.03l0.674,0.081l0.622-0.061l0.624-0.06l0.622-0.061l0.623-0.062l0.428-0.152
	l0.571-0.204l1.756-0.949l1.469-0.845l1.175-1.223l0.839-1.265l0.5-1.305l0.257-1.542l0.114-1.488l-0.222-1.532l-0.509-1.429
	l-0.559-1.57l-0.846-1.47l-0.987-1.419l-0.985-1.418l-1.226-1.174l-1.365-1.124l-1.364-1.122l-1.551-0.738l-1.407-0.79l-1.589-0.396
	l-1.592-0.401L263.264,120.244L263.264,120.244z"/>
<path fill="#ED1C24" d="M323.313,252.779l0.06,0.619l0.06,0.622l-0.082,0.676l-0.326,0.438l-0.479,0.008l-1.112-0.411l-0.826-0.506
	l-0.44-0.327l-0.532-0.137l-0.285,0.102l-0.184,0.391l-0.274,0.582l-0.41,1.109l-0.788,1.408l-0.459,0.97l-7.75,5.817l-0.9,0.641
	l-0.478,0.012l-0.102-0.287l0.025-3.551l-0.111-0.767l-0.438-0.328l-0.429,0.153l-0.37,0.774l-0.601,1.021l-0.745,1.072
	l-0.848,0.785l-0.991,0.836l-1.237,0.598l-1.092,0.549l-1.429,0.508l-1.286,0.458l-1.531,0.224l-1.479,0.365l-1.387,0.173
	l-1.532,0.221l-1.582,0.079l-1.53,0.223l-1.389,0.172l-1.438,0.028l-1.387,0.173l-1.388,0.17l-1.102,0.07l-1.144,0.406l-0.623,0.061
	l-0.479,0.009l-0.244-0.235l-0.01-0.479l-0.059-0.62l0.072-1.154l0.04-0.338l-0.53-0.132l-0.766,0.11l-1.335,0.318l-1.337,0.314
	l-1.389,0.172l-1.296-0.022l-1.438,0.029l-1.347-0.165l-1.49-0.116l-1.204-0.211l-1.398-0.31l-1.398-0.308l-1.398-0.308
	l-1.308-0.503l-1.304-0.503l-1.449-0.447l-1.162-0.555l-1.305-0.502l-1.305-0.503l-1.213-0.691l-1.162-0.555l-1.305-0.501
	l-6.689-3.415l-0.338-0.037l-0.091,0.189l-0.092,0.194l0.051,0.144l4.931,4.361l0.927,0.794l1.021,0.604l1.113,0.41l1.111,0.411
	l1.111,0.411l1.111,0.41l0.969,0.46l1.111,0.411l0.969,0.462l1.062,0.266l0.919,0.319l1.109,0.405l0.868,0.176l1.061,0.268
	l0.867,0.175l1.061,0.267l1.008,0.121l1.01,0.125l1.011,0.123l1.011,0.124l1.101-0.069l1.155,0.073l0.958-0.019l1.297,0.022
	l1.104-0.071l0.478-0.009l0.439,0.327l0.204,0.572l0.294,0.375l0.244,0.235l0.245,0.235l0.387,0.188l0.244,0.231l0.335,0.041
	l0.389,0.185l0.339,0.042l0.478-0.01l0.337,0.041l0.479-0.009l0.336,0.041l0.479-0.014l0.336,0.042l0.48-0.009l0.333,0.037
	l0.479-0.01l0.338,0.041l0.387,0.185l0.337,0.04l1.307,0.504l1.254,0.358l1.302,0.5l1.115,0.412l1.398,0.307l1.304,0.502
	l1.256,0.359l1.398,0.309l1.253,0.359l1.348,0.166l1.398,0.309l1.256,0.358l1.347,0.162l1.347,0.164l1.347,0.165l1.346,0.161
	l1.348,0.166l1.296,0.021l1.347,0.165l1.296,0.023l0.766-0.111l0.288-0.102l-0.103-0.29l-0.45-0.809l-0.008-0.476l0.579,0.272
	l0.528,0.134l10.849,0.169l0.477-0.013l0.286-0.102l0.479-0.009l0.43-0.153l0.335,0.042l0.287-0.103l0.245,0.236l0.102,0.286
	l0.101,0.286l-0.081,0.669l-0.02,1.301l0.027,1.438l0.306,0.86l0.245,0.234l0.427-0.152l0.225-0.726l0.218-1.2l-0.02-0.963
	l0.173-0.866l0.369-0.776l0.317-0.918l0.553-1.16l0.276-0.582l0.418-0.633l0.419-0.634l0.562-0.684l0.561-0.683l0.562-0.684
	l0.563-0.68l0.562-0.684l0.704-0.733l0.611-0.546l0.705-0.729l0.704-0.734l0.615-0.54l0.562-0.684l0.564-0.684l0.613-0.541
	l0.563-0.684l0.562-0.685l0.381-0.291l0.284-0.102l0.049,0.138l0.153,0.43l0.112,0.768l0.244,0.234l0.38-0.293l0.131-0.533
	l0.277-0.582l0.082-0.669l0.083-0.676l0.032-0.817l0.226-0.721l0.03-0.816l0.032-0.818l0.176-0.869l0.081-0.673l0.172-0.867
	l0.174-0.868l0.033-0.818l0.172-0.867l0.224-0.724l0.228-0.722l0.223-0.725l0.133-0.531l0.276-0.576l0.419-0.634l0.326-0.443
	l0.891-1.118l1.082-1.031l1.186-0.742l0.896-0.646l1.144-0.407l1.001-0.356l1.105-0.066l0.958-0.02l1.062,0.268l1.059,0.264
	l0.828,0.512l0.823,0.514l0.928,0.798l0.732,0.701l0.694,1.044l0.691,1.043l0.55,1.095l0.407,1.145l0.366,1.478l0.316,1.338
	l0.061,0.622l0.06,0.62l-0.03,0.816l0.011,0.48l-0.084,0.674l0.011,0.48l-0.085,0.671l-0.132,0.53l0.01,0.479l-0.132,0.531
	l-0.084,0.676l-0.276,0.582l-0.135,0.525l-0.131,0.531l-0.134,0.532l-0.084,0.674l-0.135,0.532l-0.274,0.58l-0.083,0.67
	l-0.277,0.582l0.011,0.48l-0.184,0.389l-0.134,0.53l-0.324,0.438l-0.186,0.389l-0.274,0.582l-0.325,0.438l-0.185,0.388l-0.328,0.438
	l-0.325,0.438l-0.324,0.443l-0.278,0.577l-0.326,0.438l-0.185,0.39l-0.324,0.442l-0.136,0.527l-0.185,0.389l-0.133,0.531
	l-0.134,0.53l-0.133,0.53l-0.123,1.012l0.151,0.426l0.429-0.153l0.42-0.628l0.5-1.308l0.644-1.354l0.889-1.123l0.471-0.489
	l0.234-0.245l0.388,0.186l0.202,0.568l0.644,0.899l0.785,0.85l1.018,0.601l0.971,0.464l1.254,0.357l1.397,0.306l1.398,0.309
	l1.492,0.116l1.63,0.061l1.438-0.03l1.581-0.078l1.725-0.126l1.58-0.084l1.583-0.078l1.58-0.08l1.44-0.028l1.438-0.028l1.296,0.022
	l1.153,0.074l1.006,0.119l0.725,0.226l0.725,0.227l0.725,0.225l0.58,0.278l0.633,0.419l0.724,0.223l0.488,0.471l0.632,0.415
	l0.489,0.473l0.49,0.469l0.346,0.521l0.488,0.469l0.203,0.571l0.255,0.716l0.202,0.568l0.113,0.771l-0.083,0.669l-0.082,0.676
	l-0.172,0.867l-0.227,0.723l-0.275,0.58l-0.181,0.392l-0.288,0.103l-0.39-0.189l-0.58-0.275l-0.917-0.315l-0.774-0.369l-0.97-0.462
	l-0.867-0.174l-0.867-0.175l-1.01-0.125l-0.865-0.171l-0.958,0.02l-0.96,0.014l-1.013-0.124l-0.762,0.115l-1.011-0.124l-0.958,0.018
	l-0.908,0.164l-0.972,0.02l-0.959,0.017l-0.958,0.02l-0.958,0.02l-1.01-0.125l-0.816-0.032l-1.876-0.298l-1.641-0.541l-1.789-0.491
	l-1.06-0.264l-0.335-0.042l0.102,0.286l0.59,0.758l0.929,0.798l1.021,0.6l1.112,0.411l1.255,0.359l1.255,0.357l1.348,0.166
	l1.489,0.114l1.438-0.032l1.491,0.115l1.581-0.078l1.489,0.109l1.489,0.114l1.438-0.028l1.491,0.115l1.398,0.308l1.398,0.309
	l1.21,0.691l1.163,0.555l1.122,0.89l0.979,0.941l0.398,0.665l-0.042,0.333l-0.429,0.153l-0.672-0.079l-0.816-0.032l-0.336-0.041
	l0.102,0.286l0.303,0.854l0.602,1.239l0.265,1.194l0.214,1.052l0.12,1.243l0.021,0.961l-0.073,1.154l-0.173,0.867l-0.316,0.919
	L391,302.271l-0.562,0.684l-0.563,0.685l-0.613,0.54l-0.856,0.305l-0.857,0.305l-0.857,0.306l-1.103,0.069l-1.152-0.073l-1.11-0.405
	l-1.257-0.364l-1.303-0.499l-0.775-0.369l-0.44-0.327l0.041-0.336l0.325-0.438l0.185-0.388l-0.244-0.236l-0.49-0.47l-0.682-0.563
	l-0.826-0.513l-0.775-0.368l-0.772-0.365l-0.92-0.319l-0.725-0.224l-0.918-0.319l-0.866-0.171l-0.866-0.175l-0.867-0.175
	l-0.919-0.318l-0.867-0.176l-0.867-0.174l-0.917-0.314l-0.867-0.176l-0.776-0.367l-0.774-0.365l-0.775-0.37l-0.827-0.511
	l-0.682-0.563l-0.632-0.416l-0.478,0.009l0.152,0.427l0.397,0.664l0.539,0.614l0.491,0.469l0.684,0.563l0.631,0.42l0.58,0.276
	l0.774,0.365l0.631,0.421l0.725,0.226l0.724,0.223l0.723,0.227l0.582,0.276l0.726,0.226l0.867,0.175l0.633,0.419l0.866,0.171
	l0.582,0.276l0.724,0.227l0.725,0.226l0.776,0.37l0.63,0.419l0.387,0.185l0.102,0.286l-0.092,0.19l-0.427,0.152l-0.522,0.346
	l-0.186,0.389l0.154,0.434l0.532,0.133l1.201,0.213l1.256,0.358l1.021,0.604l0.825,0.513l0.783,0.845l0.733,0.707l0.448,0.808
	l0.306,0.858l0.355,0.999l0.163,0.908l0.021,0.96l-0.125,1.012l-0.317,0.914l-0.511,0.827l-0.51,0.826l-0.655,0.873l-0.898,0.646
	l-0.898,0.639l-1.093,0.55l-1.286,0.458l-1.195,0.265l-1.102,0.072l-1.103,0.066l-1.009-0.125l-1.01-0.124l-1.059-0.264
	l-0.918-0.317l-0.969-0.462l-0.969-0.462l-0.967-0.455l-0.827-0.516l-0.827-0.51l-0.876-0.654l-0.878-0.655l-0.877-0.655
	l-0.878-0.654l-0.875-0.651l-0.929-0.798l-0.876-0.655l-0.826-0.508l-0.877-0.656l-0.531-0.139l-0.134,0.532l0.256,0.721
	l0.151,0.425l-0.234,0.245l-0.338-0.041l-0.629-0.417l-0.968-0.462l-1.019-0.604l-1.113-0.41l-1.163-0.555l-1.253-0.36l-1.305-0.497
	l-1.309-0.506l-1.396-0.304l-1.357-0.646l-1.307-0.502l-1.397-0.306l-1.355-0.646l-1.164-0.553l-1.304-0.499l-1.164-0.557
	l-1.07-0.744l-0.875-0.649l-0.929-0.799l-0.735-0.706l-0.782-0.846l-1.884-3.032l-0.389-0.186l-0.572,0.204l-0.612,0.541
	l-0.521,0.347l-2.857,1.017l-0.715,0.254l-0.907,0.162l-0.714,0.255l-0.958,0.018l-0.909,0.163l-0.958,0.019l-0.959,0.014
	l-0.765,0.115l-0.958,0.02l-0.958,0.019l-0.818-0.03l-0.959,0.019l-0.816-0.034l-1.674,0.27l-1.867,0.182l-1.621,0.42l-1.766,0.467
	l-1.673,0.273l-0.816-0.032l-0.295-0.379l-0.011-0.479l0.562-0.683l0.378-0.297l-0.01-0.479l-0.438-0.329l-0.813-0.027l-0.766,0.111
	l-0.573,0.203l-0.765,0.111l-0.623,0.061l-0.572,0.203l-0.623,0.062l-0.714,0.254l-0.623,0.06l-0.623,0.065l-0.572,0.203
	l-0.622,0.06l-0.622,0.062l-0.622,0.063l-0.624,0.061l-0.764,0.111l-0.675-0.084l-0.672-0.082l-0.676-0.087l-0.815-0.027
	l-1.009-0.125l-0.918-0.317l-0.867-0.176l-0.918-0.316l-0.866-0.176l-0.917-0.314l-1.061-0.268l-0.918-0.313l-0.918-0.318
	l-0.921-0.317l-0.916-0.314l-0.918-0.317l-0.918-0.318l-0.919-0.313l-1.01-0.124l-0.87-0.178l-1.059-0.264l-0.817-0.032
	l-1.009-0.124l-0.958,0.019l-0.725-0.227l-0.439-0.327l0.04-0.337l0.419-0.634l0.47-0.488l-0.011-0.48l-0.486-0.467l-0.48,0.01
	l-0.765,0.112l-1.102,0.068l-1.009-0.123l-0.867-0.176l-12.555-4.063l-0.816-0.032l-0.724-0.226l-0.102-0.286l0.378-0.296
	l0.765-0.111l0.858-0.306l0.183-0.386l-0.204-0.573l-0.672-0.083l-0.962,0.016l-0.866-0.171l-0.813-0.032l-0.725-0.227l-0.868-0.174
	l-0.725-0.225l-0.674-0.083l-0.723-0.227l-0.632-0.416l-0.725-0.226l-0.58-0.275l-0.532-0.136l-0.775-0.367l-0.58-0.278
	l-0.531-0.133l-0.579-0.277l-0.726-0.227l-0.531-0.132l-0.529-0.136l-0.673-0.082l-6.163-1.027l-1.346-0.165l-0.766,0.116
	l-0.622,0.061l-0.236,0.244l-2.901,3.607l-0.564,0.686l-0.561,0.684l-0.849,0.786l-0.706,0.728l-0.755,0.592l-0.847,0.784
	l-0.899,0.646l-0.846,0.781l-0.756,0.593l-0.849,0.784l-0.896,0.644l-0.703,0.734l-0.85,0.784l-0.754,0.59l-0.653,0.878
	l-0.654,0.874l-0.563,0.683l-0.509,0.828l-0.46,0.968l-0.46,0.971l-0.275,0.581l-0.237,0.246l-0.336-0.042l-0.245-0.235
	l-0.294-0.379l-0.153-0.429l-0.204-0.572l-0.01-0.476l-0.213-1.052l-0.296-0.38l-0.374,0.295l-0.604,1.021l-0.458,0.97l-0.602,1.02
	l-0.604,1.017l-0.798,0.928l-0.653,0.879l-0.704,0.734l-0.99,0.835l-0.706,0.734l-0.845,0.785l-1.043,0.693l-0.9,0.642l-0.896,0.643
	l-1.046,0.695l-0.896,0.641l-1.042,0.693l-0.951,0.501l-0.896,0.641l-1.043,0.693l-0.946,0.498l-0.9,0.642l-0.568,0.202
	l-0.479,0.012l0.037-0.337l0.226-0.724l0.554-1.161l0.461-0.971l0.226-0.725l-0.103-0.287l-0.479,0.011l-0.614,0.54l-0.845,0.784
	l-0.899,0.643l-0.756,0.593l-0.614,0.54l-0.665,0.398l-0.664,0.397l-0.43,0.153l-0.518,0.345l-0.48,0.01l-0.573,0.204l-0.429,0.152
	l-0.481,0.01l-0.425,0.151l-0.572,0.203l-0.429,0.153l-0.767,0.111l-0.573,0.203l-0.664,0.398l-0.716,0.255l-0.804,0.447
	l-4.458,2.394l-0.716,0.255l-0.193-0.093l-0.153-0.43l-0.915-2.571l-0.296-0.379l-0.387-0.185l-0.767,0.111l-5.542,1.166
	l-1.247,0.123l-1.441,0.028l-1.348-0.166l-1.343-0.161l-1.207-0.216l-1.347-0.16l-1.256-0.36l-1.059-0.269l-1.256-0.357l-0.97-0.461
	l-1.164-0.554l-1.108-0.407l-1.026-0.606l-1.016-0.602l-1.02-0.603l-0.878-0.657l-0.927-0.794l-1.018-0.604l-0.785-0.849
	l-0.928-0.795l-0.929-0.797l-0.836-0.992l-0.924-0.795l-0.837-0.992l-0.439-0.328l-0.48,0.011l-1.675,0.274l-1.668,0.27
	l-1.533,0.225l-1.58,0.077l-1.4-0.308l-1.438,0.033l-1.4-0.312l-1.292-0.021l-1.349-0.164l-1.44,0.029l-1.39,0.172l-0.67-0.084
	l-0.337-0.041l-0.245-0.235l0.083-0.671l-0.152-0.429l-0.103-0.289l-0.478,0.014l-0.819-0.036l-0.961,0.02l-0.765,0.111
	l-0.816-0.027l-0.767,0.111l-0.818-0.031l-0.766,0.11l-0.909,0.163l-0.763,0.109l-0.769,0.117l-0.762,0.111l-0.767,0.111
	l-0.715,0.254l-0.767,0.111l-0.716,0.255l-0.857,0.305l-0.716,0.255l-0.665,0.398l-0.716,0.255l-0.803,0.447l-0.668,0.398
	l-0.43,0.153l-0.153-0.43l-0.255-0.716l0.086-0.675l0.032-0.817l-0.102-0.286l-0.481,0.009l-0.521,0.348l-0.665,0.399l-0.519,0.34
	l-0.665,0.398l-0.666,0.396l-0.521,0.348l-0.716,0.255l-0.614,0.54l-0.715,0.254l-0.471,0.49l-0.659,0.396l-0.665,0.398
	l-0.523,0.342l-0.612,0.545l-0.47,0.491l-0.467,0.487l-0.618,0.542l-0.327,0.438l-0.416,0.633l-0.421,0.629l-0.222,0.725
	l-0.276,0.581l-0.43,0.153l-0.339-0.04l-0.486-0.468l-0.632-0.42l-0.338-0.041l-0.613,0.54l-0.419,0.634l-0.614,0.54l-0.562,0.684
	l-0.707,0.734l-0.416,0.634l-0.566,0.686l-0.509,0.82l-0.566,0.686l-0.508,0.824l-0.516,0.83l-0.367,0.77l-0.369,0.776l-0.364,0.775
	l-0.174,0.868l-0.37,0.772l-0.125,1.011l-0.175,0.867l-0.03,0.817l-0.033,0.818l0.019,0.956l0.116,0.77l0.293,0.379l0.234-0.244
	l0.563-0.685l0.42-0.633l0.521-0.347l0.338,0.041l0.438,0.327l0.579,0.278l0.492,0.465l0.632,0.419l0.492,0.472l0.434,0.328
	l0.346,0.518l0.494,0.469l0.204,0.573l0.394,0.667l0.346,0.516l0.009,0.48l-0.132,0.531l-0.389-0.185l-1.252-0.36l-0.53-0.133
	l-0.481,0.01l-0.091,0.194l-0.042,0.336l0.115,0.766l-0.035,0.818l0.019,0.96l-0.121,1.007l-0.316,0.923l-0.176,0.864l-0.411,1.114
	l-0.46,0.969l-0.461,0.97l-0.46,0.971l-0.604,1.021l-0.65,0.875l-0.655,0.88l-0.657,0.873l-0.848,0.785l-0.703,0.734l-0.705,0.733
	l-0.757,0.593l-0.896,0.642l-0.668,0.399l-0.803,0.445l-0.859,0.307l-1.002,0.356l-0.854,0.304l-0.998,0.355l-0.863,0.307
	l-0.998,0.355l-0.857,0.305l-0.757,0.592l-0.804,0.448l-0.523,0.343l-0.335-0.037l0.04-0.342l0.419-0.633l0.132-0.531l-0.1-0.281
	l-0.246-0.239l-0.479,0.013l-2,0.712l-1.908,0.517l-2.105,0.43l-1.959,0.367l-1.957,0.381l-1.958,0.373l-2.01,0.229l-1.87,0.182
	l-1.919,0.043l-1.917,0.035l-1.972-0.104l-1.968-0.104l-2.02-0.243l-1.877-0.301l-1.926-0.443l-1.976-0.581l-1.982-0.585
	l-1.834-0.637l-2.029-0.729l-1.938-0.918l-0.582-0.277l-0.385-0.185l-0.581-0.276l-0.587-0.276l-0.439-0.327l-0.526-0.134
	l-0.633-0.42l-0.438-0.323l-0.582-0.276l-0.391-0.189l-0.488-0.467l-0.443-0.326l-0.582-0.276l-0.435-0.328l-0.488-0.467
	l-0.444-0.326l-0.291-0.378l-0.494-0.472l-0.491-0.469l-0.291-0.381l-0.837-0.987l-0.641-0.899l-0.646-0.895l-0.494-0.953
	l-0.694-1.042l-0.355-0.997l-0.499-0.951l-0.5-0.951l-0.355-0.998l-0.212-1.048l-0.357-1.003l-0.213-1.052l-0.355-0.996
	l-0.068-1.102l-0.271-1.197l-0.212-1.049l-0.068-1.1l-0.215-1.052l-0.07-1.105l-0.121-1.242l-0.01-0.483l0.084-0.671l0.04-0.336
	l0.226-0.725l0.136-0.528l0.133-0.53l0.274-0.587l0.328-0.438l0.278-0.578l0.466-0.488l0.327-0.443l0.47-0.49l0.378-0.295
	l0.472-0.485l0.517-0.347l0.572-0.204l0.429-0.152l0.568-0.202l0.625-0.06l0.479-0.011l5.812,0.502l0.429-0.153l0.185-0.388
	l-0.153-0.43l-0.24-0.23l-4.682-1.395l-0.48,0.011l-0.532-0.134l-0.337-0.04l-0.479,0.009l-0.43,0.153l-0.429,0.152l-0.431,0.153
	l-0.569,0.202l-0.285,0.102l-0.572,0.204l-0.377,0.296l-0.379,0.294l-0.43,0.153l-0.379,0.291l-0.425,0.151l-0.379,0.298
	l-0.378,0.296l-0.429,0.152l-0.43,0.153l-0.286,0.102l-0.246-0.236l-0.314-1.338l-0.122-1.246l-0.121-1.248l0.217-1.201l0.074-1.149
	l0.266-1.067l0.458-0.963l0.604-1.021l0.654-0.878l0.707-0.734l0.844-0.785l0.899-0.642l0.896-0.643l0.951-0.499l1.145-0.407
	l1.195-0.265l1.048-0.212l1.247-0.122l1.298,0.021l1.297,0.023l0.668,0.079l0.237-0.24l-0.102-0.287l-0.73-0.706l-0.583-0.277
	l-0.531-0.133l-0.582-0.277l-0.531-0.133l-0.624,0.06l-0.67-0.084l-0.622,0.065l-0.48,0.009l-0.767,0.113l-0.572,0.204l-0.567,0.201
	l-0.767,0.11l-0.521,0.349l-0.569,0.202l-0.572,0.204l-0.521,0.345l-0.569,0.202l-0.521,0.348l-0.523,0.343l-0.378,0.297
	l-0.805,0.446l-0.479,0.011l-0.153-0.43l0.226-0.723l0.079-0.674l0.278-0.58l0.277-0.578l0.369-0.775l0.469-0.492l0.42-0.631
	l0.466-0.489l0.614-0.54l0.614-0.541l0.666-0.396l0.517-0.344l0.72-0.256l0.711-0.253l0.72-0.256l0.619-0.062l0.766-0.113
	l0.674,0.082l0.722,0.228l0.581,0.274l0.776,0.369l0.775,0.366l0.624-0.061l0.134-0.527l-0.448-0.807l-0.397-0.663l0.041-0.34
	l0.425-0.151l0.822,0.032l1.2,0.215l1.253,0.36l1.062,0.268l1.164,0.551l0.968,0.458l1.021,0.604l0.878,0.653l0.876,0.651
	l0.924,0.801l0.93,0.797l0.922,0.796l0.785,0.847l0.878,0.653l0.93,0.797l0.786,0.85l0.923,0.795l0.877,0.654l1.073,0.748
	l0.872,0.652l1.026,0.603l0.576,0.279l0.532,0.133l0.53,0.132l0.675,0.084l0.531,0.133l0.531,0.133l0.67,0.084l0.676,0.087
	l0.529,0.129l0.62-0.06l0.674,0.084l0.674,0.081l0.532,0.138l0.533,0.134l0.669,0.08l0.532,0.138l0.53,0.133l0.439,0.327
	l0.438,0.324l0.491,0.469l0.439,0.329l0.429-0.152l0.378-0.297l0.276-0.581l-0.009-0.481l0.277-0.578l0.272-0.58l0.277-0.583
	l0.42-0.632l0.416-0.633l0.515-0.826l0.56-0.679l0.566-0.686l0.508-0.827l0.618-0.541l0.65-0.877l0.563-0.684l0.563-0.685
	l0.564-0.681l0.471-0.488l0.562-0.686l0.323-0.441l0.523-0.342l0.327-0.438l0.706-0.735l0.896-0.641l0.951-0.5l0.899-0.644
	l0.998-0.354l0.47-0.49l0.184-0.388l-0.295-0.379l-0.725-0.225l-0.722-0.228l-0.388-0.185l0.185-0.387l0.854-0.304l1.002-0.357
	l0.951-0.501l1.089-0.548l0.9-0.643l0.848-0.786l0.847-0.784l0.848-0.786l0.846-0.78l0.849-0.786l0.795-0.927l0.848-0.785
	l0.848-0.785l1.039-0.693l0.851-0.781l0.896-0.641l0.95-0.501l0.997-0.354l1.002-0.357l1.197-0.263l1.099-0.069l0.716-0.255
	l0.184-0.387l-0.44-0.333l-1.397-0.304l-0.67-0.084l-0.48,0.008l-0.768,0.114l-0.295-0.379l0.041-0.337l0.236-0.246l1.427-0.508
	l1.095-0.546l1.288-0.459l1.001-0.356l0.947-0.497l0.998-0.355l0.858-0.306l0.91-0.163l0.763-0.115l0.859-0.306l0.762-0.109
	l0.821,0.03l0.906-0.161l0.961-0.02l1.01,0.123l1.1-0.068l1.062,0.263l1.299,0.027l1.397,0.303l1.488,0.115l0.872,0.172l0.286-0.102
	l-0.101-0.285l-0.255-0.716l-0.5-0.951l-0.499-0.946l-0.152-0.429l0.042-0.337l0.286-0.102l0.67,0.084l1.067,0.265L111,271.5
	l0.918,0.32l0.919,0.316l0.869,0.175l0.868,0.174l0.918,0.313l0.867,0.175l0.869,0.176l0.868,0.174l1.012,0.123l0.867,0.176
	l0.818,0.032l1.011,0.119l0.957-0.015l0.818,0.032l0.961-0.02l0.959-0.021l0.958-0.018l0.96-0.018l0.766-0.113l0.236-0.244
	l0.041-0.337l-0.541-0.614l-0.44-0.327l-0.202-0.568l-0.256-0.72l-0.253-0.711l-0.113-0.771l-0.109-0.761l-0.02-0.961l-0.022-0.959
	l-0.016-0.962l0.031-0.817l0.125-1.008l0.121-1.009l0.124-1.013l0.175-0.864l0.173-0.871l0.033-0.815l0.225-0.724l0.225-0.726
	l0.135-0.53l0.277-0.583l0.083-0.672l-0.101-0.283l-0.286,0.102l-0.667,0.396l-0.755,0.593l-0.237,0.243l-0.102-0.287l0.033-0.814
	l0.46-0.971l0.461-0.971c0.504-1.303,1.005-2.609,1.699-3.821l0.184-0.386l0.185-0.391l0.33-0.441l0.187-0.384l0.322-0.44
	l0.471-0.488l0.327-0.439l0.417-0.633l0.47-0.486l0.471-0.49l0.419-0.634l0.614-0.54l0.467-0.488l0.47-0.491l0.564-0.682
	l0.471-0.489l0.66-0.397l0.472-0.488l0.471-0.489l0.665-0.398l0.47-0.49l0.518-0.344l0.521-0.348l0.377-0.296l0.518-0.345
	l0.328-0.438l-0.152-0.427l-0.591-0.756l-0.203-0.57l-0.012-0.481l0.471-0.49l1.081-1.026l1.186-0.745l1.274-0.938l1.329-0.794
	l1.376-0.653l1.38-0.648l1.426-0.508l1.431-0.509l1.62-0.419l1.478-0.363l1.481-0.367l1.478-0.365l1.528-0.222l1.673-0.272
	l1.532-0.225l1.579-0.078l1.391-0.173l1.583-0.079l1.385-0.174l1.44-0.029l1.048-0.212l0.329-0.438l-0.295-0.377l-0.772-0.369
	l-0.919-0.316l-0.295-0.377l0.378-0.297l0.767-0.111l0.766-0.111l0.67,0.083l0.674,0.081l0.817,0.033l0.725,0.225l0.673,0.08
	l0.865,0.176l0.725,0.225l0.725,0.227l0.867,0.173l0.674,0.079l0.774,0.371l0.724,0.222l0.633,0.421l0.723,0.227l0.725,0.223
	l0.774,0.369l0.581,0.277l0.58,0.271l0.777,0.371l0.724,0.225l0.287-0.102l0.275-0.581l0.173-0.866l0.185-0.386l0.237-0.247
	l0.339,0.042l0.576,0.272l10.504,6.89l0.725,0.224l0.916,0.316l1.01,0.125l1.009,0.123l0.959-0.018l0.766-0.113l0.337,0.043
	l0.091-0.195l-0.05-0.142l-0.296-0.379l-0.835-0.993l-0.835-0.989l-0.399-0.667l0.094-0.191l0.286-0.102l0.865,0.173l0.532,0.134
	l0.531,0.133l0.527,0.135l0.531,0.134l0.531,0.134l0.529,0.135l0.672,0.082l0.531,0.133l0.531,0.135l0.527,0.134l0.675,0.083
	l0.479-0.011l0.527,0.134l0.624-0.061l0.479-0.013l0.622-0.059l0.572-0.204l0.428-0.151l0.573-0.204l0.572-0.203l0.517-0.348
	l0.042-0.336l-0.244-0.232l-0.722-0.23l-5.093-0.277l-0.674-0.083l-0.476,0.008l-0.39-0.184l-0.243-0.235l-0.245-0.236l-0.102-0.285
	l-0.151-0.426l-0.061-0.623l-1.401-7.549l-0.17-1.392l-0.173-1.386l-0.029-1.438l-0.223-1.53l-0.028-1.438l-0.082-1.582l0.112-1.489
	l-0.077-1.582l0.062-1.631l0.114-1.49l0.258-1.541l0.063-1.633l0.256-1.54l0.112-1.49l0.261-1.539l0.306-1.398l0.452-1.451
	l0.307-1.396l0.306-1.396l0.502-1.308l1.586-4.59l0.039-0.336l-0.242-0.233l-0.339-0.041l-0.284,0.101l-2.677,2.885l-0.665,0.397
	l0,0l0.032-0.817l1.046-5.2l0.176-0.867l0.369-0.775l0.317-0.917l0.46-0.97l0.458-0.97l0.605-1.019l0.55-1.16l0.604-1.021
	l0.602-1.021l0.694-1.214l0.747-1.072l0.6-1.02l0.747-1.072l0.6-1.02l0.748-1.069l0.604-1.023l0.601-1.018l0.46-0.972l0.461-0.968
	l0.368-0.774l0.187-0.388l0.039-0.336l0.237-0.246l0.184-0.388l0.326-0.439l0.136-0.531l0.18-0.385l0.187-0.389l0.327-0.44
	l0.183-0.387l0.135-0.532l0.182-0.387l-0.009-0.478l0.184-0.39l-0.009-0.477l-0.092-0.257l-0.008-0.477l-0.102-0.286l-0.296-0.379
	l-0.346-0.521l0.042-0.335l0.134-0.532l0.928-1.456l0.788-1.41l6.678-13.804l0.276-0.583l0.378-0.292l0.091-0.195l0.389,0.187
	l0.244,0.235l0.397,0.661l0.682,0.564l0.338,0.042l0.183-0.392l-0.203-0.569l-0.447-0.807l-0.305-0.857l-0.214-1.051l-0.303-0.853
	l-0.213-1.054l-0.021-0.959l-0.07-1.105l-0.018-0.954l-0.069-1.104l0.123-1.007l0.123-1.012l0.123-1.007l0.125-1.011l0.268-1.058
	l0.316-0.92l0.318-0.917l0.316-0.922l0.318-0.917l0.512-0.827l0.366-0.776l0.462-0.97l-0.011-0.48l-0.151-0.425l-0.102-0.286
	l0.266-1.06l0.358-1.255l0.451-1.448l0.593-1.501l0.449-1.448l0.411-1.11l0.172-0.868l0.166-1.349l-0.042-1.919l-0.046-2.398
	l0.054-2.109l0.063-1.635l0.083-0.674l0.376-0.293l0.185-0.386l-0.112-0.769l-0.407-1.143l-0.356-1.001l-0.408-1.146l-0.356-1.002
	l-0.151-0.424l-0.062-0.624l-0.011-0.479l-0.153-0.43l-0.061-0.622l0.081-0.672l-0.01-0.48l-0.061-0.621l-0.011-0.48l0.082-0.674
	l0.135-0.532l-0.061-0.62l0.131-0.533l0.084-0.672l0.184-0.386l0.133-0.531l0.134-0.532l0.275-0.581l0.187-0.386l0.325-0.441
	l0.329-0.434l0.419-0.633l0.376-0.296l0.521-0.346l0.52-0.346l0.52-0.347l0.573-0.204l0.427-0.152l0.717-0.255l0.569-0.203
	l0.624-0.06l0.623-0.06l0.571-0.204l0.674,0.083l0.478-0.012l0.676,0.085l0.529,0.129l0.58,0.277l0.438,0.33l0.439,0.324
	l0.295,0.378l0.438,0.325l0.295,0.378l0.492,0.472l0.346,0.521l0.293,0.375l0.347,0.522l0.346,0.521l0.345,0.521l0.204,0.573
	l0.347,0.521l0.203,0.57l0.203,0.571l0.204,0.571l0.152,0.429l0.205,0.574l0.007,0.474l0.153,0.43l0.881,5.643l-0.081,0.676
	l-0.471,0.489l-7.188,5.133l-0.378,0.295l-0.376,0.296l-0.377,0.292l-0.327,0.443l-0.329,0.433l-0.325,0.44l-0.326,0.437
	l-0.327,0.441l-0.184,0.389l-0.276,0.58l-0.184,0.387l-0.277,0.583l-0.133,0.529l-0.185,0.386l-0.133,0.528l-0.134,0.532
	l-0.184,0.388l-0.133,0.53l-0.135,0.528l-0.183,0.39l-0.033,0.816l0.245,0.235l0.335,0.04l0.278-0.581l0.642-1.357l0.983-1.313
	l0.929-1.459l1.317-1.273l1.267-1.414l1.459-1.326l1.654-1.233l1.706-1.089l1.706-1.091l1.756-0.949l1.807-0.803l1.807-0.803
	l1.908-0.52l1.817-0.321l1.868-0.18l1.773,0.009l1.683,0.205l1.592,0.401l1.55,0.736l1.458,0.929l0.979,0.942l0.782,0.844
	l0.357,1.004l0.305,0.857l0.162,0.905l-0.172,0.868l-0.175,0.868l-0.46,0.968l-0.511,0.825l-0.705,0.733l-0.797,0.931l-0.846,0.784
	l-0.9,0.642l-0.95,0.497l-0.899,0.641l-1.144,0.407l-0.95,0.501l-1.05,0.21l-1.002,0.357l-0.907,0.162l-0.959,0.018l-0.235,0.247
	l0.05,0.14l0.101,0.284l-0.236,0.246l-0.856,0.305l-1.053,0.213l-0.571,0.203l-0.236,0.246l0.244,0.234l0.389,0.185l0.387,0.186
	l0.673,0.083l0.389,0.183l0.479-0.008l0.337,0.04l0.529,0.132l0.674,0.085l0.377-0.296l0.041-0.336l-0.153-0.429l-0.724-0.223
	l-0.389-0.186l-0.1-0.282l0.427-0.152l0.815,0.028l0.674,0.085l0.528,0.132l0.387,0.186l0.295,0.378l0.204,0.571l-1.171,8.467
	l-0.134,0.531l0.103,0.288l0.151,0.426l0.102,0.286l0.337,0.04l0.53,0.136l0.479-0.011l7.252,0.479l0.815,0.031l0.867,0.172
	l0.724,0.224l0.867,0.176l0.776,0.369l0.775,0.368l0.826,0.511l0.775,0.367l0.684,0.564l0.682,0.562l0.736,0.706l0.682,0.563
	l0.59,0.757l0.396,0.661l0.591,0.756l0.397,0.663l0.305,0.857l0.447,0.807l0.112,0.765l0.305,0.856l0.01,0.481l0.009,0.478
	l0.062,0.624l0.01,0.479l0.011,0.478l0.062,0.624l-0.184,0.387l-0.083,0.675l0.01,0.478l-0.327,0.439l-0.133,0.531l-0.186,0.385
	l-0.325,0.439l-0.328,0.438l-0.183,0.388l-0.325,0.441l-0.378,0.295l-0.572,0.204l-0.377,0.294l-0.571,0.203l-0.572,0.204
	l-0.386-0.183l-0.633-0.417l-0.295-0.379l-0.335-0.043l-0.663,0.399l-0.572,0.204l-0.714,0.254l-0.571,0.204l-0.624,0.059
	l-0.527-0.128l-0.675-0.085l-0.532-0.136l-0.723-0.222l-0.53-0.135l-0.632-0.417l-0.58-0.278l-0.58-0.276l-0.725-0.223l-0.58-0.278
	l-0.579-0.274l-0.582-0.275l-0.675-0.084l-0.579-0.273l-0.48,0.009l-0.673-0.082l-0.428,0.152l-0.624,0.059l-0.426,0.152
	l-0.572,0.204l-0.571,0.203l-0.376,0.297l-0.572,0.203l-0.43,0.153l-0.521,0.345l-0.522,0.346l-0.572,0.204l-0.377,0.292
	l-0.521,0.348l-0.377,0.294l-0.571,0.203l-0.43,0.153l-0.572,0.204l-0.428,0.152l-0.429,0.152l-0.478,0.011l-6.225,0.606
	l-0.621,0.061l-0.237,0.245l0.243,0.233l0.827,0.511l0.58,0.278l0.152,0.428l-0.276,0.577l-5.173,9.894l-0.279,0.577l-0.754,0.595
	l-1.195,0.265l-1.048,0.214l-1.093,0.549l-0.613,0.54l-0.184,0.39l-0.132,0.527l0.162,0.907l0.306,0.859l0.682,0.563l0.347,0.521
	l0.151,0.426l-0.285,0.102l-0.715,0.254l-0.714,0.254l-0.765,0.112l-0.715,0.254l-0.663,0.396l-0.714,0.254l-0.714,0.254
	l-0.664,0.397l-0.664,0.396l-0.663,0.398l-0.614,0.539l-0.664,0.395l-0.612,0.543l-0.612,0.538l-0.613,0.541l-0.469,0.494
	l-0.42,0.627l-0.42,0.632l-0.418,0.633l-0.42,0.629l-0.226,0.726l-0.133,0.532l-0.081,0.672l0.204,0.572l0.396,0.664l0.346,0.521
	l0.346,0.52l0.103,0.288l-0.326,0.438l-0.757,0.591l-0.845,0.785l-0.85,0.784l-0.747,1.07l-0.743,1.07l-0.697,1.213l-0.695,1.212
	l-0.501,1.303l-0.502,1.306l-0.499,1.306l-0.308,1.397l-0.166,1.346l-0.165,1.349l-0.021,1.297l0.124,1.243l0.121,1.244l0.408,1.146
	l0.499,0.951l0.782,0.85l0.784,0.844l0.493,0.471l-0.04,0.337l-0.034,0.816l-0.542,1.643l-0.208,1.684l-0.257,1.539l-0.207,1.685
	l-0.208,1.682l-0.206,1.685l-0.009,1.773l0.079,1.582l0.128,1.725l0.08,1.579l0.132,1.722l0.272,1.678l0.417,1.619l0.418,1.621
	l0.365,1.479l0.467,1.765l0.56,1.574l0.703,1.52l0.702,1.52l0.7,1.519l1.65,3.279l0.194,0.091l0,0l0.142-0.05l-0.051-0.143
	l-3.699-12.204l-0.112-0.766l-0.111-0.768l-0.304-0.854l-0.019-0.96l-0.161-0.905l-0.073-1.104l-0.067-1.103l-0.072-1.102
	l0.073-1.154l-0.068-1.103l0.069-1.152l-0.068-1.1l0.072-1.155l0.121-1.007l0.074-1.153l0.174-0.868l-0.019-0.96l0.174-0.868
	l0.223-0.72l0.083-0.674l3.029-9.131l0.268-1.059l0.135-0.528l-0.103-0.288l-0.43,0.153l-3.185,1.458l-0.52,0.344l-0.478,0.01
	l-0.337-0.042l-0.102-0.286l-0.347-0.522l-0.214-1.052l-0.214-1.047l-0.213-1.051l0.122-1.011l0.268-1.06l0.216-1.206l0.409-1.109
	l0.463-0.97l0.549-1.164l0.605-1.019l0.599-1.021l0.748-1.07l0.655-0.876l0.743-1.071l0.798-0.928l0.799-0.929l0.705-0.73
	l0.707-0.734l0.704-0.733l0.704-0.737l0.376-0.293l0.185-0.388l0.041-0.337l-0.153-0.43l-0.244-0.234l-0.244-0.235l-0.389-0.187
	l-0.437-0.322l-0.682-0.564l-0.44-0.325l0.136-0.531l0.274-0.58l0.663-0.396l0.471-0.49l0.469-0.491l0.666-0.395l0.522-0.347
	l0.612-0.542l0.664-0.396l0.521-0.345l0.663-0.397l0.715-0.254l0.521-0.345l0.663-0.399l0.715-0.254l0.714-0.254l0.714-0.254
	l0.571-0.203l0.715-0.255l0.766-0.11l0.765-0.112l0.571-0.204l0.767-0.111l0.234-0.245l-0.193-0.091l-0.733-0.706l-0.54-0.61
	l-0.397-0.667l-0.449-0.806l-0.203-0.572l0.092-0.194l0.571-0.203l0.479-0.009l0.48-0.01l0.529,0.134l0.674,0.083l0.532,0.133
	l0.671,0.083l0.674,0.084l0.725,0.225l0.725,0.224l0.673,0.083l0.722,0.224l0.724,0.226l0.725,0.226l0.528,0.131l0.725,0.228
	l0.579,0.275l0.387,0.185l0.582,0.274l0.246,0.237l3.497,2.138l0.826,0.513l0.285-0.102l-0.255-0.716l-1.017-2.858l-0.163-0.908
	l0.326-0.438l0.479-0.012l0.49,0.471l0.296,0.379l0.294,0.378l0.542,0.61l0.63,0.418l0.594,0.757l0.825,0.509l0.681,0.561
	l0.684,0.563l0.631,0.419l0.581,0.277l0.582,0.275l0.389,0.185l11.352,1.592l0.868,0.175l0.39,0.186l0.152,0.427l0.018,0.959
	l-0.03,0.815l0.111,0.764l-0.033,0.818l0.112,0.766l0.111,0.765l0.112,0.765l0.113,0.766l0.254,0.713l0.253,0.713l0.255,0.716
	l0.254,0.715l0.254,0.715l0.396,0.661l0.396,0.666l0.397,0.664l0.396,0.662l0.398,0.665l0.541,0.612l0.539,0.613l0.542,0.613
	l0.345,0.521l-0.04,0.336l-0.186,0.387l-0.663,0.399l-0.427,0.152l-0.377,0.294l-0.378,0.295l-0.521,0.344l-0.377,0.295
	l-0.521,0.347l-0.326,0.438l-0.521,0.346l-0.327,0.439l-0.325,0.441l-0.521,0.344l-0.328,0.439l-0.326,0.439l-0.326,0.438
	l-0.47,0.491l-0.325,0.438l-0.185,0.387l-0.326,0.438l-0.277,0.583l-0.183,0.387l-0.46,0.968l-0.461,0.966l-0.408,1.113
	l-0.267,1.063l-0.267,1.06l-0.409,1.111l-0.124,1.008l-0.216,1.204l-0.125,1.009l-0.02,1.297l0.018,0.959l0.214,1.053l0.069,1.102
	l0.356,1l0.265,1.195l0.497,0.946l0.357,1.003l0.642,0.895l0.692,1.045l0.784,0.849l1.03,1.083l1.121,0.889l1.264,0.839l1.211,0.692
	l1.4,0.312l1.306,0.498l1.348,0.166l1.398,0.309l1.438-0.03l1.39-0.17l1.388-0.172l1.479-0.366l1.428-0.509l1.287-0.458l1.286-0.457
	l1.326-0.795l1.134-0.888l1.134-0.886l1.133-0.887l0.89-1.123l0.705-0.73l0.704-0.734l0.703-0.734l0.654-0.876l0.511-0.825
	l0.318-0.92l0.277-0.58l0.236-0.243l0.285-0.102l0.528,0.134l0.775,0.364l0.631,0.42l0.773,0.366l0.727,0.229l0.63,0.416
	l0.724,0.227l0.776,0.368l0.631,0.419l0.675,0.084l0.915,0.314l0.675,0.083l0.723,0.226l0.868,0.175l1.439-0.028l1.439-0.028
	l1.438-0.028l0.389,0.185l0.438,0.327l0.926,0.794l0.835,0.993l0.651,1.375l0.783,0.85l1.326,1.463l1.273,1.316l1.561,1.213
	l0.294,0.379l0.193,0.092l-0.091,0.195l-0.428,0.152l-1.052,0.213l-1.05,0.212l-0.48,0.01l-0.234,0.245l0.011,0.48l0.344,0.517
	l0.398,0.665l0.396,0.664l0.397,0.665l0.346,0.521l0.397,0.665l0.398,0.665l0.346,0.521l0.253,0.712l0.256,0.719l0.254,0.716
	l-0.032,0.812l0.069,1.105l-0.02,1.297l-0.071,1.15l0.07,1.104l-0.074,1.15l0.071,1.102l0.069,1.105l0.061,0.619l-0.237,0.244
	l-0.287,0.102l-0.58-0.277l-0.867-0.174l-0.338-0.041l-0.039,0.342l0.355,0.996l0.214,1.049l0.07,1.103L323.313,252.779
	L323.313,252.779z"/>
<path fill="#ED1C24" d="M111.552,185.667l0.278-0.58l0.711-0.253l4.972-0.966l1.101-0.068l1.103-0.069l1.15,0.074l1.154,0.07
	l1.059,0.268l1.205,0.214l1.011,0.123l0.623-0.061l0.133-0.531l-0.012-0.474l0.235-0.245l0.674,0.08l1.247-0.119l1.2,0.216
	l1.298,0.022l1.348,0.162l1.542,0.257l1.4,0.309l1.538,0.258l1.45,0.451l1.449,0.447l1.451,0.451l1.501,0.594l1.353,0.644
	l1.214,0.693l1.408,0.787l1.211,0.697l1.124,0.891l0.978,0.938l0.836,0.99l0.837,0.991l0.55,1.095l0.343,0.523l0.387,0.181
	l0.337,0.041l0.239-0.246l0.186-0.384l-0.06-0.624l-0.064-0.621l0.378-0.297l0.531,0.133l0.878,0.656l0.392,0.663l0.541,0.612
	l0.544,0.613l0.394,0.667l0.545,0.61l0.305,0.856l0.59,0.754l0.444,0.807l0.306,0.857l0.305,0.856l0.397,0.664l0.305,0.856
	l0.162,0.907l0.305,0.857l0.115,0.763l-0.031,0.817l0.112,0.766l-0.033,0.816l-0.036,0.816l-0.17,0.867l-0.134,0.531l-0.134,0.525
	l0.242,0.24l0.194,0.092l0.335,0.039l0.286-0.102l0.43-0.153l0.429-0.153l0.715-0.254l0.615-0.539l0.194,0.092l-0.227,0.724
	l-0.225,0.726l-0.318,0.919l-0.365,0.774l-0.225,0.726l-0.318,0.919l-0.227,0.721l-0.226,0.725l-0.314,0.918l-0.225,0.727
	l-0.175,0.866l-0.228,0.723l-0.174,0.868l-0.175,0.868l-0.226,0.724l-0.032,0.814l-0.174,0.871l-0.176,0.866l-0.271,0.581
	l-0.471,0.49l-0.809,0.447l-0.998,0.355l-1.052,0.215l-1.1,0.068l-1.052,0.215l-0.909,0.162l-0.766,0.113l-0.855,0.305l-1.052,0.213
	l-1.001,0.357l-1.141,0.405l-1.145,0.407l-1.001,0.357l-1.232,0.599l-1.095,0.55l-1.145,0.407l-1.043,0.695l-1.042,0.693
	l-0.896,0.642l-0.851,0.781l-0.844,0.783l-0.706,0.736l-0.513,0.824l-0.317,0.922l-0.175,0.866l0.018,0.96l-0.225,0.725
	l-0.611,0.537l-0.668,0.4l-0.803,0.447l-0.429,0.152l-0.153-0.43l0.318-0.919l0.263-1.061l0.125-1.009l0.174-0.867l0.318-0.918
	l-0.018-0.959l0.124-1.01l0.123-1.012l0.034-0.813l0.12-1.009l-0.016-0.961l-0.018-0.958l-0.161-0.907l-0.019-0.958l-0.306-0.859
	l-0.217-1.05L134,223.413l-0.355-0.999l-0.306-0.858l-0.448-0.807l-0.496-0.951l-0.204-0.572l-0.102-0.286l0.282-0.101l0.821,0.03
	l1.099-0.069l1.201,0.218l0.822,0.031l0.286-0.103l0.041-0.338l-0.683-0.56l-0.683-0.562l-0.596-0.754l-0.536-0.613l-0.592-0.754
	l-0.595-0.754l-0.54-0.611l-0.73-0.707l-0.827-0.51l-0.439-0.328l-0.581-0.273l-0.582-0.277l-0.725-0.226l-0.867-0.171l-0.721-0.227
	l-0.919-0.317l-0.867-0.173l-1.012-0.127l-0.867-0.17l-1.011-0.124l-1.012-0.124l-0.812-0.029l-0.965,0.021l-0.813-0.037
	l-0.766,0.114l-0.767,0.111c-1.533,0.222-3.104,0.78-4.422,2.056l-0.572,0.204l-0.292-0.378l-0.114-0.764l-0.061-0.623l-0.102-0.286
	l-0.245-0.235l-0.283,0.101l-0.623,0.062l-0.946,0.497l-0.95,0.5l-0.809,0.448l-0.896,0.639l-0.9,0.646l-0.756,0.591l-0.946,0.499
	l-0.952,0.497l-0.665,0.396l-0.858,0.306l-0.665,0.397l-0.854,0.304l-0.665,0.398l-0.858,0.306l-0.716,0.254l-0.808,0.449
	l-0.716,0.254l-0.803,0.447l-0.669,0.397l-0.712,0.253l-0.756,0.594l-0.665,0.396l-0.809,0.447l-0.664,0.396l-0.613,0.544
	l-0.563,0.682l-0.614,0.54l-0.614,0.541l-0.56,0.683l-0.432,0.153l-0.153-0.43l0.317-0.919l0.043-0.333l-0.297-0.381l-0.387-0.182
	l-0.623,0.061l-0.716,0.256l-0.715,0.254l-0.712,0.254l-0.719,0.256l-0.71,0.252l-0.669,0.399l-0.711,0.253l-0.716,0.256
	l-0.716,0.254l-0.715,0.255l-0.665,0.396l-0.716,0.255l-0.716,0.255l-0.716,0.255l-0.765,0.112l-0.716,0.255l-0.715,0.255
	l-0.767,0.111l-0.767,0.113l-0.767,0.109l-1.92,0.04l-1.681-0.204l-1.542-0.257l-1.692-0.688l-1.408-0.786l-1.266-0.837
	l-1.169-1.035l-1.081-1.223l-1.082-1.227l-0.844-1.469l-0.846-1.469l-0.61-1.715l-0.56-1.572l-0.559-1.57l-0.323-1.816l-0.274-1.674
	l-0.129-1.723l-0.129-1.723l0.062-1.635l0.204-1.679l0.175-0.869l0.127-1.011l0.173-0.865l0.174-0.869l0.318-0.917l0.171-0.863
	l0.267-1.063l0.318-0.917l0.175-0.866l0.319-0.92l0.312-0.918l0.318-0.917l0.319-0.917l0.17-0.867l0.317-0.919l0.319-0.915
	l0.171-0.867l0.316-0.919l0.125-1.009l0.175-0.867l0.268-1.062l0.175-0.865l-0.021-0.961l0.125-1.008l-0.019-0.959l0.032-0.817
	l-0.019-0.958l-0.018-0.96l-0.019-0.956l-0.162-0.909l-0.018-0.959l-0.02-0.958l0.125-1.008l0.134-0.532l0.765-0.115l0.92,0.319
	l0.53,0.134l0.375-0.293l0.041-0.34l-0.254-0.714l-0.55-1.091l-0.495-0.951l-0.407-1.143l-0.356-1.001l-0.305-0.858l-0.304-0.854
	l-0.218-1.052l-0.162-0.909l-0.112-0.766l0.031-0.819l-0.02-0.96l0.036-0.816l0.171-0.868l0.317-0.918l0.367-0.772l0.316-0.919
	l0.461-0.971l0.604-1.021l0.603-1.02l0.745-1.066l0.327-0.439l0.328-0.438l0.326-0.443l0.38-0.293l0.377-0.296l0.327-0.438
	l0.379-0.295l0.375-0.294l0.377-0.297l0.378-0.294l0.379-0.295l0.38-0.293l0.429-0.152l0.569-0.203l0.378-0.297l0.43-0.153
	l0.572-0.204l0.429-0.152l0.572-0.204l0.476-0.007l0.909-0.166l0.336,0.041l0.153,0.429l-0.042,0.338l-0.568,0.202l-0.379,0.294
	l-0.429,0.153l-0.328,0.437l-0.287,0.102l-0.326,0.442l-0.379,0.292l-0.327,0.441l-0.329,0.437l-0.231,0.241l-0.281,0.584
	l-0.327,0.439l-0.185,0.389l-0.323,0.438l-0.184,0.386l-0.189,0.39l-0.277,0.583l-0.041,0.337l-0.13,0.528l-0.134,0.529l0.01,0.48
	l-0.041,0.337l-0.026,3.551l0.101,0.284l0.193,0.092l0.194,0.09l0.185-0.388l1.945-5.844l0.185-0.391l0.186-0.383l0.326-0.44
	l0.185-0.39l0.329-0.437l0.324-0.437l0.377-0.297l0.329-0.437l0.379-0.295l0.471-0.49l0.378-0.295l0.377-0.297l0.375-0.293
	l0.522-0.346l0.379-0.296l0.379-0.293l0.429-0.152l0.379-0.297l0.375-0.293l0.47-0.491l-0.01-0.48l-0.388-0.185l-0.337-0.041
	l-0.48,0.011l-0.296-0.378l0.042-0.335l0.665-0.397l0.572-0.204l0.568-0.203l0.572-0.204l0.43-0.153l0.619-0.06l0.623-0.062
	l0.431-0.153l0.479-0.01l0.531,0.134l0.623-0.062l0.476-0.009l0.532,0.132l0.48-0.009l0.53,0.132l0.583,0.277l0.531,0.135
	l0.527,0.133l0.531,0.135l0.582,0.273l0.582,0.276l0.776,0.369l0.246,0.236l-0.291,0.103l-0.712,0.253l-0.665,0.395l-0.715,0.254
	l-0.665,0.398l-0.666,0.395l-0.469,0.493l-0.666,0.395l-0.613,0.543l-0.467,0.487l-0.566,0.685l-0.416,0.631l-0.42,0.628
	l-0.278,0.583l-0.365,0.775l-0.225,0.725l-0.132,0.531l-0.176,0.869l-0.087,0.675l0.116,0.763l0.11,0.764l0.111,0.767l0.151,0.425
	l0.394,0.185l0.375-0.292l0.328-0.442l0.277-0.58l0.184-0.388l0.216-1.205l0.36-1.255l0.411-1.112l0.604-1.021l0.507-0.824
	l0.656-0.877l0.849-0.782l0.845-0.784l0.757-0.593l0.95-0.499l0.999-0.355l1.146-0.408l1.051-0.213l1.1-0.068l0.961-0.021
	l1.153,0.07l1.201,0.217l1.062,0.265l1.252,0.361l1.165,0.553l1.02,0.604l0.876,0.651l0.925,0.798l0.878,0.657l0.927,0.792
	l0.787,0.848l0.833,0.994l0.642,0.9l0.698,1.039l0.694,1.041l0.692,1.043l0.547,1.096l0.407,1.142l0.549,1.092l0.407,1.145
	l0.355,0.999l0.265,1.196l0.267,1.193l0.214,1.053l0.121,1.245l0.203,0.57l0.194,0.091l0.854-0.304l0.572-0.203l0.389,0.186
	l-0.038,0.336l-0.318,0.918l-0.554,1.16l-0.646,1.359l-0.305,1.395l-0.365,1.256l-0.303,1.397l-0.452,1.45l-0.114,1.49l-0.308,1.397
	l-0.309,1.399l-0.308,1.4l-0.309,1.396l-0.309,1.398l-0.309,1.398l-0.308,1.4l-0.359,1.252l-0.452,1.449l-0.64,1.358l-0.555,1.158
	l-0.645,1.359l-0.693,1.21l-2.552,4.129l-0.189,0.389l0.443,0.325l0.433,0.326l0.38-0.293
	C108,195.142,108.9,192.247,111.552,185.667L111.552,185.667z"/>
<polygon points="81.674,209.826 82.14,209.337 82.518,209.041 83.039,208.694 83.755,208.439 84.184,208.287 84.47,208.186 
	84.896,208.033 85.274,207.738 85.652,207.441 86.03,207.146 86.358,206.708 86.687,206.271 87.06,205.977 87.245,205.589 
	87.574,205.151 87.757,204.761 87.941,204.375 88.126,203.988 88.311,203.599 88.348,203.264 89.531,197.529 89.522,197.051 
	89.134,196.867 88.705,197.02 88.47,197.263 86.718,203.201 86.348,203.975 85.835,204.803 85.134,205.535 84.572,206.22 
	84.049,206.563 83.768,206.664 83.329,206.337 82.603,206.111 82.174,206.264 81.848,206.705 76.849,213.473 76.67,213.859 
	76.964,214.238 77.349,214.422 77.778,214.27 81.253,210.458 "/>
<polygon points="93.945,183.242 93.843,182.956 93.597,182.719 93.168,182.872 92.984,183.262 91.455,192.981 91.137,193.9 
	90.624,194.724 90.541,195.399 90.551,195.878 90.846,196.257 91.277,196.104 91.604,195.664 92.023,195.032 92.472,193.588 
	92.974,192.279 93.568,190.777 93.734,189.435 "/>
<polygon points="270.634,216.952 269.862,216.584 269.178,216.021 268.453,215.795 267.678,215.426 266.903,215.061 
	266.128,214.691 265.353,214.322 264.67,213.76 264.037,213.34 263.692,212.822 263.396,212.443 263.05,211.922 262.897,211.492 
	262.695,210.924 262.685,210.444 262.481,209.872 262.186,209.493 261.982,208.921 261.686,208.542 261.248,208.215 
	260.279,207.756 259.311,207.297 258.394,206.98 257.424,206.518 256.639,205.672 256.151,205.201 255.854,204.826 255.365,204.354 
	255.212,203.925 254.868,203.404 254.573,203.026 254.42,202.598 254.217,202.025 254.064,201.597 253.861,201.026 253.657,200.452 
	253.505,200.026 253.302,199.454 253.291,198.975 253.087,198.402 252.884,197.833 252.732,197.404 252.579,196.975 
	252.335,196.739 252.037,196.361 251.742,195.983 251.447,195.607 251.203,195.369 250.764,195.045 250.469,194.667 
	250.082,194.482 249.643,194.155 249.347,193.778 249.052,193.398 248.755,193.022 248.461,192.646 248.166,192.267 
	248.013,191.837 247.912,191.551 247.759,191.122 247.697,190.5 247.832,189.968 248.017,189.584 248.395,189.288 249.108,189.034 
	249.342,188.79 249.24,188.503 248.895,187.981 248.599,187.604 248.446,187.174 248.151,186.795 247.857,186.42 247.56,186.043 
	247.407,185.614 247.163,185.377 247.011,184.951 246.716,184.573 246.563,184.144 246.411,183.716 246.258,183.286 
	246.106,182.857 246.146,182.52 245.993,182.091 245.983,181.612 245.976,181.132 245.965,180.653 246.006,180.318 246.138,179.787 
	246.262,178.775 246.681,178.142 247.252,177.938 248.262,178.063 249.274,178.187 249.752,178.179 249.6,177.75 249.204,177.086 
	248.715,176.615 248.417,176.237 247.886,176.106 247.408,176.115 246.877,175.982 246.45,176.134 245.97,176.144 245.346,176.203 
	244.917,176.356 244.439,176.367 244.203,176.61 244.254,176.755 244.407,177.184 244.61,177.756 244.58,178.57 244.404,179.436 
	244.087,180.355 244.056,181.173 244.168,181.938 244.422,182.65 244.534,183.417 244.93,184.079 245.185,184.793 245.582,185.46 
	245.979,186.122 246.376,186.787 246.67,187.164 246.731,187.785 246.598,188.316 246.282,189.235 246.2,189.908 246.402,190.477 
	246.414,190.957 246.617,191.529 246.821,192.101 247.024,192.673 246.991,193.49 246.907,194.162 246.633,194.744 246.172,195.712 
	245.712,196.682 245.304,197.793 244.844,198.761 244.383,199.731 243.972,200.841 243.657,201.758 243.39,202.82 242.981,203.933 
	242.856,204.943 242.59,206.004 242.322,207.062 242.109,208.266 241.985,209.279 241.86,210.287 241.647,211.492 241.574,212.643 
	241.643,213.746 241.52,214.754 241.447,215.908 241.435,217.686 241.422,219.458 241.409,221.232 241.542,222.959 241.764,224.49 
	241.845,226.07 242.068,227.604 242.382,228.937 242.749,230.42 243.205,231.703 243.714,233.135 244.314,234.367 245.108,235.697 
	245.854,236.879 246.932,238.105 247.817,239.238 249.041,240.415 250.406,241.536 251.966,242.754 253.476,243.824 
	254.058,244.101 254.495,244.429 255.078,244.705 255.709,245.125 256.149,245.453 256.728,245.727 257.259,245.858 
	257.841,246.136 258.421,246.413 259.002,246.688 259.678,246.772 260.259,247.047 260.788,247.179 261.459,247.261 
	262.135,247.344 262.664,247.479 264.634,247.584 266.746,247.636 268.806,247.544 270.815,247.312 272.684,247.133 274.695,246.9 
	276.604,246.381 278.562,246.006 280.47,245.489 282.377,244.967 284.286,244.453 286.287,243.741 288.145,243.08 290.004,242.418 
	291.861,241.758 293.718,241.096 295.72,240.384 297.577,239.723 299.433,239.062 301.486,238.493 302.248,238.378 302.874,238.318 
	303.363,238.789 303.759,239.453 304.199,239.779 304.585,239.967 304.768,239.576 304.903,239.047 304.841,238.422 
	304.638,237.851 304.435,237.282 304.231,236.71 303.885,236.188 303.394,235.717 302.957,235.391 302.041,235.074 301.705,235.034 
	301.377,235.473 301.243,236 301.202,236.337 300.967,236.581 300.151,236.551 299.478,236.467 298.753,236.244 298.081,236.162 
	297.498,235.888 296.867,235.466 296.142,235.24 295.561,234.963 294.931,234.548 294.439,234.076 293.809,233.656 293.227,233.38 
	292.594,232.961 292.013,232.689 291.432,232.412 291.046,232.227 290.667,232.522 290.339,232.961 290.014,233.4 289.728,233.502 
	289.003,233.276 288.422,232.999 287.79,232.579 287.208,232.303 286.719,231.833 286.138,231.555 285.649,231.089 285.016,230.67 
	284.527,230.198 283.985,229.585 283.641,229.068 283.152,228.596 282.804,228.075 282.315,227.604 281.98,227.562 281.458,227.908 
	280.99,228.398 280.704,228.5 280.173,228.365 279.346,227.855 278.573,227.489 277.89,226.927 277.257,226.506 276.716,225.895 
	276.227,225.423 275.832,224.762 275.482,224.24 275.139,223.719 274.884,223.004 274.538,222.486 274.191,221.965 273.937,221.25 
	273.733,220.677 273.387,220.155 273.04,219.639 272.643,218.975 272.153,218.502 271.808,217.981 271.267,217.368 "/>
<polygon fill="#F49129" points="301.161,189.183 302.597,191.409 303.606,193.785 303.991,196.226 304.09,198.767 303.8,201.122 
	303.084,203.63 301.979,205.957 300.732,208.331 299.048,210.383 297.309,212.286 295.329,213.958 293.103,215.396 290.777,216.546 
	288.439,217.217 286,217.598 283.55,217.506 281.093,216.934 278.625,215.877 276.29,214.296 274.722,212.6 273.438,210.801 
	272.583,208.852 272.014,206.802 271.732,204.65 271.785,202.535 272.123,200.324 272.707,198.345 273.578,196.263 274.782,194.224 
	276.04,192.329 277.685,190.614 279.186,188.955 281.124,187.619 283.066,186.285 285.014,185.431 287.21,184.81 289.505,184.477 
	291.759,184.479 294.024,184.961 294.892,185.135 295.809,185.45 296.728,185.77 297.644,186.087 298.471,186.597 299.152,187.161 
	"/>
<polygon points="250.236,118.924 250.706,118.43 251.174,117.943 251.647,117.455 252.26,116.915 252.872,116.373 253.392,116.029 
	254.005,115.487 254.669,115.091 255.188,114.744 255.902,114.49 256.568,114.094 257.374,113.644 257.559,113.258 257.406,112.828 
	256.833,113.032 256.313,113.377 255.884,113.53 255.597,113.632 255.169,113.785 254.74,113.938 254.312,114.09 254.026,114.191 
	253.599,114.344 253.311,114.446 253.027,114.547 252.647,114.842 252.363,114.943 252.127,115.19 251.7,115.343 251.463,115.585 
	251.139,116.026 250.759,116.32 250.574,116.708 250.249,117.147 249.973,117.729 249.654,118.646 249.857,119.216 "/>
<polygon fill="#FFFFFF" points="307.8,163.959 308.349,165.051 308.613,166.245 308.929,167.582 309.193,168.775 309.222,170.214 
	309.199,171.51 309.229,172.948 308.922,174.346 308.563,175.6 308.256,176.999 307.899,178.253 307.203,179.467 306.65,180.628 
	305.761,181.75 304.964,182.677 303.973,183.511 303.125,184.296 302.035,184.847 300.748,185.306 299.982,185.414 299.209,185.051 
	298.236,184.586 297.321,184.271 296.546,183.901 295.771,183.536 295.046,183.31 294.322,183.085 293.65,183.001 292.974,182.92 
	292.303,182.837 291.681,182.898 291.007,182.814 290.385,182.877 289.62,182.985 288.997,183.046 288.374,183.108 287.609,183.218 
	286.701,183.38 285.936,183.491 285.028,183.656 284.12,183.82 283.447,183.734 282.814,183.316 280.857,181.438 279.329,179.403 
	278.228,177.219 277.464,175.075 277.132,172.782 277.278,170.474 277.667,168.404 278.342,166.23 279.212,164.15 280.326,162.306 
	281.777,160.503 283.472,158.931 285.269,157.647 287.313,156.601 289.456,155.838 291.7,155.358 294.097,155.312 296.455,155.601 
	298.963,156.317 301.625,157.464 302.258,157.884 302.694,158.206 303.328,158.627 303.815,159.098 304.5,159.66 304.988,160.129 
	305.478,160.6 305.825,161.119 306.362,161.731 306.763,162.397 307.25,162.865 "/>
<polygon fill="#ED1C24" points="249.326,85.601 248.977,85.079 248.926,84.937 250.09,85.488 250.528,85.816 251.11,86.094 
	251.455,86.61 251.75,86.99 252.096,87.511 252.445,88.032 252.791,88.553 252.993,89.123 253.196,89.694 253.349,90.124 
	253.461,90.889 253.326,91.417 253.041,91.519 251.847,91.784 251.276,91.987 250.747,91.855 250.697,91.714 250.493,91.141 "/>
<polygon points="300.376,171.592 299.874,170.641 299.091,169.794 298.408,169.234 297.439,168.774 296.521,168.456 
	295.512,168.333 294.554,168.351 293.644,168.512 292.642,168.869 291.643,169.225 290.888,169.815 289.989,170.458 289.43,171.142 
	288.774,172.018 288.456,172.935 288.19,173.996 288.119,175.15 288.33,176.2 288.646,177.538 289.144,178.488 289.787,179.385 
	290.519,180.091 291.203,180.652 292.122,180.973 292.989,181.143 293.854,181.318 294.763,181.155 295.722,181.136 
	296.579,180.831 297.387,180.385 298.335,179.884 298.948,179.345 299.651,178.61 300.163,177.785 300.532,177.011 300.994,176.04 
	300.921,174.938 300.994,173.787 300.782,172.734 "/>
<polygon fill="#FFFFFF" points="321.027,177.605 321.558,177.735 322.141,178.012 322.669,178.146 323.109,178.474 323.691,178.75 
	324.128,179.075 324.708,179.353 325.149,179.681 325.588,180.008 326.025,180.333 326.513,180.803 326.809,181.183 
	327.298,181.649 327.593,182.028 328.429,183.017 329.173,184.207 329.812,185.102 330.271,186.39 330.677,187.532 331.083,188.673 
	331.351,189.866 331.471,191.113 331.542,192.217 331.519,193.51 331.447,194.665 331.233,195.869 331.014,197.07 330.658,198.326 
	330.055,199.347 329.501,200.505 328.9,201.525 328.152,202.596 327.409,203.67 326.467,204.645 325.709,205.237 324.813,205.877 
	323.913,206.521 322.822,207.07 321.679,207.477 320.535,207.885 319.393,208.291 318.198,208.555 316.953,208.675 315.853,208.745 
	314.607,208.866 313.454,208.797 312.109,208.632 311.046,208.364 309.986,208.098 308.875,207.687 307.907,207.229 
	306.887,206.625 306.102,205.776 305.319,204.93 304.919,204.266 304.861,203.643 305.084,202.918 305.259,202.051 305.433,201.186 
	305.465,200.368 305.64,199.5 305.672,198.688 305.702,197.871 305.592,197.104 305.479,196.337 305.368,195.571 305.206,194.666 
	304.951,193.95 304.696,193.234 304.443,192.522 304.189,191.809 303.934,191.093 303.486,190.285 303.09,189.625 302.643,188.817 
	302.243,188.153 301.795,187.346 301.694,187.06 301.93,186.815 302.594,186.419 303.113,186.074 303.633,185.726 304.155,185.38 
	304.481,184.939 304.953,184.452 305.473,184.105 305.799,183.667 306.126,183.228 306.456,182.791 306.781,182.356 
	307.108,181.914 307.526,181.28 307.853,180.845 308.18,180.406 308.458,179.824 308.926,179.338 309.252,178.896 309.723,178.406 
	310.051,177.969 310.427,177.674 310.857,177.521 311.378,177.176 311.805,177.024 312.427,176.962 313,176.758 313.623,176.698 
	314.245,176.636 314.867,176.574 315.538,176.658 316.164,176.598 316.835,176.681 317.366,176.814 317.989,176.753 
	318.569,177.031 319.05,177.021 319.581,177.155 320.11,177.287 320.5,177.474 "/>
<polygon points="318.965,189.447 318.558,188.301 317.964,187.546 317.233,186.844 316.408,186.333 315.489,186.013 
	314.428,185.746 313.417,185.627 312.51,185.787 311.552,185.807 310.55,186.163 309.603,186.66 308.794,187.109 308.09,187.845 
	307.386,188.578 306.925,189.544 306.608,190.463 306.537,191.613 306.463,192.769 306.729,193.964 307.083,194.961 307.725,195.86 
	308.317,196.618 309.048,197.32 309.824,197.689 310.793,198.149 311.66,198.325 312.476,198.357 313.488,198.481 314.344,198.176 
	315.395,197.964 316.203,197.515 317.008,197.066 317.763,196.476 318.274,195.649 318.784,194.822 319.104,193.907 
	319.369,192.843 319.491,191.834 319.371,190.587 "/>
</svg>
