<?xml version="1.0" encoding="utf-8"?>
<!-- Generator: Adobe Illustrator 16.0.0, SVG Export Plug-In . SVG Version: 6.00 Build 0)  -->
<!DOCTYPE svg PUBLIC "-//W3C//DTD SVG 1.1//EN" "http://www.w3.org/Graphics/SVG/1.1/DTD/svg11.dtd">
<svg version="1.1" id="Layer_1" xmlns="http://www.w3.org/2000/svg" xmlns:xlink="http://www.w3.org/1999/xlink" x="0px" y="0px"
	 width="252px" height="288px" viewBox="0 0 252 288" enable-background="new 0 0 252 288" xml:space="preserve">
<path d="M0,252.159l1.195-0.268l1.34-0.314l1.23-0.601l0.572-0.203l0.248,0.24l0.15,0.424l0.357,1.003l0.541,0.614l0.684,0.561
	l0.539,0.615l0.439,0.326l0.672,0.085l0.428-0.153l0.809-0.449l0.378-0.296l0.521-0.347l0.519-0.341l0.521-0.347l0.715-0.255
	l0.522-0.347l0.66-0.396l0.572-0.204l0.665-0.396l0.716-0.255l0.571-0.204l0.716-0.255l0.716-0.254l0.568-0.203l0.572-0.203
	l0.715-0.255l0.623-0.061l0.568-0.202l0.768-0.111l0.479-0.011l0.48-0.009l0.531,0.133l0.674,0.082l0.817,0.032l0.766-0.115
	l0.762-0.11l0.914-0.163l0.854-0.305l0.997-0.354l0.951-0.5l0.95-0.5l0.948-0.494l1.043-0.694l0.951-0.498l0.896-0.642l0.898-0.644
	l0.753-0.59l0.757-0.592l0.752-0.591l0.756-0.595l0.612-0.54l0.47-0.491l1.217-1.556l1.214-1.561l1.357-1.611l0.471-0.486
	l0.284-0.102l0.295,0.374l0.152,0.43l0.244,0.236l0.245,0.239l0.194,0.088l0.479-0.011l0.338,0.043l0.286-0.103l0.284-0.101
	l0.429-0.153l0.288-0.103l0.426-0.151l0.236-0.247l0.234-0.242l0.236-0.242l0.238-0.244l0.643-1.358l0.788-1.408l0.839-1.262
	l0.888-1.122l0.562-0.685l0.615-0.541l0.609-0.539l0.613-0.54l0.706-0.735l0.753-0.59l0.756-0.592l0.701-0.733l0.756-0.596
	l0.611-0.54l0.705-0.731l0.706-0.734l0.753-0.59l0.562-0.684l0.563-0.685l0.562-0.684l0.513-0.823l0.562-0.685l0.369-0.775
	l0.221-0.724l0.328-0.438l0.43-0.152l0.48-0.012l1.149,0.075l1.153,0.072l13.084,4.197l0.725,0.223l0.428-0.152l0,0l0.104,0.29
	l0.589,0.756l0.345,0.519l0.439,0.327l0.582,0.277l0.726,0.225l0.723,0.226l0.675,0.084l0.672,0.084l0.582,0.274l0.531,0.136
	l0.725,0.224l0.628,0.418l0.583,0.276l0.725,0.226l0.775,0.368l0.58,0.278l0.726,0.225l0.772,0.366l0.725,0.225l0.583,0.277
	l0.671,0.082l0.727,0.227l0.723,0.227l0.674,0.082l0.725,0.227l0.818,0.029l0.527,0.135l0.389,0.186l0.01,0.479l0.059,0.619
	l0.297,0.379l0.245,0.239l0.673,0.084l1.398,0.309l1.541,0.256l1.398,0.305l1.449,0.454l1.5,0.592l1.447,0.448l1.594,0.404
	l1.498,0.591l1.448,0.447l1.45,0.455l1.448,0.447l1.591,0.401l1.449,0.452l1.541,0.254l1.542,0.262l1.487,0.109l1.348,0.165
	l1.581-0.08l1.438-0.026l1.479-0.369l1.053-0.214l0.816,0.032l0.623-0.062l0.387,0.186l0.244,0.235l0.193,0.093l0.389,0.185
	l0.338,0.04l0.529,0.135l22.367-1.843l1.621-0.418l1.766-0.466l0.865,0.176l0.775,0.364l1.855,1.592l1.709,1.645l2,1.545
	l0.682,0.559l0.776,0.369l0.63,0.42l0.775,0.365l0.775,0.369l0.775,0.368l0.725,0.226l0.774,0.37l0.773,0.364l0.726,0.227
	l0.867,0.175l0.773,0.365l0.918,0.317l0.725,0.225l0.867,0.178l0.775,0.368l0.726,0.225l0.723,0.223l0.919,0.317l0.58,0.277
	l2.129,1.012l1.989,1.064l2.038,1.205l0.479-0.011l0.429-0.152l0.335,0.037l0.53,0.139l0.581,0.276l0.774,0.367l0.826,0.511
	l0.827,0.512l0.877,0.655l0.827,0.511l0.826,0.513l0.824,0.513l0.632,0.416l0.583,0.276l1.254,0.36l1.254,0.359l1.348,0.165
	l1.441-0.029l1.436-0.032l1.439-0.027l1.337-0.316l1.337-0.314l1.43-0.509l1.234-0.601l1.041-0.693l1.186-0.743l0.799-0.925
	l0.742-1.076l0.604-1.016l0.357-1.256l0.217-1.205l-0.028-1.438l-0.366-1.481l-0.416-1.62l-0.152-0.429l0.715-0.254l0.57-0.203
	l0.768-0.113l0.572-0.203l0.622-0.06l0.572-0.204l0.521-0.347l0.572-0.204l0.377-0.295l0.57-0.203l0.523-0.342l0.376-0.297
	l0.325-0.438l0.521-0.348l0.327-0.438l0.418-0.633l0.186-0.389l0.275-0.581l0.418-0.632l0.277-0.583l0.223-0.725l0.032-0.812
	l0.03-0.823l-0.111-0.762l-0.162-0.91l-0.164-0.907l-0.162-0.908l0.041-0.34l0.133-0.53l0.041-0.337l0.184-0.389l0.041-0.336
	l0.234-0.245l0.041-0.336l0.234-0.246l0.041-0.336l0.092-0.194l-0.102-0.287l-0.102-0.285l-0.152-0.426l-0.152-0.429l-0.347-0.521
	l-0.491-0.472l-0.541-0.613l-0.202-0.567l0.04-0.337l0.379-0.296l0.664-0.396l0.419-0.634l0.419-0.633l0.419-0.633l0.034-0.813
	l0.029-0.821l-0.109-0.762l-0.113-0.771l-0.305-0.855l-0.305-0.857l-0.449-0.809l-0.305-0.854l-0.59-0.757l-0.398-0.668l-0.59-0.753
	l-0.683-0.564l-0.632-0.419l-0.621-0.451l-0.628-0.417l-0.531-0.133l-1.254-0.359l-1.205-0.216l-1.206-0.217l-1.008-0.12
	l-0.958,0.019l-1.155-0.076l-0.957,0.022l-0.908,0.16l-0.958,0.019l-0.958,0.02l-0.909,0.161l-0.958,0.02l-0.907,0.162l-1.052,0.213
	l-0.817-0.031l-1.103,0.069l-0.958,0.019l-0.96,0.02l-1.01-0.125l-1.15-0.073l-0.48,0.011l-0.867-0.177l-0.814-0.027l-0.869-0.179
	l-0.867-0.177l-0.816-0.03l-0.723-0.222l-0.633-0.419l-0.438-0.328l-1.968-2.359l-0.102-0.286l-0.153-0.43l-0.01-0.479l0.368-0.775
	l0.459-0.971l1.373-3.385l0.224-0.725l0.317-0.915l0.268-1.062l0.173-0.868l0.123-1.011l0.122-1.01l-0.019-0.963l-0.019-0.955
	l-0.07-1.104l-0.164-0.91l-0.212-1.047l-0.02-0.961l-0.356-1.002l-0.305-0.855l-0.356-1l-0.306-0.857l-0.445-0.805l-0.592-0.758
	l-0.448-0.807l-0.591-0.754l-0.783-0.849l-0.879-0.655l-0.876-0.655l-0.827-0.513l-0.916-0.312l-1.061-0.267l-1.012-0.124
	l-1.01-0.125l-1.102,0.072l-0.907,0.164l-1.052,0.211l-1.051,0.215l-0.95,0.498l-0.948,0.5l-0.951,0.498l-0.898,0.639l-0.755,0.59
	l-0.704,0.735l-0.652,0.877l-0.654,0.877l-0.277,0.582l-0.277,0.579l-0.131,0.529l-0.275,0.582l-0.133,0.531l-0.227,0.726
	l-0.133,0.531l-0.082,0.67l0.01,0.48l-0.083,0.673l-0.085,0.67l0.011,0.481l-0.083,0.675l-0.082,0.673l0.061,0.619l-0.135,0.53
	l-0.083,0.676l-0.521,0.347l-0.664,0.397l-0.418,0.633l-0.421,0.629l-0.368,0.775l-0.369,0.775l-0.418,0.629l-0.515,0.827
	l-0.419,0.634l-0.613,0.54l-0.561,0.683l-0.755,0.592l-0.612,0.541l-0.614,0.545l-0.562,0.68l-0.615,0.541l-0.611,0.541
	l-0.563,0.684l-0.42,0.632l-0.562,0.684l-0.561,0.684l-0.42,0.634l-0.512,0.824l-0.275,0.579l-0.328,0.438l-0.57,0.203l-0.623,0.064
	l-0.957,0.02l-0.766,0.111l-0.959,0.02l-0.816-0.035l-0.959,0.019l-0.814-0.029l-0.818-0.036l-0.816-0.031l-0.816-0.032
	l-0.867-0.175l-0.817-0.031l-0.816-0.033l-0.87-0.174l-0.814-0.032l-0.87-0.172l-0.868-0.177l-0.869-0.175l-0.814-0.027
	l-0.867-0.174l-0.867-0.176l-0.871-0.179l-0.477,0.013l-0.184,0.389l0.01,0.479l0.112,0.767l-0.185,0.388l-0.427,0.152l-0.48,0.009
	l-1.63-0.06l-1.543-0.261l-13.545-3.228l-0.529-0.134l-0.102-0.285l0.234-0.246l0.531,0.134l0.674,0.083l0.867,0.175l0.816,0.032
	l0.765-0.111l0.765-0.111l0.766-0.111l0.764-0.114l0.908-0.162l0.714-0.254l0.857-0.305l0.856-0.306l0.715-0.255l0.805-0.447
	l0.668-0.395l0.856-0.305l0.665-0.398l0.715-0.254l0.665-0.398l0.663-0.396l0.665-0.398l0.427-0.152l0.479-0.008l-0.092,0.193
	l0.112,0.766l0.111,0.766l0.113,0.766l0.396,0.666l0.398,0.664l0.582,0.277l0.389,0.184l0.283-0.101l0.236-0.247l0.326-0.438
	l0.562-0.683l0.419-0.634l0.471-0.49l0.562-0.682l0.47-0.49l0.611-0.541l0.664-0.396l0.612-0.541l0.664-0.397l0.612-0.54
	l0.664-0.396l0.611-0.542l0.665-0.394l0.468-0.492l0.613-0.542l0.471-0.489l0.561-0.684l0.471-0.488l0.42-0.633l0.367-0.776
	l0.327-0.435l0.327-0.439l0.234-0.244l0.338,0.041l0.334,0.038l0.582,0.276l0.725,0.225l0.674,0.084l0.908-0.163l0.479-0.008
	l0.572-0.203l0.375-0.297l0.234-0.244l0.084-0.675l0.074-1.15l0.072-1.149l0.12-1.015l0.126-1.007l0.121-1.011l0.172-0.867
	l0.176-0.868l0.174-0.87l0.124-1.004l0.17-0.873l0.269-1.059l0.264-1.062l0.072-1.153l0.229-0.721l0.428-0.152l0.621-0.064
	l0.623-0.062l0.623-0.06l0.377-0.297l-0.01-0.48l-0.252-0.71l-0.166-0.913l-0.305-0.855l-0.02-0.961l-0.113-0.766l0.031-0.816
	l-0.111-0.766l0.084-0.67l0.082-0.676l0.032-0.818l0.082-0.673l0.081-0.675l0.034-0.812l-0.112-0.766l-0.111-0.766l-0.164-0.912
	l-0.162-0.907l-0.213-1.048l-0.406-1.145l-0.551-1.096l-0.601-1.236l-0.202-0.568l0.04-0.336l0.235-0.246l0.521-0.347l0.807-0.448
	l0.611-0.54l0.514-0.823l0.133-0.531l-0.112-0.767l-0.296-0.378l-0.682-0.562l-0.877-0.657l-0.877-0.65l-0.734-0.711l-0.732-0.701
	l-0.879-0.655l-0.732-0.706l-0.641-0.896l-0.732-0.706l-0.645-0.9l-0.59-0.753l-0.152-0.43l0.274-0.581l0.856-0.305l2.184-1.101
	l1.942-1.335l1.552-1.52l1.502-1.659l1.258-1.898l0.922-1.936l0.531-2.124l0.393-2.069l0.341-2.212l-0.091-2.065l-0.335-2.294
	l-0.569-2.051l-0.711-1.998L161.642,116l-1.281-1.798l-1.521-1.552l-1.66-1.504l-1.896-1.256l-2.225-0.819l-2.316-0.625l-1.06-0.267
	l-1.06-0.267l-1.154-0.069l-1.152-0.076l-1.051,0.216l-2.58,0.434l-0.623,0.064l-0.061-0.625l0.088-5.183l-0.089-2.062l-0.323-1.814
	l-0.611-1.716l-0.947-1.757l-1.041-1.562l-1.127-1.366l-1.416-1.266l-1.704-1.166l-1.509-1.072l-1.885-0.778l-1.836-0.635
	l-1.928-0.442l-1.876-0.298l-1.968-0.105l-2.061,0.092l-1.816,0.324l-1.91,0.518l-1.808,0.805l-1.849,1.139l-1.458,1.324
	l-0.755,0.592l-0.705,0.733l-0.755,0.591l-0.704,0.735l-0.653,0.875l-0.511,0.826l-1.422,3.246l-0.277,0.576l-0.764,0.115
	l-8.271-1.081l-0.869-0.174l-0.867-0.174L95.6,97.325l-0.967-0.458l-0.685-0.563l-0.827-0.512l-0.825-0.511l-0.878-0.652
	l-0.682-0.564l-0.875-0.651l-0.828-0.512l-0.63-0.419l-0.775-0.37l-0.632-0.418l-0.726-0.225l-0.675-0.083l-0.622,0.061
	l-0.571,0.203l-0.572,0.204l-0.42,0.632l-0.611,0.541l-0.377,0.294l-0.287,0.102l-0.051-0.142l-0.387-0.186l-0.295-0.378
	l-0.531-0.134l-5.557-2.046l-0.726-0.226l-0.101-0.284l0.274-0.581l5.878-10.623l0.521-0.348l0.806-0.447l0.907-0.163l0.908-0.161
	l0.768-0.113l0.999-0.355l0.999-0.355l0.951-0.498l0.95-0.501l0.897-0.641l1.092-0.551l1.002-0.356l0.766-0.111l0.725,0.227
	l0.968,0.458l1.072,0.745l1.11,0.41l1.162,0.552l1.061,0.268l0.48-0.012l0.674,0.084l0.675,0.084l0.528,0.134l0.674,0.081
	l0.674,0.081l0.673,0.084l0.675,0.086l0.674,0.082l0.814,0.03l0.674,0.081l0.623-0.061l0.623-0.06l0.621-0.061l0.623-0.062
	l0.428-0.152l0.571-0.204l1.756-0.949l1.47-0.845l1.174-1.223l0.84-1.265l0.5-1.305l0.257-1.542l0.114-1.488l-0.223-1.532
	l-0.508-1.429l-0.56-1.57l-0.847-1.47l-0.986-1.419l-0.984-1.418l-1.227-1.174l-1.365-1.124l-1.364-1.122l-1.552-0.738l-1.406-0.79
	l-1.59-0.396l-1.592-0.401l-6.674-0.657l0,0l-0.479,0.01l-0.244-0.235l-0.246-0.236l-0.061-0.623l-0.02-0.958l-0.045-6.908
	l0.135-0.529l0.184-0.388l0.664-0.396l4.553-2.584l0.521-0.346l0.612-0.54l0.655-0.878l0.511-0.828l0.513-0.824l0.511-0.825
	l0.278-0.583l0.133-0.529l0.133-0.53l-0.01-0.478l0.133-0.53l-0.01-0.479l-0.009-0.478l-0.151-0.426l-0.012-0.48l-0.01-0.479
	l-0.152-0.429l-0.152-0.429l-0.295-0.375L101.73,29.5l-0.295-0.379l-0.151-0.426l-0.296-0.377l-0.295-0.378l-0.346-0.521
	l-0.387-0.185l-0.295-0.379l-0.539-0.612l-0.441-0.33l-0.582-0.275l-0.487-0.467l-0.528-0.134l-0.725-0.226l-0.529-0.134
	l-0.58-0.276l-0.531-0.134l-0.674-0.083l-0.479,0.009l-0.674-0.08l-0.673-0.083l-0.674-0.081l-0.479,0.008l-0.674-0.081l-0.623,0.06
	L89.1,23.853l-0.529-0.135l-0.622,0.061l-0.673-0.082l-0.439-0.328l-0.294-0.378l-0.499-0.95l-0.447-0.806l-0.59-0.754l-0.396-0.664
	l-0.541-0.614l-0.49-0.47l-0.49-0.472l-0.49-0.469l-0.488-0.469l-0.439-0.328l-0.438-0.325l-0.581-0.275l-0.296-0.381l-0.438-0.322
	l-0.389-0.184l-0.387-0.185l-0.297-0.378l-0.243-0.235l-0.244-0.237l-0.296-0.376l-0.744-1.183l-0.887-1.135l-0.978-0.937
	l-1.122-0.891l-1.02-0.604l-1.02-0.601l-1.111-0.411L70.12,8.069l-1.204-0.216l-0.958,0.019l-1.245,0.123L65.66,8.207l-0.947,0.499
	l-1.094,0.548l-0.898,0.645l-0.848,0.783l-0.744,1.071l-0.891,1.12l-0.551,1.161l-0.594,1.5l-0.225,0.724l-0.175,0.865l-0.032,0.818
	l-0.08,0.674l-0.033,0.815l0.061,0.625l0.111,0.763l0.062,0.623l0.061,0.624l0.203,0.571l0.111,0.765l0.154,0.431l0.203,0.571
	l0.203,0.57l0.152,0.43l0.152,0.43l0.01,0.477l0.153,0.43l0.009,0.478l-0.039,0.338l-0.064,1.632l0.132,1.724l0.132,1.722
	l0.13,1.723l0.019,0.961l0.02,0.958l-0.122,1.008l-0.032,0.818l-0.125,1.008l-0.172,0.869l-0.268,1.062l-0.175,0.867l-0.266,1.062
	l-0.317,0.918L58.728,44.8l-0.51,0.827L57.9,46.547l-0.512,0.826l-0.368,0.774l-0.46,0.968l-0.512,0.827l-0.512,0.826l-0.562,0.683
	l-0.564,0.686l-0.511,0.825L54,53.245l0.246,0.235l0.57-0.204l0.573-0.204l0.337,0.042l0.009,0.479l-0.226,0.726l-0.135,0.531
	l-0.273,0.582l-0.033,0.815l-0.082,0.672l-0.032,0.818l-0.081,0.674l0.018,0.958l-0.031,0.814l-0.032,0.817l0.112,0.766
	l-0.033,0.816l0.062,0.622l-0.033,0.817l0.062,0.623l0.01,0.479l0.01,0.477L54.83,65.99l0.152,0.43l-0.143,0.051l-9.428,20.1
	l-0.327,0.438l-0.47,0.487l-0.323,0.441l-0.665,0.395l-0.328,0.442l-0.662,0.396l-0.521,0.345l-0.52,0.345l-0.523,0.347
	l-0.326,0.438l-0.471,0.489l-0.135,0.531l-0.184,0.389l0.102,0.284l0.102,0.286l0.246,0.238l0.385,0.183l0.534,0.135l0.526,0.131
	l0.48-0.009l0.429-0.153l0.286-0.102l0.193,0.091l0.01,0.481l-0.226,0.724l-0.082,0.675l-0.277,0.579l-0.37,0.775l-0.51,0.824
	l-0.459,0.971l-0.604,1.02l-0.603,1.023l-0.601,1.018l-0.746,1.074l-0.75,1.068l-0.693,1.217l-0.693,1.211l-0.604,1.021
	l-0.694,1.209l-0.695,1.215l-0.555,1.16l-0.6,1.02l-0.412,1.111l-0.408,1.111l-0.268,1.062l-0.357,1.253l-0.362,1.254l-0.214,1.205
	l-0.162,1.348l-0.025,1.296l0.164,0.907l0.213,1.051l0.121,1.246l0.213,1.053l0.07,1.103l-0.083,0.672l-0.398,1.593l-0.45,1.448
	l-0.35,1.734l-0.254,1.539l-0.207,1.684l-0.156,1.824l-0.062,1.635l-0.012,1.773l-0.064,1.633l-0.011,1.775l0.181,1.865l0.13,1.725
	l0.134,1.723l0.271,1.673l0.131,1.722l0.417,1.625l0.274,1.672l0.221,1.529l0.416,1.623l0.367,1.48l0.062,0.621l-0.328,0.438
	l-0.335-0.039l-1.009-0.125l-0.336-0.041l-0.53-0.129l-0.286,0.102l-0.246-0.239l-0.287,0.103l-0.336-0.038l-0.281,0.101
	l-0.144,0.051l-0.288,0.103l-0.141,0.05l-0.094,0.191l-0.092,0.193l-0.042,0.338l0.05,0.142l0.153,0.429l0.153,0.43l0.152,0.429
	l0.397,0.661l0.051,0.144l-0.338-0.042l-0.866-0.172l-0.387-0.184l-0.582-0.276l-0.631-0.419l-0.634-0.422l-0.825-0.508
	l-0.631-0.422l-0.875-0.653l-0.828-0.512l-0.969-0.46l-0.877-0.651l-0.828-0.513l-0.773-0.367l-0.916-0.317l-0.775-0.366
	l-0.725-0.227l-0.818-0.031l-0.674-0.082l-0.477,0.008l-0.715,0.254l-0.328,0.439l-0.471,0.49l-0.283,0.101l-0.43,0.153l-0.44-0.326
	l-0.722-0.229l-0.58-0.271l-0.49-0.472l-0.775-0.364l-0.775-0.368l-0.867-0.174l-0.826-0.512l-0.865-0.175l-0.777-0.369
	l-0.918-0.315L3.1,155.402l-0.871-0.172l-0.867-0.173L0,155.075"/>
<path fill="#ED1C24" d="M0.238,157.363l0.67,0.083l0.674,0.081l0.817,0.033l0.725,0.225l0.673,0.08l0.865,0.176l0.725,0.225
	l0.725,0.227l0.867,0.173l0.674,0.079l0.775,0.371l0.724,0.222l0.634,0.421l0.723,0.227l0.725,0.223l0.773,0.369l0.58,0.277
	l0.58,0.271l0.777,0.371l0.725,0.225l0.286-0.102l0.275-0.581l0.173-0.866l0.186-0.386l0.236-0.247l0.34,0.042l0.576,0.272
	l10.504,6.89l0.725,0.224l0.916,0.316l1.01,0.125l1.008,0.123l0.959-0.018l0.767-0.113l0.337,0.043l0.092-0.195l-0.051-0.142
	l-0.295-0.379l-0.836-0.993l-0.835-0.989l-0.399-0.667l0.094-0.191l0.286-0.102l0.865,0.173l0.532,0.134l0.53,0.133l0.526,0.135
	l0.531,0.134l0.531,0.134l0.529,0.135l0.672,0.082l0.531,0.133l0.531,0.135l0.527,0.134l0.675,0.083l0.479-0.011l0.527,0.134
	l0.623-0.061l0.479-0.013l0.622-0.059l0.571-0.204l0.428-0.151l0.573-0.204l0.571-0.203l0.518-0.348l0.041-0.336l-0.244-0.232
	l-0.721-0.23l-5.094-0.277l-0.674-0.083l-0.477,0.008l-0.39-0.184l-0.243-0.235l-0.244-0.236l-0.102-0.285l-0.152-0.426
	l-0.061-0.623l-1.4-7.549l-0.171-1.392l-0.173-1.386l-0.029-1.438l-0.223-1.53l-0.027-1.438l-0.082-1.582l0.113-1.489l-0.078-1.582
	l0.062-1.631l0.115-1.49l0.258-1.541l0.062-1.633l0.257-1.54l0.112-1.49l0.26-1.539l0.307-1.398l0.451-1.451l0.307-1.396
	l0.307-1.396l0.502-1.308l1.586-4.59l0.039-0.336l-0.242-0.233l-0.339-0.041l-0.284,0.101l-2.676,2.885l-0.666,0.397l0,0
	l0.032-0.817l1.046-5.2l0.176-0.867l0.369-0.775l0.318-0.917l0.459-0.97l0.459-0.97l0.604-1.019l0.55-1.16L38,108.335l0.602-1.021
	l0.695-1.214l0.746-1.072l0.6-1.02l0.747-1.072l0.601-1.02l0.748-1.069l0.604-1.023l0.6-1.018l0.461-0.972l0.461-0.968l0.367-0.774
	l0.188-0.388l0.039-0.336l0.236-0.246l0.184-0.388l0.326-0.439l0.136-0.531l0.181-0.385l0.186-0.389l0.327-0.44l0.183-0.387
	l0.135-0.532l0.183-0.387l-0.009-0.478l0.184-0.39l-0.008-0.477l-0.092-0.257l-0.009-0.477l-0.102-0.286l-0.296-0.379l-0.347-0.521
	l0.042-0.335l0.133-0.532l0.928-1.456l0.789-1.41l6.678-13.804l0.275-0.583l0.379-0.292l0.09-0.195l0.39,0.187l0.243,0.235
	l0.398,0.661l0.682,0.564l0.338,0.042l0.182-0.392l-0.202-0.569l-0.446-0.807l-0.306-0.857l-0.214-1.051l-0.304-0.853l-0.214-1.054
	l-0.021-0.959l-0.069-1.105l-0.019-0.954l-0.068-1.104l0.123-1.007l0.123-1.012l0.123-1.007l0.124-1.011l0.269-1.058l0.316-0.92
	l0.317-0.917l0.315-0.922l0.318-0.917l0.512-0.827l0.367-0.776l0.461-0.97l-0.01-0.48l-0.152-0.425l-0.102-0.286l0.267-1.06
	l0.358-1.255l0.451-1.448l0.593-1.501l0.449-1.448l0.411-1.11l0.172-0.868l0.166-1.349l-0.043-1.919l-0.045-2.398l0.053-2.109
	l0.063-1.635l0.083-0.674l0.376-0.293l0.185-0.386l-0.111-0.769l-0.407-1.143l-0.356-1.001l-0.408-1.146l-0.355-1.002l-0.151-0.424
	l-0.062-0.624l-0.012-0.479l-0.152-0.43l-0.061-0.622l0.081-0.672l-0.01-0.48l-0.062-0.621l-0.01-0.48l0.081-0.674l0.135-0.532
	l-0.061-0.62l0.132-0.533l0.084-0.672l0.184-0.386l0.133-0.531l0.135-0.532l0.274-0.581l0.187-0.386l0.324-0.441l0.329-0.434
	l0.419-0.633l0.377-0.296l0.521-0.346l0.52-0.346l0.52-0.347l0.572-0.204l0.427-0.152l0.717-0.255l0.569-0.203l0.623-0.06
	l0.623-0.06l0.571-0.204l0.674,0.083l0.478-0.012l0.676,0.085l0.529,0.129l0.58,0.277l0.438,0.33l0.439,0.324l0.295,0.378
	l0.438,0.325l0.295,0.378l0.492,0.472l0.346,0.521l0.294,0.375l0.347,0.522l0.346,0.521l0.346,0.521l0.203,0.573l0.348,0.521
	l0.203,0.57l0.203,0.571l0.203,0.571l0.152,0.429l0.205,0.574l0.007,0.474l0.153,0.43l0.881,5.643l-0.081,0.676l-0.471,0.489
	l-7.188,5.133l-0.378,0.295l-0.376,0.296l-0.377,0.292l-0.328,0.443l-0.328,0.433l-0.325,0.44l-0.326,0.437l-0.327,0.441
	l-0.184,0.389l-0.275,0.58l-0.184,0.387l-0.277,0.583l-0.133,0.529l-0.185,0.386l-0.134,0.528L67.06,38.92l-0.185,0.388l-0.133,0.53
	l-0.135,0.528l-0.184,0.39l-0.033,0.816l0.245,0.235l0.335,0.04l0.278-0.581l0.642-1.357l0.982-1.313l0.93-1.459l1.316-1.273
	l1.268-1.414l1.459-1.326l1.654-1.233l1.705-1.089l1.705-1.091l1.756-0.949l1.808-0.803l1.808-0.803l1.908-0.52l1.816-0.321
	l1.869-0.18l1.773,0.009l1.682,0.205l1.592,0.401l1.551,0.736l1.457,0.929l0.979,0.942l0.783,0.844l0.357,1.004l0.305,0.857
	l0.162,0.905l-0.173,0.868l-0.175,0.868l-0.461,0.968l-0.511,0.825l-0.704,0.733l-0.798,0.931l-0.847,0.784l-0.899,0.642
	l-0.95,0.497L94.1,40.725l-1.145,0.407l-0.949,0.501l-1.05,0.21L89.954,42.2l-0.907,0.162l-0.959,0.018l-0.235,0.247l0.05,0.14
	l0.102,0.284l-0.236,0.246l-0.857,0.305l-1.053,0.213l-0.571,0.203l-0.235,0.246l0.243,0.234l0.39,0.185l0.387,0.186l0.674,0.083
	l0.389,0.183l0.479-0.008l0.337,0.04l0.528,0.132l0.674,0.085l0.378-0.296l0.04-0.336l-0.152-0.429l-0.725-0.223l-0.389-0.186
	l-0.1-0.282l0.427-0.152l0.815,0.028l0.674,0.085l0.527,0.132l0.388,0.186l0.295,0.378l0.204,0.571l-1.172,8.467l-0.133,0.531
	l0.102,0.288l0.152,0.426l0.102,0.286l0.337,0.04l0.53,0.136l0.479-0.011l7.252,0.479l0.815,0.031l0.866,0.172l0.725,0.224
	l0.867,0.176l0.775,0.369l0.775,0.368l0.826,0.511l0.775,0.367l0.684,0.564l0.682,0.562l0.735,0.706l0.682,0.563l0.59,0.757
	l0.396,0.661l0.591,0.756l0.397,0.663l0.306,0.857l0.447,0.807l0.111,0.765l0.305,0.856l0.01,0.481l0.01,0.478l0.062,0.624
	l0.01,0.479l0.01,0.478l0.062,0.624l-0.184,0.387l-0.084,0.675l0.01,0.478l-0.326,0.439l-0.133,0.531l-0.187,0.385l-0.325,0.439
	l-0.328,0.438l-0.184,0.388l-0.324,0.441l-0.379,0.295l-0.572,0.204l-0.377,0.294l-0.57,0.203l-0.572,0.204l-0.387-0.183
	l-0.633-0.417l-0.295-0.379l-0.336-0.043l-0.662,0.399l-0.572,0.204l-0.715,0.254l-0.571,0.204l-0.624,0.059l-0.526-0.128
	l-0.675-0.085l-0.533-0.136l-0.723-0.222l-0.529-0.135l-0.633-0.417l-0.58-0.278l-0.579-0.276l-0.726-0.223l-0.58-0.278
	l-0.578-0.274l-0.582-0.275l-0.675-0.084l-0.579-0.273l-0.48,0.009l-0.672-0.082l-0.428,0.152l-0.624,0.059l-0.427,0.152
	l-0.572,0.204l-0.57,0.203l-0.377,0.297l-0.572,0.203l-0.43,0.153l-0.521,0.345l-0.522,0.346l-0.571,0.204l-0.377,0.292
	l-0.521,0.348l-0.377,0.294l-0.571,0.203l-0.43,0.153l-0.572,0.204L83.827,76.1l-0.429,0.152l-0.479,0.011l-6.225,0.606l-0.62,0.061
	l-0.237,0.245l0.244,0.233l0.826,0.511l0.58,0.278l0.152,0.428l-0.275,0.577l-5.173,9.894l-0.278,0.577l-0.755,0.595l-1.194,0.265
	l-1.049,0.214l-1.094,0.549l-0.613,0.54l-0.184,0.39l-0.133,0.527l0.162,0.907l0.306,0.859l0.683,0.563l0.346,0.521l0.152,0.426
	l-0.285,0.102l-0.715,0.254l-0.715,0.254l-0.765,0.112l-0.716,0.254l-0.662,0.396l-0.715,0.254l-0.714,0.254l-0.664,0.397
	l-0.663,0.396l-0.664,0.398L60.65,99.64l-0.664,0.395l-0.611,0.543l-0.612,0.538l-0.612,0.541l-0.47,0.494l-0.421,0.627l-0.42,0.632
	l-0.418,0.633l-0.42,0.629l-0.227,0.726l-0.133,0.532l-0.082,0.672l0.204,0.572l0.396,0.664l0.346,0.521l0.347,0.52l0.103,0.288
	l-0.326,0.438l-0.756,0.591l-0.846,0.785l-0.85,0.784l-0.748,1.07l-0.742,1.07l-0.697,1.213l-0.695,1.212l-0.5,1.303l-0.502,1.306
	l-0.5,1.306l-0.308,1.397l-0.166,1.346l-0.165,1.349l-0.021,1.297l0.125,1.243l0.12,1.244l0.407,1.146l0.5,0.951l0.781,0.85
	l0.784,0.844l0.493,0.471l-0.04,0.337l-0.034,0.816l-0.541,1.643l-0.208,1.684l-0.257,1.539l-0.207,1.685l-0.209,1.682l-0.205,1.685
	l-0.01,1.773l0.08,1.582l0.127,1.725l0.08,1.579l0.133,1.722l0.271,1.678l0.418,1.619l0.418,1.621l0.365,1.479l0.467,1.765
	l0.56,1.574l0.703,1.52l0.702,1.52l0.699,1.519l1.65,3.279l0.193,0.091l0,0l0.143-0.05l-0.051-0.143l-3.699-12.204l-0.111-0.766
	l-0.111-0.768l-0.305-0.854l-0.02-0.96l-0.16-0.905l-0.074-1.104l-0.066-1.103l-0.072-1.102l0.072-1.154l-0.067-1.103l0.069-1.152
	l-0.068-1.1l0.071-1.155l0.12-1.007l0.074-1.153l0.174-0.868l-0.018-0.96l0.174-0.868l0.223-0.72l0.083-0.674l3.028-9.131
	l0.268-1.059l0.135-0.528l-0.102-0.288l-0.43,0.153l-3.186,1.458l-0.52,0.344l-0.478,0.01l-0.337-0.042l-0.102-0.286l-0.348-0.522
	l-0.213-1.052l-0.215-1.047l-0.213-1.051l0.122-1.011l0.268-1.06l0.216-1.206l0.408-1.109l0.464-0.97l0.55-1.164l0.604-1.019
	l0.599-1.021l0.748-1.07l0.655-0.876l0.743-1.071l0.797-0.928l0.799-0.929l0.705-0.73l0.707-0.734l0.703-0.733l0.704-0.737
	l0.376-0.293l0.186-0.388l0.041-0.337l-0.152-0.43l-0.244-0.234l-0.244-0.235l-0.389-0.187l-0.438-0.322l-0.682-0.564l-0.439-0.325
	l0.135-0.531l0.275-0.58l0.662-0.396l0.471-0.49l0.469-0.491l0.666-0.395l0.522-0.347l0.612-0.542l0.664-0.396l0.521-0.345
	l0.662-0.397l0.715-0.254l0.521-0.345l0.662-0.399l0.715-0.254l0.715-0.254l0.715-0.254l0.57-0.203l0.715-0.255l0.766-0.11
	l0.766-0.112l0.571-0.204l0.767-0.111l0.234-0.245l-0.192-0.091l-0.733-0.706l-0.539-0.61l-0.398-0.667l-0.449-0.806l-0.203-0.572
	l0.093-0.194l0.571-0.203l0.479-0.009l0.48-0.01l0.529,0.134l0.674,0.083l0.531,0.133l0.672,0.083l0.674,0.084l0.725,0.225
	l0.725,0.224l0.672,0.083l0.723,0.224l0.725,0.226l0.725,0.226l0.527,0.131l0.725,0.228l0.58,0.275l0.387,0.185l0.582,0.274
	l0.245,0.237l3.497,2.138l0.825,0.513l0.285-0.102l-0.255-0.716L85.93,95.15l-0.162-0.908l0.326-0.438l0.479-0.012l0.49,0.471
	l0.297,0.379l0.294,0.378l0.542,0.61l0.629,0.418l0.594,0.757l0.826,0.509l0.68,0.561l0.684,0.563l0.631,0.419l0.582,0.277
	l0.581,0.275l0.389,0.185l11.352,1.592l0.868,0.175l0.389,0.186l0.152,0.427l0.018,0.959l-0.029,0.815l0.11,0.764l-0.032,0.818
	l0.111,0.766l0.111,0.765l0.113,0.765l0.112,0.766l0.254,0.713l0.253,0.713l0.256,0.716l0.254,0.715l0.254,0.715l0.396,0.661
	l0.396,0.666l0.396,0.664l0.396,0.662l0.398,0.665l0.54,0.612l0.538,0.613l0.542,0.613l0.345,0.521l-0.039,0.336l-0.186,0.387
	l-0.664,0.399l-0.426,0.152l-0.377,0.294l-0.379,0.295l-0.521,0.344l-0.377,0.295l-0.521,0.347l-0.325,0.438l-0.521,0.346
	l-0.327,0.439l-0.324,0.441l-0.521,0.344l-0.328,0.439l-0.326,0.439l-0.325,0.438l-0.47,0.491l-0.325,0.438l-0.185,0.387
	l-0.326,0.438l-0.277,0.583l-0.182,0.387l-0.461,0.968l-0.461,0.966l-0.408,1.113l-0.266,1.063l-0.268,1.06l-0.408,1.111
	l-0.124,1.008l-0.216,1.204l-0.125,1.009l-0.02,1.297l0.018,0.959l0.215,1.053l0.068,1.102l0.355,1l0.266,1.195l0.497,0.946
	l0.356,1.003l0.643,0.895l0.691,1.045l0.784,0.849l1.03,1.083l1.12,0.889l1.265,0.839l1.211,0.692l1.399,0.312l1.306,0.498
	l1.348,0.166l1.398,0.309l1.438-0.03l1.39-0.17l1.389-0.172l1.479-0.366l1.428-0.509l1.287-0.458l1.285-0.457l1.326-0.795
	l1.135-0.888l1.133-0.886l1.133-0.887l0.891-1.123l0.704-0.73l0.704-0.734l0.703-0.734l0.654-0.876l0.51-0.825l0.318-0.92
	l0.277-0.58l0.236-0.243l0.285-0.102l0.528,0.134l0.774,0.364l0.631,0.42l0.773,0.366l0.727,0.229l0.631,0.416l0.723,0.227
	l0.777,0.368l0.631,0.419l0.675,0.084l0.915,0.314l0.675,0.083l0.724,0.226l0.867,0.175l1.439-0.028l1.439-0.028l1.438-0.028
	l0.389,0.185l0.439,0.327l0.926,0.794l0.834,0.993l0.652,1.375l0.782,0.85l1.326,1.463l1.272,1.316l1.561,1.213l0.295,0.379
	l0.193,0.092l-0.092,0.195l-0.428,0.152l-1.052,0.213l-1.05,0.212l-0.48,0.01l-0.234,0.245l0.012,0.48l0.344,0.517l0.398,0.665
	l0.396,0.664l0.397,0.665l0.346,0.521l0.397,0.665l0.397,0.665l0.346,0.521l0.254,0.712l0.256,0.719l0.254,0.716l-0.031,0.812
	l0.068,1.105l-0.02,1.297l-0.071,1.15l0.069,1.104l-0.073,1.15l0.071,1.102l0.068,1.105l0.061,0.619l-0.236,0.244l-0.287,0.102
	l-0.58-0.277l-0.867-0.174l-0.338-0.041l-0.039,0.342l0.355,0.996l0.213,1.049l0.07,1.103l-2.591,12.042l0,0l0.06,0.619l0.061,0.622
	l-0.082,0.676l-0.326,0.438l-0.479,0.008l-1.111-0.411l-0.826-0.506l-0.439-0.327l-0.533-0.137l-0.285,0.102l-0.184,0.391
	l-0.274,0.582l-0.41,1.109l-0.788,1.408l-0.459,0.97l-7.75,5.817l-0.9,0.641l-0.478,0.012l-0.103-0.287l0.025-3.551l-0.111-0.767
	l-0.438-0.328l-0.43,0.153l-0.369,0.774l-0.602,1.021l-0.745,1.072l-0.848,0.785l-0.991,0.836l-1.236,0.598l-1.093,0.549
	l-1.429,0.508l-1.285,0.458l-1.531,0.224l-1.48,0.365l-1.387,0.173l-1.531,0.221l-1.582,0.079l-1.529,0.223l-1.389,0.172
	l-1.439,0.028l-1.387,0.173l-1.389,0.17l-1.102,0.07l-1.143,0.406l-0.623,0.061l-0.479,0.009l-0.243-0.235l-0.011-0.479l-0.06-0.62
	l0.072-1.154l0.041-0.338l-0.531-0.132l-0.766,0.11l-1.335,0.318l-1.337,0.314l-1.389,0.172l-1.297-0.022l-1.438,0.029l-1.348-0.165
	l-1.49-0.116l-1.203-0.211l-1.398-0.31l-1.398-0.308l-1.398-0.308l-1.307-0.503l-1.305-0.503l-1.449-0.447l-1.161-0.555
	l-1.306-0.502l-1.305-0.503l-1.213-0.691l-1.162-0.555l-1.306-0.501l-6.689-3.415l-0.339-0.037l-0.091,0.189l-0.093,0.194
	l0.052,0.144l4.931,4.361l0.928,0.794l1.021,0.604l1.113,0.41l1.111,0.411l1.111,0.411l1.11,0.41l0.97,0.46l1.11,0.411l0.97,0.462
	l1.062,0.266l0.918,0.319l1.109,0.405l0.868,0.176l1.061,0.268l0.866,0.175l1.061,0.267l1.008,0.121l1.01,0.125l1.012,0.123
	l1.011,0.124l1.101-0.069l1.156,0.073l0.957-0.019l1.297,0.022l1.104-0.071l0.479-0.009l0.439,0.327l0.203,0.572l0.295,0.375
	l0.244,0.235l0.244,0.235l0.388,0.188l0.243,0.231l0.336,0.041l0.389,0.185l0.338,0.042l0.479-0.01l0.338,0.041l0.479-0.009
	l0.336,0.041l0.479-0.014l0.337,0.042l0.48-0.009l0.333,0.037l0.48-0.01l0.338,0.041l0.387,0.185l0.338,0.04l1.307,0.504
	l1.254,0.358l1.303,0.5l1.115,0.412l1.398,0.307l1.303,0.502l1.257,0.359l1.398,0.309l1.253,0.359l1.348,0.166l1.398,0.309
	l1.256,0.358l1.348,0.162l1.347,0.164l1.347,0.165l1.346,0.161l1.349,0.166l1.296,0.021l1.348,0.165l1.297,0.023l0.766-0.111
	l0.287-0.102l-0.104-0.29l-0.449-0.809l-0.008-0.476l0.578,0.272l0.529,0.134l10.848,0.169l0.478-0.013l0.286-0.102l0.479-0.009
	l0.43-0.153l0.336,0.042l0.286-0.103l0.245,0.236l0.102,0.286l0.102,0.286l-0.082,0.669l-0.02,1.301l0.027,1.438l0.307,0.86
	l0.244,0.234l0.428-0.152l0.225-0.726l0.219-1.2l-0.021-0.963l0.173-0.866l0.369-0.776l0.316-0.918l0.554-1.16l0.276-0.582
	l0.418-0.633l0.42-0.634l0.562-0.684l0.562-0.683l0.561-0.684l0.563-0.68l0.562-0.684l0.704-0.733l0.611-0.546l0.705-0.729
	l0.704-0.734l0.614-0.54l0.562-0.684l0.564-0.684l0.612-0.541l0.563-0.684l0.561-0.685l0.382-0.291l0.284-0.102l0.049,0.138
	l0.153,0.43l0.112,0.768l0.244,0.234l0.379-0.293l0.132-0.533l0.276-0.582l0.082-0.669l0.084-0.676l0.031-0.817l0.227-0.721
	l0.029-0.816l0.032-0.818l0.176-0.869l0.081-0.673l0.172-0.867l0.174-0.868l0.033-0.818l0.173-0.867l0.224-0.724l0.229-0.722
	l0.223-0.725l0.133-0.531l0.277-0.576l0.419-0.634l0.325-0.443l0.891-1.118l1.082-1.031l1.186-0.742l0.896-0.646l1.144-0.407
	l1.002-0.356l1.104-0.066l0.958-0.02l1.062,0.268l1.059,0.264l0.828,0.512l0.823,0.514l0.929,0.798l0.732,0.701l0.693,1.044
	l0.691,1.043l0.551,1.095l0.406,1.145l0.367,1.478l0.316,1.338l0.061,0.622l0.06,0.62l-0.03,0.816l0.011,0.48l-0.084,0.674
	l0.011,0.48l-0.085,0.671l-0.132,0.53l0.01,0.479l-0.131,0.531l-0.084,0.676l-0.276,0.582l-0.135,0.525l-0.132,0.531l-0.133,0.532
	l-0.084,0.674l-0.135,0.532l-0.274,0.58l-0.083,0.67l-0.276,0.582l0.011,0.48l-0.184,0.389l-0.134,0.53l-0.324,0.438l-0.187,0.389
	l-0.273,0.582l-0.326,0.438l-0.185,0.388l-0.328,0.438l-0.325,0.438l-0.324,0.443l-0.277,0.577l-0.326,0.438l-0.186,0.39
	l-0.323,0.442l-0.136,0.527l-0.186,0.389l-0.133,0.531l-0.133,0.53l-0.133,0.53l-0.123,1.012l0.151,0.426l0.429-0.153l0.42-0.628
	l0.501-1.308l0.644-1.354l0.889-1.123l0.472-0.489l0.234-0.245l0.388,0.186l0.201,0.568l0.645,0.899l0.784,0.85l1.019,0.601
	l0.971,0.464l1.254,0.357l1.396,0.306l1.398,0.309l1.492,0.116l1.631,0.061l1.438-0.03l1.582-0.078l1.725-0.126l1.58-0.084
	l1.582-0.078l1.58-0.08l1.441-0.028l1.438-0.028l1.297,0.022l1.152,0.074l1.007,0.119l0.726,0.226l0.725,0.227l0.725,0.225
	l0.58,0.278l0.633,0.419l0.724,0.223l0.488,0.471l0.632,0.415l0.489,0.473l0.489,0.469l0.346,0.521l0.488,0.469l0.203,0.571
	l0.256,0.716l0.201,0.568l0.113,0.771l-0.082,0.669l-0.082,0.676l-0.173,0.867l-0.228,0.723l-0.275,0.58l-0.181,0.392l-0.288,0.103
	l-0.389-0.189l-0.58-0.275l-0.918-0.315l-0.774-0.369l-0.97-0.462l-0.867-0.174l-0.867-0.175l-1.01-0.125l-0.865-0.171l-0.959,0.02
	l-0.96,0.014l-1.013-0.124l-0.762,0.115l-1.012-0.124l-0.957,0.018l-0.908,0.164l-0.973,0.02l-0.959,0.017l-0.958,0.02l-0.958,0.02
	l-1.011-0.125l-0.815-0.032l-1.877-0.298l-1.641-0.541l-1.789-0.491l-1.061-0.264l-0.335-0.042l0.103,0.286l0.59,0.758l0.928,0.798
	l1.021,0.6l1.111,0.411l1.256,0.359l1.256,0.357l1.348,0.166l1.488,0.114l1.438-0.032l1.492,0.115l1.58-0.078l1.489,0.109
	l1.489,0.114l1.438-0.028l1.491,0.115l1.398,0.308l1.398,0.309l1.21,0.691l1.163,0.555l1.121,0.89l0.979,0.941l0.398,0.665
	l-0.043,0.333l-0.429,0.153l-0.672-0.079l-0.816-0.032l-0.337-0.041l0.103,0.286l0.304,0.854l0.602,1.239l0.265,1.194l0.214,1.052
	l0.119,1.243l0.021,0.961l-0.074,1.154l-0.172,0.867l-0.316,0.919l-0.371,0.771l-0.562,0.684l-0.563,0.685l-0.613,0.54l-0.855,0.305
	l-0.857,0.305l-0.856,0.306l-1.103,0.069l-1.152-0.073l-1.109-0.405l-1.258-0.364l-1.303-0.499l-0.775-0.369l-0.44-0.327l0.04-0.336
	l0.326-0.438l0.185-0.388l-0.244-0.236l-0.49-0.47l-0.683-0.563l-0.826-0.513l-0.775-0.368l-0.771-0.365l-0.92-0.319l-0.726-0.224
	l-0.919-0.319l-0.865-0.171l-0.866-0.175l-0.866-0.175l-0.92-0.318l-0.867-0.176l-0.867-0.174l-0.916-0.314l-0.867-0.176
	l-0.775-0.367l-0.774-0.365l-0.774-0.37l-0.828-0.511l-0.682-0.563l-0.631-0.416l-0.479,0.009l0.152,0.427l0.396,0.664l0.539,0.614
	l0.491,0.469l0.684,0.563l0.631,0.42l0.58,0.276l0.774,0.365l0.631,0.421l0.725,0.226l0.724,0.223l0.723,0.227l0.581,0.276
	l0.727,0.226l0.866,0.175l0.634,0.419l0.865,0.171l0.582,0.276l0.724,0.227l0.726,0.226l0.775,0.37l0.631,0.419l0.387,0.185
	l0.102,0.286l-0.092,0.19l-0.428,0.152l-0.521,0.346l-0.186,0.389l0.154,0.434l0.532,0.133l1.201,0.213l1.256,0.358l1.021,0.604
	l0.826,0.513l0.782,0.845l0.733,0.707l0.447,0.808l0.307,0.858l0.355,0.999l0.162,0.908l0.021,0.96l-0.125,1.012l-0.318,0.914
	l-0.511,0.827l-0.511,0.826l-0.654,0.873l-0.898,0.646l-0.898,0.639l-1.093,0.55l-1.286,0.458l-1.195,0.265l-1.102,0.072
	l-1.102,0.066l-1.01-0.125l-1.01-0.124l-1.059-0.264l-0.918-0.317l-0.97-0.462l-0.97-0.462l-0.967-0.455l-0.826-0.516l-0.827-0.51
	l-0.876-0.654l-0.879-0.655l-0.877-0.655l-0.877-0.654l-0.876-0.651l-0.929-0.798l-0.877-0.655l-0.826-0.508l-0.877-0.656
	l-0.53-0.139l-0.134,0.532l0.256,0.721l0.15,0.425l-0.233,0.245l-0.339-0.041l-0.629-0.417l-0.969-0.462l-1.019-0.604l-1.112-0.41
	l-1.164-0.555l-1.252-0.36l-1.306-0.497l-1.31-0.506l-1.396-0.304l-1.356-0.646l-1.308-0.502l-1.396-0.306l-1.355-0.646
	l-1.164-0.553l-1.303-0.499l-1.164-0.557l-1.07-0.744l-0.875-0.649l-0.93-0.799l-0.734-0.706l-0.782-0.846l-1.884-3.032l-0.39-0.186
	l-0.572,0.204l-0.612,0.541l-0.521,0.347l-2.856,1.017l-0.715,0.254l-0.908,0.162l-0.714,0.255l-0.958,0.018l-0.909,0.163
	l-0.958,0.019l-0.96,0.014l-0.765,0.115l-0.959,0.02l-0.957,0.019l-0.818-0.03l-0.959,0.019l-0.816-0.034l-1.674,0.27l-1.867,0.182
	l-1.621,0.42l-1.766,0.467l-1.672,0.273l-0.816-0.032l-0.295-0.379l-0.012-0.479l0.562-0.683l0.378-0.297l-0.011-0.479l-0.438-0.329
	l-0.814-0.027l-0.766,0.111l-0.572,0.203l-0.765,0.111l-0.623,0.061l-0.571,0.203l-0.623,0.062l-0.714,0.254l-0.622,0.06
	l-0.623,0.065l-0.572,0.203l-0.621,0.06l-0.623,0.062l-0.621,0.063l-0.624,0.061l-0.765,0.111l-0.674-0.084l-0.673-0.082
	l-0.677-0.087l-0.814-0.027l-1.009-0.125l-0.919-0.317l-0.867-0.176l-0.918-0.316l-0.865-0.176l-0.918-0.314l-1.061-0.268
	l-0.918-0.313l-0.918-0.318l-0.922-0.317l-0.915-0.314l-0.919-0.317l-0.918-0.318l-0.918-0.313l-1.01-0.124l-0.871-0.178
	l-1.059-0.264l-0.816-0.032l-1.01-0.124l-0.958,0.019l-0.726-0.227l-0.438-0.327l0.04-0.337l0.42-0.634l0.469-0.488l-0.01-0.48
	l-0.486-0.467l-0.48,0.01l-0.766,0.112l-1.102,0.068l-1.009-0.123l-0.867-0.176l-12.556-4.063l-0.816-0.032l-0.724-0.226
	l-0.103-0.286l0.379-0.296l0.764-0.111l0.859-0.306l0.182-0.386l-0.203-0.573l-0.672-0.083l-0.963,0.016l-0.866-0.171l-0.813-0.032
	l-0.725-0.227l-0.868-0.174l-0.726-0.225l-0.674-0.083l-0.723-0.227l-0.633-0.416l-0.725-0.226l-0.58-0.275l-0.531-0.136
	l-0.775-0.367l-0.58-0.278l-0.531-0.133l-0.58-0.277l-0.726-0.227l-0.531-0.132l-0.528-0.136l-0.674-0.082l-6.162-1.027
	l-1.346-0.165l-0.766,0.116l-0.622,0.061l-0.235,0.244l-2.902,3.607l-0.563,0.686l-0.562,0.684l-0.848,0.786l-0.706,0.728
	l-0.755,0.592l-0.847,0.784l-0.899,0.646l-0.846,0.781l-0.756,0.593l-0.85,0.784l-0.896,0.644l-0.703,0.734l-0.85,0.784l-0.755,0.59
	l-0.652,0.878l-0.654,0.874l-0.562,0.683l-0.51,0.828l-0.459,0.968l-0.461,0.971l-0.275,0.581l-0.236,0.246l-0.337-0.042
	l-0.245-0.235l-0.294-0.379l-0.153-0.429l-0.203-0.572l-0.01-0.476l-0.213-1.052l-0.297-0.38l-0.374,0.295l-0.604,1.021l-0.459,0.97
	l-0.602,1.02l-0.604,1.017l-0.798,0.928l-0.653,0.879l-0.703,0.734l-0.99,0.835l-0.705,0.734l-0.846,0.785l-1.043,0.693l-0.9,0.642
	l-0.895,0.643l-1.047,0.695l-0.896,0.641l-1.042,0.693l-0.95,0.501l-0.896,0.641l-1.043,0.693l-0.947,0.498l-0.899,0.642
	l-0.568,0.202l-0.479,0.012l0.037-0.337l0.226-0.724l0.554-1.161l0.461-0.971l0.227-0.725l-0.104-0.287l-0.479,0.011l-0.615,0.54
	l-0.844,0.784l-0.9,0.643l-0.756,0.593l-0.614,0.54l-0.665,0.398l-0.664,0.397l-0.43,0.153l-0.518,0.345l-0.479,0.01l-0.573,0.204
	l-0.428,0.152l-0.481,0.01l-0.425,0.151l-0.572,0.203l-0.43,0.153l-0.766,0.111l-0.573,0.203l-0.663,0.398l-0.717,0.255
	l-0.804,0.447l-4.458,2.394l-0.717,0.255l-0.193-0.093l-0.152-0.43l-0.916-2.571l-0.296-0.379l-0.388-0.185l-2.766,0.111"/>
<path fill="#ED1C24" d="M0.28,159.761l0.329-0.438l-0.296-0.377"/>
<polygon points="101.613,149.952 100.84,149.584 100.156,149.021 99.432,148.795 98.656,148.426 97.881,148.061 97.106,147.691 
	96.332,147.322 95.648,146.76 95.016,146.34 94.671,145.822 94.375,145.443 94.029,144.922 93.876,144.492 93.674,143.924 
	93.663,143.444 93.459,142.872 93.164,142.493 92.961,141.921 92.664,141.542 92.227,141.215 91.258,140.756 90.289,140.297 
	89.372,139.98 88.402,139.518 87.617,138.672 87.129,138.201 86.833,137.826 86.344,137.354 86.191,136.925 85.846,136.404 
	85.552,136.026 85.398,135.598 85.195,135.025 85.043,134.597 84.84,134.026 84.635,133.452 84.484,133.026 84.28,132.454 
	84.27,131.975 84.065,131.402 83.863,130.833 83.711,130.404 83.558,129.975 83.314,129.739 83.016,129.361 82.721,128.983 
	82.426,128.607 82.182,128.369 81.742,128.045 81.447,127.667 81.061,127.482 80.621,127.155 80.326,126.778 80.031,126.398 
	79.734,126.022 79.439,125.646 79.145,125.267 78.992,124.837 78.891,124.551 78.737,124.122 78.676,123.5 78.811,122.968 
	78.995,122.584 79.373,122.288 80.086,122.034 80.32,121.79 80.219,121.503 79.873,120.981 79.578,120.604 79.424,120.174 
	79.129,119.795 78.836,119.42 78.539,119.043 78.386,118.614 78.141,118.377 77.99,117.951 77.695,117.573 77.542,117.144 
	77.39,116.716 77.236,116.286 77.084,115.857 77.125,115.52 76.972,115.091 76.961,114.612 76.954,114.132 76.943,113.653 
	76.984,113.318 77.117,112.787 77.24,111.775 77.66,111.142 78.23,110.938 79.24,111.063 80.252,111.187 80.73,111.179 
	80.578,110.75 80.182,110.086 79.693,109.615 79.396,109.237 78.865,109.106 78.387,109.115 77.855,108.982 77.428,109.134 
	76.949,109.144 76.324,109.203 75.896,109.356 75.418,109.367 75.182,109.61 75.232,109.755 75.385,110.184 75.589,110.756 
	75.559,111.57 75.383,112.436 75.065,113.355 75.035,114.173 75.146,114.938 75.4,115.65 75.513,116.417 75.908,117.079 
	76.163,117.793 76.561,118.46 76.957,119.122 77.354,119.787 77.648,120.164 77.709,120.785 77.576,121.316 77.26,122.235 
	77.178,122.908 77.381,123.477 77.393,123.957 77.596,124.529 77.799,125.101 78.003,125.673 77.97,126.49 77.885,127.162 
	77.611,127.744 77.15,128.712 76.691,129.682 76.283,130.793 75.822,131.761 75.361,132.731 74.95,133.841 74.635,134.758 
	74.368,135.82 73.959,136.933 73.835,137.943 73.568,139.004 73.301,140.062 73.088,141.266 72.964,142.279 72.839,143.287 
	72.626,144.492 72.553,145.643 72.621,146.746 72.498,147.754 72.426,148.908 72.413,150.686 72.4,152.458 72.387,154.232 
	72.52,155.959 72.742,157.49 72.824,159.07 73.047,160.604 73.36,161.937 73.727,163.42 74.184,164.703 74.693,166.135 
	75.293,167.367 76.086,168.697 76.832,169.879 77.91,171.105 78.795,172.238 80.02,173.415 81.385,174.536 82.945,175.754 
	84.455,176.824 85.037,177.101 85.474,177.429 86.057,177.705 86.688,178.125 87.128,178.453 87.707,178.727 88.237,178.858 
	88.819,179.136 89.399,179.413 89.98,179.688 90.656,179.772 91.237,180.047 91.766,180.179 92.438,180.261 93.113,180.344 
	93.643,180.479 95.612,180.584 97.725,180.636 99.785,180.544 101.794,180.312 103.662,180.133 105.674,179.9 107.582,179.381 
	109.541,179.006 111.448,178.489 113.355,177.967 115.265,177.453 117.266,176.741 119.123,176.08 120.982,175.418 122.84,174.758 
	124.697,174.096 126.698,173.384 128.556,172.723 130.412,172.062 132.465,171.493 133.227,171.378 133.852,171.318 
	134.342,171.789 134.738,172.453 135.178,172.779 135.563,172.967 135.746,172.576 135.881,172.047 135.819,171.422 
	135.616,170.851 135.414,170.282 135.21,169.71 134.863,169.188 134.373,168.717 133.936,168.391 133.02,168.074 132.684,168.034 
	132.355,168.473 132.222,169 132.18,169.337 131.945,169.581 131.129,169.551 130.457,169.467 129.732,169.244 129.06,169.162 
	128.477,168.888 127.846,168.466 127.121,168.24 126.539,167.963 125.91,167.548 125.418,167.076 124.787,166.656 124.205,166.38 
	123.572,165.961 122.991,165.689 122.41,165.412 122.025,165.227 121.645,165.522 121.318,165.961 120.992,166.4 120.707,166.502 
	119.981,166.276 119.4,165.999 118.768,165.579 118.186,165.303 117.697,164.833 117.117,164.555 116.627,164.089 115.994,163.67 
	115.506,163.198 114.964,162.585 114.619,162.068 114.131,161.596 113.783,161.075 113.293,160.604 112.959,160.562 
	112.438,160.908 111.969,161.398 111.683,161.5 111.151,161.365 110.324,160.855 109.551,160.489 108.869,159.927 108.236,159.506 
	107.695,158.895 107.205,158.423 106.811,157.762 106.461,157.24 106.117,156.719 105.863,156.004 105.516,155.486 105.17,154.965 
	104.915,154.25 104.711,153.677 104.365,153.155 104.018,152.639 103.621,151.975 103.132,151.502 102.787,150.981 102.245,150.368 
	"/>
<polygon fill="#F49129" points="132.139,122.183 133.576,124.409 134.584,126.785 134.97,129.226 135.068,131.767 134.779,134.122 
	134.062,136.63 132.957,138.957 131.711,141.331 130.027,143.383 128.287,145.286 126.307,146.958 124.082,148.396 121.756,149.546 
	119.418,150.217 116.979,150.598 114.529,150.506 112.071,149.934 109.604,148.877 107.269,147.296 105.701,145.6 104.416,143.801 
	103.561,141.852 102.992,139.802 102.711,137.65 102.764,135.535 103.102,133.324 103.686,131.345 104.557,129.263 105.76,127.224 
	107.018,125.329 108.664,123.614 110.164,121.955 112.103,120.619 114.045,119.285 115.992,118.431 118.188,117.81 120.484,117.477 
	122.738,117.479 125.003,117.961 125.87,118.135 126.787,118.45 127.707,118.77 128.623,119.087 129.449,119.597 130.131,120.161 
	"/>
<polygon points="81.215,51.924 81.684,51.43 82.152,50.943 82.626,50.455 83.238,49.915 83.851,49.373 84.37,49.029 84.984,48.487 
	85.647,48.091 86.166,47.744 86.881,47.49 87.547,47.094 88.352,46.644 88.537,46.258 88.385,45.828 87.812,46.032 87.291,46.377 
	86.863,46.53 86.575,46.632 86.148,46.785 85.719,46.938 85.291,47.09 85.004,47.191 84.577,47.344 84.289,47.446 84.006,47.547 
	83.625,47.842 83.342,47.943 83.105,48.19 82.679,48.343 82.441,48.585 82.117,49.026 81.738,49.32 81.553,49.708 81.228,50.147 
	80.951,50.729 80.633,51.646 80.836,52.216 "/>
<polygon fill="#FFFFFF" points="138.778,96.959 139.328,98.051 139.592,99.245 139.908,100.582 140.172,101.775 140.201,103.214 
	140.178,104.51 140.208,105.948 139.9,107.346 139.541,108.6 139.234,109.999 138.877,111.253 138.182,112.467 137.629,113.628 
	136.74,114.75 135.943,115.677 134.951,116.511 134.104,117.296 133.014,117.847 131.727,118.306 130.961,118.414 130.188,118.051 
	129.215,117.586 128.299,117.271 127.525,116.901 126.75,116.536 126.025,116.31 125.301,116.085 124.629,116.001 123.953,115.92 
	123.281,115.837 122.659,115.898 121.985,115.814 121.363,115.877 120.598,115.985 119.975,116.046 119.353,116.108 
	118.588,116.218 117.68,116.38 116.914,116.491 116.006,116.656 115.098,116.82 114.426,116.734 113.793,116.316 111.836,114.438 
	110.308,112.403 109.206,110.219 108.443,108.075 108.11,105.782 108.256,103.474 108.646,101.404 109.32,99.23 110.19,97.15 
	111.305,95.306 112.756,93.503 114.45,91.931 116.247,90.647 118.291,89.601 120.434,88.838 122.679,88.358 125.076,88.312 
	127.434,88.601 129.941,89.317 132.604,90.464 133.236,90.884 133.673,91.206 134.307,91.627 134.794,92.098 135.479,92.66 
	135.967,93.129 136.457,93.6 136.803,94.119 137.341,94.731 137.741,95.397 138.229,95.865 "/>
<polygon fill="#ED1C24" points="80.305,18.601 79.955,18.079 79.904,17.937 81.068,18.488 81.506,18.816 82.088,19.094 
	82.434,19.61 82.729,19.99 83.074,20.511 83.424,21.032 83.77,21.553 83.972,22.123 84.175,22.694 84.328,23.124 84.439,23.889 
	84.305,24.417 84.02,24.519 82.825,24.784 82.254,24.987 81.726,24.855 81.676,24.714 81.471,24.141 "/>
<polygon points="131.354,104.592 130.853,103.641 130.069,102.794 129.387,102.234 128.418,101.774 127.5,101.456 126.49,101.333 
	125.532,101.351 124.623,101.512 123.621,101.869 122.621,102.225 121.866,102.815 120.968,103.458 120.408,104.142 
	119.753,105.018 119.434,105.935 119.168,106.996 119.098,108.15 119.309,109.2 119.624,110.538 120.123,111.488 120.766,112.385 
	121.497,113.091 122.182,113.652 123.1,113.973 123.967,114.143 124.832,114.318 125.742,114.155 126.7,114.136 127.557,113.831 
	128.365,113.385 129.313,112.884 129.927,112.345 130.63,111.61 131.141,110.785 131.51,110.011 131.973,109.04 131.9,107.938 
	131.973,106.787 131.761,105.734 "/>
<polygon fill="#FFFFFF" points="152.006,110.605 152.537,110.735 153.119,111.012 153.648,111.146 154.088,111.474 154.67,111.75 
	155.107,112.075 155.687,112.353 156.127,112.681 156.566,113.008 157.004,113.333 157.492,113.803 157.787,114.183 
	158.276,114.649 158.572,115.028 159.408,116.017 160.152,117.207 160.791,118.102 161.25,119.39 161.656,120.532 162.062,121.673 
	162.33,122.866 162.449,124.113 162.521,125.217 162.498,126.51 162.426,127.665 162.212,128.869 161.992,130.07 161.637,131.326 
	161.033,132.347 160.48,133.505 159.879,134.525 159.131,135.596 158.387,136.67 157.445,137.645 156.688,138.237 155.791,138.877 
	154.892,139.521 153.801,140.07 152.657,140.477 151.514,140.885 150.371,141.291 149.177,141.555 147.932,141.675 146.832,141.745 
	145.586,141.866 144.433,141.797 143.088,141.632 142.024,141.364 140.965,141.098 139.854,140.687 138.886,140.229 
	137.865,139.625 137.08,138.776 136.297,137.93 135.898,137.266 135.84,136.643 136.062,135.918 136.237,135.051 136.412,134.186 
	136.443,133.368 136.618,132.5 136.65,131.688 136.68,130.871 136.57,130.104 136.457,129.337 136.346,128.571 136.184,127.666 
	135.93,126.95 135.675,126.234 135.422,125.522 135.168,124.809 134.912,124.093 134.465,123.285 134.068,122.625 133.621,121.817 
	133.222,121.153 132.773,120.346 132.672,120.06 132.908,119.815 133.572,119.419 134.092,119.074 134.611,118.726 135.133,118.38 
	135.459,117.939 135.932,117.452 136.451,117.105 136.777,116.667 137.104,116.228 137.434,115.791 137.76,115.356 138.086,114.914 
	138.505,114.28 138.832,113.845 139.158,113.406 139.437,112.824 139.904,112.338 140.23,111.896 140.701,111.406 141.029,110.969 
	141.405,110.674 141.836,110.521 142.356,110.176 142.783,110.024 143.406,109.962 143.979,109.758 144.602,109.698 
	145.223,109.636 145.846,109.574 146.516,109.658 147.143,109.598 147.814,109.681 148.345,109.814 148.968,109.753 
	149.547,110.031 150.028,110.021 150.56,110.155 151.088,110.287 151.479,110.474 "/>
<polygon points="149.943,122.447 149.536,121.301 148.943,120.546 148.211,119.844 147.387,119.333 146.467,119.013 
	145.406,118.746 144.396,118.627 143.488,118.787 142.531,118.807 141.529,119.163 140.581,119.66 139.772,120.109 139.068,120.845 
	138.365,121.578 137.904,122.544 137.586,123.463 137.516,124.613 137.441,125.769 137.707,126.964 138.062,127.961 138.703,128.86 
	139.296,129.618 140.027,130.32 140.803,130.689 141.771,131.149 142.639,131.325 143.455,131.357 144.467,131.481 145.322,131.176 
	146.373,130.964 147.182,130.515 147.986,130.066 148.742,129.476 149.253,128.649 149.762,127.822 150.082,126.907 
	150.348,125.843 150.469,124.834 150.35,123.587 "/>
</svg>
