<?xml version="1.0" encoding="utf-8"?>
<!-- Generator: Adobe Illustrator 16.0.0, SVG Export Plug-In . SVG Version: 6.00 Build 0)  -->
<!DOCTYPE svg PUBLIC "-//W3C//DTD SVG 1.1//EN" "http://www.w3.org/Graphics/SVG/1.1/DTD/svg11.dtd">
<svg version="1.1" id="Layer_1" xmlns="http://www.w3.org/2000/svg" xmlns:xlink="http://www.w3.org/1999/xlink" x="0px" y="0px"
	 width="400px" height="400px" viewBox="0 0 400 400" enable-background="new 0 0 400 400" xml:space="preserve">
<path d="M104.869,79.218l-0.151,0.455l-0.304,0.151l-0.305,0.152l-0.607-0.152l-0.909-0.303l-6.523-2.274l-0.453-0.304l-0.304-0.303
	l-0.15-0.758l-0.908-5.156l-0.151-0.606l-0.304-0.758l-0.607-0.912l-0.608-0.758l-0.604-0.759l-0.605-0.758l-0.456-0.457
	l-0.454-0.304l-0.455-0.303l-0.453-0.151L89.1,64.656l-0.455-0.15l-0.453-0.152h-0.452l-0.456-0.151l-0.454-0.151h-0.455h-0.456
	l-0.452,0.151h-0.455l-0.456,0.151h-0.452l-0.455,0.152l-0.455,0.15l-0.607,0.151l-0.304,0.303l-0.456,0.151l-0.757,0.303
	l-0.459,0.305l-0.454,0.456l-0.604,0.303l-0.304,0.453l-0.456,0.607l-0.304,0.453l-0.454,0.454l-0.305,0.457l-0.304,0.607
	l-0.152,0.454l-0.301,0.607l-0.305,0.606l-0.302,0.608l-0.153,0.455l-0.302,0.606l-0.152,0.607l-0.304,0.607l-0.305,0.454
	l-0.151,0.607l-0.303,0.607l-0.456,0.303l-0.455,0.151l-1.062,0.152l-0.909,0.151l-0.908,0.303l-0.758,0.151l-0.76,0.305
	l-0.606,0.303l-0.609,0.304l-0.606,0.304l-0.605,0.303l-0.456,0.304l-0.453,0.303l-0.454,0.456l-0.458,0.151l-0.45,0.305
	l-0.304,0.304l-0.304,0.302l-0.456,0.152l-0.304,0.151l-0.305,0.151l-0.453,0.152l-1.364,0.305l-1.367,0.456l-1.21,0.606
	l-1.216,0.758l-0.911,0.758l-0.908,0.759l-0.759,0.909l-0.607,0.911l-0.607,1.062l-0.304,0.909l-0.302,1.214l-0.152,1.063
	l0.152,1.06l0.149,1.214l0.306,1.063l0.454,1.06l0.76,1.062l0.757,1.214l0.908,0.909l1.215,1.062l0.606,0.456l0.757,0.454
	l0.76,0.304l0.607,0.302l0.757,0.305l0.609,0.152l0.756,0.151l0.607,0.15l0.608,0.152h0.606l0.758,0.151h0.457h0.606h0.605h0.456
	h0.456l0.452,0.15h0.456l0.453,0.151l0.306,0.151l1.516,0.607l1.668,0.454l1.666,0.454l1.667,0.455l0.912,0.305l0.909,0.302
	l0.908,0.454l0.76,0.304l0.907,0.456l0.761,0.454l0.911,0.608l0.758,0.455l0.912,0.606l0.758,0.607l0.756,0.607l0.608,0.757
	l0.76,0.607l0.606,0.759l0.605,0.606l0.758,0.758l0.607,0.759l0.606,0.76l0.455,0.758l0.457,0.761l0.605,0.758h0.302l0.304-0.152
	v-0.606v-0.608l0.152-0.303l0.455,0.152l0.608,0.456l0.455,0.305l0.456,0.454l0.757,0.304l0.605,0.303l0.76,0.305l0.607,0.303
	l0.909,0.304l0.757,0.303l0.759,0.305l0.759,0.151l0.758,0.304l0.606,0.151l0.759,0.305l0.607,0.151l0.455,0.151l0.452,0.151
	l0.304,0.305h0.456v0.151l15.775,15.621l0.303,0.456l0.302,0.605l0.307,0.453l0.148,0.759l0.307,0.457l0.151,0.757l0.15,0.608
	l0.15,0.605l0.151,0.608l0.304,0.455l0.303,0.607l0.455,0.305l0.305,0.303h0.302h0.304l0.307-0.152l0.302-0.302l0.306-0.458
	l0.3-0.452l0.152-0.456V141.1v-0.304l0.151-0.152l0.456,0.152l0.606,0.456l0.608,0.303l0.452,0.456l0.606,0.608l0.605,0.757
	l0.761,0.758l0.758,0.911l0.762,0.911l0.758,0.908l0.762,1.063l0.755,1.063l0.914,1.062l0.908,1.06l0.76,0.912l0.907,1.059
	l0.911,1.063l0.907,0.911l0.759,0.908l0.909,0.76l0.91,0.758l0.911,0.608l1.061,0.757l1.061,0.762l1.063,0.605l1.216,0.605
	l1.212,0.458l0.91,0.149l1.062,0.152l1.214,0.304l1.063,0.152l1.062,0.303l0.605,0.304l1.367,0.909l1.213,0.91l1.517,0.911
	l1.365,0.755l1.517,0.759l1.666,0.759l1.52,0.608l1.667,0.605l1.517,0.608l1.668,0.605l1.818,0.455l1.669,0.456l1.668,0.452
	l1.666,0.306l1.667,0.453l1.67,0.152l1.668,0.302l1.514,0.306l1.669,0.152l1.518,0.15l0.606,0.149l0.302,0.457l-0.149,0.302
	l-0.456,0.909l-0.151,0.303l-0.299,0.456v0.304l-0.308,0.151v0.305l-0.148,0.303v0.3v0.152v0.306v0.149l0.148,0.152l0.151,0.151
	l0.305,0.153h0.15h0.455h0.456h0.455l0.756-0.153h0.152l-0.152,0.305l-0.453,0.759l-0.303,0.302l-0.455,0.456l-0.606,0.453
	l-0.609,0.457l-0.756,0.606l-0.608,0.454l-0.909,0.606l-0.76,0.607l-0.758,0.759l-0.908,0.607l-0.76,0.608l-0.605,0.605
	l-0.606,0.757l-0.605,0.607l-0.456,0.607l-0.304,0.759l-0.303,0.607l-0.153,0.451v0.76l0.304,0.456l0.304,0.608v0.301v0.456
	l-0.454,0.306l-0.457,0.603l-0.45,0.456l-0.609,0.304l-0.604,0.607l-0.606,0.608l-0.455,0.759l-0.759,0.606l-0.455,0.757
	l-0.607,0.608l-0.605,0.76l-0.457,0.907l-0.454,0.763l-0.453,0.76l-0.305,0.907l-0.305,0.763l-0.153,0.755v0.764v0.755l0.153,0.911
	l0.305,0.607l0.456,0.76l0.149,0.603v0.608l-0.149,0.759l-0.151,0.456h-0.757l-0.456-0.152l-0.76-0.304l-0.607-0.304l-0.606-0.303
	l-0.757-0.457l-0.759-0.455l-0.76-0.456l-0.757-0.603l-0.758-0.607l-0.759-0.608l-0.76-0.607l-0.758-0.603l-0.756-0.608l-0.76-0.608
	l-0.609-0.603l-0.603-0.607l-0.607-0.603l-0.454-0.456l-0.604-0.607l-0.307-0.456l-0.305-0.303l-0.302-0.304l-0.455-0.152h-0.303
	h-0.304l-0.305,0.152l-0.302,0.152l-0.305,0.451l-0.151,0.455l-0.153,1.215v1.216v0.607l-0.15,0.304h-0.304l-0.608-0.304
	l-0.76-0.455l-0.755-0.152l-0.912-0.148l-0.758-0.308l-0.756-0.152h-0.91h-0.911l-0.908-0.148l-0.909,0.148h-0.91h-0.91
	l-0.907,0.152l-0.911,0.308l-0.757,0.148l-0.91,0.152l-0.909,0.303l-0.757,0.304l-0.763,0.151l-0.757,0.456l-0.76,0.304
	l-0.606,0.455l-0.608,0.456l-0.456,0.607l-0.455,0.603l-0.301,0.608l-0.306,0.452l-0.456,0.607l-0.452,0.456l-1.366,1.063
	l-1.363,1.058l-1.366,1.063l-0.909,0.908l-0.758,0.915l-0.911,1.059l-0.757,0.907l-0.911,1.063l-0.759,0.911l-0.604,1.059
	l-0.758,1.063l-0.608,1.063l-0.759,1.06l-0.608,1.059l-0.605,1.063l-0.761,1.215l-0.451,1.059l-0.608,1.215l-0.607,1.063
	l-0.606,1.215l-0.457,1.059l-0.453,1.215l-0.607,1.215l-0.304,0.759v0.304l0.304,0.303l0.607,0.152l0.453,0.148l0.152,0.152
	l-0.152,0.607l-2.429,6.067l-0.301,0.456h-0.304l-0.607-0.305l-6.069-3.792l-0.452-0.304l-0.304-0.304l-0.609-0.304l-0.452-0.456
	l-0.606-0.456l-0.458-0.451l-0.604-0.608l-0.456-0.455l-0.456-0.608l-0.451-0.607l-0.456-0.451l-0.304-0.456l-0.152-0.456
	l-0.151-0.456l-0.149-0.304l-0.454-0.303l-0.305,0.151l-0.607,0.452l-0.455,0.607l-0.451,0.76l-0.306,0.911l-0.15,0.76l-0.151,0.455
	l-0.454,0.305H95.01h-1.366l-1.363-0.152l-1.367-0.152l-1.364-0.151h-1.214h-1.519l-1.213,0.456l-1.365,0.455l-1.215,0.608
	l-1.213,0.607l-0.908,0.303l-0.91,0.3l-0.909,0.456l-0.76,0.308l-0.757,0.456l-0.757,0.3l-0.608,0.456l-0.76,0.455l-0.451,0.456
	l-0.607,0.456l-0.606,0.607l-0.456,0.604l-0.456,0.455l-0.451,0.759l-0.456,0.76l-0.456,0.607l-0.304,0.911l-0.452,0.76
	l-0.455,0.907l-0.303,0.912l-0.153,0.303l-0.15,0.153l-0.302,0.455l-0.153,0.152l-0.303,0.303l-0.453,0.304l-0.304,0.304
	l-0.455,0.304l-0.304,0.303l-0.454,0.304l-0.306,0.456l-0.452,0.304l-0.456,0.456l-0.303,0.456l-0.455,0.456l-0.305,0.456
	l-0.305,0.456l-0.302,0.451l-0.305,0.608l-0.302,0.607l-0.149,0.604l-0.153,0.764l-0.303,0.604v0.607l-0.153,0.604v0.455v0.456
	v0.608v0.455l0.153,0.456v0.304l0.15,0.451v0.456l0.149,0.46v0.456v0.452l0.15,0.455v0.456v0.455l-0.15,0.607l-0.149,1.971v1.818
	v1.667l0.149,1.822l0.306,1.515l0.302,1.519l0.456,1.515l0.76,1.367l0.758,1.363l0.76,1.063l0.91,1.063l1.061,0.908l1.214,0.911
	l1.367,0.76l1.363,0.607l1.669,0.456l1.668,0.451l1.668,0.152l1.821,0.151h2.123h0.453l0.306,0.152l0.149,0.304v0.607v0.604v0.308
	l0.306,0.304l0.758,0.147l1.214,0.152h1.214l1.063,0.303l1.213,0.304l1.214,0.607l1.214,0.608l1.215,0.603l1.063,0.759l1.214,0.607
	l0.756,0.456l0.912,0.456l0.757,0.604l0.91,0.607l0.908,0.607l0.757,0.755l0.912,0.607l0.758,0.608l0.914,0.759l0.754,0.759
	l0.911,0.604l0.76,0.763l0.907,0.603l0.759,0.76l0.758,0.456l0.758,0.607l0.76,0.603l0.76,0.456l0.756,0.455l0.758,0.456l1.822,0.76
	l1.818,0.759l2.122,0.604l1.975,0.456l2.273,0.308l1.971,0.148h2.276h2.125l1.97-0.303l2.125-0.457l1.972-0.451l1.97-0.763
	l1.671-1.06l1.666-1.059l1.516-1.22l1.366-1.515l1.216-1.666l0.906-1.818l0.76-2.126l0.607-2.274v-0.76l0.152-0.607v-0.759v-0.76
	v-0.76v-0.755v-0.759l-0.152-0.763v-0.755l-0.152-0.76l-0.151-0.76l-0.152-0.763v-0.755l-0.149-0.759l-0.151-0.759v-0.456v-0.456
	v-0.152h0.305l0.452,0.152h0.456h0.606l0.76-0.152l0.607-0.148l0.303-0.152l0.148-0.456l0.153-0.607v-0.759l-0.305-0.604
	l-0.453-0.456l-0.307-0.456l-0.452-0.455l-0.305-0.456l-0.302-0.607l-0.151-0.755l-0.152-0.608l-0.151-0.608l-0.15-0.759
	l-0.148-0.455v-0.604l-0.153-1.063l-0.306-0.911l-0.15-1.059l-0.15-1.063l-0.153-0.912v-1.059l-0.151-1.063l-0.15-0.908l-0.15-1.214
	v-0.912l-0.308-1.063l-0.148-1.059l-0.151-0.911l-0.304-1.063l-0.15-0.907l-0.152-0.608v-0.303l0.152-0.152l0.454-0.304l0.607-0.147
	l0.452-0.152l0.304-0.456l0.152-0.456v-0.457l-0.152-0.455l-0.149-0.456l-0.306-0.759c-0.608-1.214-0.608-3.792-0.301-5.155
	l0.301-0.759l0.151-0.759l0.304-0.608l0.456-0.911l0.304-0.759l0.454-0.759l0.453-0.608l0.456-0.755l0.453-0.76l0.608-0.607
	l0.456-0.607l0.604-0.603l0.457-0.607l0.607-0.457l0.451-0.303l0.456-0.304l0.605-0.304l0.305-0.152l0.456,0.304l0.606,0.608
	l0.758,0.303h0.91l1.062-0.152h1.214h1.062l1.062,0.152l1.063,0.152l1.212,0.152l1.062,0.303l1.062,0.152l1.064,0.451l1.059,0.304
	l1.062,0.456l1.215,0.456l0.908,0.608l1.063,0.455l1.062,0.604l0.911,0.456l0.907,0.759l0.91,0.608l0.908,0.607l0.913,0.603
	l0.302,0.304l0.607,0.607l0.759,0.608l0.758,0.76l0.758,0.907c1.823,1.823,3.793,3.489,5.61,5.312l0.307,0.304l0.453,0.452
	l0.305,0.308l0.455,0.456l0.303,0.303l0.455,0.304l0.302,0.304l0.456,0.304l0.454,0.303l0.456,0.152l0.302,0.152l0.909,0.152h0.607
	h0.305l0.303-0.152h0.456l0.605,0.152l1.063,0.603l0.908,0.456l1.063,0.455l1.06,0.304l1.215,0.147l1.062,0.308l1.059,0.152
	l1.063,0.305l1.064,0.303l0.755,0.152l0.15,0.299v0.764l-0.15,0.755l-0.305,0.764l-0.45,0.755l-0.456,0.911l-0.456,0.76
	l-0.456,0.911l-0.606,0.76l-0.608,0.911l-0.604,0.908l-0.758,0.911l-0.609,0.759l-0.603,0.911l-0.607,0.76l-0.457,0.911
	l-0.454,0.759l-0.451,0.755l-0.307,0.764l-0.305,0.755v0.763v0.603v0.76l0.305,0.456l0.455,0.152l0.454,0.304l0.303,0.304
	l-0.15,0.607l-0.606,1.667l-0.606,1.667l-0.453,1.667l-0.153,0.759l-0.15,0.607v0.76l-0.15,0.907v0.916v0.906v1.059v1.064v1.063
	v0.907l0.15,1.063l0.15,1.063l0.153,0.907l0.151,0.911l0.302,0.911l0.306,0.76l0.304,0.76l0.451,0.607l0.46,0.604l0.452,0.303
	l0.606,0.304l0.152,0.607l0.151,0.912l0.305,0.907l0.147,0.76l0.305,0.911l0.303,0.912l0.308,0.759l0.304,0.912l0.304,0.759
	l0.304,0.759l0.456,0.907l0.303,0.912l0.306,0.758l0.304,0.76l0.304,0.912l0.303,0.907l0.304,1.063l0.152,1.063l0.152,1.215
	l0.148,1.059l0.15,1.063l0.456,1.059l0.15,0.457l0.456,0.151h0.608h0.455h0.456l0.304,0.304l0.3,0.456l0.308,0.607l0.304,0.907
	l0.456,1.063l0.452,0.912l0.455,0.907l0.456,0.912l0.606,0.758l0.608,0.912l4.548,5.459l0.304,0.608v0.451l-0.304,0.456
	l-0.456,0.456l-0.304,0.456l-0.455,0.455l-2.882,5.16l-0.455,0.755l-0.608,0.759l-0.603,0.607l-0.761,0.607l-0.91,0.451
	l-0.912,0.607l-0.907,0.456l-1.063,0.456l-0.91,0.455l-1.06,0.456l-1.062,0.603l-1.063,0.456l-1.06,0.456l-1.059,0.607l-1.063,0.603
	l-1.062,0.608l-0.908,0.76l-1.062,0.759l-0.908,0.759l-0.76,0.908l-0.302,0.455l-0.307,0.308l-0.148,0.304l-0.303,0.451
	l-0.306,0.455l-0.148,0.308l-0.308,0.456l-0.148,0.451l-0.152,0.456l-0.151,0.456l-0.152,0.456l-0.152,0.456v0.456v0.456v0.451
	v0.456v0.456l0.152,0.455l0.152,0.456l0.151,0.303L188.01,365v0.459l-0.301,0.76l-0.151,0.603v0.759v0.759l-0.152,0.608v0.603v0.759
	l0.152,0.608v0.76l0.151,0.606l0.152,0.604l0.148,0.607l0.308,0.607l0.302,0.604l0.302,0.606l0.457,0.608l0.301,0.607l0.456,0.456
	l0.456,0.603l0.606,0.456l0.605,0.303l0.758,0.456l0.607,0.304l0.759,0.151l0.604,0.152l0.76,0.148l0.76,0.152l0.606,0.304
	l0.608,0.304l0.604,0.456l0.764,0.303l0.451,0.456l0.606,0.304l0.456,0.303l0.452,0.457l0.455,0.151l0.459,0.304l0.457,0.303
	l0.451,0.152l0.455,0.304l0.457,0.152l0.456,0.152h0.606l0.456,0.151h0.754l0.609,0.148h0.603h0.764l0.907-0.148h0.606l0.456,0.305
	l0.607,0.451l0.456,0.455l0.757,0.304l0.606,0.308l0.606,0.3l0.604,0.308l0.607,0.304l0.608,0.152l0.76,0.304l0.607,0.151
	l0.604,0.148l0.759,0.152l0.607,0.152l0.76,0.147l0.604,0.151h0.76l0.606,0.152h0.76h0.76l0.606,0.152h2.573l2.431-0.304
	l2.427-0.455l2.426-0.608l2.122-0.911l2.277-0.907l2.123-1.214l1.818-1.367l1.974-1.363l1.818-1.518l1.818-1.667l1.671-1.818
	l1.515-1.974l1.516-1.971l1.518-1.97l1.216-2.127l1.214-1.97l1.216-2.274l1.06-2.123l0.91-2.122l0.456-1.063l0.304-1.063
	l0.456-1.059l0.304-1.064l0.305-1.058l0.303-1.063l0.304-1.059l0.151-1.215l0.305-1.063v-1.666l0.15-1.667l0.305-1.667l0.147-0.759
	l0.308-0.304l0.305-0.304l0.759-0.152l0.456-0.303l0.147-0.76l0.152-1.215l-0.152-1.366l-0.304-1.21v-1.216v-1.063v-1.215v-1.059
	v-1.063v-1.059l-0.151-1.063l-0.148-1.059l-0.15-1.063l-0.304-0.911l-0.305-1.059l-0.305-0.911l-0.308-1.063l-0.452-0.911
	l-0.455-0.908l-0.455-0.911l-0.604-0.911l-0.606-0.908l-0.764-0.763l-0.756-0.907l-0.76-0.759l-0.607-0.607l-0.606-0.456
	l-0.604-0.607l-0.76-0.452l-0.76-0.456l-0.76-0.304l-0.76-0.304l-0.606-0.153l-0.304-0.303l0.151-0.607v-0.759l-0.304-0.604
	l-0.308-0.759l-0.604-0.455l-0.607-0.152l-0.604-0.152l-0.606-0.152h-0.607l-0.761-0.151l-0.603,0.151h-0.76l-0.606,0.152
	l-0.604,0.152l-4.4,2.274l-0.455,0.152l-0.305,0.152h-0.304l-0.304,0.152l-0.152-0.152h-0.303l-0.304-0.152l-0.153-0.152
	l-0.303-0.303l-0.304-0.304l-0.152-0.456l-0.454-0.603l-3.035-4.548l-0.304-0.457l-0.304-0.307l-0.152-0.304l-0.15-0.304v-0.303
	l0.308-0.304l0.456-0.608l0.302-0.304v-0.303v-0.305l-0.151-0.456l-0.455-0.603l-0.455-0.608l-0.455-0.607l-0.306-0.451
	l-0.303-0.608l-0.304-0.456l-0.304-0.456l-0.304-0.456l-0.152-0.456l-0.15-0.455l-0.305-0.456l-0.152-0.456l-0.152-0.456
	l-0.151-0.604l-0.147-0.456l-0.152-0.455l-0.152-0.604l-0.147-0.608l-0.151-0.607l-0.152-0.604l-0.151-0.763l-0.151-0.603
	l0.151-0.304l0.304-0.152l0.607-0.303l0.455-0.456l0.304-0.455v-0.76v-0.76v-0.906l0.152-0.764v-0.754v-0.76v-0.608v-0.759
	l0.153-0.76v-0.76l0.146-0.603l0.152-0.764l0.151-0.755l0.152-0.911l0.304-0.76l0.147-0.607l0.308-0.304l0.456-0.152h0.604h0.758
	l0.305-0.152l0.153-0.299v-0.46v-0.907v-0.911l0.15-0.76l0.148-0.911l0.15-0.76l0.305-0.608l0.151-0.755l0.309-0.759l0.3-0.608
	l0.455-0.608l0.305-0.607l0.309-0.603l0.45-0.608l0.304-0.603l0.304-0.608l0.152-0.607l0.308-0.603l0.146-0.608l0.153-0.603
	l0.152-0.607l0.454-5.16l0.148-0.603l0.608-0.456l6.219-2.578l1.216-0.457l1.058-0.606l1.215-0.76l1.063-0.911l1.215-0.907
	l1.059-1.063l1.064-1.063l0.91-1.215l1.059-1.211l0.912-1.367l0.76-1.363l0.759-1.367l0.604-1.367l0.762-1.368l0.453-1.362
	l0.303-1.368l0.307-1.514l0.148-1.215l0.152-1.367l-0.152-1.362v-0.607l0.31-0.152h0.45h1.064l0.76-0.304l0.758-0.456l0.76-0.303
	l0.455-0.304l0.305-0.604v-0.456l-0.152-0.911l-0.152-0.455l-0.151-0.608l-0.147-0.604l-0.152-0.607v-0.759l-0.151-0.608
	l-0.152-0.755v-0.607l-0.151-0.759v-0.76v-0.607v-0.759v-0.76v-0.604V216.8v-0.759l0.151-0.608v-0.603l0.152-0.76l0.151-0.456
	l0.152-0.456l0.304-0.456l0.303-0.608l0.305-0.759l0.147-0.759l0.152-0.755l0.152-0.916V208v-1.058l-0.152-1.063l-0.152-1.063
	l-0.147-1.06l-0.305-1.215l-0.15-1.063l-0.304-1.059l-0.305-1.062l-0.304-0.907l-0.304-0.912l-0.304-0.907l-0.308-0.912
	l-0.303-0.757l-0.306-0.607l-1.058-1.668l-1.063-1.667l-1.062-1.819l-0.301-0.607v-0.302l0.451-0.152h0.456l0.304-0.15l0.308-0.151
	l0.148-0.153l0.15-0.455l0.153-0.304v-0.304v-0.302v-0.455v-0.306v-0.452l-0.153-0.306l-0.15-0.301l-0.148-0.304l-0.15-0.306
	l-1.064-1.061l-1.062-1.215l-0.907-1.213l-0.76-1.213l-0.456-0.759l-0.304-0.76l-0.304-0.755l-0.303-0.76l-0.456-0.911l-0.304-0.907
	l-0.304-0.912l-0.456-0.907l-0.308-0.912l-0.304-0.757l-0.452-0.909l-0.456-0.911l-0.303-0.907l-0.455-0.759l-0.456-0.76
	l-0.456-0.759l-0.604-0.759l-0.456-0.76l-0.607-0.607l-0.607-0.451l-0.303-0.456v-0.456l0.15-0.456l0.456-1.059l0.455-1.062
	l8.342-10.92l0.452-0.608v-0.454l0,0h0.308l0.91-0.301l0.604-0.151l0.456-0.305l0.456-0.455l0.455-0.608l0.455-0.605l0.305-0.607
	l0.305-0.606l0.454-0.456l0.306-0.456l0.454-0.607l0.604-0.451l0.456-0.457l0.456-0.607l0.606-0.607l0.457-0.454l0.455-0.607
	l0.604-0.606l0.455-0.607l0.456-0.456l0.303-0.605l0.457-0.608l0.456-0.605l0.303-0.607l0.456-0.606l0.303-0.762l0.304-0.452
	l0.305-0.303l0.455,0.15l0.604,0.152l0.456-0.152l0.308-0.15l0.305-0.606l0.76-1.214l0.758-1.366l0.756-1.214l0.914-1.214
	l1.06-1.214l0.908-1.214l0.915-1.365l1.059-1.214l0.907-1.215l0.915-1.214l0.907-1.214l0.911-1.365l0.912-1.214l0.756-1.366
	l0.764-1.365l0.602-1.365l0.607-1.214l0.455-1.517l0.457-1.365l0.148-1.517l0.151-1.063l0.304-0.757l0.151-0.607l0.305-0.303
	l0.304-0.151l0.151-0.151l0.305-0.305l0.15-0.305l0.305-0.454l5.764-21.69l0.15-1.667l0.152-1.819l0.456-0.757l0.604-0.607
	l2.121-1.214l2.123-1.059l2.126-1.366l0.755-0.456l0.608-0.607l0.606-0.453l0.604-0.607l0.608-0.607l0.606-0.607l0.456-0.607
	l0.608-0.605l0.603-0.606l0.456-0.607l0.455-0.758l0.604-0.606l0.607-0.758l0.455-0.608L313,63.162l0.607-0.608l0.455-0.608
	l0.452-0.606l0.606-0.759l0.456-0.454l1.667-1.667l1.67-1.517l1.818-1.516l0.151-0.456v-0.455l0.147-0.303l0.309-0.454l0.455-0.454
	L322.4,52.7l0.758-0.607l0.76-0.607l0.911-0.606l0.759-0.607l0.76-0.606l0.76-0.605l0.604-0.456l0.456-0.456l0.76-1.061l0.759-1.062
	l0.607-1.214l0.456-1.367l0.451-1.365l0.456-1.365l0.15-1.366l0.152-1.365v-1.517l-0.152-1.365l-0.304-1.214l-0.303-1.365
	l-0.604-1.063l-0.765-1.06l-0.755-0.91l-1.063-0.757l-1.062-0.607l-1.363-0.456l-1.519-0.151l-1.666-0.152h-0.455v-0.759v-0.606
	l0.151-0.76v-0.607l0.152-0.606v-0.607l-0.152-0.607v-0.607l-0.151-0.454v-0.606l-0.147-0.607l-0.153-0.454l-0.303-0.454
	l-0.153-0.606l-0.303-0.454l-0.456-0.606l-0.304-0.306l-0.455-0.453l-0.455-0.606l-0.456-0.456l-0.608-0.454l-0.754-0.302
	l-0.766-0.304l-0.754-0.151l-0.912-0.152l-0.91-0.151l-0.91-0.151l-0.306-0.152l-0.455-0.304l-0.304-0.152l-0.305-0.303
	l-0.303-0.151l-0.152-0.303l-0.303-0.151l-0.153-0.304l-0.303-0.151l-0.152-0.152h-0.305h-0.303h-0.452h-0.455l-0.607,0.152
	l-0.608,0.304l-0.76,0.305h-0.603l-0.304-0.151l-0.151-0.457l-0.151-0.757l-0.456-0.608l-0.456-0.606l-0.456-0.607l-0.755-0.304
	l-0.764-0.304l-0.755-0.151l-0.764-0.152H300.4h-0.91l-0.912,0.152h-0.907l-0.91,0.302l-0.764,0.152l-0.907,0.303l-0.76,0.454
	l-0.606,0.454l-0.634,0.434l-0.604,0.453l-0.303,0.456l-0.76,1.061l-0.607,1.063l-0.608,1.063l-0.451,0.909l-0.304,0.909
	l-0.459,1.063l-0.3,0.91l-0.153,0.908l-0.304,0.91l-0.303,0.909l-0.153,0.911l-0.303,0.909l-0.151,0.909l-0.152,1.063l-0.304,0.759
	l-0.304,1.062l-0.304,0.909l-0.304,0.911l-0.456,0.91l-0.455,1.06l-0.151,0.456l-0.457,0.758l-0.299,0.759l-0.46,0.758l-0.457,0.758
	l-0.303,0.759l-0.451,0.606l-0.606,0.456l-0.456,0.303l-2.883,1.063h-0.304h-0.456l-0.455-0.152l-0.607-0.607l-0.76-0.758
	l-2.729-2.428l-0.608-0.454l-0.755-0.606l-0.911-0.608l-0.76-0.454l-0.911-0.455l-0.91-0.454l-0.913-0.305l-0.906-0.303
	l-1.063-0.303l-0.912-0.152l-1.058-0.151l-0.911-0.303h-1.064h-0.907h-1.062h-0.91l-0.907,0.15l-0.912,0.304l-0.91,0.152
	l-0.908,0.303l-1.062,0.454l-0.912,0.608l-0.911,0.606l-0.76,0.608l-0.603,0.758l-0.606,0.909l-0.456,0.911l-0.456,0.909
	l-0.301,1.063l-0.15,0.909l-0.153,1.062l-0.15,1.062l0.15,1.062l0.153,1.062l0.15,1.062l0.301,1.062l0.303,0.909l0.456,0.91
	l0.607,0.909l0.607,0.91l0.455,0.457l0.452,0.455l0.455,0.302l0.456,0.455l0.456,0.304l0.607,0.456l0.456,0.303l0.604,0.302
	l0.456,0.151l0.606,0.305l0.603,0.304l0.457,0.151l0.607,0.305l0.606,0.303l0.604,0.151l0.455,0.305l0.608,0.305l0.152,0.606
	l0.151,0.758l0.456,0.606l0.452,0.608l0.606,0.606l0.607,0.608l0.452,0.606l0.606,0.761l0.457,0.607l0.303,0.758l0.455,0.758
	l0.305,0.909l0.304,0.759l0.308,0.761l0.452,0.757l0.304,0.761l0.304,0.758l0.456,0.76l0.454,0.607l0.456,0.759l0.456,0.757
	l0.456,0.608l0.604,0.758l0.454,0.453l0.303,0.456v0.606l-0.147,0.608l-0.303,0.909l-0.152,0.758l-0.303,0.91l-0.308,0.758
	l-0.304,0.91l-0.301,0.758l-0.309,0.759l-0.303,0.759l-0.304,0.758l-0.456,0.758l-0.304,0.76l-0.305,0.758l-0.455,0.761
	l-0.304,0.758l-0.454,0.761l-0.457,0.758l-0.456,0.761l-0.299,0.758l-0.455,0.759l-0.456,0.758l-0.461,0.761l-0.147,0.453
	l0.305,0.303l0.455,0.151l0.76,0.152l0.304,0.304v0.453l-0.152,0.456l-0.604,1.516l-0.763,1.366l-7.582,11.679l-0.304,0.454h-0.303
	l-0.153-0.303l0.304-0.456l0.305-0.606l0.455-0.758l0.305-0.758l0.151-0.758l0.151-0.758l0.152-0.759l0.147-0.757l0.152-0.911
	v-0.757v-0.91v-0.909v-0.759l-0.152-0.909l-0.147-0.761v-0.909l-0.152-0.76V91.21l-0.151-0.76l-0.151-0.758l-0.153-0.76v-0.454
	l0.153-0.454l0.151,0.151l0.76,0.151l0.759,0.152l0.759,0.151l0.76-0.151l0.76-0.152l0.456-0.456l0.304-0.304v-0.302l-0.153-0.305
	l-0.303-0.454l-0.455-0.758l-0.456-0.608l-0.305-0.606l-0.454-0.758l-0.305-0.606l-0.304-0.758l-0.151-0.759l-0.305-0.758
	l-0.151-0.759l-0.304-0.758l-0.151-0.758l-0.305-0.758l-0.147-0.758l-0.308-0.607l-0.305-0.758l-0.304-0.607l-0.455-0.758
	l-0.303-0.607l-0.456-0.607l-0.607-0.607l-0.3-0.454l-0.304-0.456l-0.152-0.303l0.152-0.304l0.147-0.302l0.456-0.456l0.454-0.607
	l0.305-0.606l0.151-0.91l0.153-0.454v-0.606l-0.153-0.454l-0.151-0.303l-0.607-0.305l-1.06-0.456l-1.059-0.454l-0.915-0.454
	l-0.907-0.456l-0.911-0.454l-0.759-0.453l-0.76-0.457l-0.761-0.456l-0.905-0.454l-0.766-0.453l-0.906-0.608l-0.912-0.604
	l-1.062-0.455l-0.603-0.457V58.91l0.147-0.607l0.151-0.607l0.152-0.607l-0.152-0.455l-0.456-0.152h-0.754l-0.916-0.15h-0.907
	l-0.912-0.303l-0.76-0.15l-0.759-0.303l-0.759-0.151l-0.603-0.305l-0.609-0.303l-0.76-0.305l-0.606-0.303l-0.608-0.303l-0.755-0.305
	l-0.759-0.151l-0.759-0.152l-0.913-0.151l-0.91-0.151l-1.059-0.152h-1.215l-1.216,0.152l-1.366,0.151h-0.604l-0.304-0.151
	l-0.152-0.304l-0.151-0.608l-0.152-0.909l-0.304-0.758l-0.604-0.759l-0.456-0.303l-0.76-0.152l-0.455,0.152l-0.758,0.454
	l-0.913,0.606l-0.906,0.608l-0.916,0.454l-0.907,0.455l-0.911,0.608l-0.911,0.453l-1.059,0.304l-0.911,0.454l-1.064,0.305
	l-0.906,0.303h-0.456l-0.455-0.454v-0.909l-0.305-2.426l-0.606-2.277l-0.911-1.972l-1.06-1.972l-1.367-1.821l-1.515-1.517
	l-1.822-1.214l-1.818-1.062l-1.97-1.063l-1.976-0.606l-2.273-0.454l-2.123-0.151h-2.121l-2.122,0.305l-2.124,0.604l-1.972,0.913
	l-1.974,1.06l-1.819,1.366l-1.518,1.821l-1.365,1.972l-0.606,0.909l-0.607,0.909l-0.452,1.063l-0.458,1.06l-0.149,1.063
	l-0.456,2.576l-0.148,0.608l-0.609-0.152l-4.854-1.821l-1.972-0.608l-1.817-0.303h-1.821l-1.974,0.303l-1.82,0.457l-1.665,0.604
	l-1.667,0.91l-1.67,1.214l-1.516,1.062l-1.365,1.515l-1.214,1.517l-1.062,1.667l-0.91,1.667l-0.759,1.819l-0.604,1.973l-0.304,1.82
	l-0.152,1.973l0.152,1.973l0.453,2.123l0.758,1.818l0.305,0.91l0.454,0.911l0.304,0.909l0.456,0.91l0.605,0.909l0.606,0.758
	l2.581,2.428l0.45,0.454l-0.148,0.759l-3.791,7.43l-0.456,0.761l-0.455,0.758l-0.606,0.607l-0.756,0.758l-0.76,0.456l-0.76,0.608
	l-0.758,0.606l-0.908,0.608l-0.76,0.454l-0.907,0.606l-0.76,0.607l-0.606,0.454l-0.608,0.606l-0.606,0.456l-0.455,0.607
	l-0.305,0.607l-0.151,0.607v0.606v0.608l0.455,0.607l0.305,0.757l0.15,0.454v0.305h-0.15l-0.305,0.303l-0.455,0.15l-0.305,0.456
	l-3.791,4.549l-0.456,0.608H132.9l-0.455-0.454l-8.037-9.1l-0.153-0.608l-0.151-0.909l0.151-0.91l0.153-0.909l0.15-0.76v-1.061
	v-1.061l-0.15-1.063l-0.153-1.063l-0.303-1.06l-0.152-1.214v-1.063l0.152-0.759l0.456-0.606l0.757-0.759l1.062-0.76l0.759-0.909
	l0.909-0.91l0.608-0.909l0.149-0.457l0.306-0.607l0.306-0.607l0.304-0.453l0.302-0.607l0.302-0.607l0.305-0.606l0.308-0.607
	l0.303-0.606l0.302-0.758l0.302-0.608l0.151-0.606l0.152-0.608l0.151-0.606l0.15-0.608v-0.454v-0.606l-0.306-1.973l-0.304-1.667
	l-0.758-1.517l-0.91-1.214l-1.062-0.909l-1.366-0.759l-1.363-0.606l-1.518-0.305h-1.517h-1.667l-1.669,0.305l-1.668,0.454
	l-1.666,0.453l-1.518,0.761l-1.517,0.909l-1.515,0.909l-1.215,1.214l-1.216,1.061l-0.906,1.365l-0.911,1.365L104.869,79.218
	L104.869,79.218z"/>
<path fill="#ED1C24" d="M249.866,67.084l0.604,0.151l0.606,0.152l0.609,0.303l0.304,0.455l-0.153,0.454l-0.76,0.91l-0.754,0.608
	l-0.456,0.305l-0.307,0.456v0.303l0.307,0.305l0.456,0.454l0.907,0.758l1.062,1.214l0.76,0.758l2.882,9.251l0.303,1.063l-0.15,0.454
	h-0.305l-3.336-1.214l-0.76-0.153l-0.456,0.303v0.456l0.606,0.608l0.76,0.909l0.76,1.062l0.456,1.062l0.455,1.214l0.148,1.366
	l0.15,1.213v1.517v1.365l-0.303,1.517l-0.151,1.517l-0.303,1.365l-0.306,1.517l-0.456,1.517l-0.304,1.516l-0.304,1.366l-0.455,1.365
	l-0.303,1.365l-0.305,1.365l-0.304,1.062v1.214l-0.151,0.607l-0.153,0.454l-0.303,0.151l-0.455-0.151l-0.604-0.152l-1.063-0.455
	l-0.305-0.151l-0.303,0.455l-0.152,0.759l-0.147,1.365l-0.152,1.365l-0.304,1.366l-0.455,1.214l-0.456,1.365l-0.606,1.214
	l-0.608,1.365l-0.604,1.063l-0.76,1.214l-0.759,1.214l-0.759,1.214l-0.912,1.063l-0.911,1.06l-0.907,1.215l-0.912,0.909l-0.91,1.061
	l-0.912,1.061l-1.058,0.912l-0.912,0.909l-0.91,1.062l-5.46,5.157l-0.148,0.306l0.148,0.15l0.151,0.152h0.152l5.763-3.184
	l1.059-0.607l0.911-0.759l0.76-0.912l0.76-0.909l0.76-0.91l0.759-0.909l0.759-0.759l0.76-0.909l0.76-0.758l0.606-0.912l0.609-0.758
	l0.754-0.91l0.456-0.758l0.607-0.91l0.456-0.758l0.606-0.91l0.452-0.909l0.456-0.91l0.455-0.911l0.456-0.911l0.304-1.061
	l0.456-1.063l0.304-0.909l0.456-1.214l0.304-1.063l0.151-0.454l0.455-0.304h0.607l0.452-0.152l0.304-0.151l0.304-0.152l0.308-0.302
	l0.3-0.152l0.151-0.302l0.304-0.305l0.153-0.305l0.151-0.454l0.151-0.305l0.152-0.454l0.151-0.303l0.147-0.456l0.152-0.303
	l0.153-0.455l0.146-0.302l0.151-0.455l0.152-0.305l0.304-0.303l0.151-0.305l0.912-1.062l0.759-1.062l0.907-1.06l0.763-0.912
	l0.757-1.214l0.91-1.06l0.76-1.063l0.76-1.214l0.759-1.061l0.608-1.214l0.76-1.214l0.759-1.063l0.604-1.215l0.606-1.214l0.606-1.214
	l0.604-1.214l0.608-1.214l0.455-1.214l0.607-1.214l0.456-1.214l0.152-0.758v-0.305h-0.308l-0.912,0.152l-0.451-0.152l0.451-0.453
	l0.303-0.454l3.797-10.164l0.148-0.454V74.06l0.152-0.454v-0.457l0.151-0.302v-0.304l0.305-0.151h0.304h0.303l0.604,0.301
	l1.219,0.454l1.363,0.457h0.913l0.303-0.152v-0.454l-0.608-0.455l-1.058-0.608l-0.913-0.304l-0.759-0.454l-0.607-0.607l-0.759-0.607
	l-0.907-0.91l-0.456-0.456l-0.456-0.606l-0.456-0.608l-0.455-0.758l-0.455-0.757l-0.456-0.758l-0.451-0.758l-0.456-0.759
	l-0.455-0.909l-0.309-0.759l-0.451-0.909l-0.456-0.909l-0.303-0.76l-0.456-0.758l-0.455-0.76l-0.304-0.759l-0.456-0.76l-0.456-0.759
	l-0.146-0.457v-0.302h0.146h0.456l0.76,0.151l0.303-0.151l-0.148-0.456l-0.458-0.303l-0.456-0.456l-0.603-0.301l-0.608-0.305
	l-0.76-0.305L262,52.213l-0.759-0.302l-0.76-0.304l-0.76-0.457l-0.607-0.302l-0.759-0.453l-0.76-0.456l-0.76-0.305l-0.76-0.454
	l-0.606-0.453l-0.604-0.457l-0.607-0.453l-0.456-0.304l-0.45-0.454l-0.456-0.607l-0.309-0.456l-0.755-1.214l-0.608-1.365
	l-0.303-1.366l-0.309-1.06v-1.214v-1.063l0.309-1.063l0.303-0.91l0.608-0.912l0.603-0.909l0.76-0.608l0.76-0.604l1.063-0.607
	l0.906-0.455l1.216-0.304l1.215-0.302l1.216-0.151h1.215l1.515,0.151l1.366,0.15l0.606,0.151l0.604,0.151l0.759,0.302l0.456,0.151
	l0.607,0.305l0.456,0.151l0.604,0.305l0.455,0.302l0.455,0.151l0.456,0.303l0.608,0.305l0.456,0.456l0.449,0.303l0.456,0.302
	l0.457,0.305l0.606,0.305l0.456,0.305l0.455,0.453l0.604,0.302l0.455,0.456l0.456,0.151l0.305,0.303l0.455,0.304l0.305,0.453
	l0.304,0.306l0.456,0.453l0.304,0.454l0.303,0.304l0.304,0.456l0.304,0.454l0.309,0.454l0.45,0.456l0.304,0.454l0.305,0.305
	l0.309,0.454l0.451,0.305l0.304,0.304l0.456,0.303l0.455,0.304l0.455,0.303l0.912,0.455h0.451v-0.455l-0.451-0.607l-1.063-0.91
	l-1.06-1.061l-0.76-1.214l-0.303-0.608l-0.152-0.303l0.305-0.303h0.603l1.063-0.305l1.063-0.454l0.907-0.758l0.763-0.759
	l0.757-1.062l0.757-1.214l0.76-1.214l0.609-1.366l0.604-1.516l0.454-1.366l0.456-1.516l0.46-1.667l0.451-1.517L289.462,24
	l0.455-1.516l0.456-1.366l0.455-1.365l0.456-1.214l0.457-1.062l0.449-0.908l0.456-0.607l0.456-0.607l0.455-0.607l0.456-0.454
	l0.607-0.456l0.452-0.607l0.607-0.302l0.603-0.456l0.609-0.302l0.606-0.304l0.606-0.151l0.604-0.303h0.606h0.76h0.604l0.764,0.152
	l0.603,0.302l0.609,0.304l0.759,0.453l0.604,0.456l0.454,0.454l0.309,0.302v0.305l-0.309,0.304l-0.454,0.454l-0.604,0.759
	l-0.607,0.606l-0.761,0.759l-0.454,0.758l-0.456,0.758l-0.456,0.91l-0.451,0.758l-0.303,0.91l-0.31,0.909l-0.456,0.913l-0.147,0.757
	l-0.456,0.911l-0.304,0.909l-0.15,0.91l-0.308,0.923l-0.306,0.909l-0.303,0.909l-0.304,0.91l-0.456,0.91l-0.304,0.758l-0.91,1.667
	l-1.06,1.365l-1.063,1.521l-0.604,0.91l-0.151,0.302h0.304l0.911-0.302l1.063-0.607l0.907-0.76l0.76-0.91l0.76-1.062l0.758-1.063
	l0.608-1.214l0.606-1.365l0.452-1.365l0.608-1.366l0.456-1.516l0.603-1.366l0.607-1.365l0.455-1.365l0.608-1.366l0.759-1.214
	l0.76-1.214l1.058-0.909l0.912-0.91l1.214-0.758l1.216-0.606l0.76-0.152l0.3,0.152v0.456l-0.3,0.606l-0.304,0.758l-0.151,0.303
	h0.304h0.905l1.369-0.151l1.215,0.151l1.062,0.151l1.211,0.304l0.912,0.303l1.062,0.456l0.76,0.454l0.76,0.606l0.603,0.608
	l0.455,0.758l0.456,0.76l0.304,0.759v0.909v0.91v0.909l-0.304,1.062l-0.456,1.061l-0.754,0.91l-0.765,1.062l-0.907,1.061
	l-0.607,0.607l-0.456,0.305l-0.303-0.151l-0.304-0.453l-0.304-0.305l-0.305,0.151l-0.606,0.304l-0.76,0.454l-0.76,0.607
	l-0.606,0.607l-0.604,0.605l-0.609,0.76l-0.454,0.608l-0.608,0.758l-0.451,0.759l-0.455,0.757l-0.456,0.758l-0.607,0.759
	l-0.457,0.758l-0.454,0.758l-0.604,0.758l-0.456,0.758l-0.606,0.607l-0.604,0.607l-0.608,0.606l-0.759,0.608l-0.759,0.453
	l-0.604,0.456l-0.151,0.453h0.452l0.759-0.151l0.76-0.302l0.606-0.306l0.76-0.455l0.607-0.454l0.455-0.454l0.604-0.607l0.608-0.453
	l0.455-0.607l0.452-0.607l0.456-0.604l0.455-0.456l0.456-0.608l0.455-0.758l0.607-0.456l0.451-0.758l0.455-0.455l0.456-0.606
	l0.456-0.607l0.608-0.607l0.606-0.454l0.304-0.303h0.304l0.148,0.151v0.454l0.151,0.607l0.304,0.305h0.46l0.304-0.457l0.604-1.06
	l0.759-1.063l0.912-0.759l0.76-0.606l1.058-0.454l0.912-0.454l0.911-0.151h0.911h1.061l0.91,0.151l0.911,0.302l0.911,0.457
	l0.755,0.606l0.608,0.759l0.606,0.758l0.604,0.91l0.308,1.063l0.301,1.061l0.151,1.214v1.365l-0.151,1.215l-0.301,1.062
	l-0.308,1.061l-0.456,0.909l-0.455,0.91l-0.604,0.909l-0.607,0.759l-0.76,0.758l-0.76,0.758l-0.754,0.759l-0.763,0.606l-0.757,0.608
	l-0.91,0.606l-0.912,0.608l-0.911,0.606l-0.911,0.607l-0.907,0.606l-1.063,0.608l-0.911,0.606l-0.755,0.608l-0.912,0.606
	l-0.309,0.454l0.456,0.305h0.765h0.451l0.152,0.303l-0.152,0.305l-0.604,0.454l-0.76,0.757l-0.91,0.758l-0.76,0.911l-0.912,0.91
	l-0.76,1.06l-0.906,1.063l-0.916,1.063l-0.754,1.214l-1.063,1.062l-0.911,1.063l-0.756,1.214l-1.063,1.061l-0.911,0.911
	l-0.907,1.061l-0.915,0.91l-1.06,0.759l-0.905,0.607l-1.064,0.607l-0.911,0.456l-1.06,0.453l-3.488,0.759l-0.305,0.305v0.607
	l0.305,0.758l0.151,0.607v3.032v0.759l-0.151,0.909v0.758l-0.305,0.909l-0.151,0.911l-0.304,0.909l-0.309,0.909l-0.147,0.759
	l-0.304,0.91l-0.303,0.909l-0.304,0.76l-0.304,0.91l-0.306,0.758l-0.308,1.667l-0.455,1.82l-0.147,1.667l-0.152,1.82l-0.304,1.668
	l-0.304,0.758l-0.456,0.151l-0.455-0.151l-0.455-0.758l-0.152-0.456l-0.455-0.151l-0.457,0.303l-0.299,0.757l-0.152,0.758v0.608
	l-0.151,0.758l-0.152,0.607v0.607l-0.151,0.607v0.758l-0.152,0.607l-0.147,0.608v0.607l-0.152,0.606l-0.15,0.606l-0.148,0.607
	l-0.152,0.608l-0.151,0.757l-0.305,0.607l-0.303,0.606l-0.309,0.608l-0.299,0.759l-0.456,0.909l-0.607,0.759l-0.456,0.758
	l-0.606,0.759l-0.456,0.757l-0.604,0.759l-0.607,0.909l-0.604,0.76l-0.607,0.758l-0.608,0.761l-0.604,0.757l-0.606,0.759
	l-0.607,0.758l-0.604,0.761l-0.456,0.909l-0.459,0.761l-0.604,0.909l-0.304,0.759l-0.456,0.909l-0.304,0.909l-0.456,0.607
	l-0.456,0.304l-0.304-0.151l-0.456-0.607l-0.303-0.606l-0.456-0.151l-0.603,0.301l-0.152,0.456l-0.15,0.758l-0.306,1.061
	l-0.454,0.909l-0.456,0.758l-8.038,10.466l-0.304,0.758l-0.456,0.606h-0.304l-0.151-0.455l0.151-0.758v-0.911l-0.303-0.301h-0.608
	l-0.304,0.605l-0.308,0.912l-0.451,0.759l-0.304,0.755l-0.456,0.607l-0.455,0.759l-0.455,0.607l-0.304,0.608l-0.456,0.605
	l-0.604,0.456l-0.456,0.607l-0.454,0.454l-0.306,0.456l-0.606,0.607l-0.457,0.454l-0.303,0.456l-0.455,0.453l-0.457,0.608
	l-0.303,0.456l-0.305,0.453l-0.304,0.606l-3.034,5.461l-0.606,1.212l-0.147,0.76l-0.151,0.606l0.151,0.304l2.426,3.943l0.456,0.761
	l0.456,0.758l0.456,1.063l0.449,0.909l0.305,0.91l0.455,1.061l0.308,1.064l0.452,1.059l0.305,0.911l0.454,1.063l0.306,1.06
	l0.456,0.909l0.454,1.063l0.303,0.909l0.608,0.909l0.604,0.909l0.454,0.76l0.609,0.757l0.758,0.758l0.76,0.759l0.455,0.454
	l0.152,0.306l-0.152,0.303l-0.304,0.152l-0.456,0.15H257.6h-0.607l-0.451-0.15l-1.062-0.152l-0.457,0.152l0.152,0.451l0.76,0.912
	l0.76,0.757l0.759,0.909l0.756,0.91l0.606,1.063l0.608,0.91l0.456,0.909l0.455,1.213l0.455,0.911l0.456,1.059l0.304,1.216
	l0.303,1.063l0.305,1.059l0.305,1.219l0.303,1.059l0.304,1.214l0.153,1.063l0.303,1.06l0.304,1.215l0.152,1.059l0.303,1.063v0.603
	l-0.15,0.456l-0.305-0.147l-0.606-0.456l-0.908-0.911l-0.76-0.76l-0.606-0.456h-0.305l-0.151,0.456l0.303,0.76l0.456,1.059
	l0.304,1.063l0.305,0.911l0.303,0.76l0.152,0.76l0.152,0.759v0.456l0.151,0.604l-0.151,0.456v0.608v0.455l-0.152,0.456v0.451v0.607
	v0.456l-0.152,0.759v0.608l0.152,0.759v0.76l0.152,0.908l0.76,5.003v0.76l-0.152,0.151h-0.456h-2.729l-0.456,0.152l-0.304,0.303
	l-0.152,0.76l-0.76,5.611l-0.302,1.216l-0.456,1.367l-0.608,1.214l-0.603,1.211l-0.607,1.063l-0.603,1.215l-0.761,1.063
	l-0.608,0.907l-0.758,1.063l-0.76,0.759l-0.911,0.912l-0.756,0.907l-0.915,0.764l-0.907,0.755l-0.91,0.759l-0.913,0.608l-1.06,0.607
	l-0.91,0.755l-1.062,0.456l-1.061,0.607l-1.062,0.608l-1.215,0.455l-1.059,0.604l-1.216,0.456l-0.456,0.304l-0.15,0.456l-0.304,1.67
	l-0.305,1.663l-0.303,1.519l-0.457,1.515l-0.759,1.215l-0.451,1.366l-0.764,1.215l-0.452,1.211l-0.606,1.215l-0.456,1.367
	l-0.304,1.367l-0.304,0.604l-0.152,0.303l-0.304,0.152l-0.604-0.303h-0.455H230.3l-0.147,0.455l-0.309,0.759l-0.304,0.912
	l-0.151,0.759l-0.3,0.76l-0.152,0.76l-0.304,0.759l-0.152,0.759l-0.151,0.912l-0.152,0.755l-0.147,0.764l-0.151,0.755l-0.152,0.76
	v0.759l-0.152,0.76v0.76v0.911v0.759l0.152,0.76v0.759l0.152,0.907l0.151,0.764v0.456h-0.456h-0.76l-0.606-0.308l-0.76-0.304h-0.304
	l-0.152,0.456l0.152,0.607l0.153,0.76l0.146,0.603l0.152,0.76l0.15,0.759l0.153,0.607v0.76l0.303,0.759v0.759l0.304,0.608
	l0.152,0.755l0.152,0.759l0.146,0.607l0.309,0.76l0.305,0.608l0.303,0.603l0.304,0.764l0.304,0.455l0.456,0.603l0.452,0.608
	l0.607,0.452l0.455,0.455v0.456l-0.151,0.307l-0.604,0.3l-0.607,0.456l-0.152,0.304l0.304,0.759l0.456,0.607l0.303,0.76l0.456,0.759
	l0.455,0.911l0.457,0.604l0.456,0.763l0.603,0.755l0.456,0.763l0.606,0.755l0.608,0.763l0.603,0.604l0.607,0.608l0.608,0.603
	l0.76,0.456l0.604,0.607l0.91,0.456l0.759,0.456l0.76,0.303l0.76,0.305l0.907,0.303l0.764,0.147l0.456-0.147l-0.152-0.303
	l-0.456-0.76l-0.455-0.608l-0.152-0.607l0.152-0.304l0.455-0.304l0.456-0.452l0.604-0.308l0.606-0.455l0.609-0.304l0.454-0.299
	l0.604-0.152l0.607-0.308h0.608l0.76-0.148l0.603-0.152l0.455,0.152l0.456,0.304l-0.304,0.304l-0.76,1.058l-0.303,0.456
	l-0.152,0.456l0.152,0.152l0.303,0.152l0.76,0.147l0.76,0.308l0.91,0.303l0.908,0.452l0.764,0.608l0.755,0.455l0.912,0.76
	l0.759,0.759l0.759,0.76l0.76,0.759l0.76,0.912l0.606,0.906l0.609,0.912l0.603,0.911l0.455,1.063l0.456,0.907l0.455,0.911
	l0.305,0.911l0.304,1.059l0.152,0.765l0.15,0.906v0.912v1.063v0.906v1.06v0.916v1.059v0.911l0.304,0.912l0.152,0.907l0.147,0.607
	l-0.147,0.304l-0.309-0.152l-0.455-0.607l-0.456-0.304h-0.299l-0.308,0.152l-0.148,0.455v2.123l-0.152,1.97l-0.302,2.127
	l-0.311,1.97l-0.298,1.971l-0.305,1.97l-0.459,1.97l-0.455,1.823l-0.604,1.823l-0.609,1.818l-0.76,1.823l-0.758,1.819l-0.906,1.822
	l-0.912,1.667l-1.063,1.667l-1.21,1.666l-1.216,1.67l-1.215,1.515l-1.366,1.667l-1.515,1.519l-0.457,0.455l-0.303,0.3l-0.455,0.456
	l-0.457,0.46l-0.456,0.303l-0.303,0.452l-0.607,0.456l-0.451,0.303l-0.455,0.456l-0.31,0.304l-0.604,0.304l-0.456,0.308
	l-0.455,0.456l-0.455,0.299l-0.604,0.304l-0.456,0.308l-0.454,0.148l-0.609,0.308l-0.606,0.304l-0.456,0.147l-1.211,0.456
	l-1.062,0.303l-1.06,0.308l-1.063,0.147l-1.215,0.305h-1.059l-1.062,0.151l-1.064,0.152h-1.059l-1.059-0.152h-1.064l-1.062-0.151
	h-1.058l-1.061-0.305l-1.219-0.147l-1.06-0.151l-1.059-0.305l-1.062-0.151l-1.064-0.304l-1.211-0.304l-0.459-0.152l-0.604-0.304
	l-0.304-0.151l-0.606-0.456l-0.452-0.305l-0.455-0.303l-0.461-0.456l-0.303-0.456l-0.452-0.456l-0.304-0.603l-0.308-0.456
	l-0.305-0.607l-0.151-0.456l-0.299-0.607l-0.153-0.603v-0.608v-0.455v-0.604l0.153-0.608l0.151-0.455l2.421-5.308v-0.456
	l-0.304-0.304h-0.456l-0.298,0.148l-2.883,3.944l-0.151,0.456l-0.305,0.456l-0.15,0.304l-0.152,0.455v0.456v0.456v0.456v0.604v0.303
	v0.608l0.152,0.455l0.15,0.456v0.457l0.147,0.455v0.451l0.153,0.456l0.151,0.456v0.455v0.456v0.303l-0.305,0.152l-1.366-0.152
	l-1.215-0.303l-1.216-0.304l-1.059-0.607l-1.059-0.456l-0.916-0.608l-0.754-0.754l-0.76-0.912l-0.607-0.911l-0.455-0.911
	l-0.456-1.059l-0.304-1.063l-0.305-1.059l-0.151-1.063v-1.215l0.151-1.215l0.152-1.059l0.303-1.215l0.456-1.215l0.457-1.214
	l0.299-0.604l-0.147-0.304h-0.305l-0.91,0.452l-0.456,0.456l-0.304,0.456l-0.456,0.456l-0.304,0.455l-0.152,0.608l-0.304,0.603
	l-0.147,0.608l-0.152,0.456l-0.15,0.76v0.607v0.603l-0.153,0.76l0.153,0.607v0.604v0.607l0.15,0.607v0.604l0.152,0.608l0.147,0.607
	l0.153,0.456l0.15,0.907l-0.15,0.455h-0.456l-0.605-0.455l-0.608-0.3l-0.453-0.456l-0.452-0.456l-0.606-0.607l-0.307-0.608
	l-0.453-0.607l-0.305-0.603l-0.303-0.759l-0.304-0.76l-0.149-0.76l-0.15-0.603v-0.764v-0.755v-0.764l0.15-0.603l0.149-0.76
	l0.304-0.607l0.456-0.604l0.453-0.456l0.608-0.607l0.604-0.607l0.152-0.608l-0.452-0.303l-0.91,0.151l-0.758,0.152l-0.307-0.152
	v-0.451l0.307-0.764l0.604-1.059l0.76-1.059l0.608-0.911l0.909-0.912l0.756-0.759l0.912-0.76l0.91-0.608l0.907-0.607l1.064-0.603
	l1.062-0.608l1.059-0.603l1.061-0.455l0.91-0.608l1.062-0.608l1.064-0.456l1.059-0.603l0.91-0.608l1.064-0.759l0.907-0.603
	l0.911-0.764l0.456-0.45l0.304-0.457l0.303-0.456l0.305-0.608l0.304-0.455l0.303-0.456l0.304-0.603l0.309-0.607l0.299-0.456
	l0.152-0.604l0.305-0.608l0.303-0.607l0.308-0.456l0.305-0.457l0.3-0.603l0.309-0.455l0.303-0.456l0.455-0.303l0.452-0.304
	l0.606-0.304l0.457-0.304v-0.455l-0.152-0.456l-0.455-0.455l-0.456-0.152l-0.452-0.456l-0.455-0.451l-0.456-0.456l-0.455-0.608
	l-0.456-0.603l-0.606-0.763l-0.451-0.755l-0.456-0.763l-0.608-0.756l-0.303-0.763l-0.608-0.907l-0.455-0.76l-0.456-0.759
	l-0.452-0.76l-0.303-0.608l-0.457-0.759l-0.308-0.452l-0.147-0.608l-0.303-0.455l-0.456-0.911l-0.304-1.059l-0.151-1.064
	l-0.305-1.063v-1.059l-0.304-0.608l-0.304-0.303l-0.456,0.152l-0.455,0.607l-0.456,0.604l-0.304,0.304l-0.303-0.304v-0.908v-1.063
	l-0.153-1.063l-0.151-1.21l-0.304-1.063l-0.456-1.063l-0.455-1.06l-0.456-1.063l-0.451-1.058l-0.456-1.063l-0.606-1.059
	l-0.456-1.063l-0.455-1.063l-0.305-1.21l-0.451-1.063l-0.303-1.06l-0.153-1.063v-1.059v-1.063l0.153-1.215l0.303-1.059v-0.76
	l-0.303-0.303l-0.461,0.303l-0.755,1.215l-0.304,0.604l-0.153,0.455l-0.15,0.76l-0.456,0.152l-0.304-0.152l-0.152-0.305v-1.514
	l-0.147-1.215v-1.367v-1.063l-0.151-1.059v-1.059v-0.911l0.151-0.912l0.147-0.759v-0.912l0.152-0.754l0.304-0.764l0.152-0.907
	l0.304-0.912l0.455-0.911l0.304-1.059l0.604-0.912l0.461-1.214l0.754-1.215l0.607-1.363l0.455-0.763v-0.304h-0.303h-0.76
	l-1.063,0.152l-1.059,0.152h-0.455l-0.304-0.152v-0.303l0.304-0.604l0.607-0.916l0.45-0.755l0.609-0.759l0.606-0.759l0.456-0.759
	l0.455-0.76l0.603-0.76l0.456-0.758l0.457-0.76l0.455-0.759l0.455-0.912l0.456-0.759l0.305-0.76l0.451-0.912l0.307-0.907
	l0.305-0.759l0.304-0.912l0.303-0.911l0.305-0.908l0.305-0.911l0.15-0.759l-0.15-0.304l-0.305-0.152l-0.76,0.304l-0.456,0.304
	h-0.603h-0.764h-0.755l-0.765-0.152l-0.754-0.151l-0.912-0.304l-0.91-0.3l-0.912-0.308l-0.76-0.303l-0.907-0.456l-0.91-0.452
	l-0.912-0.456l-0.756-0.456l-0.763-0.456l-0.757-0.304l-0.606-0.456l-0.607-0.455l-0.455-0.304l-0.456-0.457l-0.605-0.303h-0.301
	v0.303l0.149,0.76l0.306,0.911l0.15,0.304h-0.305l-0.757-0.304l-0.76-0.759l-0.76-0.76c-1.059-0.911-2.122-1.822-3.031-2.882
	l-0.302-0.303l-0.306-0.304l-0.306-0.459l-0.299-0.304l-0.307-0.451l-0.302-0.607l-0.305-0.456l-0.456-0.604l-0.302-0.607
	l-0.304-0.607l-0.456-0.607l-0.304-0.76l-0.303-0.603l-0.306-0.608l-0.453-0.76l-0.303-0.607l-0.153-0.755l-0.302-0.608
	l-0.304-0.607l-0.151-0.76l-0.305-0.608l-0.15-0.603l-0.152-0.607l-0.152-0.456l-0.151-0.604l-0.302-0.455h-0.453l-0.91,0.303
	h-0.605l-0.457-0.151l-0.304-0.608l-0.605-1.363l-0.304-1.367l-0.456-1.515l-0.303-1.519l-0.153-1.515l-0.148-1.519v-1.514v-1.519
	l0.148-1.667l0.153-1.514l0.151-1.519l0.151-1.515l0.304-1.514l0.305-1.667l0.302-1.519l0.455-1.514l0.304-1.368l0.457-1.519
	l0.301-1.363l0.455-1.366l0.151-1.059L173.411,203l-0.454,0.152l-0.607,0.604l-0.605,0.76l-0.455,0.152l-0.152-0.456l0.152-0.759
	l0.151-0.76l0.304-0.603l0.302-0.608l0.306-0.759l0.455-0.607l0.301-0.607l0.455-0.756l0.455-0.607l0.456-0.607l0.454-0.759
	l0.301-0.608l0.608-0.605l0.452-0.608l0.609-0.456l0.455-0.605l0.453-0.607l0.607-0.605l0.456-0.454l0.45-0.456l0.609-0.608
	l0.455-0.606v-0.304l-0.455-0.454l-0.758-0.454l-0.302-0.303l-0.153-0.306l0.153-0.306l0.45-0.451l10.013-7.586l0.453-0.608
	l0.605-0.757l0.456-0.91l0.455-0.909l0.305-0.91l0.15-0.759l0.153-0.304l-0.153-0.151h-0.15l-0.456,0.151l-1.216,0.454l-1.212,0.456
	l-0.763,0.152l-0.148-0.152v-0.304l0.453-0.757l0.304-0.457l0.304-0.455l0.304-0.451l0.304-0.456l0.305-0.456l0.304-0.453
	l0.303-0.606l0.304-0.456l0.305-0.456l0.303-0.451l0.305-0.608l0.15-0.456l0.303-0.451l0.152-0.608l0.148-0.456l0.153-0.605v-0.607
	v-0.454v-0.608v-0.607l-0.153-0.603l-0.303-0.152l-0.302,0.152l-0.458,0.603l-1.97,4.705l-0.304,0.607l-0.152,0.451l-0.304,0.306
	l-0.304,0.149l-0.305,0.152h-0.303h-0.451l-0.607-0.152l-7.582-1.211l-1.368-0.306l-1.363-0.302l-1.365-0.455l-1.517-0.304
	l-1.364-0.456l-1.518-0.453l-1.365-0.605l-1.517-0.458l-1.516-0.606l-1.365-0.607l-1.365-0.759l-1.518-0.607l-1.364-0.758
	l-1.366-0.605l-1.362-0.762l-1.215-0.757l-1.216-0.912l-1.213-0.757l-1.213-0.757l-1.063-0.911l-3.793-3.034l-0.304-0.149
	l-0.301,0.149l-0.152,0.306v0.301l1.82,3.489l0.151,0.759l0,0l-0.76-0.304l-4.548-2.729l-0.758-0.456l-0.606-0.608l-0.757-0.606
	l-0.76-0.758l-0.76-0.757l-0.757-0.911l-0.908-0.907l-0.76-0.911l-0.76-0.909l-0.911-1.061l-0.76-1.063l-0.76-0.907l-0.76-1.063
	l-0.759-0.907l-0.757-1.063l-0.762-0.911l-0.758-0.907l-0.762-0.76l-0.758-0.759l-0.605-0.606l-0.303-0.306l-0.304-0.149
	l-0.152-0.306l-0.304-0.304l-0.305-0.454l-0.455-0.306l-0.303-0.299l-0.304-0.306l-0.305-0.456l-0.304-0.302l-0.456-0.306
	l-0.304-0.302l-0.453-0.152l-0.306-0.304l-0.452-0.151h-0.273l-0.452-0.152h-0.304l-0.456,0.152l-0.606,0.151l-0.302-0.151
	l-0.456-0.304l-1.061-1.362l-1.064-1.215l-10.766-10.919l-0.456-0.456l-0.148-0.454l-0.153-0.151l0.307-0.304l0.303-0.151
	l0.756-0.153l0.76-0.453l0.152-0.305l-0.308-0.303h-0.604l-0.91,0.15h-0.91l-1.062-0.15h-0.905l-1.064-0.153l-0.911-0.301
	l-1.064-0.305l-0.905-0.303l-1.063-0.305l-0.907-0.454l-0.912-0.455l-0.907-0.454l-0.91-0.456l-0.907-0.607l-0.761-0.606
	l-0.758-0.607l-0.763-0.606l-0.757-0.607l-0.607-0.759l-0.608-0.605l-0.759-0.76l-0.456-0.151h-0.451h-0.304l-0.909-0.606
	l-1.062-0.759l-1.213-0.911l-1.216-1.062l-1.214-0.909l-0.908-0.759l-0.76-0.454l-1.215-0.608l-1.822-0.604l-2.274-0.761
	l-1.969-0.758l-1.52-0.608l-0.607-0.304l-0.15-0.453l-0.302-0.303l-0.762-0.152h-1.213H68.92h-1.216h-1.063h-0.45l-0.608-0.151
	l-0.455-0.15h-0.456l-0.605-0.151l-0.606-0.302l-0.456-0.152l-0.605-0.151l-0.456-0.151l-0.607-0.303l-0.456-0.305l-0.604-0.151
	l-0.458-0.303l-0.605-0.304l-0.302-0.303l-0.456-0.304l-0.456-0.304l-0.455-0.454l-0.301-0.305l-0.307-0.454l-0.299-0.456
	l-0.456-0.607l-0.153-0.454l-0.15-0.607l-0.152-0.605L55.57,92.29v-0.608v-0.453v-0.761v-0.604l0.152-0.607l0.152-0.606v-0.606
	l0.304-0.607l0.149-0.454l0.307-0.608l0.299-0.456l0.455-0.453l0.457-0.302l0.453-0.305l0.455-0.151l0.453-0.304l0.455-0.151
	l0.609-0.306l0.606-0.151l0.452-0.151l0.608-0.151l0.606-0.151l0.606-0.15h0.608l0.607-0.152h0.605h0.606h0.606h0.455h0.609
	l0.449,0.152h0.456l5.611,1.062l0.609,0.303l0.303,0.607l2.426,8.493l0.151,0.455l0.152,0.454l0.149,0.454l0.308,0.457l0.298,0.456
	l0.306,0.454l0.302,0.454l0.307,0.456l0.305,0.303l0.453,0.455l0.303,0.303l0.457,0.456l0.454,0.303l0.302,0.303l0.453,0.303
	l0.456,0.305l0.304,0.303l0.455,0.303l0.452,0.304l0.306,0.303l0.758,0.305l0.304-0.151l0.15-0.303l-0.454-0.456l-1.063-1.06
	l-0.907-1.366L81.5,96.843l-0.758-1.667l-0.907-1.667l-0.76-1.82l-0.607-1.971l-0.454-1.972l-0.456-1.973l-0.306-1.973l-0.15-1.972
	l-0.15-1.972l0.15-1.972l0.307-1.82l0.457-1.82l0.604-1.667l0.757-1.517l0.912-1.365l1.213-1.214l1.364-1.062l1.216-0.606
	l1.058-0.454h1.065h0.91l0.907,0.151l0.76,0.454l0.759,0.456l0.758,0.758l0.605,0.758l0.454,0.91l0.609,1.063l0.455,1.06
	l0.303,1.063l0.149,1.062l0.303,1.062v1.214l0.153,1.063l-0.153,1.06v1.063l-0.151,0.909l-0.305,0.91l0.153,0.304h0.148h0.302
	l0.152,0.305v0.909l-0.152,1.063v0.606l0.152,0.305l0.303-0.151l0.305-0.305l0.305-0.303l0.304-0.606l0.303-0.305l0.152-0.454
	l0.151-0.305l0.302-0.454l0.306-0.606l-0.152-0.455L95.3,80.773h-0.455l-0.453,0.607l-0.306,0.304h-0.3v-0.454l0.3-0.758
	l0.306-0.606l0.302-0.454l0.305-0.303l0.455-0.151h0.606l7.584,3.942l0.456,0.304h0.306h0.452h0.304l0.15-0.304l0.306-0.454
	l0.15-0.454l2.883-6.672l0.303-0.758l0.453-0.758l0.454-0.607l0.456-0.758l0.607-0.607l0.606-0.607l0.758-0.606l0.605-0.607
	l0.761-0.455l0.759-0.454l0.911-0.457l0.759-0.454l0.911-0.302l0.756-0.152l0.91-0.304l0.758-0.152h0.91l0.91-0.151l0.758,0.151
	h0.909l0.456,0.152l0.453,0.151l0.608,0.151l0.455,0.151l0.453,0.15l0.608,0.151l0.303,0.303l0.608,0.305l0.453,0.151l0.304,0.456
	l0.456,0.303l0.301,0.305l0.305,0.454l0.303,0.456l0.304,0.303l0.307,0.454l0.151,0.456v0.607l0.15,0.454v0.606v0.607l-0.302,0.302
	l-0.604,0.457l-0.456,0.151l-0.153,0.302l0.153,0.758v0.607v0.758v0.606l-0.153,0.607l-0.298,0.453l-0.307,0.607l-0.307,0.456
	l-0.452,0.607l-0.305,0.454l-0.605,0.456l-0.456,0.453l-0.455,0.454l-0.453,0.608l-0.456,0.454l-0.453,0.454l-0.454,0.456
	l-0.306,0.607l-0.451,0.454l-0.152,0.456l-0.303,0.606v0.454l-0.153,0.607v0.453v0.607v0.606l0.153,0.454v0.606v0.457l0.15,0.606
	l0.151,0.608v0.607l0.148,0.453l0.153,0.608l0.15,0.454v0.606v0.456v0.607v0.454v0.455l-0.15,0.454l-1.516,6.068l-0.151,0.604
	l0.151,0.305l0.301-0.151l0.759-0.608l0.456-0.454h0.454l0.451,0.454l7.587,8.191l0.45,0.456l0.308,0.91l-0.151,1.214l-0.15,1.06
	l0.15,1.214l0.304,0.759l0.306,0.304l0.452,0.302l0.909,0.152h0.912l0.759-0.454l0.607-0.152h0.452v0.303v0.759v0.758l-0.15,0.758
	v0.759l0.15,0.758v0.758v0.758l0.151,0.759l0.151,0.758l0.152,0.758l0.302,0.759l0.149,0.758l0.307,0.759l0.302,0.757l0.305,0.759
	l0.308,0.607l0.45,0.606l0.454,0.607l0.456,0.606l0.452,0.607l0.608,0.456l0.456,0.304l0.606,0.302h0.607l0.758-0.151l0.606-0.151
	l0.605-0.152h0.306l0.304,0.454l0.303,0.911l0.456,1.06l0.453,1.063l0.758,1.062l0.759,1.059l0.909,1.063l0.909,1.062l1.06,0.909
	l1.062,0.911l1.063,0.908l1.213,0.759l1.213,0.608l1.216,0.607l1.215,0.456l1.213,0.3l1.212,0.303h1.216l1.063-0.151l1.062-0.452
	l1.059-0.456l0.608-0.306l0.305,0.15l0.758,0.305l1.365,1.062l1.517,0.76l1.364,0.759l1.518,0.76l1.515,0.76l1.519,0.759
	l1.667,0.604l1.518,0.456l1.668,0.458l1.514,0.454l1.667,0.454l1.671,0.306l1.666,0.149l1.667,0.15l1.517,0.152l1.819,0.152h1.67
	l1.668-0.152l1.667-0.152l1.665-0.15l3.643-0.455l0.151-0.152l0,0v-0.15h-0.151l-12.737-0.607l-0.76-0.152l-0.76-0.152h-0.906
	l-0.911-0.304l-0.907-0.152l-1.064-0.301l-1.062-0.307l-1.062-0.301l-1.063-0.456l-1.062-0.306l-1.062-0.451l-1.059-0.304
	l-1.064-0.455l-0.908-0.451l-1.062-0.456l-0.76-0.456l-0.91-0.304l-0.76-0.455l-0.604-0.452l-0.606-0.303l-7.588-5.916l-0.908-0.607
	l-0.452-0.304h-0.306v0.456l0.306,3.489l0.15,0.605l-0.15,0.454l-0.153,0.304h-0.304l-0.608,0.151l-1.062-0.151l-1.059-0.15
	l-1.062-0.151l-0.911-0.454l-0.909-0.607l-1.063-0.608l-0.908-0.757l-0.758-0.762l-0.912-0.908l-0.757-0.911l-0.761-0.907
	l-0.758-1.063l-0.605-0.911l-0.76-1.059l-0.607-1.063l-0.607-1.064l-0.451-0.909l-0.455-0.912l-0.455-0.909l-0.458-0.91l-0.15-0.453
	l-0.304-0.305l-0.304-0.151h-0.456l-0.303,0.151l-0.303,0.151l-0.307,0.303l-0.45,0.304l-0.76,0.453l-0.454,0.306l-0.455-0.306
	l-0.454-0.453l-0.151-0.758l-0.304-0.607l-0.305-0.606l-0.148-0.76l-0.152-0.608l-0.306-0.758l-0.15-0.758l-0.149-0.607
	l-0.152-0.758v-0.759l-0.15-0.606l-0.153-0.759v-0.758v-0.758v-0.758v-0.606v-0.759l0.153-0.758l0.15-0.758v-0.606l0.152-0.76
	l-0.152-0.303l-0.15,0.151l-0.911,0.454l-0.756,0.305l-0.762,0.151l-0.91,0.152h-0.606l-0.152-0.152v-0.606l0.152-0.454l0.151-0.456
	l0.304-0.454l0.304-0.607l0.304-0.456l0.304-0.604l0.305-0.607l0.455-0.607l0.454-0.607l0.304-0.606l0.453-0.605l0.455-0.607
	l0.456-0.607l0.3-0.454l0.458-0.606l0.453-0.454l0.304-0.303l0.453-0.456l0.306-0.152l3.187-2.577l0.76-0.606v-0.303h-0.76h-3.033
	l-0.91-0.151l-0.304-0.454l0.149-0.456l0.608-0.304l0.456-0.152l0.455-0.15l0.757-0.306l0.605-0.453l0.912-0.305l0.757-0.606
	l0.757-0.454l0.76-0.455l0.606-0.454l0.456-0.455l0.454-0.456l0.305-0.304l5.306-10.161l0.456-0.759l0.306-0.305h0.453l0.91,0.305
	l0.758,0.302l0.757,0.151l0.76,0.305l0.759,0.151l0.758,0.151l0.758,0.15l0.76,0.151h0.757h0.757h0.76h0.759h0.759l0.756-0.151
	l0.76-0.15l0.759-0.151l0.756-0.151l0.76-0.153l0.758-0.304l0.758-0.302l0.759-0.305l0.606-0.15l0.304,0.15l0.303,0.305l0.153,0.759
	v0.453l0.15,0.454l0.151,0.456l0.149,0.607l0.151,0.455l0.152,0.606l0.304,0.454l0.151,0.607l0.304,0.456l0.307,0.454l0.149,0.606
	l0.304,0.456l0.304,0.455l0.304,0.454l0.305,0.607l0.304,0.454l0.303,0.304l0.304,0.454l0.456,0.456l0.304,0.302l0.758,0.758
	l0.756,0.758l0.912,0.757l0.912,0.607l0.909,0.607l0.909,0.758l0.908,0.454l1.062,0.607l0.908,0.456l1.215,0.454l0.91,0.305
	l1.063,0.151l1.061,0.305h1.062l1.216,0.151l1.058-0.151h1.064l1.059-0.305l1.216-0.302l1.062-0.454l1.366-0.607l1.212-0.758
	l1.215-0.91l1.059-0.909l0.764-1.214l0.907-1.063l0.607-1.214l0.76-1.214l0.454-1.365l0.306-1.367l0.304-1.365l0.15-1.516v-1.516
	v-1.365v-1.365l-0.304-1.516l-0.456-1.366l-0.454-1.365l-0.456-1.365l-0.76-1.214l-0.451-0.909l-0.456-0.91l-0.456-0.909
	l-0.606-0.91l-0.606-0.758l-0.76-0.608l-0.453-0.456l-0.15-0.305v-0.302l0.303-0.453l0.604-0.608l0.607-0.454l0.604-0.606
	l0.459-0.608l0.604-0.454l0.456-0.606l0.607-0.608l0.606-0.454l0.306-0.608l0.603-0.757l0.305-0.608l0.455-0.606l0.455-0.759
	l0.456-1.366l0.456-1.365l0.455-1.365l0.305-0.305l0.455-0.303l1.059-0.606l1.216-0.454l1.514-0.152l1.063-0.453l1.822-0.759
	l1.667-0.758l1.666-1.063l0.456-0.15l0.151-0.151l0.152,0.151v0.454l-0.152,1.063l-0.151,1.06l-0.152,0.456l0.152,0.303l0.457,0.151
	l0.602-0.151l0.76-0.152l0.759-0.15l0.76-0.151l0.607-0.151l0.76-0.151l0.76-0.152l0.607-0.151h0.755h0.764h0.76l0.754,0.303
	l1.064,0.305l1.215,0.454l1.06,0.453l1.063,0.305l1.059,0.455l1.062,0.303l1.064,0.305l0.604,0.151l0.15,0.305v0.304l-0.456,0.454
	l-0.454,0.759L235.902,60l0.309,0.151h1.058l1.06,0.15l1.062,0.303L249.866,67.084L249.866,67.084z"/>
<polygon points="207.247,369.975 207.398,369.518 207.854,368.759 208.457,368 209.065,367.245 209.825,366.637 210.583,366.03 
	211.339,365.27 211.644,364.819 211.491,364.363 210.887,364.211 209.977,364.667 209.672,364.967 209.217,365.27 208.762,365.422 
	208.306,365.726 207.854,366.03 207.398,366.485 207.09,366.789 206.639,367.245 206.336,367.548 206.183,368 206.032,368.455 
	205.88,369.062 206.032,369.823 206.336,369.975 206.942,369.975 "/>
<path fill="#ED1C24" d="M115.636,244.084l-0.453-0.456v-0.755l0.757-5.008l0.305-1.059l0.305-1.063l0.455-1.059l0.453-1.063
	l0.607-0.907l0.605-1.063l0.455-0.911l0.151-0.608l-0.456-0.304l-0.45-0.148l-0.151-0.303l0.301-0.608l0.307-1.215l0.605-1.059
	l0.456-1.215l0.604-1.215l0.76-1.366l0.76-1.215l0.759-1.363l0.911-1.215l0.907-1.215l0.911-1.215l1.062-1.215l1.061-1.059
	l1.06-0.912l1.214-1.062l1.062-0.908l1.216-0.76l1.212-0.606l1.213-0.456l1.215-0.456l1.216-0.151l0.607-0.147l0.3-0.304
	l0.151-0.303l-0.151-0.308l-0.3-0.304l-0.607-0.152l-0.606-0.147l-0.153-0.456l0.304-0.456l0.912-0.608l0.756-0.147l0.758-0.304
	l0.76-0.307l0.76-0.148l0.758-0.309h0.909l0.908-0.303l0.909-0.148h0.91h0.909l0.759-0.152h0.909l0.909,0.152h0.909l0.758,0.148
	l0.759,0.303l0.76,0.152l0.758,0.305l0.757,0.307l0.76,0.451l0.455,0.305l0.451,0.303l0.307-0.148l0.151-0.152l0.149-0.303v-0.303
	v-0.457v-0.456v-0.759l-0.301-0.76l0.151-0.152l0.605,0.456l0.607,0.456l0.76,0.607l0.607,0.604l0.607,0.455l0.76,0.608l0.603,0.455
	l0.607,0.456l0.759,0.603l0.609,0.456l0.758,0.455l0.604,0.457l0.76,0.456l0.759,0.456l0.606,0.456l0.756,0.303l0.763,0.457
	l0.757,0.456l0.456,0.451l0.305,0.608l0.15,0.912v1.059l-0.15,1.063l-0.305,1.059l-0.15,1.063l-0.151,0.911l-0.15,0.76v0.908
	l-0.151,1.062v1.063v1.211v1.215v1.063l0.151,1.362l0.15,1.215v1.215l0.306,1.215l0.304,1.214l0.304,1.06l0.451,1.063l0.455,1.058
	l0.456,0.912l0.605,0.76l0.762,0.608l0.758,0.455l0.91,0.304l0.607,0.456l0.302,0.755l0.152,0.763l0.152,0.907v0.456h-0.456
	l-0.76-0.607l-0.911-0.604l-0.908-0.456l-0.758-0.456l-0.759-0.607l-0.91-0.304l-0.909-0.456l-0.912-0.455l-0.755-0.305l-0.91-0.451
	l-0.911-0.308l-0.908-0.304l-0.908-0.152l-0.909-0.304h-0.912l-1.062-0.147l-0.909-0.152h-1.061h-0.911l-0.91,0.152l-1.062,0.147
	h-0.607h-0.304v-0.3l0.304-0.763l0.304-1.059l0.607-1.06l0.305-0.763v-0.304l-0.305-0.152l-0.757,0.456l-0.758,0.455l-0.91,0.308
	l-0.758,0.3l-0.909,0.304l-0.909,0.308l-0.757,0.304l-0.911,0.452l-0.758,0.607l-0.456,0.304l-0.453,0.456l-0.456,0.456
	l-0.455,0.607l-0.452,0.76l-0.455,0.603l-0.607,0.759l-0.454,0.759l-0.458,0.911l-0.451,0.76l-0.456,0.911l-0.456,0.912l-0.3,0.754
	l-0.304,0.916l-0.308,0.754l-0.148,0.76l-0.152,0.76c-0.306,1.519-0.306,3.185,0.454,4.856v0.607l-0.454,0.148l-0.758-0.148
	l-0.607-0.152h-0.304l-0.304,0.152v0.3l-0.151,0.607l0.151,1.059l0.152,1.063l0.151,0.911l0.302,1.059l0.306,1.064l0.304,0.911
	l0.152,1.059l0.149,1.063l0.15,0.76v0.911l0.151,0.76v0.907l0.152,0.759v0.911v0.76l0.151,0.911v0.759l0.151,0.907l0.15,0.764v0.755
	l0.306,0.911l0.15,0.759l0.15,0.911l0.151,0.759l0.307,0.76l0.453,0.759l0.304,0.759l0.303,0.76l0.456,0.755v0.46h-0.456
	l-0.76-0.608l-0.3-0.152l-0.458,0.152l-0.301,0.304l-0.151,0.607v0.76v0.759v0.755v0.764v0.755l0.151,0.764v0.755v0.759v0.76v0.759
	l0.15,0.759v0.76v0.759v0.759l-0.15,0.759v0.76v0.759l-0.151,0.759l-0.151,0.76l-0.153,0.759l-0.606,1.823l-0.756,1.515
	l-0.759,1.367l-1.216,1.363l-1.213,1.063l-1.213,0.912l-1.367,0.755l-1.514,0.608l-1.52,0.607l-1.666,0.304l-1.667,0.304h-1.82
	h-1.669h-1.667l-1.819-0.304l-1.669-0.304l-1.666-0.456l-1.666-0.457l-1.52-0.606l-1.514-0.755l-0.76-0.456l-0.91-0.46l-0.757-0.452
	l-0.76-0.455l-0.758-0.607l-0.756-0.451l-0.912-0.608l-0.757-0.608l-0.757-0.455l-0.76-0.608l-0.76-0.603l-0.758-0.607l-0.757-0.608
	l-0.76-0.451l-0.76-0.607l-0.755-0.607l-0.759-0.452l-0.76-0.606l-0.908-0.457l-0.758-0.456l-0.91-0.608l-0.756-0.455l-0.912-0.303
	l-0.908-0.456l-0.91-0.304l-0.76-0.304l-0.908-0.304l-0.91-0.304l-0.907-0.304l-0.911-0.151l-0.909-0.305l-0.909-0.303l-0.908-0.455
	l-0.456-0.305l0.148-0.759l0.609-0.76l0.304-0.455l-0.15-0.452l-0.307-0.152h-0.758l-1.212,0.152l-1.062,0.147h-1.213h-1.062h-0.911
	h-0.907l-1.063-0.147l-0.911-0.152l-0.759-0.152l-0.761-0.304l-0.911-0.304l-0.757-0.308l-0.761-0.452l-0.759-0.606l-0.604-0.604
	l-0.76-0.606l-0.76-0.76l-0.76-0.911l-0.759-0.911l-0.755-1.059l-0.304-0.455l-0.303-0.456l-0.308-0.456l-0.149-0.456l-0.152-0.456
	l-0.304-0.456l-0.151-0.456l-0.151-0.452l-0.153-0.456l-0.15-0.456l-0.151-0.456l-0.148-0.456v-0.456v-0.604l-0.153-0.456v-0.456
	v-0.607v-0.456v-0.608l0.153-0.451l0.148-0.912l0.151-0.304h0.455l0.305,0.152v0.603l0.15,0.456v0.455l0.302,0.456v0.304
	l0.308,0.456l0.148,0.455l0.306,0.456l0.302,0.456l0.149,0.299l0.456,0.46l0.305,0.455l0.304,0.304l0.304,0.451l0.303,0.304
	l0.304,0.308l0.456,0.456l0.304,0.152l0.454,0.299l0.453,0.304l0.456,0.151l0.304,0.152l3.337,1.215h0.301l0.151-0.152l0.15-0.152
	l-0.304-0.304l-4.854-3.792l-0.307-0.305l-0.299-0.303l-0.306-0.455L69.7,270.36l-0.302-0.456l-0.303-0.451l-0.153-0.455
	l-0.302-0.457l-0.151-0.456l-0.304-0.607l-0.151-0.456l-0.153-0.456l-0.15-0.451l-0.15-0.607l-0.152-0.456l-0.149-0.456v-0.455
	l-0.152-0.456l-0.15-0.451l-0.305-0.607l-0.456-0.152l-0.304,0.304l-0.151,0.304l-0.15,0.456l-0.455,0.152l-0.302-0.152
	l-0.151-0.759v-0.607v-0.604v-0.606v-0.457l0.151-0.603l0.15-0.607v-0.456l0.151-0.455l0.305-0.456l0.15-0.607l0.15-0.452
	l0.303-0.456l0.152-0.456l0.302-0.456l0.456-0.456l0.306-0.455l0.302-0.452l0.306-0.456l0.452-0.456l0.455-0.456l0.607-0.607
	l0.305-0.152v0.308v0.756l0.148,0.759v0.759l0.152,0.76l0.148,0.759l0.308,0.608l0.148,0.759l0.307,0.759l0.302,0.604l0.456,0.763
	l0.455,0.604l0.451,0.607l0.456,0.456l0.607,0.604l0.607,0.455l0.456,0.303l0.76,0.456l0.606,0.309l0.758,0.146l0.757,0.152
	l0.76,0.152H78.8l0.306-0.308l-0.148-0.452l-0.307-0.456l-0.453-0.455l-0.304-0.303l-1.062-0.608l-1.062-0.759l-0.91-0.76
	l-0.76-0.912l-0.606-0.755l-0.606-0.911l-0.452-1.063l-0.455-1.059l-0.305-0.912l-0.151-1.063v-1.059v-1.215l0.151-1.063
	l0.305-1.059l0.303-0.912l0.453-1.063l0.607-1.059l0.605-0.911l0.76-1.059l0.911-0.912l0.911-0.759l0.907-0.607l1.062-0.604
	l0.913-0.607l1.058-0.607l1.062-0.456l1.216-0.452l1.063-0.303l1.213-0.308l1.213-0.304l1.215-0.303l1.216-0.148h1.212l1.213-0.152
	h1.215h1.06l1.216,0.152l1.214,0.148l1.064,0.151l1.213,0.304h0.605l0.15-0.152v-0.906v-0.608l0.306-0.304l0.304,0.147l0.759,0.608
	l0.907,0.911l1.063,1.063l1.212,0.755l1.062,0.764l1.215,0.755l1.215,0.911l1.365,0.608l1.213,0.759l1.215,0.76l1.216,0.76
	l1.212,0.759l1.214,0.759l1.214,0.759l1.216,0.76l1.06,0.759l1.214,0.911l1.064,1.059l0.905,0.911l1.064,1.064l0.907,1.059
	l3.034,3.788l0.303,0.309l0.455-0.309l0.452-0.298l-0.149-0.456C123.371,250.607,120.945,248.789,115.636,244.084L115.636,244.084z"
	/>
<polygon points="128.378,280.334 128.073,279.73 127.922,279.275 127.77,278.667 127.77,277.908 127.77,277.452 127.77,277.149 
	127.77,276.697 127.618,276.242 127.466,275.786 127.313,275.331 127.011,274.875 126.71,274.418 126.557,273.968 126.254,273.664 
	125.952,273.208 125.646,272.904 125.344,272.601 125.041,272.296 124.736,271.993 124.433,271.846 119.427,268.808 
	118.974,268.656 118.67,268.959 118.67,269.415 118.82,269.719 123.827,273.36 124.433,273.968 125.041,274.728 125.496,275.634 
	125.952,276.394 126.101,277.001 126.101,277.3 125.646,277.604 125.189,278.212 125.189,278.667 125.496,279.123 130.195,286.101 
	130.5,286.4 130.955,286.249 131.258,285.949 131.258,285.494 128.832,280.941 "/>
<polygon points="107.447,259.859 107.144,259.859 106.838,260.011 106.838,260.467 107.144,260.771 115.788,265.47 116.547,266.078 
	117.151,266.837 117.759,267.142 118.214,267.293 118.67,267.142 118.67,266.686 118.365,266.23 117.91,265.623 116.7,264.715 
	115.636,263.804 114.42,262.741 113.211,262.134 "/>
<polygon points="198.45,104.701 197.844,105.305 197.084,105.76 196.628,106.368 196.021,106.974 195.417,107.582 194.809,108.188 
	194.201,108.794 193.442,109.25 192.835,109.705 192.231,109.856 191.775,110.008 191.168,110.159 190.712,110.159 190.108,110.159 
	189.653,110.008 189.046,110.008 188.59,110.159 187.982,110.159 187.526,110.311 187.071,110.614 186.314,111.373 185.557,112.131 
	184.951,112.89 184.19,113.648 183.13,114.104 182.523,114.406 182.07,114.559 181.461,114.862 181.006,114.862 180.4,115.013 
	179.945,115.163 179.49,115.163 178.883,115.163 178.428,115.163 177.822,115.163 177.213,115.163 176.761,115.163 176.153,115.163 
	175.698,115.013 175.09,115.013 174.486,115.013 174.031,115.013 173.575,115.013 173.271,115.163 172.815,115.317 172.36,115.468 
	171.907,115.62 171.601,115.771 171.148,116.076 170.693,116.227 170.39,116.53 169.935,116.833 169.479,116.985 169.023,117.136 
	168.569,117.29 168.116,117.44 167.66,117.591 167.204,117.591 166.9,117.591 166.445,117.591 165.838,117.44 165.382,117.136 
	165.083,116.833 164.931,116.377 164.931,115.62 164.778,115.317 164.475,115.317 163.867,115.468 163.412,115.62 162.956,115.62 
	162.5,115.771 162.049,115.922 161.594,116.076 161.138,116.076 160.833,116.227 160.381,116.227 159.926,116.377 159.47,116.377 
	159.016,116.377 158.56,116.377 158.104,116.377 157.8,116.227 157.345,116.227 156.89,116.076 156.436,115.922 155.98,115.771 
	155.679,115.62 155.223,115.317 154.311,114.862 153.854,114.254 153.854,113.648 154.311,112.739 154.767,111.827 154.92,111.373 
	154.464,111.373 153.706,111.524 153.099,111.827 152.643,111.98 152.341,112.436 152.189,112.89 151.886,113.345 151.886,113.799 
	151.734,114.254 151.581,114.862 151.581,115.317 151.431,115.771 151.581,116.076 151.734,116.076 152.189,116.076 
	152.797,116.076 153.554,116.377 154.311,116.833 155.07,117.44 155.83,117.744 156.588,117.895 157.345,117.895 158.104,118.045 
	158.861,117.895 159.619,117.895 160.381,117.744 161.138,117.591 161.897,117.44 162.351,117.29 162.956,117.44 163.412,117.744 
	164.172,118.35 164.778,118.653 165.382,118.653 165.838,118.803 166.445,118.803 167.053,118.803 167.66,118.803 168.419,119.108 
	169.023,119.413 169.479,119.867 170.237,120.625 170.997,121.383 171.907,122.141 172.664,122.899 173.424,123.658 
	174.332,124.418 175.09,125.022 176.001,125.63 176.912,126.388 177.822,126.844 178.732,127.45 179.64,128.058 180.702,128.662 
	181.615,129.119 182.523,129.575 183.587,130.179 184.646,130.634 185.709,130.939 186.616,131.393 187.68,131.848 189.35,132.456 
	191.016,133.062 192.684,133.67 194.354,134.124 195.872,134.427 197.388,134.881 198.906,135.185 200.268,135.336 201.788,135.488 
	203.149,135.488 204.669,135.488 206.032,135.336 207.551,135.035 208.914,134.729 210.432,134.124 211.795,133.67 213.314,132.912 
	214.828,132.001 216.499,130.939 218.014,129.876 218.469,129.42 218.925,129.119 219.38,128.662 219.988,128.208 220.444,127.904 
	220.896,127.45 221.198,126.995 221.654,126.539 222.11,126.085 222.564,125.63 222.87,125.022 223.324,124.567 223.625,124.113 
	223.928,123.507 224.232,122.899 224.537,122.445 225.297,120.625 226.054,118.653 226.658,116.681 227.113,114.71 227.57,112.89 
	228.025,110.917 228.177,108.945 228.48,106.974 228.633,105.003 228.78,103.031 228.937,101.061 228.937,98.937 228.937,96.965 
	228.937,94.991 228.937,93.02 228.937,91.049 228.937,88.924 228.937,86.953 228.937,84.983 229.089,82.858 229.235,82.102 
	229.389,81.492 229.996,81.189 230.756,81.038 231.21,80.733 231.516,80.432 231.21,80.129 230.756,79.824 230.146,79.673 
	229.54,79.673 228.937,79.673 228.329,79.673 227.721,79.824 227.113,80.129 226.658,80.432 226.054,81.189 225.903,81.492 
	226.207,81.948 226.658,82.25 226.962,82.403 227.113,82.706 226.811,83.464 226.506,84.07 226.054,84.678 225.751,85.284 
	225.297,85.741 224.688,86.195 224.232,86.802 223.776,87.257 223.174,87.71 222.564,88.016 221.958,88.469 221.502,88.924 
	220.896,89.38 220.444,89.837 219.988,90.291 219.685,90.592 219.836,91.049 220.14,91.504 220.444,91.958 220.444,92.262 
	219.988,92.869 219.532,93.323 218.925,93.778 218.469,94.234 217.862,94.537 217.406,94.991 216.803,95.295 216.195,95.751 
	215.588,96.054 214.828,96.358 214.226,96.509 213.617,96.812 213.01,96.965 212.401,97.268 212.25,97.569 212.401,98.177 
	212.706,98.783 212.706,99.086 212.401,99.542 211.644,100.149 211.039,100.755 210.28,101.209 209.672,101.665 208.914,101.969 
	208.306,102.272 207.551,102.423 206.942,102.577 206.336,102.726 205.576,102.726 204.973,102.879 204.365,103.031 
	203.606,103.031 202.998,103.031 202.391,103.182 201.788,103.336 201.028,103.487 200.42,103.79 199.813,103.94 199.054,104.245 
	"/>
<polygon fill="#F49129" points="182.523,66.63 185.103,66.023 187.68,65.87 190.108,66.326 192.535,67.084 194.657,68.147 
	196.779,69.663 198.602,71.484 200.42,73.455 201.788,75.729 202.998,78.006 203.909,80.432 204.518,83.011 204.821,85.588 
	204.669,88.016 204.21,90.441 203.303,92.718 201.939,94.842 200.117,96.812 197.844,98.482 195.721,99.391 193.595,99.998 
	191.472,100.149 189.35,99.998 187.229,99.542 185.253,98.783 183.283,97.723 181.615,96.509 179.945,94.991 178.428,93.172 
	177.064,91.353 176.001,89.227 174.94,87.257 174.332,84.983 173.727,82.706 173.575,80.584 173.727,78.308 174.182,76.033 
	174.94,73.911 176.153,71.938 176.608,71.18 177.213,70.421 177.822,69.663 178.428,68.906 179.186,68.298 179.945,67.845 "/>
<polygon points="99.257,91.049 98.949,90.441 98.647,89.837 98.347,89.227 98.043,88.469 97.737,87.71 97.588,87.106 97.283,86.346 
	97.133,85.588 96.979,84.983 96.979,84.225 96.83,83.464 96.676,82.555 96.374,82.25 95.918,82.25 95.918,82.858 96.069,83.464 
	96.069,83.919 96.069,84.225 96.069,84.678 96.069,85.134 96.069,85.588 96.069,85.892 96.069,86.346 96.069,86.651 96.069,86.953 
	96.22,87.409 96.22,87.71 96.374,88.016 96.374,88.469 96.523,88.774 96.83,89.227 96.979,89.683 97.283,89.988 97.588,90.441 
	98.043,90.897 98.801,91.504 99.405,91.504 "/>
<polygon fill="#FFFFFF" points="160.986,51.918 162.199,51.767 163.412,51.918 164.778,52.069 165.99,52.221 167.356,52.676 
	168.569,53.132 169.935,53.585 171.148,54.344 172.209,55.102 173.424,55.861 174.486,56.618 175.396,57.681 176.305,58.59 
	177.064,59.804 177.67,60.866 178.123,62.08 178.578,63.142 178.732,64.353 178.732,65.719 178.578,66.478 177.977,67.084 
	177.213,67.845 176.608,68.601 176.001,69.207 175.396,69.815 174.94,70.421 174.486,71.029 174.182,71.633 173.879,72.243 
	173.575,72.847 173.424,73.455 173.119,74.061 172.97,74.668 172.815,75.426 172.664,76.033 172.514,76.64 172.36,77.398 
	172.209,78.308 172.057,79.066 171.907,79.976 171.758,80.887 171.451,81.492 170.846,81.948 168.419,83.162 165.99,83.919 
	163.563,84.225 161.287,84.225 159.016,83.769 156.89,82.858 155.07,81.797 153.249,80.432 151.581,78.916 150.217,77.247 
	149.005,75.275 148.092,73.152 147.485,71.029 147.185,68.752 147.185,66.478 147.485,64.202 148.245,61.928 149.308,59.804 
	150.824,57.681 152.797,55.558 153.405,55.102 153.854,54.799 154.464,54.344 155.07,54.042 155.83,53.585 156.436,53.283 
	157.043,52.979 157.648,52.827 158.405,52.525 159.167,52.372 159.771,52.069 "/>
<polygon fill="#ED1C24" points="67.558,80.733 66.949,80.887 66.798,80.887 67.708,79.976 68.164,79.673 68.62,79.218 
	69.223,79.066 69.68,78.916 70.286,78.765 70.894,78.61 71.501,78.459 72.105,78.459 72.712,78.459 73.168,78.459 73.927,78.61 
	74.379,78.916 74.379,79.218 74.229,80.432 74.229,81.038 73.927,81.492 73.776,81.492 73.168,81.492 "/>
<polygon points="165.688,61.472 164.624,61.625 163.563,62.08 162.807,62.535 162.049,63.293 161.441,64.052 160.986,64.961 
	160.683,65.87 160.529,66.781 160.529,67.845 160.529,68.906 160.833,69.815 161.138,70.877 161.594,71.633 162.199,72.544 
	162.956,73.152 163.867,73.758 164.931,74.212 165.99,74.366 167.356,74.517 168.419,74.366 169.479,74.061 170.39,73.608 
	171.148,73.152 171.758,72.394 172.209,71.633 172.664,70.877 172.815,69.966 173.119,69.057 173.119,68.147 172.97,67.235 
	172.815,66.175 172.514,65.417 172.057,64.507 171.451,63.749 170.846,63.142 170.086,62.381 169.023,62.08 167.963,61.625 
	166.9,61.472 "/>
<polygon fill="#FFFFFF" points="178.277,44.032 178.578,43.576 179.034,43.12 179.338,42.666 179.794,42.362 180.25,41.906 
	180.702,41.604 181.158,41.15 181.615,40.845 182.07,40.541 182.523,40.238 183.13,39.936 183.587,39.785 184.19,39.48 
	184.646,39.329 185.858,38.873 187.229,38.571 188.286,38.269 189.653,38.269 190.865,38.269 192.077,38.269 193.29,38.417 
	194.505,38.722 195.569,39.025 196.779,39.48 197.844,39.936 198.906,40.541 199.964,41.15 201.028,41.906 201.788,42.817 
	202.693,43.727 203.453,44.636 204.21,45.699 204.973,46.759 205.576,47.973 205.88,48.886 206.183,49.945 206.487,51.009 
	206.639,52.221 206.639,53.435 206.639,54.648 206.639,55.861 206.487,57.075 206.183,58.289 205.88,59.348 205.576,60.562 
	205.124,61.625 204.518,62.837 203.909,63.749 203.303,64.658 202.543,65.567 201.788,66.326 200.877,67.084 199.813,67.54 
	198.754,67.993 197.994,68.147 197.388,67.993 196.779,67.54 196.021,67.084 195.265,66.63 194.505,66.326 193.745,65.87 
	192.991,65.567 192.231,65.266 191.472,65.112 190.712,64.961 189.953,64.809 189.046,64.658 188.286,64.658 187.526,64.658 
	186.771,64.658 186.013,64.658 185.253,64.658 184.342,64.809 183.587,64.961 182.676,65.112 181.917,65.266 181.006,65.417 
	180.702,65.417 180.551,65.112 180.4,64.353 180.25,63.749 180.096,63.142 179.945,62.535 179.64,62.08 179.338,61.472 
	179.186,60.866 178.883,60.412 178.578,59.956 178.277,59.499 177.977,59.046 177.67,58.59 177.213,57.983 176.912,57.53 
	176.608,57.075 176.153,56.618 175.853,56.014 175.545,55.558 175.241,54.951 174.94,54.495 174.788,54.042 174.788,53.585 
	174.638,52.979 174.638,52.525 174.788,51.918 174.788,51.311 174.94,50.704 175.09,50.097 175.241,49.49 175.545,48.886 
	175.698,48.276 176.001,47.671 176.305,47.216 176.456,46.608 176.912,46.155 177.064,45.699 177.368,45.244 177.67,44.79 
	177.977,44.485 "/>
<polygon points="188.742,49.945 187.526,49.945 186.616,50.251 185.709,50.704 184.951,51.311 184.342,52.069 183.734,52.979 
	183.283,53.891 183.13,54.799 182.827,55.708 182.827,56.772 182.978,57.832 183.13,58.744 183.587,59.653 184.041,60.562 
	184.797,61.321 185.557,61.928 186.616,62.381 187.68,62.837 188.896,62.988 189.953,62.988 191.016,62.686 191.928,62.381 
	192.835,61.928 193.442,61.321 194.201,60.562 194.657,59.804 194.961,59.046 195.417,58.134 195.417,57.226 195.569,56.165 
	195.417,55.253 195.265,54.344 194.961,53.435 194.354,52.676 193.745,51.918 192.991,51.311 192.077,50.704 191.168,50.251 
	189.953,49.945 "/>
</svg>
