<?xml version="1.0" encoding="utf-8"?>
<!-- Generator: Adobe Illustrator 16.0.0, SVG Export Plug-In . SVG Version: 6.00 Build 0)  -->
<!DOCTYPE svg PUBLIC "-//W3C//DTD SVG 1.1//EN" "http://www.w3.org/Graphics/SVG/1.1/DTD/svg11.dtd">
<svg version="1.1" id="Layer_1" xmlns="http://www.w3.org/2000/svg" xmlns:xlink="http://www.w3.org/1999/xlink" x="0px" y="0px"
	 width="400px" height="400px" viewBox="0 0 400 400" enable-background="new 0 0 400 400" xml:space="preserve">
<g id="New_Layer">
	<path id="Trace_Shape__x28_6_x29__x2A___x28_B_x29_" stroke="#000000" stroke-linejoin="round" d="M255.171,389.933
		c-4.786-0.436-8.347-0.49-14.574-0.224c-7.114,0.305-12.035,0.246-13.691-0.167c-0.583-0.145-1.944-0.516-3.022-0.822
		c-1.078-0.307-3.362-0.818-5.075-1.135c-4.93-0.913-5.659-1.266-8.517-4.137c-2.339-2.349-2.25-2.328-3.877-0.944
		c-3.129,2.659-4.194,2.924-12.837,3.192c-5.922,0.184-8.817,0.432-12.254,1.051c-7.262,1.307-13.164,1.815-19.482,1.679
		c-5.139-0.112-6.761-0.43-10.417-2.045c-2.035-0.898-3.709-1.017-6.536-0.463c-3.241,0.636-6.421,0.089-9.079-1.56
		c-1.445-0.896-1.987-1.084-3.945-1.369c-5.731-0.833-7.566-2.951-8.217-9.489c-0.319-3.197,0.184-5.283,1.989-8.255
		c1.582-2.604,1.713-3.074,1.117-3.975c-1.576-2.378,2.139-5.185,11.034-8.333c3.934-1.392,5.237-1.994,6.542-3.019
		c2.692-2.116,4.446-2.564,10.772-2.762c4.634-0.145,4.675-0.155,5.064-1.326c0.523-1.576,1.265-1.636,5.962-0.489
		c5.502,1.345,5.498,1.348,5.434-2.858c-0.068-4.414-0.16-4.656-1.832-4.81c-2.086-0.19-2.205-0.736-1.586-7.281
		c0.486-5.133,0.186-8.164-1.284-12.936c-1.479-4.802-1.825-7.737-1.305-11.055c0.357-2.28,0.36-2.273-0.879-2.529
		c-1.811-0.374-1.896-1.086-0.506-4.229c1.72-3.887,2.377-6.312,2.877-10.636c0.404-3.483,0.152-4.771-0.936-4.771
		c-0.91,0-1.686-2.413-1.681-5.229c0.007-3.438,0.742-6.418,2.557-10.375c1.11-2.418,1.136-3.036,0.139-3.277
		c-1.929-0.465-1.784-2.157,0.635-7.425c2.992-6.513,3.33-10.567,1.278-15.305c-0.649-1.498-0.65-1.499-1.332-1.601
		c-1.402-0.211-1.612-0.292-2.139-0.818c-1.846-1.846-3.42-5.781-4.022-10.055c-0.45-3.19-0.599-3.426-2.17-3.43
		c-2.104-0.004-2.228-1.07-0.859-7.37c0.478-2.197,0.85-5.436,0.696-6.051c-0.125-0.494-0.585-0.626-2.173-0.626h-1.042l0.001-3.8
		c0.004-9.054,0.743-11.828,4.998-18.762c1.977-3.222,2.067-3.48,1.503-4.243c-0.345-0.467-0.352-0.537-0.156-1.886
		c0.542-3.752,2.37-6.747,7.083-11.607c3.065-3.16,3.077-3.188,1.951-4.378c-1.904-2.013-1.731-2.974,0.797-4.433
		c2.777-1.602,6.993-6.452,8.752-10.067l0.452-0.93l-0.388-0.316c-0.801-0.647-0.352-1.958,1.357-3.972
		c1.582-1.863,1.768-2.152,1.717-2.667c-0.149-1.497-4.733-2.945-11.388-3.597c-3.575-0.35-3.406-0.176-3.013-3.111
		c0.145-1.077-0.254-1.411-2.43-2.035c-10.584-3.034-16.685-7.241-17.21-11.866c-0.194-1.715-0.259-1.897-0.934-2.629
		c-0.707-0.767-2.148-1.845-6.634-4.961c-5.308-3.688-6.208-4.926-4.821-6.638c0.725-0.893,0.852-0.655-1.633-3.073
		c-1.202-1.17-3.272-3.451-4.602-5.068c-2.935-3.572-4.849-5.559-8.49-8.817c-1.527-1.366-2.874-2.602-2.991-2.744
		c-0.319-0.387,0-0.793,1.48-1.875c0.696-0.511,1.266-0.989,1.266-1.064c0-0.214-0.58-1.298-1.562-2.917
		c-1.305-2.154-2.258-4.117-2.853-5.876c-0.797-2.364-0.815-2.38-2.937-2.819c-1.501-0.31-3.386-0.969-6.62-2.316
		c-3.193-1.33-5.972-2.255-8.829-2.94c-4.226-1.014-4.543-1.292-3.587-3.154c0.556-1.08,0.036-1.281-3.675-1.423
		c-11.578-0.445-14.816-1.885-15.8-7.025c-0.62-3.238,0.17-5.245,3.93-9.984c1.695-2.138,2.433-2.337,8.629-2.346
		c5.076-0.007,5.125-0.04,2.24-1.485c-4.25-2.131-5.893-3.417-6.521-5.106c-0.194-0.523-0.689-1.442-1.101-2.042
		c-2.496-3.648-2.722-4.147-2.707-5.993c0.01-1.314,0.315-2.446,1.045-3.888c2-3.951,5.108-5.32,10.057-4.428
		c1.464,0.264,3.526,0.363,5.064,0.243c1.381-0.107,2.771,0.764,6.188,3.879c0.987,0.9,1.818,1.614,1.846,1.586
		c0.027-0.028-0.369-0.739-0.881-1.581c-2.217-3.642-3.006-6.535-3.002-11.007c0.005-4.987,2.036-7.658,6.633-8.722
		c3.321-0.769,4.665-0.317,8.476,2.848c1.498,1.245,3.124,2.199,3.748,2.199c0.955,0,1.479,0.939,3.284,5.882
		c1.901,5.208,2.969,7.524,4.692,10.176c1.643,2.527,1.96,2.544,2.748,0.149c1.102-3.347,3.528-6.613,5.82-7.835
		c1.634-0.871,2.936-1.08,6.748-1.082c5.272-0.004,7.665,0.632,9.485,2.522c2.18,2.263,2.217,4.531,0.144,8.601
		c-0.618,1.213-1.417,3.078-1.776,4.145c-0.359,1.066-1.069,2.842-1.578,3.945c-1.309,2.841-2.365,5.694-3.502,9.457
		c-1.4,4.634-1.64,5.264-3.3,8.676l-1.486,3.054l0.771,3.154c1.044,4.271,2.151,8.135,2.744,9.567
		c0.65,1.573,1.004,1.837,2.453,1.837c1.846,0,1.808-0.048,3.807,4.827c2.961,7.217,4.771,10.037,6.916,10.778
		c2.359,0.814,2.712,1.195,7.354,7.916c1.766,2.558,3.653,5.119,4.192,5.692l0.98,1.042l1.186,0.13
		c1.374,0.15,1.319,0.115,4.696,3.034c5.151,4.451,8.632,6.899,9.261,6.509c0.233-0.144,0.073-2.682-0.225-3.575
		c-0.239-0.718-0.565-0.801-1.977-0.501c-1.254,0.267-2.058-1.137-4.063-7.096c-1.781-5.293-2.576-8.956-2.731-12.578l-0.101-2.367
		l-0.771-0.366c-1.805-0.855-2.007-3.019-0.687-7.397c0.701-2.325,0.7-2.329-1.076-3.834c-2.146-1.82-2.141-1.893,0.277-3.729
		c2.805-2.129,4.747-4.604,5.188-6.608c0.172-0.788-0.006-1.119-0.901-1.67c-1.051-0.646-1.218-1.013-0.979-2.161
		c0.779-3.756,4.353-7.188,9.158-8.793c2.044-0.683,2.035-0.664,1.222-2.557c-0.51-1.188-0.592-1.539-0.531-2.275
		c0.119-1.431,0.259-1.487,3.962-1.584c3.554-0.093,3.518-0.085,8.256-1.876c3.857-1.458,4.938-1.811,9.362-3.051l3.627-1.018
		l0.033-1.049c-0.822-9.676,4.456-18.004,13.119-20.198c8.52-2.159,17.719,2.75,21.42,10.735c1.285,2.771-0.013,1.667,2.577,0.243
		c12.866-7.075,27.496,0.822,28.085,14.707c0.166,3.896-1.022,7.73-3.585,11.213l-1.643,2.335l1.529,1.479
		c4.608,4.457,7.021,6.407,10.131,8.188c3.445,1.973,3.561,2.725,0.705,4.568l-1.396,0.901l1.273,1.2
		c1.42,1.337,2.554,3.075,3.435,5.26c1.038,2.574,1.029,3.769-0.035,4.799c-0.819,0.794-0.778,1.108,0.795,6.239
		c3.076,10.033,2.97,11.35-0.962,11.87c-1.957,0.259-1.94,0.229-2.771,4.898c-1.515,8.492-6.624,15.736-12.3,17.444
		c-1.951,0.586-2.993,1.206-5.758,3.42c-6.486,5.194-11.842,7.136-14.925,5.412c-1.213-0.679-1.25-0.688-1.25-0.317
		c0,1.27,3.623,3.106,9.455,4.794c1.405,0.407,1.888,0.819,2.035,1.736c0.167,1.041,0.613,1.429,3.096,2.689
		c8.417,4.269,13.59,8.984,14.887,13.568c0.783,2.766,6.241,8.026,10.905,10.506c1.923,1.022,2.016,1.147,2.036,2.716
		c0.011,0.832,0.098,1.386,0.245,1.574c0.125,0.16,0.75,0.916,1.388,1.68c2.194,2.635,3.144,4.448,4.12,7.871
		c0.81,2.839,1.128,3.36,3.023,4.956c2.455,2.068,2.881,2.941,2.157,4.422c-0.545,1.113-0.506,1.254,1.552,5.707
		c2.485,5.375,2.782,6.325,3.5,11.222c0.541,3.675,0.574,3.761,2.501,6.456c0.887,1.241,2.12,2.991,2.738,3.89
		c1.988,2.887,4.48,6.087,5.351,6.868c1.549,1.392,6.594,3.559,10.088,4.331c2.041,0.452,2.362,1.026,1.25,2.247
		c-0.456,0.5-0.323,0.689,1.376,1.96c2.075,1.552,2.898,2.425,3.179,3.371c0.453,1.527,0.157,5.035-0.595,7.046
		c-1.204,3.219-7.407,5.779-11.255,4.646c-2.406-0.709-2.491-0.666-1.542,0.763c2.143,3.229,2.255,7.304,0.308,11.247
		c-1.638,3.319-3.722,4.575-7.59,4.575c-2.71-0.001-3.708-0.315-6.175-1.947c-0.656-0.434-1.23-0.75-1.278-0.702
		c-0.046,0.047,0.004,1.252,0.112,2.678c0.267,3.503,0.121,4.043-1.536,5.699c-1.271,1.27-2.276,1.865-3.824,2.267
		c-0.549,0.142-1.5,0.485-2.112,0.762c-2.604,1.177-7.366,0.172-9.554-2.016c-1.869-1.87-2.525-4.504-2.834-11.397
		c-0.439-9.786-0.657-10.908-2.429-12.542c-1.485-1.369-2.668-1.136-6.584,1.297c-4.16,2.585-7.617,3.418-10.678,2.576
		c-5.082-1.399-6.672-4.702-5.16-10.709c0.319-1.264,0.628-2.733,0.687-3.264c0.173-1.546,0.418-1.991,1.155-2.099
		c2.208-0.321,5.732-2.213,7.635-4.101c1.439-1.427,2.377-2.783,4.507-6.511c0.918-1.606,2.174-3.714,2.792-4.684
		c1.736-2.725,1.702-2.59,1.702-6.784v-3.606l-0.596-0.968c-0.784-1.274-0.962-1.909-2.099-7.503
		c-1.199-5.885-2.21-9.394-2.71-9.394c-0.062,0-0.434,0.295-0.826,0.657c-1.686,1.554-1.934,1.36-3.385-2.643
		c-1.24-3.415-2.19-5.546-3.124-7c-1.044-1.625-1.036-1.623-2.137-0.66c-1.546,1.354-1.955,1.052-4.634-3.434
		c-4.386-7.342-8.778-13.28-10.184-13.769c-0.491-0.171-0.333,0.134,1.441,2.77c3.311,4.919,3.505,5.969,1.342,7.235
		c-1.64,0.96-1.588,0.757-0.651,2.582c2.353,4.581,4.982,12.701,4.695,14.5c-0.056,0.355-0.32,1.026-0.586,1.49
		c-0.274,0.48-0.482,1.083-0.482,1.4c0,1.38,1.513,6.576,3.062,10.514c1.34,3.406,1.396,4.067,0.377,4.49
		c-0.802,0.333-0.836,0.53-0.991,5.853c-0.304,10.488-2.351,15.547-6.294,15.553h-0.66l-0.216,0.977
		c-0.509,2.293-3.325,7.096-6.04,10.297c-0.723,0.854-1.521,1.92-1.771,2.369l-0.456,0.817l0.011,4.002
		c0.013,4.666,0.286,6.661,1.407,10.309c1.651,5.374,1.494,6.044-1.566,6.679c-1.107,0.23-1.104-0.052-0.029,3.522
		c1.767,5.874,2.122,8.333,2.13,14.78c0.01,5.608-0.062,6.063-1.166,7.478c-1.124,1.438-1.238,1.719-1.027,2.533
		c0.443,1.719,1.592,4.223,3.502,7.636c1.528,2.729,1.962,3.86,1.66,4.321c-0.444,0.679-1.826,1.284-2.934,1.286l-0.953,0.001
		l0.075,0.667c0.041,0.366,0.232,1.659,0.423,2.873c0.628,3.961,0.635,11.054,0.012,13.278c-0.225,0.807-1.076,1.64-1.875,1.839
		c-1.111,0.277-1.133,2.426-0.088,8.83c0.82,5.023,0.793,5.765-0.197,5.801c-1.808,0.065-1.667,0.006-1.709,0.722
		c-0.071,1.182,0.59,2.728,1.319,3.083c0.617,0.301,0.667,0.3,3.186-0.061c4.389-0.631,4.916-0.528,4.663,0.898
		c-0.228,1.282-0.214,1.313,0.51,1.261c9.761-0.683,14.176-0.022,19.049,2.856c2.556,1.509,2.722,1.558,7.255,2.091
		c8.23,0.97,10.713,3.507,11.352,11.601c0.188,2.389,0.228,2.615,0.821,4.729c0.585,2.086,0.438,3.593-0.543,5.526
		c-0.42,0.829-0.903,2.027-1.072,2.662c-1.057,3.963-3.6,5.625-8.603,5.625c-2.209,0-2.62,0.104-5.875,1.479l-1.632,0.691
		l-3.022,0.118c-3.272,0.126-3.171,0.104-6.129,1.394C261.081,390.098,259.421,390.32,255.171,389.933z M208.818,358.836
		c-0.168-0.337-0.393-0.969-0.5-1.405c-0.221-0.902-1.065-2.644-1.996-4.118c-0.986-1.561-1.211-2.327-0.832-2.844
		c0.741-1.011,0.532-2.107-1.027-5.397c-1.37-2.887-1.752-3.974-2.214-6.285c-0.18-0.901-0.546-2.462-0.814-3.469
		c-0.651-2.447-0.645-2.515,0.331-3.546c1.071-1.132,1.067-1.428-0.071-5.5c-1.11-3.971-1.515-5.745-2.459-10.772
		c-0.954-5.083-1.442-7.266-2.141-9.569c-0.713-2.356-0.711-2.698,0.021-3.554c2.06-2.405,2.074-7.579,0.043-15.265
		c-0.552-2.089-0.954-3.848-0.894-3.908c0.06-0.061,0.458,0.046,0.885,0.236c2.155,0.961,2.193,0.875,2.347-5.111
		c0.192-7.456,1.549-15.533,2.811-16.719c0.713-0.669,3.358-0.864,7.288-0.536l1.214,0.101l0.209,0.898
		c1.067,4.587,1.417,7.378,1.781,14.201c0.4,7.525,0.754,8.309,3.242,7.192c1.058-0.475,1.157-0.269,0.925,1.912
		c-0.224,2.108-0.672,4.694-1.244,7.167c-1.17,5.067-1.271,5.681-1.284,7.761c-0.016,2.533,0.257,3.259,1.309,3.487
		c1.401,0.303,1.408,0.341,0.657,3.58c-2.107,9.097-2.221,14.306-0.357,16.299c1.198,1.28,0.929,2.41-1.878,7.908
		c-3.037,5.947-3.154,6.876-0.992,7.91c1.199,0.574,1.223,0.814,0.294,3.075c-1.85,4.505-2.286,6.213-2.641,10.35
		c-0.295,3.428-0.557,4.896-1.051,5.864C209.357,359.607,209.207,359.615,208.818,358.836z"/>
</g>
<g id="Clipboard_Trace__x28_1_x29_">
	<path id="Trace_Shape_3" fill="#FD1813" stroke="#7E0C09" stroke-linejoin="round" d="M222.892,386.824
		c-6.792-1.7-11.012-3.927-11.026-5.821c-0.002-0.45-0.32-0.817-0.706-0.817c-0.47,0-0.548-1.22-0.236-3.718
		c0.256-2.044,0.497-6.235,0.537-9.313c0.064-4.957,0.315-6.062,2.197-9.699c2.459-4.75,2.451-4.719,1.085-4.719
		c-1.459,0-0.675-4.312,1.769-9.73c2.031-4.501,2.61-7.947,0.974-5.792c-0.781,1.028-3.012,1.633-3.012,0.815
		c0-0.18,0.853-2.019,1.896-4.084c3.342-6.618,4.458-10.587,3.602-12.818c-0.595-1.551-1.571-1.309-1.618,0.402
		c-0.041,1.412-0.063,1.417-0.579,0.145c-0.669-1.65,0.638-10.183,2.5-16.318c0.763-2.515,1.387-4.941,1.387-5.392
		c0-1.327-1.835-0.936-2.287,0.488c-0.228,0.719-0.851,1.307-1.381,1.307c-1.089,0-0.787-2.847,0.8-7.515
		c0.489-1.438,0.894-4.982,0.898-7.875c0.01-5.825-0.763-7.517-2.652-5.807c-1.038,0.94-1.13,0.42-1.41-8.014
		c-0.166-4.961-0.502-9.479-0.751-10.04c-0.353-0.798,0.266-1.215,2.839-1.916c6.109-1.663,3.95-2.291-7.983-2.322
		c-8.469-0.022-12.168-0.294-14.868-1.098c-2.389-0.71-3.813-0.85-4.248-0.418c-0.916,0.913,1.018,2.208,5.301,3.556
		c3.792,1.192,4.003,1.6,2.847,5.507c-0.371,1.256-0.696,5.292-0.723,8.968c-0.043,6.177-0.134,6.638-1.199,6.068
		c-0.634-0.338-1.338-0.43-1.565-0.204c-0.781,0.781-0.41,4.875,0.936,10.342c0.742,3.013,1.256,6.59,1.144,7.95l-0.205,2.473
		l-1.5-1.617c-1.989-2.145-2.919-0.806-1.751,2.521c0.459,1.309,1.179,3.703,1.597,5.32c0.418,1.618,1.036,3.844,1.371,4.948
		c0.336,1.104,0.609,2.678,0.609,3.5c0,2.051,1.849,9.06,3.081,11.672c1.185,2.516,0.701,3.422-1.003,1.879
		c-0.66-0.597-1.397-1.085-1.639-1.085c-0.753,0-0.479,2.262,0.438,3.612c0.482,0.708,1.216,3.026,1.632,5.147
		c0.417,2.123,1.493,5.467,2.392,7.432c1.89,4.127,1.928,4.32,0.778,3.879c-1.223-0.47-0.625,3.017,0.78,4.548
		c2.693,2.936,4.163,8.157,4.476,15.899l0.305,7.516l-2.029,2.777c-1.115,1.527-2.468,2.778-3.004,2.778
		c-0.537,0-0.977,0.293-0.977,0.653c0,0.397-2.888,0.653-7.356,0.653c-4.046,0-8.385,0.303-9.64,0.673
		c-3.437,1.014-16.029,2.594-20.672,2.594c-10.624,0-17.433-3.716-17.212-9.394c0.147-3.786,0.083-4.038-0.801-3.154
		c-1.362,1.361-1.83,0.867-1.83-1.931c0-1.938,0.507-3.388,1.77-5.065c0.975-1.292,2.003-2.446,2.289-2.566
		c1.023-0.431,0.49-2.069-0.673-2.069c-1.288,0-4.754,3.911-5.444,6.141c-0.896,2.899-0.586,6.181,0.668,7.058
		c0.708,0.497,1.364,1.955,1.56,3.468c0.184,1.437,0.551,3.273,0.813,4.083c0.452,1.396,0.306,1.47-2.867,1.47
		c-1.839,0-3.344-0.247-3.344-0.548c0-0.302-0.735-0.884-1.634-1.293c-0.898-0.409-1.633-1.191-1.633-1.738
		s-0.295-0.994-0.655-0.994c-0.823,0-0.853-5.521-0.045-8.336c0.468-1.629,0.407-2.12-0.257-2.12c-0.476,0-1.041,0.459-1.257,1.021
		c-0.587,1.532-1.824,0.396-1.349-1.239c0.781-2.688,1.922-5.01,2.461-5.01c0.748,0,2.407-1.728,2.407-2.506
		c0-1.264-2.982,0.161-5.064,2.418c-1.654,1.794-2.124,2.879-2.124,4.902c0,1.429,0.407,3.062,0.903,3.63
		c0.975,1.114,1.826,8.548,0.979,8.548c-1.476,0-4.053-1.778-4.872-3.363c-1.206-2.333-1.195-7.957,0.021-10.309
		c0.524-1.012,2.3-3.42,3.947-5.35c3.125-3.661,3.021-4.639-0.317-2.973c-1.083,0.54-1.969,0.762-1.969,0.495
		c0-1.454,11.551-5.823,16.826-6.363c2.249-0.23,4.087-0.671,4.087-0.982c0-0.31-0.571-0.562-1.269-0.562
		c-0.697,0-1.436-0.272-1.642-0.605c-0.609-0.985,6.586-1.569,13.86-1.124c6.877,0.421,8.13-0.094,3.747-1.541
		c-1.253-0.414-2.279-1.057-2.279-1.431c0-0.374,0.515-0.519,1.145-0.32c8.15,2.559,12.58,3.085,12.58,1.497
		c0-0.5-0.388-1.059-0.863-1.242c-0.821-0.314-1.059-2.284-1.33-11.026c-0.118-3.809-0.663-4.397-2.074-2.241
		c-1.467,2.239-2.312,1.582-1.544-1.2c0.679-2.459,0.515-23.511-0.171-21.938c-0.235,0.539-0.644,1.568-0.909,2.287
		c-0.422,1.143-0.567,1.031-1.158-0.888c-0.643-2.086-0.269-5.124,1.198-9.731c0.432-1.358,0.313-1.438-1.568-1.062l-2.037,0.408
		l1.705-3.05c1.41-2.524,1.816-4.407,2.353-10.909c0.356-4.322,0.473-8.032,0.26-8.246c-0.214-0.213-0.979,0.146-1.7,0.798
		c-1.271,1.148-1.311,1.146-1.311-0.084c0-2.75,2.143-9.261,4.341-13.192c2.434-4.351,2.507-5.255,0.333-4.091
		c-3.053,1.634-4.457,0.198-2.223-2.275c1.612-1.785,2.686-4.112,3.3-7.148c0.444-2.195,0.759-2.581,1.964-2.41
		c1.648,0.236,2.021-1.473,0.454-2.074c-0.539-0.207-0.98-0.692-0.98-1.077c0-0.384-0.581-1.497-1.291-2.471
		c-0.709-0.974-1.695-3.373-2.19-5.333c-0.882-3.497-2.4-5.274-2.4-2.81c0,0.689-0.176,1.428-0.39,1.644
		c-0.646,0.646-2.224-0.245-2.224-1.255c0-0.519-0.466-1.846-1.037-2.948c-0.709-1.371-1.032-3.732-1.022-7.47
		c0.008-3.005-0.247-5.627-0.568-5.827c-0.322-0.197-1.07,0.383-1.665,1.29c-1.725,2.633-2.239,1.299-0.904-2.352
		c1.425-3.897,1.9-14.576,0.702-15.773c-0.544-0.545-0.735-0.371-0.735,0.671c0,1.722-1.315,4.736-2.065,4.736
		c-1.515,0,1.19-13.595,3.081-15.486c0.52-0.52,0.945-1.265,0.945-1.655c0-0.389,0.736-1.671,1.635-2.85
		c0.898-1.178,1.633-2.424,1.633-2.769c0-0.346,0.4-0.782,0.89-0.97c0.489-0.188,1.05-0.954,1.246-1.703
		c0.265-1.013,0.05-1.363-0.835-1.363c-0.656,0-1.323,0.368-1.482,0.817c-0.162,0.449-0.49,0.634-0.731,0.413
		c-0.537-0.494,3.577-7.511,5.635-9.611c0.818-0.835,3.073-2.967,5.011-4.738l3.523-3.219h-2.924c-3.951,0-4.264-0.585-1.141-2.131
		c1.581-0.782,3.829-2.886,5.666-5.301c1.676-2.203,3.724-4.653,4.552-5.444c2.081-1.989,2.013-3.615-0.128-3.077
		c-1.007,0.253-1.635,0.132-1.635-0.314c0-0.397,0.271-0.725,0.603-0.725c1.065,0,5.933-5.24,5.942-6.397
		c0.005-0.615,0.186-1.78,0.403-2.588c0.538-2.007-1.467-2.007-2.082,0c-0.903,2.947-1.461,3.106-5.043,1.448
		c-1.854-0.859-5.365-1.756-7.818-1.998c-4.274-0.422-4.384-0.475-2.729-1.334c0.948-0.491,2.155-0.894,2.685-0.894
		c2.055,0,0.276-1.654-2.143-1.992c-3.156-0.441-11.514-3.636-14.802-5.659c-1.341-0.824-2.692-1.499-3.002-1.499
		c-0.312,0-1.093-0.583-1.738-1.295c-0.938-1.037-1.013-1.485-0.376-2.253c0.469-0.565,0.574-1.334,0.254-1.876
		c-1.06-1.796-4.062-5.033-4.668-5.033c-0.339,0-0.959-0.414-1.378-0.92c-0.421-0.506-1.707-1.41-2.858-2.009
		c-1.152-0.598-2.83-1.502-3.728-2.011c-1.632-0.922-1.63-0.923,0.817-0.932c2.879-0.012,3.105-0.871,0.746-2.837
		c-5.364-4.47-7.177-6.308-10.078-10.207c-2.022-2.721-4.422-5.038-6.484-6.262c-1.801-1.069-3.28-2.145-3.287-2.391
		c-0.008-0.245,0.773-0.539,1.733-0.653c2.197-0.26,2.594-1.374,1.046-2.926c-0.66-0.661-1.63-2.084-2.158-3.163
		c-0.527-1.079-1.138-2.108-1.355-2.288c-0.218-0.179-0.593-1.395-0.833-2.701c-0.339-1.843-0.204-2.464,0.6-2.773
		c1.856-0.712,0.311-1.686-2.505-1.579c-1.89,0.072-4.148-0.548-7.226-1.984c-2.462-1.15-6.359-2.447-8.66-2.884
		c-4.31-0.817-5.147-1.398-2.875-1.992c3.672-0.96-1.066-3.076-6.908-3.084c-7.193-0.01-10.558-0.698-12.679-2.592
		c-3.537-3.158-2.348-8.063,2.393-9.865c1.628-0.619,1.65-0.688,0.471-1.549c-1.146-0.838-1.066-0.932,1.137-1.345
		c2.893-0.542,9.759-0.1,13.281,0.856c1.428,0.388,2.72,0.582,2.871,0.43c0.804-0.804-4.91-5.031-11.004-8.14
		c-1.472-0.751-2.502-1.649-2.288-1.995c0.214-0.346-0.533-1.472-1.661-2.502c-1.421-1.297-2.158-2.67-2.399-4.469
		c-0.302-2.249-0.066-2.917,1.752-4.989c1.833-2.087,2.475-2.392,5.037-2.392c2.664,0,6.732,1.552,7.276,2.777
		c0.43,0.965,2.028,0.491,1.652-0.49c-1.239-3.23,5.071,2.54,8.447,7.724c1.749,2.685,2.161,2.999,2.8,2.124
		c0.414-0.563,1.232-1.025,1.822-1.025c1.332,0,1.382-1.19,0.108-2.559c-1.591-1.71-4.578-5.469-6.196-7.801
		c-1.131-1.629-1.315-2.319-0.718-2.688c0.612-0.377,0.477-1.213-0.56-3.491c-1.746-3.831-1.717-5.559,0.131-7.868
		c1.134-1.417,2.209-1.943,4.504-2.202c2.719-0.307,3.244-0.131,5.358,1.792c1.431,1.302,2.503,2.988,2.755,4.333
		c0.5,2.664,1.527,3.477,2.019,1.598c0.735-2.81,1.653-1.588,2.532,3.365c0.238,1.348,0.696,2.451,1.015,2.451s0.58,0.53,0.58,1.179
		c0,0.649,0.883,2.57,1.962,4.271c1.996,3.149,2.481,5.007,1.307,5.007c-0.833,0-0.86,3.063-0.034,3.574
		c0.342,0.211,0.972-0.286,1.4-1.105c0.427-0.818,1.582-2.224,2.565-3.122c0.983-0.899,2.184-2.664,2.669-3.921
		c1.117-2.898,2.941-5.003,5.398-6.228c2.365-1.18,2.378-1.18,2.378-0.015c0,0.772,0.369,0.818,2.007,0.247
		c2.484-0.866,7.75-0.337,8.558,0.859c1.479,2.19-1.45,9.711-3.781,9.711c-0.842,0-1.927,2.459-1.344,3.042
		c0.182,0.182,0.943,0.003,1.693-0.398c0.906-0.485,1.363-0.502,1.363-0.053c0,0.372-0.224,0.677-0.496,0.677
		c-0.95,0-2.274,2.865-3.753,8.115c-1.916,6.804-3.147,9.597-6.215,14.117c-1.521,2.237-2.301,4-1.995,4.496
		c0.39,0.63,0.747,0.575,1.562-0.24c0.972-0.972,1.086-0.911,1.445,0.769c0.874,4.107,3.229,11.03,4.025,11.837
		c0.469,0.476,0.852,1.599,0.852,2.498s0.408,2.042,0.906,2.538c0.77,0.77,0.969,0.594,1.337-1.19
		c0.414-1.999,0.477-2.037,1.383-0.827c0.522,0.698,0.95,1.691,0.95,2.207c0,1.336,3.735,8.512,5.843,11.224
		c0.98,1.261,1.968,2.807,2.197,3.436c0.653,1.802,1.66,1.337,1.885-0.871c0.191-1.879,0.458-1.597,3.976,4.18
		c2.074,3.407,4.953,7.474,6.399,9.04c2.296,2.486,2.709,2.705,3.269,1.735c0.568-0.986,0.942-0.84,3.339,1.307
		c1.486,1.33,3.195,2.858,3.8,3.397c1.798,1.604,3.826,2.614,5.244,2.614c0.763,0,1.595,0.628,1.947,1.471
		c0.86,2.057,2.301,3.757,3.182,3.757c0.41,0,0.746,0.294,0.746,0.654s0.781,0.653,1.736,0.653c1.151,0,2.568,0.85,4.214,2.53
		c2.409,2.457,4.863,3.706,5.442,2.769c0.158-0.253-1.458-2.358-3.589-4.676c-2.13-2.319-3.876-4.437-3.878-4.707
		c-0.003-0.27-0.446-0.49-0.985-0.49c-0.54,0-0.981,0.294-0.981,0.654c0,1.15-1.617,0.7-2.487-0.694
		c-1.36-2.176-3.377-9.236-3.386-11.848c-0.011-3.258-0.871-3.568-2.194-0.792c-0.602,1.262-1.347,2.138-1.655,1.947
		s-0.757-1.824-0.997-3.629c-0.24-1.806-0.653-3.283-0.918-3.283c-0.913,0-2.087-6.908-2.087-12.272
		c0-3.146-0.271-5.373-0.654-5.373c-0.359,0-0.653,0.441-0.653,0.98s-0.382,0.98-0.849,0.98c-1.239,0-0.587-4.484,0.973-6.694
		c1.474-2.088,1.099-3.108-1.143-3.108c-2.06,0-2.056-1.164,0.007-1.949c0.882-0.334,2.104-1.578,2.715-2.761
		c1.368-2.646,3.68-5.998,4.341-6.291c0.269-0.12,0.49-0.647,0.49-1.173c0-0.732-0.518-0.858-2.212-0.541
		c-3.309,0.621-3.338-0.545-0.092-3.538c2.054-1.893,4.067-3.002,6.854-3.777c2.17-0.604,3.946-1.297,3.946-1.542
		c0-0.245-0.615-1.002-1.367-1.683c-3.029-2.741-2.755-3.208,1.926-3.273c2.707-0.038,5.081-0.468,6.303-1.14
		c1.078-0.593,2.318-1.081,2.755-1.083c0.436-0.002,2.053-0.413,3.593-0.912c5.935-1.922,5.838-2.251,6.991-0.023
		c1.296,2.508,5.017,6.172,7.584,7.5l2,1l-1.638,3.065c-4.237,7.862-3.581,16.737,0.099,22.167c0.383,0.632,0.945,1.507,1.552,2.189
		c0.395,0.704,2.138,2.162,3.874,3.24c3.238,1.546,3.613,1.796,9.113,2.109c5.406-0.312,5.656-0.531,8.769-2.013
		c4.181-2.711,7.2-5.956,8.7-9.112c0.677-1.179,0.938-2.438,1.256-3.368c0.307-1.069,0.574-2.288,0.574-4.326v-3.705l4.739-0.31
		c3.104-0.202,5.713-0.809,7.564-1.757c1.554-0.796,3.085-1.358,3.4-1.248c0.314,0.111,2.13,1.688,4.035,3.503
		c4.201,4.006,7.232,6.174,8.628,6.174c1.957,0,1.048,1.161-1.245,1.591c-1.258,0.236-2.288,0.702-2.288,1.036
		s1.291,1.898,2.869,3.475c2.869,2.87,4.206,5.373,3.31,6.202c-0.262,0.242-0.607,0.073-0.769-0.376
		c-0.277-0.777-2.796-1.199-2.796-0.469c0,0.191,0.461,1.44,1.025,2.777c0.564,1.336,1.908,5.076,2.984,8.312
		c1.078,3.235,2.111,6.25,2.297,6.698c0.6,1.451-2.259,0.892-3.347-0.653c-1.433-2.034-2.028-0.865-2.521,4.956
		c-0.48,5.683-2.347,11.349-4.814,14.624c-3.646,4.839-5.429,5.974-5.429,3.457c0-1.926-1.011-1.603-3.415,1.09
		c-3.24,3.63-4.768,4.894-9.147,7.569c-3.876,2.366-6.391,3.096-6.391,1.852c0-0.33,0.255-0.697,0.568-0.817
		c0.311-0.12,0.772-0.88,1.023-1.688c0.512-1.647-0.466-1.977-1.942-0.653c-0.5,0.449-1.288,1.114-1.75,1.477
		c-0.967,0.76-6.745,3.598-8.682,4.264c-4.308,1.482-6.202,1.938-8.053,1.938c-3.136,0-2.493,1.293,0.7,1.406
		c4.083,0.145,6.534-0.077,8.006-0.724c3.906-1.716,5.812-2.021,6.372-1.021c0.85,1.519,3.714,2.749,7.633,3.28
		c3.101,0.42,3.381,0.574,2.22,1.22c-1.475,0.821-1.318,2.373,0.239,2.373c1.356,0,8.57,3.866,10.973,5.88
		c2.662,2.234,6.189,5.967,6.947,7.354c0.512,0.937,0.354,1.147-0.868,1.165c-1.438,0.02-1.421,0.083,0.467,1.707
		c1.078,0.927,3.696,3.271,5.819,5.208c2.123,1.936,4.353,3.521,4.957,3.521c1.664,0,2.073,0.759,0.88,1.632
		c-0.937,0.685-0.522,1.319,3.36,5.145c4.062,4.003,4.4,4.542,4.078,6.526c-0.36,2.211,0.138,2.856,5.085,6.584
		c1.271,0.958,1.259,0.985-0.452,1.006c-2.5,0.03-2.928,1.242-1.01,2.871c3.437,2.92,7.555,13.405,6.662,16.963
		c-0.26,1.035,0.276,2.339,1.807,4.391c1.197,1.605,2.858,4.278,3.69,5.94c2.901,5.793,7.843,9.595,13.928,10.714
		c1.62,0.298,2.297,0.726,2.072,1.31c-0.184,0.48,0.488,1.4,1.505,2.061c3.106,2.016,4.146,3.395,4.146,5.502
		c0,4.428-3.215,7.126-8.493,7.126c-4.012,0-7.26-2.197-10.257-6.938c-0.7-1.106-0.782-1.022-0.817,0.829
		c-0.027,1.45,0.806,3.189,2.817,5.881c5.479,7.337,6.137,10.661,2.572,12.996c-1.31,0.858-1.481,1.222-0.78,1.655
		c1.271,0.786,0.035,1.836-2.369,2.013c-4.306,0.314-5.917-0.138-8.413-2.359c-2.416-2.15-2.575-2.536-3.232-7.842
		c-0.38-3.069-0.923-5.581-1.206-5.581c-1.748,0-1.281,8.213,0.827,14.52c1.652,4.943,1.593,5.596-0.705,7.792
		c-1.451,1.386-2.598,1.868-4.444,1.868c-1.369,0-2.77,0.263-3.11,0.585c-1.184,1.116-3.609-0.549-4.881-3.352
		c-0.961-2.119-1.27-4.281-1.284-8.997c-0.01-3.415-0.328-7.327-0.707-8.692c-0.616-2.214-3.988-6.339-5.186-6.339
		c-1.184,0-4.575,1.5-4.575,2.024c0,0.324-0.385,0.59-0.857,0.59s-2.075,0.588-3.563,1.307c-3.531,1.706-6.425,1.654-9.095-0.163
		c-1.797-1.223-2.162-1.883-2.165-3.921c-0.003-1.348,0.289-2.451,0.648-2.451c0.36,0,0.654-0.468,0.654-1.042
		s0.597-1.198,1.326-1.388c0.877-0.229,1.208-0.716,0.977-1.441c-0.25-0.789,0.246-1.309,1.78-1.865
		c4.398-1.594,7.699-5.291,12.127-13.582c0.469-0.877,1.131-1.596,1.471-1.596c0.339,0,0.618-0.329,0.618-0.73
		c0-0.403,0.956-1.573,2.124-2.604l2.124-1.873l-1.798-0.01c-1.954-0.012-1.857,0.396-2.068-8.624
		c-0.083-3.548-0.791-4.61-1.984-2.978c-0.726,0.993-0.93,0.455-1.489-3.922c-0.356-2.79-1.242-6.396-1.968-8.014
		c-0.727-1.618-1.523-3.603-1.769-4.412c-0.691-2.263-1.533-1.753-2.159,1.307l-0.568,2.778l-0.866-3.595
		c-1.004-4.177-1.96-6.167-4.158-8.66c-1.837-2.083-2.904-2.251-4.118-0.653c-0.807,1.065-0.869,1.048-0.888-0.246
		c-0.012-0.765-0.461-1.757-1.001-2.205c-0.539-0.448-0.98-1.105-0.98-1.462c0-1.171-4.761-7.284-8.628-11.078
		c-2.616-2.568-3.789-4.224-3.789-5.353c0-2.257-1.076-2.724-1.586-0.689c-0.753,3.001,1.439,10.74,3.042,10.74
		c0.277,0,0.504,0.427,0.504,0.947c0,0.521,0.39,1.184,0.867,1.471c0.477,0.288,1.055,1.038,1.287,1.667
		c0.307,0.837,0.085,1.144-0.828,1.144c-0.687,0-1.429-0.293-1.652-0.653c-0.646-1.045-1.634-0.756-1.634,0.48
		c0,0.623,0.913,3.049,2.03,5.391c2.387,5.011,2.854,6.129,3.799,9.095c0.96,3.016,0.908,3.263-0.601,2.869
		c-1.57-0.41-1.65,0.412-0.392,4.037c0.503,1.45,1.432,4.474,2.065,6.72c0.63,2.247,1.396,4.085,1.698,4.085s0.55,0.294,0.55,0.653
		c0,0.36-0.62,0.653-1.377,0.653c-1.204,0-1.307,0.228-0.818,1.797c0.812,2.603,0.591,13.739-0.339,17.012
		c-0.879,3.097-2.041,3.125-2.041,0.051c0-2.81-1.273-2.053-2.397,1.425c-1.648,5.101-3.601,9.365-5.366,11.712
		c-2.286,3.044-7.306,7.76-8.774,8.243c-0.648,0.215-1.053,0.732-0.898,1.151c0.294,0.8,0.385,0.802,3.234,0.087
		c1.752-0.44,1.785-0.391,1.785,2.575c0,1.664,0.6,5.262,1.332,7.997c0.733,2.736,1.161,5.145,0.951,5.355
		c-0.211,0.21-0.992,0.001-1.737-0.464c-2.466-1.54-2.672,0.052-0.849,6.52c2.782,9.868,3.845,23.052,1.574,19.518
		c-1.066-1.659-2.013,0.631-1.573,3.801c0.5,3.598,1.658,6.319,4.152,9.75c1.119,1.54,1.718,2.922,1.361,3.143
		c-0.87,0.539-1.944-0.211-1.944-1.356c0-0.517-0.482-0.941-1.071-0.941c-0.91,0-1.008,0.518-0.655,3.431
		c0.905,7.457,1.116,13.982,0.513,15.848l-0.635,1.961l-0.066-1.961c-0.089-2.629-1.13-4.267-1.928-3.03
		c-0.675,1.046-0.237,13.354,0.565,15.876c0.454,1.426,0.329,1.794-0.7,2.062c-1.027,0.269-1.252,0.927-1.252,3.656
		c0,2.727-0.207,3.333-1.144,3.35c-0.939,0.019-0.854,0.263,0.483,1.375c1.339,1.114,2.288,1.305,5.391,1.08
		c2.692-0.196,3.766-0.043,3.766,0.531c0,0.443-0.368,0.936-0.816,1.097c-0.45,0.16-0.593,0.532-0.318,0.826
		c0.274,0.294,2.366,0.164,4.649-0.291c4.169-0.828,7.98-0.625,13.477,0.717c3.562,0.87,4.606,1.659,3.281,2.478
		c-1.728,1.069-0.106,1.52,4.939,1.372c6.625-0.193,10.631,1.215,12.203,4.293c1.304,2.554,1.451,3.935,0.454,4.267
		c-0.429,0.143-0.187,1.338,0.64,3.159c1.565,3.451,1.68,4.563,0.472,4.563c-0.667,0-0.807,0.802-0.57,3.268
		c0.198,2.063,0.058,3.268-0.379,3.268c-0.381,0-0.876,0.578-1.101,1.284c-0.258,0.819-1.234,1.44-2.688,1.713
		c-2.756,0.517-3.314,0.085-2.401-1.854c0.909-1.931,2.142-7.915,2.142-10.392c0-2.481-4.035-6.929-4.448-4.905
		c-0.135,0.662,0.37,1.776,1.12,2.477c0.752,0.7,1.344,1.923,1.316,2.718c-0.029,0.794-0.2,1.077-0.381,0.627
		c-0.803-1.989-1.397-0.488-1.303,3.289c0.086,3.49-0.143,4.41-1.533,6.138c-0.898,1.117-2.599,2.505-3.779,3.083
		c-2.476,1.212-5.015,1.407-4.352,0.336c0.713-1.153,0.436-5.835-0.405-6.849c-1.304-1.571-1.811-1.048-1.473,1.518
		c0.272,2.063-0.006,2.833-1.751,4.869c-1.141,1.328-3.378,2.915-4.972,3.523c-2.566,0.98-3.549,1.014-8.604,0.295
		c-4.318-0.614-6.952-0.637-10.819-0.094C234.885,389.014,230.66,388.767,222.892,386.824z M229.074,384.234
		c-0.169-0.647-1.43-1.872-2.801-2.719s-2.987-2.375-3.588-3.396c-1.208-2.043-2.33-2.434-2.33-0.812
		c0,1.927,2.176,4.75,4.529,5.875c1.284,0.614,2.775,1.35,3.313,1.635c0.54,0.285,1.026,0.537,1.083,0.558
		C229.337,385.396,229.243,384.884,229.074,384.234z M237.184,384.348c2.323-0.623,1.734-1.354-1.765-2.193
		c-1.779-0.428-3.58-1.192-4.001-1.7c-0.862-1.04-2.309-1.215-2.846-0.346c-0.195,0.317,0.234,1.328,0.957,2.246
		c1.137,1.446,2.048,1.825,5.532,2.299C235.42,384.703,236.375,384.565,237.184,384.348z M163.772,383.057
		c1.582-0.606,1.244-1.318-1.081-2.282c-2.207-0.914-5.018-3.65-5.054-4.92c-0.036-1.306-1.953-2.494-2.745-1.702
		c-1.694,1.694,1.452,6.504,5.364,8.209c1.244,0.542,2.311,1.009,2.371,1.039C162.689,383.43,163.203,383.275,163.772,383.057z
		 M174.512,381.429c2.147-0.749,2.988-2.892,0.914-2.328c-3.716,1.006-4.721,0.975-7.223-0.234
		c-3.123-1.509-4.051-1.614-4.051-0.459c0,0.886,1.824,2.675,3.339,3.276C169.045,382.299,172.36,382.179,174.512,381.429z
		 M271.543,374.04c0.895-2.332-1.922-6.924-4.248-6.924c-1.457,0-1.531,0.875-0.189,2.217c0.552,0.552,1.439,2.044,1.97,3.314
		C270.093,375.081,270.957,375.568,271.543,374.04z M184.412,234.573c0-0.292-0.594-1.169-1.321-1.949
		c-1.007-1.082-2.6-6.222-2.6-8.393c0-0.131-0.262-0.238-0.582-0.238c-1.929,0-1.18,6.844,1.056,9.642
		C182.081,235.032,184.412,235.665,184.412,234.573z M174.934,227.423c0.971-2.391,1.502-4.652,1.171-4.984
		c-0.452-0.45-2.15,1.257-2.15,2.161c0,0.385-0.428,0.7-0.951,0.7c-1.621,0-1.975-4.362-0.737-9.108
		c1.407-5.4,1.522-6.489,0.708-6.657c-0.36-0.075-1.209,1.31-1.888,3.078c-1.528,3.978-1.776,11.732-0.453,14.215
		C171.706,228.837,174.217,229.186,174.934,227.423z M213.167,169.141c0-1.872-6.594-4.585-8.948-3.682
		c-0.978,0.375-1.005,0.528-0.183,1.048c0.529,0.334,1.591,0.613,2.36,0.618c0.769,0.006,2.092,0.588,2.94,1.295
		C210.953,169.768,213.167,170.184,213.167,169.141z M222.178,168.279c-0.397-1.314-6.368-4.048-7.145-3.271
		c-0.45,0.45-0.016,0.951,1.349,1.556c1.107,0.49,2.013,1.091,2.013,1.337c0,0.444,1.5,0.975,3.159,1.12
		C222.032,169.062,222.313,168.729,222.178,168.279z M232.754,138.406c1.363-0.862,0.252-1.142-6.277-1.578
		c-6.08-0.406-10.073-1.747-15.447-5.184c-4.052-2.593-5.052-2.901-5.052-1.555c0,1.92,6.052,6.316,10.457,7.596
		c1.618,0.47,3.236,0.942,3.594,1.051C221.64,139.218,231.89,138.953,232.754,138.406z M239.812,121.7
		c1.846-0.549,3.743-1.357,4.216-1.797c0.473-0.441,1.863-1.364,3.088-2.051c2.549-1.429,3.994-2.608,9.085-7.413
		c5.633-5.317,10.723-8.466,14.532-8.99c3.471-0.478,4.584-0.123,3.383,1.078c-0.875,0.875-0.353,2.523,0.799,2.523
		c1.401,0,2.271-4.858,1.349-7.539c-0.889-2.587-1.88-3.03-2.201-0.983c-0.321,2.053-4.574,2.756-9.851,1.631
		c-2.124-0.453-2.2-0.403-1.804,1.174c0.354,1.411,0.16,1.695-1.357,1.985c-1.794,0.343-8.328-1.717-9.026-2.846
		c-0.713-1.152-2.261-0.617-2.261,0.782c0,1.229-0.271,1.349-2.308,1.018c-1.269-0.206-3.226-0.833-4.348-1.393
		c-1.124-0.56-2.437-1.019-2.921-1.019c-0.484,0-0.879-0.259-0.879-0.577c0-0.317-0.516-0.75-1.144-0.961
		c-1.236-0.415-3.556-1.809-4.085-2.454c-0.923-1.128-4.805-2.543-6.993-2.55c-2.723-0.008-8.286-1.34-10.46-2.503
		c-0.904-0.483-1.27-1.167-1.058-1.976c0.288-1.099-0.143-1.265-3.903-1.505c-3.106-0.197-4.849-0.694-6.58-1.876
		c-2.101-1.434-2.211-1.643-1.019-1.935c1.481-0.362,1.807-1.565,0.476-1.756c-0.468-0.066-2.228-0.302-3.909-0.522
		c-2.212-0.291-3.785-1.04-5.695-2.714c-2.552-2.238-2.604-2.364-1.606-3.889c0.893-1.362,0.901-1.576,0.065-1.576
		c-0.532,0-1.742,0.61-2.688,1.354c-1.338,1.053-1.723,1.927-1.723,3.921c0,1.412,0.295,2.566,0.655,2.566
		c0.359,0,0.653-0.441,0.653-0.979c0-0.54,0.442-0.981,0.981-0.981s0.98,0.371,0.98,0.823c0,0.963,2.127,2.476,4.896,3.481
		c1.589,0.577,2.162,1.37,3.064,4.248c0.61,1.946,1.128,4.531,1.15,5.745c0.093,5.125,3.422,16.374,6.104,20.623
		c2.907,4.605,10.527,9.307,16.808,10.373C228.278,122.919,236.69,122.626,239.812,121.7z M124.287,57.669
		c0-0.898,0.294-1.634,0.655-1.634c0.358,0,0.653-0.62,0.653-1.376c0-0.956-0.3-1.262-0.98-1.001
		c-1.506,0.578-1.236-2.349,0.411-4.443c1.041-1.324,1.204-1.957,0.647-2.514c-1.205-1.205-3.424,1.503-3.414,4.164
		c0.02,4.582,0.198,7.465,0.495,7.944C123.41,59.873,124.287,59.221,124.287,57.669z"/>
</g>
<radialGradient id="SVGID_1_" cx="206.3384" cy="73.3105" r="16.1095" gradientTransform="matrix(0.9922 0.0216 0.0216 1.0759 24.4512 -43.8145)" gradientUnits="userSpaceOnUse">
	<stop  offset="0" style="stop-color:#FFFFFF"/>
	<stop  offset="0.5942" style="stop-color:#FDFDFD"/>
	<stop  offset="0.808" style="stop-color:#F6F6F6"/>
	<stop  offset="0.9601" style="stop-color:#EBEBEB"/>
	<stop  offset="1" style="stop-color:#E6E6E6"/>
</radialGradient>
<path fill="url(#SVGID_1_)" d="M246.841,35.618c2.178,8.951-3.252,17.956-12.132,20.113c-8.877,2.158-17.835-3.35-20.01-12.3
	c-2.176-8.95,3.254-17.955,12.132-20.113C235.71,21.161,244.667,26.668,246.841,35.618z"/>
<radialGradient id="SVGID_2_" cx="236.4512" cy="81.5063" r="16.1095" gradientTransform="matrix(1.0095 0.0114 0.0114 1.0536 20.1113 -40.0908)" gradientUnits="userSpaceOnUse">
	<stop  offset="0" style="stop-color:#FFFFFF"/>
	<stop  offset="0.5942" style="stop-color:#FDFDFD"/>
	<stop  offset="0.808" style="stop-color:#F6F6F6"/>
	<stop  offset="0.9601" style="stop-color:#EBEBEB"/>
	<stop  offset="1" style="stop-color:#E6E6E6"/>
</radialGradient>
<path fill="url(#SVGID_2_)" d="M276.139,44.49c2.128,8.745-3.487,17.618-12.544,19.82c-9.056,2.201-18.117-3.105-20.242-11.85
	c-2.126-8.745,3.489-17.618,12.545-19.82C264.955,30.439,274.015,35.746,276.139,44.49z"/>
<path id="Trace_Shape_4__x28_12_x29___x28_J_x29_" stroke="#000000" stroke-linejoin="round" d="M227.222,45.342
	c-2.064-1.671-2.773-5.518-1.455-7.895c1.123-2.024,4.549-3.523,6.736-2.944c2.334,0.618,4.8,3.31,5.029,5.493
	c0.105,1.002-0.469,2.786-1.282,3.989c-1.239,1.831-1.933,2.225-4.37,2.48C229.672,46.697,228.566,46.43,227.222,45.342z
	 M254.156,51.907c-0.792-0.286-2.026-1.477-2.742-2.646c-1.143-1.866-1.22-2.404-0.625-4.39c1.738-5.801,8.584-6.781,11.382-1.628
	C264.962,48.383,259.812,53.95,254.156,51.907z"/>
<path fill="#FF921B" stroke="#7F490D" stroke-linejoin="round" d="M221.334,71.167c0,0,0-13.833,10.666-18.75
	c0,0,10.667-5.5,17.917,3.583c0,0,11.667,15.167-2.75,28.167c0,0-8.499,6.584-17.916,1.417
	C229.251,85.584,221.668,81.417,221.334,71.167z"/>
<path fill="#FFFFFF" d="M209.5,356c0,0-15-59-6.5-91.5c0,0,3.167-4.5,8,0.25C211,264.75,219,314,209.5,356z"/>
</svg>
