<?xml version="1.0" encoding="utf-8"?>
<!-- Generator: Adobe Illustrator 16.0.0, SVG Export Plug-In . SVG Version: 6.00 Build 0)  -->
<!DOCTYPE svg PUBLIC "-//W3C//DTD SVG 1.1//EN" "http://www.w3.org/Graphics/SVG/1.1/DTD/svg11.dtd">
<svg version="1.1" id="Layer_1" xmlns="http://www.w3.org/2000/svg" xmlns:xlink="http://www.w3.org/1999/xlink" x="0px" y="0px"
	 width="400px" height="400px" viewBox="0 0 400 400" enable-background="new 0 0 400 400" xml:space="preserve">
<path fill="#754B41" d="M375.333,235.833c2.25,13.25-3.083,16.417-3.083,16.417c1.5,10.5-17,24-17,24c4,9.25-8.25,15.25-8.25,15.25
	c-5.75,9.75-10.5,5.25-10.5,5.25c-2-1.25-7.75-2.875-7.75-2.875c-19.667-2.834-21.751,9.127-21.751,9.127
	c-1.667-9.667,3.333-13.5,3.333-13.5c-7.5,1.5-9.833,7.498-9.833,7.498c0-6.333,5.125-9.625,5.125-9.625
	c-7.667,0.833-11.125,11.792-11.125,11.792C294,291.834,297.167,288,297.167,288c-6.667,2.166-11.917,9.5-11.917,9.5
	c-3.833,7.167-2.083,20.167-2.083,20.167c-7-5.667-5.833-16.167-5.833-16.167c-6.333,18.833-25.833,20-25.833,20
	c-2.833,6.833-0.167,18.834-0.167,18.834C243.5,333.168,243.875,322,243.875,322c-2,24.125-13.875,28.125-13.875,28.125
	c17.833-2.333,23.75,5.375,23.75,5.375c12.375,8.875,2.125,9.875,2.125,9.875c1.625,10-10.25,3.875-10.25,3.875
	c-5.375,14-28.25,5.625-28.25,5.625C204,380,197.875,371,197.875,371c-4.833,5-17.875-0.25-17.875-0.25
	c-8.625-8.75-1-19.125-1-19.125c-10,7.125-21.625,0.875-21.625,0.875c-14.042-5.585-5.542-17.499-5.542-17.499
	c5.5-9,1.917-13.251,1.917-13.251c-4.833-0.334-8.75-4.875-8.75-4.875c-14.125,9.25-9.833,2.126-9.833,2.126
	c-3.042,4.124-9.5,4.833-9.5,4.833C123,337.167,129,341.501,129,341.501c4.167,5.667-10.667,5.333-10.667,5.333
	c-6.833,0-7.521-6.146-7.521-6.146c4.062,6.938-0.979,6.98-0.979,6.98c-1.833,1.5-8.167,0.333-8.167,0.333
	c-10.5,0.333-12.5-15.667-12.5-15.667c-3.333-28.167-7.333-29.501-7.333-29.501C49.5,308.5,37.75,261.5,37.75,261.5
	c-8.75-27,7.417-44.667,7.417-44.667c14-12.334,14.333-19.5,14.333-19.5c5.167-24.167-21.333-20.167-21.333-20.167
	C56,163.667,69.5,180.375,69.5,180.375c12.333,13.958,3.75,29.375,3.75,29.375c-6.125,12.25,3.625,28.125,3.625,28.125
	c7.375,8.5,16.75-8.25,16.75-8.25c3.875-6.75,5.376-17.318,12.5-22.75c9.468-7.219,21.375-21.208,21.375-21.208
	c19-16.5,27.5-18.917,27.5-18.917c28.5,1.5,29.667-23.083,29.667-23.083c63.167-1.833,118.751,77.083,118.751,77.083
	c32.917,0.249,29.5,15.499,29.5,15.499s3.584-7.749,15.417-11.916s0,0,0,0s6.831-3.834,5.666-11.084s0,0,0,0
	s9.584,0.834,7.917,13.834c0,0,4.833-2.25,2.667-7.584c0,0,9,3.001,6.167,12.584l1.333-2.667L375.333,235.833"/>
<path fill="#754B41" stroke="#000000" stroke-linecap="round" stroke-miterlimit="10" d="M160.333,175
	c-11.333-3.333-14.667-9.833-14.667-9.833c37.667,8.333,39-21.5,39-21.5s26.708,6.208,24.208,15.833"/>
<path fill="#966B5F" stroke="#1F2420" stroke-linecap="round" stroke-miterlimit="10" d="M301.5,150.25c0,0,7.875-18.875-4.625-31.5
	c0,0-9.375-10.083-13.292-17c0,0-9.583-19-31.833-16.75c0,0,6.562,0,6.125-2.438c0,0-0.542-1.271-7.876-1.145
	c0,0-7.292,0.249-12.562,2.583c0,0-6.147,3.458-9.73,1.458c0,0-10.167-6.25-17.958,0.042c0,0,7.333-2.541,11.042,2.542
	c0,0-20.104-3.229-26.229,9.646c0,0,3.688-3.625,9.688-3.5c0,0-11.5,14.625-23.438,16.25c0,0,1.875,2.688,10.188,0.875
	c0,0-9.688,10.812-6.562,35.062c0,0,1.438,8-2.062,14.375"/>
<radialGradient id="SVGID_1_" cx="182.3809" cy="112.4053" r="15.4846" gradientTransform="matrix(0.8484 -0.2717 0.1581 0.6898 50.5604 93.2831)" gradientUnits="userSpaceOnUse">
	<stop  offset="0" style="stop-color:#FFFFFF"/>
	<stop  offset="0.5149" style="stop-color:#FDFDFD"/>
	<stop  offset="0.7003" style="stop-color:#F6F6F6"/>
	<stop  offset="0.8325" style="stop-color:#EBEBEB"/>
	<stop  offset="0.9387" style="stop-color:#DADADA"/>
	<stop  offset="1" style="stop-color:#CCCCCC"/>
</radialGradient>
<path fill="url(#SVGID_1_)" stroke="#000000" stroke-miterlimit="10" d="M235.968,112.959c3.109,5.561-0.255,13.357-7.518,17.415
	c-7.261,4.056-15.664,2.836-18.771-2.726c-3.108-5.561,1.258-11.358,8.518-15.415C225.459,108.177,232.862,107.397,235.968,112.959z
	"/>
<path fill="#1F2420" d="M206.25,126.419c0,0-3.208,3.079-3.5,7.581c0,0-0.75-6.334,4.25-11.167c0,0,9.875-16.458,21.5-16.958
	c0,0,6.875,0.375,8.125,5.25c0,0-1.25,1.25-7-1.375c0,0-5.125-2.458-12.5,4.875c0,0-4,5.5-10.75,11.75"/>
<radialGradient id="SVGID_2_" cx="220.2588" cy="101.0059" r="15.4841" gradientTransform="matrix(0.8301 0.2913 -0.3123 0.6693 107.3505 -26.3785)" gradientUnits="userSpaceOnUse">
	<stop  offset="0" style="stop-color:#FFFFFF"/>
	<stop  offset="0.5149" style="stop-color:#FDFDFD"/>
	<stop  offset="0.7003" style="stop-color:#F6F6F6"/>
	<stop  offset="0.8325" style="stop-color:#EBEBEB"/>
	<stop  offset="0.9387" style="stop-color:#DADADA"/>
	<stop  offset="1" style="stop-color:#CCCCCC"/>
</radialGradient>
<path fill="url(#SVGID_2_)" stroke="#1F2420" stroke-miterlimit="10" d="M273.777,106.643c-0.873,6.042-8.178,9.984-16.318,8.805
	c-8.139-1.179-14.026-7.032-13.149-13.074c0.875-6.042,7.773-7.879,15.912-6.701C268.361,96.853,274.655,100.602,273.777,106.643z"
	/>
<path id="Trace_Shape_4__x28_12_x29___x28_J_x29__1_" stroke="#000000" stroke-linejoin="round" d="M221.758,122.861
	c-1.616-1.308-2.17-4.319-1.139-6.179c0.879-1.584,3.561-2.757,5.272-2.304c1.827,0.483,3.757,2.59,3.937,4.299
	c0.083,0.784-0.367,2.181-1.004,3.122c-0.969,1.433-1.512,1.741-3.42,1.941C223.676,123.922,222.81,123.713,221.758,122.861z"/>
<path id="Trace_Shape_4__x28_12_x29___x28_J_x29__2_" stroke="#000000" stroke-linejoin="round" d="M253.508,108.611
	c-1.616-1.308-2.17-4.319-1.139-6.179c0.879-1.584,3.561-2.757,5.272-2.304c1.827,0.483,3.757,2.59,3.937,4.299
	c0.083,0.784-0.367,2.181-1.004,3.122c-0.969,1.433-1.512,1.741-3.42,1.941C255.426,109.672,254.56,109.463,253.508,108.611z"/>
<path fill="#1F2420" d="M244.208,102c0,0,0.698-1.5,2.725-2.846c0.088-0.058,6.161-3.778,16.817-1.82c0,0,10.125,2.083,9.921,9.948
	c0,0,3.533-6.565-2.713-10.261C264.832,93.395,247.141,91.219,244.208,102z"/>
<path fill="none" stroke="#1F2420" stroke-width="0.75" stroke-linecap="round" stroke-miterlimit="10" d="M252.125,97
	c0,0-0.833,7.188-2.75,10.125c0,0-1.083,1.813-2.458,2.125"/>
<path fill="none" stroke="#1F2420" stroke-width="0.75" stroke-linecap="round" stroke-miterlimit="10" d="M249,97.75
	c0,0-0.5,4.438-1.583,5.997c0,0-1.125,1.619-2.042,1.919"/>
<path fill="none" stroke="#1F2420" stroke-width="0.75" stroke-linecap="round" stroke-miterlimit="10" d="M261.956,96.583
	c0,0,0.125,10.446,3,13.688"/>
<path fill="none" stroke="#1F2420" stroke-width="0.75" stroke-linecap="round" stroke-miterlimit="10" d="M268.5,99.021
	c0,0-1.812,5.745,1,9.905"/>
<path fill="none" stroke="#1F2420" stroke-width="0.75" stroke-linecap="round" stroke-miterlimit="10" d="M271,100.804
	c0,0-0.625,2.341,0.625,4.862"/>
<path fill="none" stroke="#1F2420" stroke-width="0.75" stroke-linecap="round" stroke-miterlimit="10" d="M265.5,97.121
	c0,0-1.25,7.204,1.625,10.445"/>
<path fill="none" stroke="#1F2420" stroke-width="0.75" stroke-linecap="round" stroke-miterlimit="10" d="M258.375,95.5
	c0,0,0.125,13.562,3,17.771"/>
<path fill="none" stroke="#1F2420" stroke-width="0.75" stroke-linecap="round" stroke-miterlimit="10" d="M255.32,96.667
	c0,0-0.289,4.438-0.917,5.997c0,0-0.651,1.619-1.182,1.919"/>
<g>
	<path fill="none" stroke="#1F2420" stroke-width="0.75" stroke-linecap="round" stroke-miterlimit="10" d="M213.75,117.224
		c0,0,2.951,6.606,2.801,10.111c0,0-0.051,1.759-0.489,3.103"/>
	<path fill="none" stroke="#1F2420" stroke-width="0.75" stroke-linecap="round" stroke-miterlimit="10" d="M210.944,120.526
		c0,0,1.712,3.005,1.699,4.965c0,0-0.018,1.791-0.777,2.693"/>
	<path fill="none" stroke="#1F2420" stroke-width="0.75" stroke-linecap="round" stroke-miterlimit="10" d="M221.25,110.5
		c0,0,4.929,9.832,9.056,11.153"/>
	<path fill="none" stroke="#1F2420" stroke-width="0.75" stroke-linecap="round" stroke-miterlimit="10" d="M228.438,108.938
		c0,0,2.458,5.731,7,7.875"/>
	<path fill="none" stroke="#1F2420" stroke-width="0.75" stroke-linecap="round" stroke-miterlimit="10" d="M232.423,109.927
		c0,0,0.657,2.332,3.018,3.863"/>
	<path fill="none" stroke="#1F2420" stroke-width="0.75" stroke-linecap="round" stroke-miterlimit="10" d="M224.814,108.566
		c0,0,2.601,7.833,6.727,9.155"/>
	<path fill="none" stroke="#1F2420" stroke-width="0.75" stroke-linecap="round" stroke-miterlimit="10" d="M217.859,112.807
		c0,0,7.516,10.693,9.016,14.568"/>
	<path fill="none" stroke="#1F2420" stroke-width="0.75" stroke-linecap="round" stroke-miterlimit="10" d="M216.14,115.057
		c0,0,2.016,3.965,2.271,5.625c0,0,0.308,1.349-0.038,2.254"/>
</g>
<path fill="none" stroke="#1F2420" stroke-width="0.75" stroke-linecap="round" stroke-miterlimit="10" d="M258.917,194.417
	c0,0-1.083,3.667,1.833,7.917c0,0,9,16.041,5.417,23.833"/>
<path fill="#966B5F" d="M254.062,260.438c0,0-4.229,0.063-8.229,4.563c0,0-4.792,5.583-14,1.166c0,0-3.958-1.916,0.292-8.583
	c0,0-5.292-0.666-4.375-6.334c0,0-18.916,10.169-8.416,28.668c0,0,6.415,11.995,20.832,9.577
	C240.165,289.495,260.417,262.834,254.062,260.438z"/>
<path fill="#412A23" stroke="#1A1A1A" stroke-miterlimit="10" d="M228.447,250.663c0,0-1.843,3.896,0.898,5.819
	c0,0,2.883,1.873,4.491-0.74c0,0,1.229-1.528-1.135-3.747C232.702,251.995,229.629,248.987,228.447,250.663z"/>
<path fill="none" stroke="#1F2420" stroke-width="0.75" stroke-linecap="round" stroke-miterlimit="10" d="M230.5,265.168
	c0,0-1.314-5.418,2.833-8.751"/>
<path fill="#966B5F" d="M183,160.188c-1.206,3.179,4.75-12.312,31.5-2.312c23.263,8.696,56.833,56.293,56.833,56.293
	c-3.167,14.834-31.833,7.666-31.833,7.666c-18.333-5-22.333-21.333-22.333-21.333c-12-2.667-17.667-7.667-17.667-7.667
	s-14.209-6.208-11.834-20.833c0,0,3.333-12,1.334-16.126C189,155.875,184.375,156.562,183,160.188z"/>
<path fill="#FF678B" stroke="#A73948" stroke-width="2" stroke-miterlimit="10" d="M225.375,170.75c0,0,8.792,8.5,8.5,19.75
	c0,0-1.292,13.75,6.875,18.75c0,0,9.625,6.625,27.375,2.5L266,191.417l-18.333-24.167l-17.833-2.917L225.375,170.75z"/>
<path fill="none" stroke="#1F2420" stroke-linecap="round" stroke-miterlimit="10" d="M257.25,223.25c0,0,8.75,0,12.25-5.25"/>
<path fill="none" stroke="#1F2420" stroke-linecap="round" stroke-miterlimit="10" d="M361.917,226.416
	c0,0,1.916-9.334-7.917-13.167c0,0,1.5,7.834-6.417,11.334c0,0-13.25,4.917-14.25,11.917c0,0,1-15-21.833-14.75"/>
<path fill="#966B5F" d="M238.125,289.958c0,0,6.75,3.292,10.75-1.083c0,0,3-3.562,5.5-2.875c0,0,6.792,2.168,14.042-0.749
	c0,0,19.333-6.666,24.417-27.752l-0.24-1.062c1.281,3.844,0.531,6.688,0.531,6.688s6.667-4.54,5.292-11.54
	c0,0-1.833-6.001,4.958-11.71c0,0,7.042-5.124,3.875-18.75l0.125-0.375c3.75,1.188,3,6.688,3,6.688s5.375-5.687,1.542-13.521
	c0,0,2,0.333,3,2.833c0,0,2.25-4.918-3.5-9.834c0,0-4-3.499-3.833-9.583l-44.312,9.4l4.979,16.934
	c1.417,4.583-3.25,10.583-3.25,10.583c-2.5,2.625-1,7-1,7s2,5.438-3.062,7c0,0-8.375,2.438-8.125,15.875"/>
<path fill="#966B5F" stroke="#1F2420" stroke-linecap="round" stroke-miterlimit="10" d="M307.25,221.125
	c3.167,13.626-3.875,18.75-3.875,18.75c-6.792,5.709-4.958,11.71-4.958,11.71c1.375,7-4.979,11.478-4.979,11.478"/>
<path fill="#1F2420" d="M236.25,168.875c0,0,7.875,9.5,6.5,21.5c0,0-2.375,11.875,17.875,8.75L261.25,182l-15.625-15.625
	L236.25,168.875z"/>
<path fill="#966B5F" d="M292.912,143.75c10.945,1.417,9.793,15.5,9.793,15.5c0.164,8.833,3.785,13.917,3.785,13.917
	c4.526,5.958,3.354,11.333,3.354,11.333c0-1.75-1.461-3-1.461-3c-0.247,4.25,2.14,8.916,2.14,8.916
	c4.526,11-0.905,17.083-0.905,17.083s-38.73,11.414-46.243-0.75c-6.156-9.969-3.833-12.583-3.833-12.583
	c-11.083-9.458-12.292-20.917-12.292-20.917s-9.25-0.124-15.5-7.708c0,0-5.334,9.625-14.001,8.125c0,0-23.248-1.791-25.373-14.041"
	/>
<path fill="none" stroke="#1F2420" stroke-width="0.75" stroke-linecap="round" stroke-miterlimit="10" d="M258.917,194.417
	c0,0-1.104,2.458,1.833,7.917c0,0,9,16.041,5.417,23.833"/>
<path fill="none" stroke="#1F2420" stroke-width="0.75" stroke-linecap="round" stroke-miterlimit="10" d="M246.167,170.667
	c0,0,2.417,15.75,14.167,24.333c0,0,5.385,3.406,5.833,8"/>
<path fill="none" stroke="#1F2420" stroke-width="0.75" stroke-linecap="round" stroke-miterlimit="10" d="M307.583,197.333
	c-0.167,6.083,3.833,9.583,3.833,9.583c5.75,4.916,3.5,9.834,3.5,9.834c-1-2.5-3-2.833-3-2.833c3.833,7.834-1.25,13.583-1.25,13.583
	"/>
<path fill="none" stroke="#1F2420" stroke-linecap="round" stroke-miterlimit="10" d="M268.375,225.062
	c0.688,4.688-3.375,9.188-3.375,9.188c-2.5,2.625-1,7-1,7s2,5.438-3.062,7c0,0-8.375,2.438-8.125,15.875"/>
<path fill="none" stroke="#1F2420" stroke-linecap="round" stroke-miterlimit="10" d="M310.875,206.188c0,0,3.875-7,0.125-15.771
	c0,0-2.417-4.666-2.167-8.916c0,0,1.479,1.25,1.479,3c0,0,1.188-5.375-3.396-11.333c0,0-3.667-5.084-3.833-13.917
	c0,0,1.167-14.083-9.917-15.5"/>
<path fill="none" stroke="#1F2420" stroke-width="0.75" stroke-linecap="round" stroke-miterlimit="10" d="M237.25,289.875
	c0,0,7.625,3.375,11.625-1c0,0,3-3.562,5.5-2.875c0,0,6.792,2.168,14.042-0.749c0,0,19.333-6.666,24.417-27.752"/>
<path fill="none" stroke="#1F2420" stroke-linecap="round" stroke-miterlimit="10" d="M253.083,260.499c0,0-3.25,0.002-7.25,4.502
	c0,0-4.792,5.583-14,1.166c0,0-5.708-2.709-3.292-9.957"/>
<path fill="none" stroke="#1F2420" stroke-linecap="round" stroke-miterlimit="10" d="M227.75,251.25
	c0,0-18.916,10.169-8.416,28.668c0,0,6.415,11.995,20.832,9.577"/>
<path fill="none" stroke="#1F2420" stroke-width="0.75" stroke-linecap="round" stroke-miterlimit="10" d="M219.333,174
	c0,0,8,0,12.333-8.333c0,0,4.708,6.667,15.042,7.75"/>
<path fill="none" stroke="#1F2420" stroke-linecap="round" stroke-miterlimit="10" d="M189,182.167c0,0,1.491,7.667,14.167,13.333
	c0,0,4.333,2.501,14,5"/>
<path fill="none" stroke="#1F2420" stroke-linecap="round" stroke-miterlimit="10" d="M185.833,169.667
	c0,0,4.333-5.167,3.833-13.833"/>
<path fill="none" stroke="#1F2420" stroke-linecap="round" stroke-miterlimit="10" d="M216.667,194.334
	c0,0,0.167,9.667,5.167,15.167"/>
<path fill="none" stroke="#1F2420" stroke-linecap="round" stroke-miterlimit="10" d="M222,204.168c0,0-2,7.834,6.167,12.667"/>
<path fill="#754B41" stroke="#000000" stroke-linecap="round" stroke-miterlimit="10" d="M127,186.5c0,0-7.5,6-14.25,3.5
	c0,0,2.5,3.667,7.75,4.667"/>
<path fill="#754B41" stroke="#000000" stroke-linecap="round" stroke-miterlimit="10" d="M104.25,214.75c-5-0.25-10.25,6-10.25,6
	c2.75-10,11.75-13.5,11.75-13.5"/>
<path fill="none" stroke="#1F2420" stroke-linecap="round" stroke-miterlimit="10" d="M85.125,242c0,0-7.625,0.125-11.125-8.875
	c0,0-5.667-11.292-1.125-22.625c0,0,7.625-13.5,0-25.75c0,0-14.375-21.75-34.125-8c0,0,22.375-3.5,21.5,14.875c0,0,1,11.625-12,22.5
	c0,0-24.75,18.625-5.5,61.625c0,0,13.167,31.916,39.083,27.083c0,0,5.792,5.667,6.792,27.167c0,0,0.75,17.125,13.875,18.5
	c0,0,10.062,1.438,9.812-3.812c0,0,3.812,3.438,10.125,2.125c0,0,8.25-0.438,7.125-4.062c0,0-0.312-1.062-1.562-2.062
	c0,0-5.75-4.25-2.333-16.854"/>
<path fill="none" stroke="#1F2420" stroke-linecap="round" stroke-miterlimit="10" d="M40.875,176.125c0,0,11.5-2.125,17.625,5.5
	c0,0,4.75,6.75,1.75,13.5"/>
<path fill="none" stroke="#1F2420" stroke-linecap="round" stroke-miterlimit="10" d="M77.333,256c0,0,9.333,2.334,13.667-4.333"/>
<path fill="none" stroke="#1F2420" stroke-linecap="round" stroke-miterlimit="10" d="M80.25,267.5c0,0-3,8.25,1.5,13.25
	c0,0,3,3.75,3,8.25"/>
<path fill="none" stroke="#1F2420" stroke-width="1.5" stroke-linecap="round" stroke-miterlimit="10" d="M50.75,251.75
	c0,0-2,7.25,3,12"/>
<path fill="none" stroke="#1F2420" stroke-width="0.5" stroke-linecap="round" stroke-miterlimit="10" d="M59.25,265.75
	c0,0,3.5,5.75,3,10.5"/>
<path fill="none" stroke="#1F2420" stroke-linecap="round" stroke-miterlimit="10" d="M88.25,289c0,0,3.5,6.5,2.5,9.75"/>
<path fill="none" stroke="#1F2420" stroke-linecap="round" stroke-miterlimit="10" d="M133,257.75c0,0,9,7.5,10.5,12.25
	c0,0-2.25-1.75-6-2.25c0,0,7,7,5.75,19.75"/>
<path fill="none" stroke="#1F2420" stroke-linecap="round" stroke-miterlimit="10" d="M176,269.25c0,0-11.25,9.75-8.5,20.5
	c0,0,2.25-4.5,4.25-4.75c0,0-6.75,3.75-6.25,18.5"/>
<path fill="none" stroke="#1F2420" stroke-linecap="round" stroke-miterlimit="10" d="M104.125,341.75c0,0,0.625,5,4.375,6.375"/>
<path fill="none" stroke="#1F2420" stroke-linecap="round" stroke-miterlimit="10" d="M105.5,320c0,0,1.625,0.875,3.625,0.875
	c0,0-0.5,9.375,0.875,14.75"/>
<path fill="none" stroke="#1F2420" stroke-linecap="round" stroke-miterlimit="10" d="M119.125,341.062c0,0,5.75,1.188,6.188,5.125"
	/>
<path fill="none" stroke="#1F2420" stroke-linecap="round" stroke-miterlimit="10" d="M123.25,323.625c0,0,9.75,0.875,17.625-10.625
	"/>
<path fill="none" stroke="#1F2420" stroke-linecap="round" stroke-miterlimit="10" d="M135.875,321.5c0,0,14.375-4,16.125-14.875
	c0,0,0.875-7.625-1.375-13.75"/>
<path fill="none" stroke="#1F2420" stroke-linecap="round" stroke-miterlimit="10" d="M145.375,317c0,0,2.75,4.875,11.75,5"/>
<path fill="none" stroke="#1F2420" stroke-linecap="round" stroke-miterlimit="10" d="M153.375,321.875c0,0,3.375,4.5-0.75,11.25
	c0,0-8.125,9.625-0.125,16.625c0,0,12.875,11,27.25,2"/>
<path fill="none" stroke="#1F2420" stroke-linecap="round" stroke-miterlimit="10" d="M172,330c0,0-2.75,10.25,3.5,13.75"/>
<path fill="none" stroke="#1F2420" stroke-linecap="round" stroke-miterlimit="10" d="M175.75,335.5c0,0-2.75,11.75,7.75,19.75"/>
<path fill="none" stroke="#1F2420" stroke-linecap="round" stroke-miterlimit="10" d="M172,308.5c0,0-5.75,4.25-2.25,12.75"/>
<path fill="none" stroke="#1F2420" stroke-linecap="round" stroke-miterlimit="10" d="M184.75,302.5c0,0-4,3.25-3.75,8"/>
<path fill="none" stroke="#1F2420" stroke-linecap="round" stroke-miterlimit="10" d="M185.75,312.75c0,0-0.75,7.5,1.25,11.25"/>
<path fill="none" stroke="#1F2420" stroke-linecap="round" stroke-miterlimit="10" d="M203.25,350c0,0-2.75,2-1.25,8.5"/>
<path fill="none" stroke="#1F2420" stroke-linecap="round" stroke-miterlimit="10" d="M177.875,353c0,0-6.25,15.375,4.375,19
	c0,0,7,2.75,15.5-0.25c0,0,9.25,8.75,19.25,3c0,0,21.375,8.375,28.625-5.5"/>
<path fill="none" stroke="#1F2420" stroke-linecap="round" stroke-miterlimit="10" d="M239,361.75c0,0,6.375,12,15.125,8.875
	c0,0,3-0.75,1.75-5.25"/>
<path fill="none" stroke="#1F2420" stroke-linecap="round" stroke-miterlimit="10" d="M246.75,361.125c0,0,5.875,6.375,11.875,3.625
	c0,0,2.625-1.875,0.25-5"/>
<path fill="none" stroke="#1F2420" stroke-linecap="round" stroke-miterlimit="10" d="M224,353.25c0,0,17.875-4.625,19.625-28.625
	c0,0,0.792,10.793,7.708,15.709c0,0-4.958-15.584,3.542-23.459"/>
<path fill="none" stroke="#1F2420" stroke-linecap="round" stroke-miterlimit="10" d="M252.125,321.5c0,0,17.875,0.125,25.25-21.25
	c0,0-2.375,11.125,5.875,17.875c0,0-4.875-22.375,13-29.5c0,0-2.875,4.959-1.75,10.542c0,0,1.5-7.667,9.75-11.042
	c0,0-4.75,4.5-3.625,9.25c0,0,2.79-7.121,9.708-7.873c0,0-5.584,5.627-3.333,13.5c0,0,6.876-16.127,27.626-6.627
	c0,0,10.625,5.5,13.125-7.625"/>
<path fill="none" stroke="#1F2420" stroke-linecap="round" stroke-miterlimit="10" d="M347.375,291.625c0,0,13-5,7-18.875"/>
<path fill="none" stroke="#1F2420" stroke-linecap="round" stroke-miterlimit="10" d="M355.875,276.375c0,0,19.75-15,15.75-28.125"
	/>
<path fill="none" stroke="#1F2420" stroke-linecap="round" stroke-miterlimit="10" d="M372.5,253c0,0,7-6.75,2.375-18.875
	c0,0-2.042-4.041-3.292-5.957"/>
<path fill="none" stroke="#1F2420" stroke-linecap="round" stroke-miterlimit="10" d="M370.833,233.333c0,0,4.083-8.418-5.75-14.084
	"/>
<path fill="none" stroke="#1F2420" stroke-linecap="round" stroke-miterlimit="10" d="M322,270.667c0,0-4.499,19.333,8.167,24.166"
	/>
<path fill="#1F2420" d="M333.667,284.168c0,0-5.833-5,1.833-19.167c0,0,7.167-28.833,16.833-25.333c0,0,15,5.167,13.833,14.333
	c0,0-3.333,11.167-12,13.167C354.167,267.168,345.001,292.168,333.667,284.168z"/>
</svg>
